<?xml version="1.0" standalone="no"?>
<!DOCTYPE svg PUBLIC "-//W3C//DTD SVG 1.1//EN" "http://www.w3.org/Graphics/SVG/1.1/DTD/svg11.dtd" >
<svg xmlns="http://www.w3.org/2000/svg" xmlns:xlink="http://www.w3.org/1999/xlink" version="1.1">
<metadata>
Created by FontForge 20201107 at Thu May 15 15:41:50 2025
 By 
Copyright (c) 2018 Commercial Type, Inc.. All rights reserved.
</metadata>
<defs>
<font id="CanelaDeck-Regular" horiz-adv-x="528" >
  <font-face 
    font-family="Canela Deck Regular Trial"
    font-weight="400"
    font-stretch="normal"
    units-per-em="2048"
    panose-1="0 0 0 0 0 0 0 0 0 0"
    ascent="1595"
    descent="-453"
    x-height="1010"
    cap-height="1499"
    bbox="4 -455 2056 1624"
    underline-thickness="63"
    underline-position="-140"
    unicode-range="U+0020-201D"
  />
<missing-glyph horiz-adv-x="315" 
 />
    <glyph glyph-name=".notdef" horiz-adv-x="315" 
 />
    <glyph glyph-name=".null" horiz-adv-x="0" 
 />
    <glyph glyph-name="nonmarkingreturn" horiz-adv-x="682" 
 />
    <glyph glyph-name="space" unicode=" " horiz-adv-x="428" 
 />
    <glyph glyph-name="exclam" unicode="!" horiz-adv-x="481" 
d="M362 1499v-4l-94 -1069h-55l-92 1069v4h241zM242 -10q-58 0 -99 41.5t-41 97.5q0 60 40.5 100.5t99.5 40.5q57 0 97 -40.5t40 -100.5q0 -56 -40.5 -97.5t-96.5 -41.5z" />
    <glyph glyph-name="quotedbl" unicode="&#x22;" horiz-adv-x="661" 
d="M174 1061l-90 438h213l-92 -438h-31zM457 1061l-90 438h213l-93 -438h-30z" />
    <glyph glyph-name="quotesingle" unicode="'" horiz-adv-x="378" 
d="M174 1061l-90 438h213l-92 -438h-31z" />
    <glyph glyph-name="comma" unicode="," 
d="M104 -283l-20 31q65 48 99 107t34 116q0 33 -31.5 85t-72.5 96v4l198 147q50 -33 81.5 -85t31.5 -107q0 -58 -30 -118.5t-78.5 -111.5t-102 -92.5t-109.5 -71.5z" />
    <glyph glyph-name="hyphen" unicode="-" horiz-adv-x="620" 
d="M61 518v125h498v-125h-498z" />
    <glyph glyph-name="period" unicode="." 
d="M264 -10q-56 0 -96.5 41.5t-40.5 97.5q0 59 40 100t97 41t98 -41.5t41 -99.5q0 -56 -41 -97.5t-98 -41.5z" />
    <glyph glyph-name="zero" unicode="0" horiz-adv-x="1411" 
d="M705 -31q-169 0 -309.5 102t-222 281.5t-81.5 397.5q0 164 47.5 309t129.5 248t195.5 163t240.5 60q171 0 312 -101.5t222.5 -281t81.5 -397.5t-82 -397.5t-223 -281.5t-311 -102zM705 33q356 0 356 717q0 716 -356 716q-353 0 -353 -716q0 -717 353 -717z" />
    <glyph glyph-name="one" unicode="1" horiz-adv-x="749" 
d="M618 0h-440v4q63 81 83 143.5t20 171.5v852h-181v31q207 114 392 318h24v-1201q0 -111 19.5 -172.5t82.5 -142.5v-4z" />
    <glyph glyph-name="two" unicode="2" horiz-adv-x="1128" 
d="M950 0h-911v43q283 245 444 431.5t227 337t66 310.5t-69 252t-197 92q-49 0 -93 -19t-78.5 -47.5t-71.5 -79.5t-64.5 -98t-65.5 -120l-31 12l56 350q168 66 352 66q251 0 375.5 -110t124.5 -292q0 -111 -45.5 -219t-141.5 -222t-225.5 -228t-316.5 -254h385
q66 0 120 14.5t98 46t75 63t71 81.5l27 -11z" />
    <glyph glyph-name="three" unicode="3" horiz-adv-x="1175" 
d="M1094 471q0 -223 -156 -362.5t-408 -139.5q-108 0 -216.5 25.5t-172.5 64.5l-53 332l33 8q45 -74 77 -121.5t74.5 -99t81 -80t87 -47t102.5 -18.5q106 0 179 60.5t104.5 156t31.5 219.5q0 201 -87 302t-249 101q-146 0 -264 -84l-27 35l555 471h-647l88 205h850v-31
l-647 -548q59 20 148 20q100 0 191.5 -29.5t164.5 -86t116.5 -148t43.5 -205.5z" />
    <glyph glyph-name="four" unicode="4" horiz-adv-x="1189" 
d="M612 0v4q50 81 66 143t16 172v70h-671v41l671 1069h264l-843 -1038h579v461h234v-461h184l-16 -72h-168v-70q0 -111 15.5 -172.5t66.5 -142.5v-4h-398z" />
    <glyph glyph-name="five" unicode="5" horiz-adv-x="1120" 
d="M492 -31q-225 0 -363 90l-51 326l33 8q47 -87 85.5 -146.5t86 -111.5t100.5 -77t113 -25q143 0 231 115.5t88 320.5q0 210 -94.5 317t-271.5 107q-147 0 -275 -80l-29 18l111 668h762l-39 -205h-688l-68 -401q127 65 281 65q109 0 204 -29t169.5 -86t117.5 -150t43 -212
q0 -155 -72.5 -272.5t-196 -178.5t-277.5 -61z" />
    <glyph glyph-name="six" unicode="6" horiz-adv-x="1236" 
d="M915 1499q-217 -97 -353 -275.5t-193 -396.5q43 74 123.5 121t197.5 47q131 0 236.5 -56.5t169 -168.5t63.5 -260q0 -158 -71 -282.5t-190.5 -191.5t-264.5 -67q-160 0 -284.5 80.5t-190.5 216.5t-66 303q0 104 26 209t87.5 216.5t152.5 208.5t232 183.5t315 143.5z
M330 522q0 -100 17 -185.5t52 -155t95 -109t139 -39.5q135 0 212 115.5t77 330.5q0 219 -78.5 320.5t-216.5 101.5q-96 0 -171 -44.5t-110 -133.5q-16 -109 -16 -201z" />
    <glyph glyph-name="seven" unicode="7" horiz-adv-x="1085" 
d="M455 0h-236q172 640 660 1294h-801l47 205h932v-31q-489 -733 -602 -1468z" />
    <glyph glyph-name="eight" unicode="8" horiz-adv-x="1204" 
d="M610 1530q181 0 305.5 -98t124.5 -254q0 -48 -13 -93.5t-42.5 -92t-85.5 -86.5t-133 -66q348 -175 348 -445q0 -125 -70.5 -223t-189.5 -150.5t-262 -52.5q-137 0 -250 45.5t-182.5 136t-69.5 209.5q0 128 81.5 228t248.5 157q-133 74 -194.5 172.5t-61.5 208.5
q0 174 126 289t320 115zM356 1223q0 -59 21 -107.5t68 -91t108 -78.5t154 -80q149 110 149 312q0 137 -64.5 212.5t-183.5 75.5q-117 0 -184.5 -68t-67.5 -175zM264 362q0 -152 87.5 -240.5t242.5 -88.5q145 0 229 75.5t84 204.5q0 46 -10.5 84t-36.5 72.5t-57.5 63
t-84.5 60.5t-106.5 59t-134.5 65q-213 -123 -213 -355z" />
    <glyph glyph-name="nine" unicode="9" horiz-adv-x="1236" 
d="M322 2q147 67 260.5 177t180.5 232t105 263q-43 -75 -124 -122.5t-201 -47.5q-96 0 -180.5 33.5t-148 94.5t-100 153t-36.5 204q0 158 71 282.5t191 191.5t266 67q159 0 283 -80.5t190 -216.5t66 -303q0 -104 -26 -209t-87.5 -216.5t-152.5 -208.5t-232 -183.5
t-315 -143.5zM315 1022q0 -422 297 -422q95 0 169 43.5t108 130.5q18 105 18 203q0 100 -17 185.5t-51.5 155t-94 109t-138.5 39.5q-136 0 -213.5 -115t-77.5 -329z" />
    <glyph glyph-name="question" unicode="?" horiz-adv-x="878" 
d="M315 426h-55q14 90 54.5 167t86 133.5t89.5 118.5t73 152t29 203q0 133 -51 201.5t-146 68.5q-51 0 -93.5 -20t-79.5 -63.5t-65 -88.5t-65 -118l-26 8l45 291q131 51 292 51q206 0 315 -86.5t109 -253.5q0 -79 -22 -146.5t-59.5 -117.5t-84 -94.5t-98 -88.5t-97.5 -88
t-87 -103.5t-64 -125.5zM285 -10q-58 0 -98 41.5t-40 97.5q0 60 39.5 100.5t98.5 40.5q57 0 98 -41t41 -100q0 -56 -41 -97.5t-98 -41.5z" />
    <glyph glyph-name="A" unicode="A" horiz-adv-x="1353" 
d="M313 0h-299v4q68 71 106 144t89 208l436 1160h66l442 -1182q48 -129 89 -200.5t97 -129.5v-4h-409v4q27 41 22 135t-45 205l-80 211h-479l-39 -104q-103 -277 4 -447v-4zM373 618h432l-215 576z" />
    <glyph glyph-name="B" unicode="B" horiz-adv-x="1300" 
d="M1247 418q0 -90 -34 -164t-103.5 -132t-186.5 -90t-272 -32h-538v4q49 95 65.5 168t16.5 199v757q0 127 -16 199t-66 168v4q166 0 318 4t218 4q522 2 522 -350q0 -130 -75.5 -225t-237.5 -139q106 -14 184 -50.5t121.5 -88.5t63.5 -110.5t20 -125.5zM430 813h238
q73 1 127.5 30.5t84.5 78.5t44 105t14 118q0 144 -84 221.5t-240 77.5q-102 0 -184 -21v-610zM623 63q181 0 275.5 93t94.5 252q0 156 -78 249t-229 93h-256v-662q102 -25 193 -25z" />
    <glyph glyph-name="C" unicode="C" horiz-adv-x="1556" 
d="M1446 514l-43 -397q-48 -37 -215 -92.5t-348 -55.5q-231 0 -410 104t-274 281t-95 396q0 162 61.5 305.5t168.5 248t260 165.5t328 61q268 0 516 -98l45 -359l-29 -10q-104 151 -183 234t-170 126t-206 43q-138 0 -240.5 -53t-164 -151t-91.5 -225.5t-30 -286.5
q0 -125 19 -232.5t59 -197.5t100 -153.5t145.5 -98.5t190.5 -35q104 0 190 34.5t155.5 104t122.5 151t111 199.5z" />
    <glyph glyph-name="D" unicode="D" horiz-adv-x="1554" 
d="M113 0v4q50 82 66 143t16 168v869q0 107 -16 168t-66 143v4q126 0 275 4t286 4q387 0 603 -193.5t216 -555.5q0 -363 -213 -560.5t-606 -197.5h-561zM1229 748q0 360 -141 528t-433 168h-225v-1387l227 6q155 4 265.5 49.5t177.5 134.5t98 212t31 289z" />
    <glyph glyph-name="E" unicode="E" horiz-adv-x="1310" 
d="M115 0v4q44 104 62 175t18 167v807q0 97 -18 167.5t-62 174.5v4h946l80 -364l-29 -13q-26 27 -103 119.5t-129.5 140.5t-91.5 50l-356 14v-658h178q19 0 38.5 7t39.5 22.5t36 30t36.5 39.5t31.5 39.5t31.5 42t26.5 35.5h31v-486h-31q-8 10 -31 39.5t-37.5 47t-39 43
t-43.5 40.5t-44 26t-47 11h-176v-672l375 15q40 1 79 16t78 46t70 59.5t70 77.5t61 78.5t60 82.5l28 -10l-90 -418h-1048z" />
    <glyph glyph-name="F" unicode="F" horiz-adv-x="1232" 
d="M512 4v-4h-399v4q49 95 65.5 168t16.5 199v757q0 127 -16 199t-66 168v4h1007l80 -375l-29 -10q-31 32 -104 124t-126.5 143.5t-92.5 52.5l-418 14v-641h217q23 0 49 12t45.5 25.5t46.5 42t40 43.5t40 50t33 42h19v-485h-19q-7 9 -32 39.5t-39 47t-40.5 42.5t-46.5 40.5
t-46 25.5t-50 11h-217v-372q0 -129 16 -201t66 -166z" />
    <glyph glyph-name="G" unicode="G" horiz-adv-x="1615" 
d="M1460 186q-4 -3 -34 -25t-43.5 -30.5t-47 -30.5t-58 -33t-63.5 -29.5t-75.5 -28t-81.5 -20.5t-95.5 -15.5t-103.5 -4.5q-237 0 -420 104t-280 281t-97 396q0 163 58 305.5t163.5 248t263.5 166t347 60.5q108 0 222 -19.5t162.5 -34t139.5 -44.5l43 -345l-28 -10
q-147 210 -273 299.5t-285 89.5q-137 0 -243 -55t-172 -153t-99.5 -227t-33.5 -283q0 -123 18.5 -228.5t59.5 -196t102.5 -154.5t151 -100t200.5 -36q172 0 274.5 78t102.5 225q0 110 -19 179.5t-75 160.5v4h401v-4q-50 -94 -66 -166t-16 -201v-123z" />
    <glyph glyph-name="H" unicode="H" horiz-adv-x="1574" 
d="M113 0v4q49 95 65.5 168t16.5 199v757q0 127 -16 199t-66 168v4h399v-4q-50 -94 -66 -166t-16 -201v-323h715v323q0 128 -16 200.5t-66 166.5v4h399v-4q-50 -96 -66 -168t-16 -199v-757q0 -127 16 -199t66 -168v-4h-399v4q50 94 66 166.5t16 200.5v370h-715v-370
q0 -129 16 -201t66 -166v-4h-399z" />
    <glyph glyph-name="I" unicode="I" horiz-adv-x="624" 
d="M113 0v4q50 94 66 166t16 201v757q0 129 -16 201t-66 166v4h399v-4q-50 -94 -66 -166t-16 -201v-757q0 -129 16 -201t66 -166v-4h-399z" />
    <glyph glyph-name="J" unicode="J" horiz-adv-x="929" 
d="M756 338q0 -184 -104.5 -276.5t-291.5 -92.5q-131 0 -247 45l-37 351l26 10q123 -200 162 -251q75 -88 137 -91q55 0 88 46.5t33 143.5v905q0 127 -16 199t-66 168v4h398v-4q-50 -96 -66 -168t-16 -199v-790z" />
    <glyph glyph-name="K" unicode="K" horiz-adv-x="1380" 
d="M1372 0h-352l-557 739l364 447q97 119 123.5 190.5t-8.5 118.5v4h346v-4q-127 -64 -207.5 -132t-165.5 -173l-258 -313l467 -621q65 -86 120.5 -143.5t127.5 -108.5v-4zM113 0v4q49 95 65.5 168t16.5 199v757q0 127 -16 199t-66 168v4h399v-4q-50 -94 -66 -166t-16 -201
v-757q0 -129 16 -201t66 -166v-4h-399z" />
    <glyph glyph-name="L" unicode="L" horiz-adv-x="1232" 
d="M430 1128v-1079l322 14q59 2 118.5 33.5t114 88.5t97.5 112.5t92 130.5l26 -10l-92 -418h-995v4q49 95 65.5 168t16.5 199v757q0 127 -16 199t-66 168v4h399v-4q-50 -94 -66 -166t-16 -201z" />
    <glyph glyph-name="M" unicode="M" horiz-adv-x="1867" 
d="M1356 0v4q49 95 65.5 168t16.5 199v921l-553 -1247h-54l-573 1278l6 -915q2 -139 30.5 -218t117.5 -186v-4h-334l-12 4q78 107 103.5 186.5t25.5 217.5v802q-6 98 -39 157.5t-117 127.5v4h395l512 -1153l510 1153h373v-4q-94 -77 -125 -144.5t-31 -197.5v-782
q0 -127 16 -199t66 -168v-4h-399z" />
    <glyph glyph-name="N" unicode="N" horiz-adv-x="1468" 
d="M1198 -6l-940 1276l8 -862q0 -138 28 -217.5t114 -186.5v-4h-338v4q76 107 100.5 186t24.5 218v802q-6 99 -39.5 158t-120.5 127v4h340l846 -1137l-7 730q-1 138 -25.5 216.5t-98.5 186.5v4h317v-4q-75 -109 -100 -188t-25 -215v-1092z" />
    <glyph glyph-name="O" unicode="O" horiz-adv-x="1667" 
d="M831 -31q-143 0 -282.5 61.5t-247 164.5t-174 249t-66.5 304t66.5 304.5t174 250t247 165.5t282.5 62q114 0 228 -39t211.5 -111.5t173 -168t119 -216t43.5 -247.5t-43.5 -247t-119 -215t-173 -167t-211.5 -111t-228 -39zM831 33q163 0 279.5 94.5t173.5 254t57 366.5
q0 206 -57 366.5t-174 256t-279 95.5q-161 0 -277 -95.5t-172 -256t-56 -366.5t56 -365.5t172 -254.5t277 -95z" />
    <glyph glyph-name="P" unicode="P" horiz-adv-x="1208" 
d="M195 371v757q0 127 -16 199t-66 168v4h483q130 0 231 -22t166 -59.5t107 -91.5t59 -113t17 -128q0 -214 -160 -347.5t-451 -133.5h-135v-233q0 -129 16 -201t66 -166v-4h-399v4q49 95 65.5 168t16.5 199zM561 1436q-76 0 -131 -4v-764h127q79 0 142.5 21.5t107 59
t72.5 90t42 112t13 126.5q0 102 -28.5 174t-81.5 111.5t-117 56.5t-146 17z" />
    <glyph glyph-name="Q" unicode="Q" horiz-adv-x="1667" 
d="M1612 -301q-76 -47 -221 -47q-105 0 -203 28t-161 64t-122.5 87.5t-83 79.5t-47.5 60q-109 10 -214.5 53.5t-194.5 116t-157.5 165t-107.5 207t-39 235.5q0 158 66.5 304.5t174 250t247 165.5t282.5 62q114 0 228 -39t211.5 -111.5t173 -168t119 -216t43.5 -247.5
q0 -153 -63.5 -295.5t-166.5 -245t-237 -167t-273 -71.5q325 -198 836 -80zM831 33q163 0 279.5 94.5t173.5 254t57 366.5q0 206 -57 366.5t-174 256t-279 95.5q-161 0 -277 -95.5t-172 -256t-56 -366.5t56 -365.5t172 -254.5t277 -95z" />
    <glyph glyph-name="R" unicode="R" horiz-adv-x="1353" 
d="M512 4v-4h-399v4q49 95 65.5 168t16.5 199v757q0 127 -16 199t-66 168v4h522q268 0 393 -96t125 -268q0 -132 -73.5 -231.5t-219.5 -149.5l240 -469q65 -127 110.5 -179t126.5 -92v-14h-360l-365 713h-182v-342q0 -129 16 -201t66 -166zM590 1436q-80 0 -160 -2v-658h160
q319 0 319 357q0 72 -15.5 125t-51 94.5t-98.5 62.5t-154 21z" />
    <glyph glyph-name="S" unicode="S" horiz-adv-x="1161" 
d="M946 1470l41 -358l-29 -10q-94 198 -197.5 281t-219.5 83q-104 0 -163 -57t-59 -156q0 -53 19.5 -99t49.5 -79.5t78.5 -66t92.5 -56t104 -53.5q9 -4 13 -6l87 -43.5t81.5 -46t78.5 -55t64.5 -63.5t54 -77t32.5 -91t13 -111q0 -112 -42.5 -197.5t-117 -137t-169.5 -77
t-207 -25.5q-210 0 -422 80l-41 391l29 11q113 -217 234 -317.5t265 -100.5q132 0 202.5 76.5t70.5 189.5q0 47 -11.5 88.5t-36 76t-51.5 62t-68 54.5t-75.5 46.5t-83.5 43.5q-166 84 -230 128q-159 111 -187 264q-7 37 -7 77q0 102 38.5 179.5t106 122.5t150 67t178.5 22
q169 0 334 -60z" />
    <glyph glyph-name="T" unicode="T" horiz-adv-x="1501" 
d="M950 4v-4h-399v4q49 95 65.5 168t16.5 199v1071l-223 -8q-21 -1 -49 -20.5t-53.5 -46.5t-60 -71.5t-59 -78.5t-60.5 -85.5t-54 -76.5l-27 12l78 432h1251l78 -432l-29 -12q-23 31 -65.5 92.5t-73 103.5t-67.5 87.5t-69 70t-58 25.5l-224 8v-1071q0 -129 16 -201t66 -166z
" />
    <glyph glyph-name="U" unicode="U" horiz-adv-x="1449" 
d="M745 -31q-93 0 -174.5 18t-153 58t-122.5 99.5t-80 147t-29 195.5v641q0 129 -16 201t-66 166v4h400v-4q-43 -82 -62.5 -163.5t-19.5 -203.5v-634q0 -451 373 -451q87 0 155.5 25.5t113.5 68.5t75 104t42.5 127.5t12.5 143.5v580q0 139 -28.5 217.5t-118.5 185.5v4h354
l10 -4q-89 -107 -118 -186t-29 -217v-578q0 -91 -16 -169.5t-54.5 -148.5t-97 -119.5t-148 -78.5t-203.5 -29z" />
    <glyph glyph-name="V" unicode="V" horiz-adv-x="1357" 
d="M14 1499h426v-4q-30 -48 -31.5 -137t37.5 -203l318 -852l280 748q106 281 3 444v4h294v-4q-67 -73 -107.5 -149t-84.5 -201l-438 -1161h-66l-446 1181q-48 130 -88.5 201.5t-96.5 128.5v4z" />
    <glyph glyph-name="W" unicode="W" horiz-adv-x="2076" 
d="M20 1499h429v-4q-31 -51 -35 -135.5t30 -204.5l258 -827l318 809l-10 28q-48 136 -84.5 205.5t-89.5 124.5v4h428v-4q-19 -31 -29 -78.5t-5 -118.5t30 -143l278 -811l229 711q94 286 -4 440v4h293v-4q-70 -74 -113.5 -156t-87.5 -217l-364 -1138h-64l-376 1063
l-414 -1063h-64l-378 1181q-41 129 -80 200.5t-95 129.5v4z" />
    <glyph glyph-name="X" unicode="X" horiz-adv-x="1470" 
d="M1430 0h-478v4q31 30 22.5 110.5t-56.5 155.5l-254 412l-209 -313q-33 -49 -51 -94t-24 -76.5t-0.5 -71t11.5 -61t21 -62.5v-4h-371v4q89 61 157.5 134.5t143.5 183.5l285 421l-293 474q-67 108 -121 172.5t-123 105.5v4h477v-4q-31 -30 -22 -110.5t57 -155.5l193 -314
l149 215q57 82 80 147t17.5 114t-33.5 104v4h370v-4q-97 -62 -171.5 -136.5t-149.5 -180.5l-226 -320l355 -573q70 -112 123 -176t121 -105v-4z" />
    <glyph glyph-name="Y" unicode="Y" horiz-adv-x="1294" 
d="M444 0v4q49 79 65.5 140t16.5 165v373l-297 530q-61 106 -113 173t-112 110v4h465v-4q-40 -34 -36 -107.5t46 -150.5l258 -475l191 336q41 71 59.5 136.5t15.5 115t-13.5 84t-28.5 61.5v4h327v-4q-80 -75 -131.5 -145t-130.5 -207l-264 -459v-375q0 -107 16 -166.5
t66 -138.5v-4h-400z" />
    <glyph glyph-name="Z" unicode="Z" horiz-adv-x="1320" 
d="M57 0v23l885 1421l-262 -8q-107 -4 -193 -32t-151 -80t-112.5 -110t-96.5 -141l-27 10l101 416h1032v-22l-883 -1424l326 10q107 4 194 33.5t154 86t116.5 121t100.5 155.5l27 -10l-107 -449h-1104z" />
    <glyph glyph-name="a" unicode="a" horiz-adv-x="1073" 
d="M305 -31q-104 0 -168.5 52.5t-64.5 144.5q0 55 24 104.5t66.5 87t95.5 68t116.5 53.5t122.5 38.5t121 25.5v149q0 111 -45 162t-153 51q-163 0 -289 -88l-20 21q68 92 179 148t242 56q83 0 143 -23t93 -65t48 -92.5t15 -113.5v-547q0 -97 82 -97q55 0 109 48l18 -17
q-80 -160 -235 -160q-81 0 -126.5 40.5t-55.5 105.5q-56 -66 -139 -109t-179 -43zM270 229q0 -62 42.5 -97.5t115.5 -35.5q58 0 109.5 22t80.5 54v317q-70 -16 -128.5 -38t-110 -53.5t-80.5 -74.5t-29 -94z" />
    <glyph glyph-name="b" unicode="b" horiz-adv-x="1202" 
d="M147 -20v1255q0 166 -96 274v4l309 111v-760h5q59 75 151 126.5t205 51.5q125 0 218.5 -68t142 -186t48.5 -270q0 -115 -32.5 -213.5t-96 -174t-165.5 -118.5t-232 -43q-203 0 -342 107l-106 -96h-9zM625 31q124 0 200 120.5t76 325.5q0 219 -81 320.5t-220 101.5
q-155 0 -240 -102v-404q0 -79 16.5 -142.5t43.5 -103.5t62.5 -67t71 -38t71.5 -11z" />
    <glyph glyph-name="c" unicode="c" horiz-adv-x="1005" 
d="M918 254l22 -21q-48 -119 -154 -191.5t-258 -72.5q-210 0 -337.5 142t-127.5 376q0 156 76 285t199 199.5t262 70.5q173 0 281 -55l30 -246l-24 -6q-53 89 -143 166.5t-177 77.5q-133 0 -212 -109.5t-79 -296.5q0 -202 99 -312.5t266 -110.5q178 0 277 104z" />
    <glyph glyph-name="d" unicode="d" horiz-adv-x="1222" 
d="M629 1042q123 0 215 -36v227q0 174 -96 274v4l309 113v-1171q0 -145 10 -222.5t28.5 -113t57.5 -70.5v-4l-301 -68v207h-6q-51 -91 -145.5 -152t-219.5 -61q-188 0 -297.5 137t-109.5 355q0 117 36 220.5t104 184.5t175 128.5t240 47.5zM301 532q0 -193 74 -304t215 -111
q160 0 254 129v510q-27 119 -93.5 171t-150.5 52q-135 0 -217 -125t-82 -322z" />
    <glyph glyph-name="e" unicode="e" horiz-adv-x="1013" 
d="M645 150q176 0 283 122l24 -18q-51 -126 -157.5 -205.5t-259.5 -79.5q-210 0 -341 143.5t-131 372.5q0 124 42 230.5t110.5 177t155.5 110t178 39.5q121 0 217.5 -65.5t143 -165.5t36.5 -205h-667v-31q0 -207 99 -316t267 -109zM543 979q-105 0 -174 -87t-84 -228l446 10
v24q0 144 -46.5 212.5t-141.5 68.5z" />
    <glyph glyph-name="f" unicode="f" horiz-adv-x="692" 
d="M145 0v4q27 42 38.5 106.5t11.5 182.5v653h-134v64h134v118q0 113 35 208t94 157t136.5 96.5t162.5 34.5q45 0 92.5 -9t70.5 -20l27 -233l-22 -8q-26 41 -42 64t-49 63.5t-66.5 61t-66.5 20.5q-67 0 -113 -91t-46 -251v-211h251v-64h-251v-653q0 -207 49 -289v-4h-312z
" />
    <glyph glyph-name="g" unicode="g" horiz-adv-x="1126" 
d="M514 336q-65 0 -137 20q-105 -30 -105 -104q0 -49 51.5 -69t157.5 -23l213 -6q168 -5 269.5 -72.5t97.5 -192.5q-5 -148 -152 -245t-407 -97q-211 0 -341 66.5t-130 185.5q0 75 51.5 126t128.5 73q-100 51 -100 156q0 87 58.5 144t147.5 83q-92 46 -146 127t-54 178
q0 150 115 253t280 103q157 0 279 -100l278 150l4 -2v-201h-8l-227 6q77 -90 77 -209q0 -145 -117 -247.5t-284 -102.5zM514 397q97 0 142.5 78t45.5 211q0 135 -45.5 214t-144.5 79q-182 0 -182 -293q0 -133 44.5 -211t139.5 -78zM203 -154q0 -104 96 -158.5t274 -54.5
q168 0 257.5 47t89.5 127q0 129 -240 136l-231 8q-111 3 -189 26q-57 -45 -57 -131z" />
    <glyph glyph-name="h" unicode="h" horiz-adv-x="1167" 
d="M111 0v4q28 84 37.5 172t9.5 236v823q0 169 -97 274v7l308 108v-778h2q76 95 157.5 145.5t186.5 50.5q143 0 222 -83t79 -224v-323q0 -158 8.5 -242t38.5 -166v-4h-309v4q28 85 38.5 176.5t10.5 231.5v272q0 95 -48.5 155t-148.5 60q-141 0 -237 -119v-368
q0 -147 10 -235.5t41 -172.5v-4h-309z" />
    <glyph glyph-name="i" unicode="i" horiz-adv-x="536" 
d="M260 1241q-54 0 -90.5 37t-36.5 90q0 56 36.5 93.5t90.5 37.5t91.5 -38t37.5 -93q0 -53 -37.5 -90t-91.5 -37zM117 0v4q25 101 37 190t12 218v239q0 171 -98 273v16l309 113v-639q0 -154 8.5 -241.5t38.5 -168.5v-4h-307z" />
    <glyph glyph-name="j" unicode="j" horiz-adv-x="534" 
d="M260 1241q-54 0 -90.5 37t-36.5 90q0 56 36.5 93.5t90.5 37.5t91.5 -38t37.5 -93q0 -53 -37.5 -90t-91.5 -37zM31 -455l-8 25q143 79 143 287v794q0 171 -98 273v16l309 113l-4 -1049q0 -206 -97 -323t-245 -136z" />
    <glyph glyph-name="k" unicode="k" horiz-adv-x="1044" 
d="M111 0v4q47 96 47 289v942q0 171 -97 272v6l308 111v-1329q0 -194 53 -291v-4h-311zM1049 0h-295l-367 524l231 264q51 58 68 117.5t-8 100.5v4h289v-4q-138 -66 -295 -242l-115 -133l305 -436q52 -74 93.5 -118t93.5 -73v-4z" />
    <glyph glyph-name="l" unicode="l" 
d="M109 0v4q47 96 47 289v942q0 171 -97 272v6l310 111v-1329q0 -195 49 -291v-4h-309z" />
    <glyph glyph-name="m" unicode="m" horiz-adv-x="1695" 
d="M117 0v4q29 86 39 174.5t10 233.5v247q0 172 -98 277v4l301 113v-205l8 -2q127 196 323 196q219 0 252 -194l6 -2q133 196 328 196q130 0 194 -74.5t64 -207.5v-346q0 -160 8.5 -244t38.5 -166v-4h-307v4q29 83 39 174t10 234v299q0 188 -155 188q-61 0 -120 -29.5
t-100 -93.5v-362q0 -155 10 -240.5t42 -169.5v-4h-310v4q29 83 38.5 173t9.5 235v299q0 188 -156 188q-61 0 -119 -29.5t-96 -93.5v-362q0 -156 8.5 -242t38.5 -168v-4h-307z" />
    <glyph glyph-name="n" unicode="n" horiz-adv-x="1171" 
d="M117 0v4q29 86 39 174.5t10 233.5v247q0 172 -98 277v4l301 113v-205l8 -2q76 95 157.5 145.5t186.5 50.5q143 0 221 -82.5t78 -224.5v-321q0 -160 8.5 -244t40.5 -166v-4h-309v4q28 83 37.5 174t9.5 234v272q0 95 -47.5 155t-147.5 60q-144 0 -235 -117v-368
q0 -156 8.5 -242t38.5 -168v-4h-307z" />
    <glyph glyph-name="o" unicode="o" horiz-adv-x="1216" 
d="M606 -31q-147 0 -273.5 74t-199 197.5t-70.5 263.5q1 141 74.5 265t199 198.5t269.5 74.5q110 0 211.5 -44.5t174.5 -117.5t117 -172t44 -204t-43.5 -203.5t-116.5 -171t-175 -116.5t-212 -44zM606 33q100 0 173 67t107 171.5t34 232.5q0 127 -34.5 233t-107.5 174
t-172 68t-171 -68t-106 -174t-34 -233q0 -128 33.5 -232.5t105.5 -171.5t172 -67z" />
    <glyph glyph-name="p" unicode="p" horiz-adv-x="1218" 
d="M117 -453v4q28 84 38.5 173t10.5 233v702q0 172 -98 277v4l301 113v-187l12 -2q146 178 354 178q187 0 299.5 -147t112.5 -379q0 -115 -32.5 -213t-95.5 -173t-164.5 -118t-231.5 -43q-134 0 -246 49v-59q0 -155 8.5 -241.5t38.5 -166.5v-4h-307zM639 31
q128 0 206.5 120.5t78.5 325.5q0 214 -82 318t-224 104q-153 0 -241 -104v-402q0 -100 24 -173.5t64 -113t83.5 -57.5t90.5 -18z" />
    <glyph glyph-name="q" unicode="q" horiz-adv-x="1202" 
d="M1102 -453h-307v4q29 82 39 170t10 236v221q-51 -89 -144 -149t-217 -60q-186 0 -297.5 137.5t-111.5 354.5q0 116 36 219.5t104 185t175 129t240 47.5q109 0 194.5 -30.5t128.5 -79.5l97 100h8v-1073q0 -155 8 -241.5t37 -166.5v-4zM297 532q0 -192 76 -303.5
t219 -111.5q158 0 252 129v502q-24 123 -91 177t-153 54q-135 0 -219 -125t-84 -322z" />
    <glyph glyph-name="r" unicode="r" horiz-adv-x="770" 
d="M117 0v4q29 86 39 174.5t10 233.5v247q0 172 -98 277v4l301 113v-254h8q8 8 33 37t37 42.5t38 39.5t42.5 40t42.5 33t47 28t47 16t51 7l-4 -260l-21 -2q-31 19 -85.5 35t-88.5 16q-26 0 -65.5 -26.5t-73.5 -71.5v-319q0 -156 8.5 -242t38.5 -168v-4h-307z" />
    <glyph glyph-name="s" unicode="s" horiz-adv-x="868" 
d="M729 999l23 -241l-25 -8q-129 229 -319 229q-79 0 -122.5 -38.5t-43.5 -100.5q0 -40 18.5 -71.5t56 -56t74 -41.5t92.5 -40q22 -8 33 -13q52 -22 88 -39.5t79 -48t69 -63.5t43.5 -81.5t17.5 -106.5q0 -103 -54.5 -174.5t-142.5 -103.5t-202 -32q-151 0 -314 56l-22 282
l24 8q76 -148 158.5 -216t183.5 -68q96 0 141.5 48.5t45.5 119.5q0 40 -14.5 71t-46 56t-64.5 43t-86 41q-131 56 -179 87q-141 101 -145 257q0 62 21 112t56 82.5t83.5 54t100.5 30.5t110 9q74 0 146.5 -12.5t115.5 -30.5z" />
    <glyph glyph-name="t" unicode="t" horiz-adv-x="729" 
d="M676 102q-96 -133 -270 -133q-107 0 -173.5 59t-66.5 197v721h-115v27l309 274h21v-237h274v-64h-274v-715q0 -143 143 -143q82 0 135 35z" />
    <glyph glyph-name="u" unicode="u" horiz-adv-x="1130" 
d="M416 -31q-133 0 -204 96t-71 265v450q0 146 -90 226v6h303v-650q0 -109 48.5 -166t138.5 -57q141 0 207 146v495q0 150 -95 226v6h308v-652q0 -109 11 -170.5t29 -88.5t56 -54v-4l-299 -68v250q-30 -55 -60.5 -95.5t-72 -79.5t-94.5 -60t-115 -21z" />
    <glyph glyph-name="v" unicode="v" horiz-adv-x="997" 
d="M823 745l-309 -765h-45l-317 780q-42 103 -71 155t-65 91v4h365v-4q-13 -23 -20 -54.5t-3.5 -79.5t23.5 -96l192 -481l170 422q25 63 25.5 125.5t-11 98t-28.5 65.5v4h252v-4q-54 -57 -86 -111t-72 -150z" />
    <glyph glyph-name="w" unicode="w" horiz-adv-x="1488" 
d="M1323 745l-276 -765h-46l-264 706l-274 -706h-45l-268 780q-35 102 -62.5 154.5t-64.5 91.5v4h364v-4q-54 -84 -4 -230l152 -452l172 442q-37 99 -65.5 150t-66.5 90v4h363v-4q-22 -36 -25 -91.5t25 -138.5l166 -450l143 391q25 66 25.5 126.5t-14 98.5t-37.5 64v4h247
v-4q-52 -55 -80 -107.5t-65 -153.5z" />
    <glyph glyph-name="x" unicode="x" horiz-adv-x="1040" 
d="M268 264l150 211l-178 285q-62 99 -105.5 153t-89.5 93v4h381v-4q-23 -20 -24.5 -49.5t12.5 -63.5t45 -82l133 -211l76 115q123 188 55 291v4h266v-4q-73 -62 -122.5 -117t-110.5 -144l-131 -198l188 -299q62 -97 105 -148.5t96 -95.5v-4h-379v4q17 22 21.5 42t-5 46.5
t-20.5 45.5t-39 63l-141 225l-95 -133q-49 -69 -69 -123t-16.5 -90t22.5 -76v-4h-266v4q74 60 127.5 116.5t113.5 143.5z" />
    <glyph glyph-name="y" unicode="y" horiz-adv-x="999" 
d="M106 -453l-4 207q28 -1 57 2t72 15t79.5 32t72.5 59.5t57 92.5l17 39l-307 766q-41 102 -70 155t-64 91v4h363v-4q-13 -24 -20.5 -56t-3.5 -84.5t26 -107.5l190 -475l177 444q24 59 23 118.5t-14 95.5t-32 65v4h258v-4q-55 -58 -88 -112.5t-70 -148.5l-344 -849
q-41 -100 -83.5 -167t-89.5 -104.5t-94 -54.5t-108 -23z" />
    <glyph glyph-name="z" unicode="z" horiz-adv-x="980" 
d="M930 299l-80 -299h-803v14l584 934l-238 -8q-72 -1 -142.5 -58.5t-156.5 -162.5l-22 10l78 281h751v-19l-579 -932l262 7q88 4 163 64.5t160 178.5z" />
    <glyph glyph-name="quoteleft" unicode="&#x2018;" horiz-adv-x="499" 
d="M375 1546l18 -24q-51 -43 -79.5 -95t-28.5 -102q0 -53 86 -158v-4l-162 -129q-41 28 -66.5 74t-25.5 94q0 96 78.5 189.5t179.5 154.5z" />
    <glyph glyph-name="quoteright" unicode="&#x2019;" horiz-adv-x="499" 
d="M125 1034l-19 25q51 43 80 95t29 101q0 53 -86 158v4l162 129q41 -28 66.5 -74t25.5 -94q0 -96 -78.5 -189.5t-179.5 -154.5z" />
    <glyph glyph-name="quotedblleft" unicode="&#x201c;" horiz-adv-x="847" 
d="M375 1546l18 -22q-51 -44 -79.5 -96.5t-28.5 -102.5q0 -30 26 -74.5t60 -83.5v-4l-162 -129q-41 28 -66.5 74t-25.5 94q0 96 78.5 189.5t179.5 154.5zM723 1538l18 -25q-51 -43 -79.5 -94.5t-28.5 -101.5q0 -30 26 -74.5t60 -83.5v-4l-162 -129q-41 28 -66.5 74t-25.5 94
q0 96 78.5 189.5t179.5 154.5z" />
    <glyph glyph-name="quotedblright" unicode="&#x201d;" horiz-adv-x="847" 
d="M125 1034l-19 25q51 43 80 95t29 101q0 53 -86 158v4l162 129q41 -28 66.5 -74t25.5 -94q0 -96 -78.5 -189.5t-179.5 -154.5zM473 1034l-18 25q51 43 79.5 94.5t28.5 101.5q0 53 -86 158v4l162 129q41 -28 66.5 -74t25.5 -94q0 -96 -78.5 -189.5t-179.5 -154.5z" />
    </font>
</defs>
</svg>
