<svg width="14" height="20" viewBox="0 0 14 20" fill="none" xmlns="http://www.w3.org/2000/svg">
<path d="M6.99989 0.21875C3.28673 0.21875 0.265869 3.26523 0.265869 7.00988C0.265808 7.42363 0.303187 7.83654 0.377549 8.24356C0.377783 8.24668 0.377783 8.24977 0.378174 8.25289C0.387321 8.33072 0.403214 8.40761 0.425674 8.48269C0.606481 9.3039 0.938311 10.0844 1.40427 10.7843L1.40181 10.7859L5.08899 16.5671C5.03342 16.5754 4.98265 16.6033 4.94592 16.6458C4.90919 16.6883 4.88895 16.7425 4.88888 16.7987V18.8957C4.88915 19.1296 4.98218 19.3539 5.14757 19.5193C5.31297 19.6846 5.53721 19.7777 5.7711 19.7779H8.22845C8.46234 19.7777 8.68658 19.6846 8.85198 19.5193C9.01737 19.3539 9.11041 19.1296 9.11067 18.8957V16.7987C9.11068 16.7368 9.08617 16.6774 9.04253 16.6334C8.99887 16.5895 8.93962 16.5647 8.8777 16.5643L12.6561 10.6968L12.6536 10.6952C13.3607 9.5963 13.7358 8.31676 13.7339 7.01004C13.7339 3.26523 10.713 0.21875 6.99989 0.21875ZM9.09462 1.05137C10.1047 2.48887 10.7453 3.99617 10.9982 5.53227C11.1769 6.6223 11.1638 7.73516 10.9597 8.8207C10.8141 9.31965 10.3299 9.70902 9.85532 9.68902C9.70806 9.68236 9.56359 9.64656 9.43025 9.5837C9.29692 9.52084 9.17737 9.43217 9.07853 9.32281C8.91684 9.14856 8.82626 8.92009 8.82462 8.68238C8.82978 8.63902 8.83314 8.59512 8.83435 8.55059C8.83435 8.54344 8.83435 8.53637 8.83384 8.52934C8.93064 7.34509 8.92079 6.15455 8.80442 4.97207C8.64638 3.43293 8.28896 2.00902 7.74208 0.732031C8.20351 0.787206 8.65724 0.894331 9.09462 1.05137ZM7.65341 16.5643H6.34638C6.27596 16.0546 6.14402 15.5554 5.95345 15.0775L8.04599 15.0784C7.85561 15.556 7.72379 16.055 7.65341 16.5643ZM7.7454 17.033V17.5578H7.1879V17.033H7.7454ZM6.71915 17.033V17.5578H6.20302V17.033H6.71915ZM7.46306 13.3149C7.31009 13.3263 7.1557 13.332 6.99989 13.3322C6.86114 13.3322 6.7236 13.3271 6.58708 13.3182C6.23951 12.0858 5.97275 10.8321 5.78849 9.56496C6.09345 9.83575 6.48257 9.99292 6.89005 10.0099L6.96485 10.0146C6.96751 10.0148 6.97017 10.0149 6.97267 10.015C6.99574 10.0157 7.01876 10.016 7.04173 10.016C7.49743 10.016 7.92376 9.88398 8.24689 9.64633C8.08895 10.889 7.82675 12.1162 7.46306 13.3149ZM7.70173 13.7641C7.59896 14.0371 7.46653 14.3918 7.38954 14.6093H7.23329L7.23532 13.7964C7.39215 13.791 7.54761 13.7802 7.70173 13.7642V13.7641ZM6.76653 13.7964L6.7645 14.6089H6.61013C6.53313 14.3913 6.40079 14.0369 6.2981 13.7641C6.45271 13.7804 6.60885 13.7912 6.76653 13.7964V13.7964ZM6.08634 13.2648C5.64707 13.1997 5.2161 13.0875 4.80095 12.9299C4.76708 12.8816 4.74524 12.8518 4.73884 12.8432C4.73741 12.8413 4.73594 12.8393 4.73442 12.8375C4.72384 12.824 3.69044 11.4932 3.17192 9.42273C3.43608 9.62321 3.7572 9.73437 4.08876 9.74012C4.10724 9.74012 4.12579 9.73973 4.14427 9.73895C4.57094 9.72392 4.97449 9.54132 5.26743 9.23074C5.44443 10.5931 5.71809 11.9412 6.08634 13.2648V13.2648ZM5.76774 13.6866C5.88103 13.9856 6.01821 14.3516 6.11196 14.6088H5.75626C5.59156 14.2478 5.40707 13.8961 5.2036 13.5554C5.3886 13.607 5.57665 13.6507 5.76774 13.6866ZM7.88755 14.6096C7.9813 14.3523 8.11868 13.9859 8.23204 13.6866C8.42303 13.6509 8.61108 13.6071 8.79618 13.5553C8.59252 13.8963 8.40785 14.2483 8.24302 14.6097L7.88755 14.6096ZM7.97228 13.256C8.31963 12.0685 8.57045 10.8549 8.72227 9.62707C8.72513 9.63031 8.72778 9.63363 8.73067 9.63684C8.8714 9.79234 9.04156 9.9184 9.23131 10.0077C9.42105 10.0971 9.62663 10.1479 9.83614 10.1573C9.85399 10.158 9.87173 10.1584 9.88954 10.1584C10.1763 10.1544 10.4557 10.0673 10.694 9.90781C10.1499 11.6989 9.27509 12.8251 9.26552 12.8373C9.26396 12.8393 9.26247 12.8412 9.26099 12.8432C9.25458 12.8519 9.23274 12.8817 9.19888 12.9299C8.80232 13.0806 8.39127 13.1899 7.97228 13.2561V13.256ZM7.12134 0.689063C7.15149 0.689662 7.18159 0.690482 7.21161 0.691523C8.45497 3.43672 8.54118 6.45715 8.35196 8.67199C8.31893 8.86781 8.22151 9.04701 8.07513 9.18121C7.81696 9.42523 7.42173 9.55836 6.99036 9.54664L6.91583 9.54191C6.91317 9.54191 6.91048 9.54164 6.90782 9.54156C6.31798 9.52437 5.78634 9.05418 5.66173 8.49469C5.5045 6.83453 5.53114 5.10687 5.90544 3.50199C6.29704 1.82297 6.92263 0.938398 7.12134 0.689063ZM6.53177 0.705117C6.23099 1.16273 5.77661 2.01598 5.45985 3.34914C5.1688 4.57418 5.0536 5.95797 5.11685 7.46207C5.12771 7.7196 5.14401 7.98089 5.16575 8.24594C5.16575 8.27328 5.1664 8.30052 5.1677 8.32766C5.16023 8.54233 5.07604 8.74722 4.9304 8.90512C4.82689 9.01622 4.70241 9.10572 4.56413 9.16846C4.42585 9.2312 4.27651 9.26594 4.12474 9.27066C3.55384 9.29355 2.98134 8.7643 2.94532 8.18004C2.94436 8.16398 2.94174 8.14806 2.93751 8.13254C2.83866 7.26593 2.86042 6.38981 3.0022 5.52918C3.25548 3.99402 3.89579 2.48801 4.90524 1.05137C5.42932 0.863109 5.97646 0.746636 6.53177 0.705117ZM0.880401 8.3668C0.585102 7.0122 0.741017 5.59819 1.32436 4.34048C1.90771 3.08276 2.88646 2.05039 4.1113 1.40086C3.29349 2.71219 2.76481 4.07637 2.53747 5.46602C2.39417 6.34335 2.36973 7.23599 2.46481 8.11984C2.46509 8.12496 2.4652 8.13012 2.46583 8.13547C2.49267 8.36449 2.4361 8.58078 2.31067 8.72887C2.18817 8.8734 2.00806 8.9525 1.77528 8.96387C1.28325 8.98734 0.984971 8.6948 0.880401 8.3668ZM1.17017 9.32645C1.3438 9.39881 1.53027 9.43533 1.71837 9.43383C1.74462 9.43383 1.77119 9.43318 1.7981 9.43187C2.13099 9.41566 2.41173 9.29734 2.6156 9.08906C2.63798 9.19967 2.66215 9.3099 2.6881 9.41973C2.95025 10.5208 3.38262 11.5741 3.96958 12.5418C2.69338 11.8252 1.70433 10.6892 1.17017 9.32645ZM3.06009 12.5139C3.5037 12.8381 3.98545 13.1066 4.4945 13.3133C4.82696 13.8097 5.68243 15.1953 5.87341 16.5644H5.64349L3.06009 12.5139ZM5.73427 17.033V17.5578H5.35782V17.033H5.73427ZM8.64212 18.8957C8.64195 19.0053 8.59834 19.1104 8.52083 19.1879C8.44332 19.2654 8.33825 19.309 8.22864 19.3091H5.77122C5.66161 19.309 5.55654 19.2654 5.47903 19.1879C5.40153 19.1104 5.35791 19.0053 5.35774 18.8957V18.0265H8.64204L8.64212 18.8957ZM8.64212 17.5578H8.21415V17.033H8.64204L8.64212 17.5578ZM8.3202 16.5643H8.12638C8.3172 15.1952 9.17267 13.8096 9.50528 13.3132C10.0061 13.1099 10.4806 12.8467 10.9183 12.5296L8.3202 16.5643ZM10.03 12.5418C10.605 11.5936 11.0316 10.563 11.2951 9.48582C11.494 9.70141 11.7759 9.82371 12.114 9.83973C12.1375 9.84085 12.1608 9.84141 12.1841 9.84141C12.3394 9.84224 12.4936 9.8154 12.6395 9.76215C12.0754 10.9344 11.1645 11.9048 10.0302 12.5418H10.03ZM13.0702 8.57469C12.9854 8.87629 12.7588 9.37273 12.1852 9.37269C12.1693 9.37269 12.153 9.3723 12.1366 9.37152C11.9121 9.3609 11.7397 9.28664 11.6244 9.15082C11.5047 9.00988 11.4532 8.80707 11.4795 8.5793C11.4807 8.56773 11.4811 8.55608 11.4807 8.54445C11.6346 7.5247 11.6287 6.48718 11.4631 5.46926C11.236 4.07863 10.7071 2.7132 9.88884 1.40086C11.1445 2.06701 12.1406 3.13491 12.7179 4.43385C13.2951 5.73278 13.4202 7.18775 13.0732 8.56617C13.0719 8.5689 13.0709 8.57175 13.0702 8.57469Z" fill="#1B1C1E"/>
</svg>
