<svg width="17" height="16" viewBox="0 0 17 16" fill="none" xmlns="http://www.w3.org/2000/svg">
<path d="M15.5716 12.6667V14.6667H2.23828V12.6667C2.23828 12.3 2.53828 12 2.90495 12H14.9049C15.2716 12 15.5716 12.3 15.5716 12.6667Z" fill="white" stroke="white" stroke-width="0.5" stroke-miterlimit="10" stroke-linecap="round" stroke-linejoin="round"/>
<path d="M5.57161 7.33594H4.23828V12.0026H5.57161V7.33594Z" fill="white"/>
<path d="M8.23958 7.33594H6.90625V12.0026H8.23958V7.33594Z" fill="white"/>
<path d="M10.9076 7.33594H9.57422V12.0026H10.9076V7.33594Z" fill="white"/>
<path d="M13.5716 7.33594H12.2383V12.0026H13.5716V7.33594Z" fill="white"/>
<path d="M16.2409 15.1641H1.57422C1.30089 15.1641 1.07422 14.9374 1.07422 14.6641C1.07422 14.3907 1.30089 14.1641 1.57422 14.1641H16.2409C16.5142 14.1641 16.7409 14.3907 16.7409 14.6641C16.7409 14.9374 16.5142 15.1641 16.2409 15.1641Z" fill="white"/>
<path d="M15.1516 3.83063L9.15161 1.43062C9.01828 1.37729 8.79161 1.37729 8.65828 1.43062L2.65828 3.83063C2.42495 3.92396 2.23828 4.19729 2.23828 4.45062V6.66396C2.23828 7.03062 2.53828 7.33063 2.90495 7.33063H14.9049C15.2716 7.33063 15.5716 7.03062 15.5716 6.66396V4.45062C15.5716 4.19729 15.3849 3.92396 15.1516 3.83063ZM8.90495 5.66396C8.35161 5.66396 7.90495 5.21729 7.90495 4.66396C7.90495 4.11063 8.35161 3.66396 8.90495 3.66396C9.45828 3.66396 9.90495 4.11063 9.90495 4.66396C9.90495 5.21729 9.45828 5.66396 8.90495 5.66396Z" fill="white"/>
</svg>
