<svg width="22" height="22" viewBox="0 0 22 22" fill="none" xmlns="http://www.w3.org/2000/svg">
<path d="M11 0.5C11.2548 0.5 11.4998 0.657905 11.6123 0.928711V0.929688L14.123 7.0625L14.2383 7.3418L14.5391 7.37109L20.8887 7.97266H20.8896C20.9841 7.98149 21.0765 8.01159 21.1602 8.0625L21.2402 8.12012C21.3176 8.18459 21.3817 8.26705 21.4268 8.3623L21.4648 8.46094V8.46191C21.497 8.56521 21.5078 8.67499 21.4951 8.78223L21.4746 8.8877C21.4469 8.99242 21.3979 9.08763 21.333 9.16699L21.2627 9.24121H21.2617L16.4629 13.6328L16.25 13.8271L16.3115 14.1084L17.7266 20.6143C17.7575 20.7559 17.748 20.9039 17.6992 21.0391C17.6627 21.1402 17.6061 21.2295 17.5352 21.3018L17.459 21.3682C17.2707 21.5106 17.0332 21.5378 16.8271 21.4482L16.7412 21.4023L16.7402 21.4014L11.2646 17.9854L11 17.8203L10.7354 17.9854L5.25781 21.4014C5.15094 21.4681 5.0366 21.4999 4.92383 21.5C4.82525 21.5 4.72471 21.4765 4.63086 21.4268L4.54004 21.3682C4.32149 21.2033 4.20889 20.9093 4.27246 20.6143L5.6875 14.1084L5.74902 13.8271L5.53711 13.6328L0.737305 9.24121L0.736328 9.24023L0.665039 9.16504C0.534359 9.00443 0.475241 8.78641 0.509766 8.57031L0.535156 8.46191C0.567141 8.35888 0.619637 8.26636 0.6875 8.19043L0.759766 8.12012C0.836922 8.05575 0.925239 8.01154 1.01758 7.98828L1.11035 7.97266L7.46094 7.37109L7.76172 7.3418L7.87695 7.0625L10.3877 0.931641C10.4998 0.658781 10.7448 0.500037 11 0.5Z" stroke="#485648"/>
</svg>
