<svg width="20" height="20" viewBox="0 0 20 20" fill="none" xmlns="http://www.w3.org/2000/svg">
<path d="M15.6974 11.5379L13.1708 9.97895C12.9892 9.86688 12.7446 9.92598 12.6329 10.1063C12.521 10.2869 12.5804 10.5329 12.7603 10.6437L15.2868 12.2027C15.4683 12.3147 15.7127 12.2571 15.8243 12.0754C15.9359 11.8937 15.8791 11.6499 15.6974 11.5379ZM11.6361 9.10039C11.3866 9.10035 11.1985 9.33785 11.2555 9.58066C11.2782 9.67738 11.3447 9.76523 11.4323 9.8207C11.4924 9.85879 11.5625 9.88164 11.6353 9.88164C11.7719 9.88164 11.8966 9.81254 11.968 9.69617C12.1203 9.44828 11.9289 9.10043 11.6361 9.10039ZM7.5912 10.0861C7.48101 9.91055 7.22694 9.85383 7.05245 9.96406L4.54112 11.5477C4.36046 11.6616 4.30534 11.9056 4.41913 12.0861C4.48753 12.1947 4.61952 12.2583 4.75019 12.262C4.8237 12.2641 4.89679 12.2471 4.95792 12.2086L7.46925 10.6246C7.64987 10.5107 7.70472 10.2668 7.5912 10.0861ZM8.58175 9.07031C8.40034 9.07031 8.2414 9.19781 8.20128 9.37453C8.14663 9.61527 8.33722 9.85156 8.58253 9.85156C8.76358 9.85156 8.92343 9.7241 8.96339 9.54723C9.01812 9.30504 8.82929 9.07031 8.58175 9.07031Z" fill="#1B1C1E"/>
<path d="M19.9042 17.7906C19.7626 17.6277 19.5159 17.6106 19.3531 17.7521C18.9365 18.1143 18.5511 18.4897 18.0046 18.6408C17.397 18.8087 16.8196 18.6762 16.2698 18.4013L18.3041 11.5566C18.3287 11.4738 18.3252 11.3852 18.2941 11.3046C18.263 11.224 18.206 11.156 18.1321 11.1112L16.25 9.9708V6.64061C16.25 6.42491 16.0751 6.24999 15.8594 6.24999H15.0781V5.07811C15.0781 4.86241 14.9032 4.68749 14.6875 4.68749H13.457V3.51562C13.457 3.29992 13.2821 3.12499 13.0664 3.12499H11.1719V0.390624C11.1719 0.174922 10.997 0 10.7812 0H9.21875C9.00301 0 8.82813 0.174922 8.82813 0.390624V3.12499H6.9336C6.71786 3.12499 6.54298 3.29992 6.54298 3.51562V4.68749H5.31251C5.09677 4.68749 4.92189 4.86241 4.92189 5.07811V6.24999H4.14064C3.9249 6.24999 3.75001 6.42491 3.75001 6.64061V9.9708L1.86791 11.1112C1.79403 11.156 1.73707 11.2239 1.70595 11.3045C1.67483 11.3851 1.6713 11.4737 1.69592 11.5565L3.72611 18.3872C3.69146 18.2707 3.06638 18.1939 2.95587 18.1796C1.81849 18.0324 0.953613 18.6022 0.134317 19.3146C-0.028495 19.4561 -0.0456824 19.7028 0.0958407 19.8656C0.230958 20.021 0.482402 20.0471 0.646894 19.9041C1.49096 19.1704 2.44255 18.611 3.55935 19.1695C4.56966 19.6746 5.61544 19.8912 6.66774 19.3375C7.51626 18.8908 8.33508 18.5052 9.28219 18.9561L10.2559 19.4198C11.0889 19.8165 12.04 19.8073 12.8652 19.3947C13.3737 19.1404 13.8906 18.8021 14.4714 18.7621C15.0408 18.723 15.591 18.935 16.0912 19.1854C16.7521 19.5159 17.5258 19.5819 18.2355 19.3796C18.8892 19.1932 19.365 18.7769 19.8656 18.3416C20.0285 18.2 20.0457 17.9534 19.9042 17.7906ZM15.4687 7.03124V9.49744L11.3985 7.03124H15.4687ZM9.60938 0.781248H10.3906V3.12499H9.60938V0.781248ZM7.32422 3.90624H12.6758V4.68749H7.32422V3.90624ZM4.53126 7.03124H8.60149L4.53126 9.49744V7.03124ZM9.60938 18.2466C9.60946 18.1772 9.05254 18.0492 8.97969 18.0334C8.29985 17.8863 7.57001 17.9797 6.95368 18.3041C6.50649 18.5395 6.07505 18.814 5.5636 18.8799L5.56079 18.8802C5.26196 18.9166 4.9561 18.8946 4.66689 18.8102L2.53068 11.6231L9.60938 7.33405V18.2466ZM5.70313 6.24999V5.46874H14.2969V6.24999H5.70313ZM15.5477 18.0882C15.5521 17.9673 14.4525 17.9684 14.3788 17.9762C13.7007 18.0479 13.1142 18.3968 12.5158 18.696C11.8089 19.0494 11.0816 18.9478 10.3906 18.6186V7.33405L17.4693 11.6231L15.5477 18.0882Z" fill="#1B1C1E"/>
</svg>
