<svg width="16" height="20" viewBox="0 0 16 20" fill="none" xmlns="http://www.w3.org/2000/svg">
<path opacity="0.4" d="M15.9531 6.48438V15.625C15.9531 18.4375 14.275 19.375 12.2031 19.375H4.70312C2.63125 19.375 0.953125 18.4375 0.953125 15.625V6.48438C0.953125 3.4375 2.63125 2.73438 4.70312 2.73438C4.70312 3.31563 4.93747 3.84062 5.32185 4.225C5.70622 4.60937 6.23125 4.84375 6.8125 4.84375H10.0938C11.2563 4.84375 12.2031 3.89688 12.2031 2.73438C14.275 2.73438 15.9531 3.4375 15.9531 6.48438Z" fill="#EAE3D2"/>
<path d="M12.2031 2.73438C12.2031 3.89688 11.2563 4.84375 10.0938 4.84375H6.8125C6.23125 4.84375 5.70622 4.60937 5.32185 4.225C4.93747 3.84062 4.70312 3.31563 4.70312 2.73438C4.70312 1.57187 5.65 0.625 6.8125 0.625H10.0938C10.675 0.625 11.2 0.859378 11.5844 1.24375C11.9688 1.62813 12.2031 2.15312 12.2031 2.73438Z" fill="#EAE3D2"/>
<path d="M8.45312 11.6406H4.70312C4.31875 11.6406 4 11.3219 4 10.9375C4 10.5531 4.31875 10.2344 4.70312 10.2344H8.45312C8.8375 10.2344 9.15625 10.5531 9.15625 10.9375C9.15625 11.3219 8.8375 11.6406 8.45312 11.6406Z" fill="#EAE3D2"/>
<path d="M12.2031 15.3906H4.70312C4.31875 15.3906 4 15.0719 4 14.6875C4 14.3031 4.31875 13.9844 4.70312 13.9844H12.2031C12.5875 13.9844 12.9062 14.3031 12.9062 14.6875C12.9062 15.0719 12.5875 15.3906 12.2031 15.3906Z" fill="#EAE3D2"/>
</svg>
