<svg width="43" height="46" viewBox="0 0 43 46" fill="none" xmlns="http://www.w3.org/2000/svg">
<path fill-rule="evenodd" clip-rule="evenodd" d="M23.65 26.1364H20.425C19.5693 26.1364 18.7491 26.4667 18.1449 27.0553C17.8452 27.3464 17.6075 27.692 17.4454 28.0725C17.2832 28.453 17.1999 28.8608 17.2 29.2727V42.8636C17.2 43.6958 17.5397 44.4935 18.1449 45.081C18.4442 45.3725 18.7996 45.6037 19.1909 45.7614C19.5821 45.919 20.0015 46.0001 20.425 46H39.775C40.6307 46 41.4509 45.6696 42.0551 45.081C42.3548 44.79 42.5925 44.4444 42.7546 44.0639C42.9168 43.6834 43.0001 43.2755 43 42.8636V29.2727C43 28.4405 42.6603 27.6429 42.0551 27.0553C41.7558 26.7639 41.4004 26.5327 41.0091 26.375C40.6179 26.2173 40.1985 26.1362 39.775 26.1364H36.55V25.0909C36.55 24.2587 36.2103 23.461 35.6051 22.8735C35.3058 22.5821 34.9504 22.3509 34.5591 22.1932C34.1679 22.0355 33.7485 21.9544 33.325 21.9545H26.875C26.0193 21.9545 25.1991 22.2849 24.5949 22.8735C24.2952 23.1645 24.0575 23.5102 23.8954 23.8907C23.7332 24.2712 23.6499 24.679 23.65 25.0909V26.1364ZM36.55 31.3636V40.7727C36.55 41.05 36.6633 41.3159 36.8649 41.512C37.0665 41.708 37.3399 41.8182 37.625 41.8182C37.9101 41.8182 38.1835 41.708 38.3851 41.512C38.5867 41.3159 38.7 41.05 38.7 40.7727V31.3636C38.7 31.0864 38.5867 30.8204 38.3851 30.6244C38.1835 30.4283 37.9101 30.3182 37.625 30.3182C37.3399 30.3182 37.0665 30.4283 36.8649 30.6244C36.6633 30.8204 36.55 31.0864 36.55 31.3636ZM21.5 31.3636V40.7727C21.5 41.05 21.6133 41.3159 21.8149 41.512C22.0165 41.708 22.2899 41.8182 22.575 41.8182C22.8601 41.8182 23.1335 41.708 23.3351 41.512C23.5367 41.3159 23.65 41.05 23.65 40.7727V31.3636C23.65 31.0864 23.5367 30.8204 23.3351 30.6244C23.1335 30.4283 22.8601 30.3182 22.575 30.3182C22.2899 30.3182 22.0165 30.4283 21.8149 30.6244C21.6133 30.8204 21.5 31.0864 21.5 31.3636ZM34.4 25.0909V26.1364H25.8V25.0909C25.7996 24.9535 25.8271 24.8174 25.881 24.6903C25.9348 24.5633 26.014 24.4479 26.1139 24.3507C26.2138 24.2536 26.3325 24.1766 26.4631 24.1242C26.5937 24.0718 26.7337 24.045 26.875 24.0455H33.325C33.4663 24.045 33.6063 24.0718 33.7369 24.1242C33.8675 24.1766 33.9862 24.2536 34.0861 24.3507C34.186 24.4479 34.2652 24.5633 34.319 24.6903C34.3729 24.8174 34.4004 24.9535 34.4 25.0909Z" fill="#485648"/>
<path fill-rule="evenodd" clip-rule="evenodd" d="M8.6 6.27273H3.225C2.3693 6.27273 1.54908 6.60309 0.944925 7.19168C0.645245 7.48272 0.407529 7.82837 0.245386 8.20887C0.0832428 8.58936 -0.000143584 8.99722 1.85591e-07 9.40909V37.6364C1.85591e-07 38.4682 0.339776 39.2659 0.944581 39.8541C1.54939 40.4423 2.36968 40.7727 3.225 40.7727H15.05V29.2727C15.05 27.8865 15.6165 26.5566 16.6238 25.576C17.6323 24.5961 18.9995 24.0457 20.425 24.0455H21.6086C21.8197 23.0413 22.3292 22.1195 23.0738 21.3942C24.0823 20.4143 25.4495 19.8638 26.875 19.8636H27.95V9.40909C27.95 8.57691 27.6103 7.77923 27.0051 7.19168C26.7058 6.90024 26.3504 6.66906 25.9591 6.51137C25.5679 6.35368 25.1485 6.27259 24.725 6.27273H19.35V3.13636C19.35 2.30455 19.0102 1.5068 18.4054 0.91862C17.8006 0.330437 16.9803 0 16.125 0H11.825C10.9697 0 10.1494 0.330437 9.54458 0.91862C8.93978 1.5068 8.6 2.30455 8.6 3.13636V6.27273ZM4.3 11.5V35.5455C4.3 35.8227 4.41326 36.0886 4.61486 36.2847C4.81646 36.4808 5.08989 36.5909 5.375 36.5909C5.66011 36.5909 5.93354 36.4808 6.13514 36.2847C6.33674 36.0886 6.45 35.8227 6.45 35.5455V11.5C6.45 11.2227 6.33674 10.9568 6.13514 10.7608C5.93354 10.5647 5.66011 10.4545 5.375 10.4545C5.08989 10.4545 4.81646 10.5647 4.61486 10.7608C4.41326 10.9568 4.3 11.2227 4.3 11.5ZM17.2 6.27273H10.75V3.13636C10.75 2.85909 10.8633 2.59318 11.0649 2.39712C11.2665 2.20106 11.5399 2.09091 11.825 2.09091H16.125C16.4101 2.09091 16.6835 2.20106 16.8851 2.39712C17.0867 2.59318 17.2 2.85909 17.2 3.13636V6.27273ZM10.75 42.8636H4.3C4.3 43.2755 4.38342 43.6833 4.54549 44.0639C4.70756 44.4444 4.94511 44.7901 5.24458 45.0814C5.54405 45.3726 5.89957 45.6036 6.29085 45.7613C6.68212 45.9189 7.10149 46 7.525 46C7.94851 46 8.36788 45.9189 8.75915 45.7613C9.15043 45.6036 9.50595 45.3726 9.80542 45.0814C10.1049 44.7901 10.3424 44.4444 10.5045 44.0639C10.6666 43.6833 10.75 43.2755 10.75 42.8636Z" fill="#485648"/>
</svg>
