<svg width="41" height="41" viewBox="0 0 41 41" fill="none" xmlns="http://www.w3.org/2000/svg">
<path d="M0 23.8771V8.54266C0 3.83318 3.83179 0.00170819 8.54166 0.00170819H10.25V18.6039L0 23.8771ZM22.9156 0.00170819H13.6667V18.9387L23.7697 29.041H41V18.0829C40.8855 18.2059 40.7813 18.3357 40.6617 18.4553L37.4945 21.5557C35.9211 23.0946 33.8051 23.9525 31.6041 23.9437H31.5922C29.3946 23.9513 27.2826 23.0927 25.7138 21.554L22.5859 18.4929C21.3817 17.3038 20.4261 15.887 19.7747 14.3251C19.1233 12.7632 18.7892 11.0873 18.7916 9.39505C18.7871 7.71158 19.1166 6.04394 19.7612 4.48871C20.4057 2.93349 21.3525 1.52159 22.5466 0.334805C22.6644 0.21694 22.7943 0.112741 22.9156 0V0.00170819ZM11.632 21.7367L0 27.7222V32.459C0 37.1685 3.83179 41 8.54166 41H13.2396L20.8075 30.9114L11.632 21.7367ZM17.5087 40.9983H32.4583C37.1682 40.9983 41 37.1668 41 32.4573H23.9166L17.5104 40.9983H17.5087ZM41 9.39676C41.0037 10.6311 40.7623 11.8538 40.2899 12.9942C39.8175 14.1345 39.1234 15.1698 38.2478 16.0399L35.1045 19.1164C34.1683 20.0285 32.9113 20.5364 31.6041 20.5307C30.2971 20.536 29.0402 20.0282 28.1038 19.1164L24.9741 16.0536C23.1855 14.2668 22.2083 11.9078 22.2083 9.39847C22.2083 6.88913 23.1855 4.52841 24.9604 2.75531C25.8306 1.87985 26.866 1.18581 28.0064 0.713426C29.1468 0.241041 30.3697 -0.000292327 31.6041 0.00341638C34.1154 0.00341638 36.4729 0.980502 38.2478 2.75531C39.1232 3.62555 39.8172 4.66081 40.2896 5.80114C40.762 6.94146 41.0035 8.16247 41 9.39676ZM34.1666 9.38651C34.1665 9.04991 34.1001 8.71663 33.9712 8.4057C33.8423 8.09477 33.6534 7.81228 33.4152 7.57435C33.1771 7.33642 32.8945 7.14771 32.5834 7.019C32.2724 6.8903 31.9391 6.82411 31.6024 6.82422C31.2658 6.82434 30.9325 6.89074 30.6215 7.01966C30.3106 7.14857 30.0281 7.33746 29.7901 7.57555C29.5522 7.81364 29.3634 8.09626 29.2347 8.40728C29.106 8.7183 29.0398 9.05162 29.0399 9.38822C29.0402 10.068 29.3104 10.7199 29.7913 11.2004C30.2722 11.6809 30.9243 11.9507 31.6041 11.9505C32.284 11.9503 32.9359 11.68 33.4165 11.1992C33.897 10.7183 34.1669 10.0663 34.1666 9.38651Z" fill="#485648"/>
</svg>
