<svg width="51" height="41" viewBox="0 0 51 41" fill="none" xmlns="http://www.w3.org/2000/svg">
<path fill-rule="evenodd" clip-rule="evenodd" d="M39.3753 12.3633L37.134 18.7154C35.5671 17.133 33.6561 15.9294 31.5481 15.1971L39.3753 12.3633ZM29.3513 13.4179C29.1066 13.5066 28.8839 13.6464 28.6981 13.8279C28.5123 14.0094 28.3677 14.2284 28.2741 14.4702C27.766 14.4176 27.2555 14.3914 26.7446 14.3915C22.0238 14.3915 17.827 16.623 15.1602 20.0821C12.9332 20.718 10.6048 20.9259 8.29959 20.6947L3.41463 20.2049C3.19538 20.183 2.98624 20.1022 2.80958 19.9712C2.63291 19.8402 2.49536 19.6638 2.41162 19.4611L0.0913279 13.8485C0.0290159 13.6977 -0.00201479 13.536 0.000101387 13.373C0.00221756 13.21 0.0374371 13.0491 0.103642 12.8999C0.169848 12.7508 0.265673 12.6165 0.385361 12.5052C0.505048 12.3938 0.646128 12.3077 0.800122 12.252L1.65724 11.9418C2.27201 11.7191 2.93567 11.6651 3.57866 11.7853C4.22164 11.9055 4.82028 12.1956 5.31184 12.6251L6.24312 13.4391C7.12223 14.2075 8.2056 14.7071 9.36315 14.878C10.5207 15.0489 11.7032 14.8838 12.7688 14.4024L43.3922 0.564221C43.9351 0.318909 44.5302 0.209765 45.1254 0.246348C45.7205 0.282932 46.2976 0.464128 46.8061 0.774065L49.1628 2.21092C49.7878 2.5922 50.2903 3.14308 50.6113 3.79879C50.9324 4.45449 51.0585 5.18775 50.9749 5.91233C50.8913 6.63691 50.6015 7.32268 50.1395 7.889C49.6776 8.45532 49.0626 8.87863 48.3671 9.10916L42.191 11.1532C42.0676 10.0562 40.9217 9.23011 39.7509 9.65343L29.3513 13.4179ZM15.0787 2.23753L21.2567 0L30.1555 3.88786L23.1685 7.04459L15.0787 2.23753ZM26.7453 16.8105C20.0312 16.8105 14.5876 22.2253 14.5876 28.9052C14.5876 35.5852 20.0312 41 26.7453 41C33.4593 41 38.9029 35.5852 38.9029 28.9052C38.9029 22.2253 33.4599 16.8105 26.7453 16.8105ZM23.9046 24.3691C23.6753 24.1488 23.3682 24.0269 23.0494 24.0296C22.7307 24.0324 22.4257 24.1596 22.2003 24.3838C21.9749 24.6081 21.847 24.9114 21.8443 25.2286C21.8415 25.5457 21.964 25.8512 22.1855 26.0793L25.0262 28.9052L22.1855 31.7312C22.0726 31.8435 21.983 31.9768 21.9219 32.1235C21.8608 32.2703 21.8293 32.4275 21.8293 32.5864C21.8292 32.7452 21.8606 32.9025 21.9217 33.0493C21.9828 33.196 22.0723 33.3294 22.1852 33.4417C22.2981 33.554 22.4321 33.6431 22.5796 33.7039C22.7271 33.7648 22.8852 33.7961 23.0448 33.7961C23.2045 33.7961 23.3626 33.7649 23.5101 33.7041C23.6576 33.6434 23.7917 33.5543 23.9046 33.442L26.7453 30.6161L29.5865 33.442C29.8146 33.6687 30.1239 33.796 30.4464 33.7958C30.7688 33.7956 31.078 33.668 31.3059 33.4411C31.5338 33.2141 31.6617 32.9064 31.6615 32.5856C31.6614 32.2649 31.5331 31.9573 31.305 31.7306L28.4643 28.9046L31.305 26.0787C31.4211 25.9671 31.5137 25.8337 31.5774 25.6861C31.6412 25.5386 31.6747 25.3798 31.6761 25.2193C31.6775 25.0587 31.6468 24.8994 31.5856 24.7508C31.5245 24.6021 31.4342 24.4671 31.3201 24.3535C31.2059 24.24 31.0702 24.1501 30.9208 24.0893C30.7713 24.0285 30.6113 23.9979 30.4498 23.9993C30.2884 24.0007 30.1289 24.0341 29.9805 24.0975C29.8322 24.1608 29.698 24.253 29.5859 24.3685L26.7453 27.1944L23.9046 24.3691Z" fill="#485648"/>
</svg>
