<svg width="58" height="58" viewBox="0 0 58 58" fill="none" xmlns="http://www.w3.org/2000/svg">
<g clip-path="url(#clip0_1431_43918)">
<path d="M6.1769 40.3795L9.6569 43.8595V53.1647C9.65844 54.4461 10.1682 55.6746 11.0742 56.5807C11.9803 57.4868 13.2088 57.9965 14.4902 57.998H53.1656C54.447 57.9965 55.6755 57.4868 56.5816 56.5807C57.4877 55.6746 57.9974 54.4461 57.9989 53.1647V28.998C57.9952 27.778 57.5295 26.6046 56.6955 25.7141C55.8615 24.8236 54.7211 24.2821 53.5039 24.1985C53.9913 23.2868 54.1743 22.2431 54.0259 21.2201C53.8775 20.197 53.4057 19.2482 52.6794 18.5126L40.3698 6.1953L40.364 6.18467H40.3553L35.5887 1.41224C34.6826 0.5079 33.4546 0 32.1744 0C30.8942 0 29.6663 0.5079 28.7602 1.41224L1.41124 28.7718C0.50964 29.6827 0.00390625 30.9126 0.00390625 32.1943C0.00390625 33.476 0.50964 34.7058 1.41124 35.6168L6.1769 40.3795ZM35.5819 4.1392L38.3128 6.87197L21.0297 24.1647H15.5623L35.5819 4.1392ZM9.6656 35.5288L6.86227 38.3321L4.13047 35.6003L9.6656 30.0613V35.5288ZM8.22914 39.699L9.6656 38.2625V41.1355L8.22914 39.699ZM56.0656 28.998V53.1647C56.0656 53.9338 55.7601 54.6714 55.2162 55.2153C54.6724 55.7591 53.9347 56.0647 53.1656 56.0647H14.4989C13.7298 56.0647 12.9922 55.7591 12.4483 55.2153C11.9045 54.6714 11.5989 53.9338 11.5989 53.1647V28.998C11.5989 28.2289 11.9045 27.4913 12.4483 26.9474C12.9922 26.4035 13.7298 26.098 14.4989 26.098H53.1656C53.9347 26.098 54.6724 26.4035 55.2162 26.9474C55.7601 27.4913 56.0656 28.2289 56.0656 28.998ZM51.3125 23.9839L51.1356 24.1647H23.7625L39.6796 8.2398L51.3096 19.8765C51.852 20.4223 52.1566 21.1602 52.1571 21.9296C52.1577 22.699 51.8541 23.4374 51.3125 23.9839ZM2.78004 30.1358L30.127 2.7791C30.6778 2.25277 31.41 1.95856 32.1718 1.95748C32.9337 1.9564 33.6667 2.24853 34.2189 2.7733L12.2524 24.7447C11.3979 25.1975 10.6988 25.8962 10.2456 26.7505L2.76554 34.2315C2.23133 33.6828 1.93361 32.9465 1.93632 32.1807C1.93903 31.4149 2.24196 30.6807 2.78004 30.1358Z" fill="white"/>
<path d="M15.4646 36.7333H21.2646C21.7773 36.7333 22.2691 36.5296 22.6317 36.1671C22.9942 35.8045 23.1979 35.3128 23.1979 34.8V30.9333C23.1979 30.4206 22.9942 29.9288 22.6317 29.5663C22.2691 29.2037 21.7773 29 21.2646 29H15.4646C14.9518 29 14.4601 29.2037 14.0975 29.5663C13.7349 29.9288 13.5312 30.4206 13.5312 30.9333V34.8C13.5312 35.3128 13.7349 35.8045 14.0975 36.1671C14.4601 36.5296 14.9518 36.7333 15.4646 36.7333ZM15.4646 30.9333H21.2646V34.8H15.4646V30.9333ZM14.4979 42.5333C14.7543 42.5333 15.0002 42.4315 15.1815 42.2502C15.3627 42.0689 15.4646 41.823 15.4646 41.5667V39.6333C15.4646 39.377 15.3627 39.1311 15.1815 38.9498C15.0002 38.7685 14.7543 38.6667 14.4979 38.6667C14.2415 38.6667 13.9957 38.7685 13.8144 38.9498C13.6331 39.1311 13.5312 39.377 13.5312 39.6333V41.5667C13.5312 41.823 13.6331 42.0689 13.8144 42.2502C13.9957 42.4315 14.2415 42.5333 14.4979 42.5333ZM18.3646 38.6667C18.1082 38.6667 17.8623 38.7685 17.681 38.9498C17.4998 39.1311 17.3979 39.377 17.3979 39.6333V41.5667C17.3979 41.823 17.4998 42.0689 17.681 42.2502C17.8623 42.4315 18.1082 42.5333 18.3646 42.5333C18.621 42.5333 18.8668 42.4315 19.0481 42.2502C19.2294 42.0689 19.3313 41.823 19.3313 41.5667V39.6333C19.3313 39.377 19.2294 39.1311 19.0481 38.9498C18.8668 38.7685 18.621 38.6667 18.3646 38.6667ZM21.2646 39.6333V41.5667C21.2646 41.823 21.3664 42.0689 21.5477 42.2502C21.729 42.4315 21.9749 42.5333 22.2313 42.5333C22.4876 42.5333 22.7335 42.4315 22.9148 42.2502C23.0961 42.0689 23.1979 41.823 23.1979 41.5667V39.6333C23.1979 39.377 23.0961 39.1311 22.9148 38.9498C22.7335 38.7685 22.4876 38.6667 22.2313 38.6667C21.9749 38.6667 21.729 38.7685 21.5477 38.9498C21.3664 39.1311 21.2646 39.377 21.2646 39.6333ZM26.0979 38.6667C25.8415 38.6667 25.5957 38.7685 25.4144 38.9498C25.2331 39.1311 25.1313 39.377 25.1313 39.6333V41.5667C25.1313 41.823 25.2331 42.0689 25.4144 42.2502C25.5957 42.4315 25.8415 42.5333 26.0979 42.5333C26.3543 42.5333 26.6002 42.4315 26.7815 42.2502C26.9627 42.0689 27.0646 41.823 27.0646 41.5667V39.6333C27.0646 39.377 26.9627 39.1311 26.7815 38.9498C26.6002 38.7685 26.3543 38.6667 26.0979 38.6667ZM29.9646 42.5333C30.221 42.5333 30.4668 42.4315 30.6481 42.2502C30.8294 42.0689 30.9313 41.823 30.9313 41.5667V39.6333C30.9313 39.377 30.8294 39.1311 30.6481 38.9498C30.4668 38.7685 30.221 38.6667 29.9646 38.6667C29.7082 38.6667 29.4623 38.7685 29.281 38.9498C29.0998 39.1311 28.9979 39.377 28.9979 39.6333V41.5667C28.9979 41.823 29.0998 42.0689 29.281 42.2502C29.4623 42.4315 29.7082 42.5333 29.9646 42.5333ZM37.6979 38.6667C37.4415 38.6667 37.1957 38.7685 37.0144 38.9498C36.8331 39.1311 36.7313 39.377 36.7313 39.6333V41.5667C36.7313 41.823 36.8331 42.0689 37.0144 42.2502C37.1957 42.4315 37.4415 42.5333 37.6979 42.5333C37.9543 42.5333 38.2002 42.4315 38.3815 42.2502C38.5627 42.0689 38.6646 41.823 38.6646 41.5667V39.6333C38.6646 39.377 38.5627 39.1311 38.3815 38.9498C38.2002 38.7685 37.9543 38.6667 37.6979 38.6667ZM41.5646 38.6667C41.3082 38.6667 41.0623 38.7685 40.881 38.9498C40.6998 39.1311 40.5979 39.377 40.5979 39.6333V41.5667C40.5979 41.823 40.6998 42.0689 40.881 42.2502C41.0623 42.4315 41.3082 42.5333 41.5646 42.5333C41.821 42.5333 42.0668 42.4315 42.2481 42.2502C42.4294 42.0689 42.5313 41.823 42.5313 41.5667V39.6333C42.5313 39.377 42.4294 39.1311 42.2481 38.9498C42.0668 38.7685 41.821 38.6667 41.5646 38.6667ZM45.4313 38.6667C45.1749 38.6667 44.929 38.7685 44.7477 38.9498C44.5664 39.1311 44.4646 39.377 44.4646 39.6333V41.5667C44.4646 41.823 44.5664 42.0689 44.7477 42.2502C44.929 42.4315 45.1749 42.5333 45.4313 42.5333C45.6876 42.5333 45.9335 42.4315 46.1148 42.2502C46.2961 42.0689 46.3979 41.823 46.3979 41.5667V39.6333C46.3979 39.377 46.2961 39.1311 46.1148 38.9498C45.9335 38.7685 45.6876 38.6667 45.4313 38.6667ZM49.2979 38.6667C49.0415 38.6667 48.7957 38.7685 48.6144 38.9498C48.4331 39.1311 48.3313 39.377 48.3313 39.6333V41.5667C48.3313 41.823 48.4331 42.0689 48.6144 42.2502C48.7957 42.4315 49.0415 42.5333 49.2979 42.5333C49.5543 42.5333 49.8002 42.4315 49.9815 42.2502C50.1627 42.0689 50.2646 41.823 50.2646 41.5667V39.6333C50.2646 39.377 50.1627 39.1311 49.9815 38.9498C49.8002 38.7685 49.5543 38.6667 49.2979 38.6667ZM18.3646 44.4667H14.4979C14.2415 44.4667 13.9957 44.5685 13.8144 44.7498C13.6331 44.9311 13.5312 45.177 13.5312 45.4333C13.5312 45.6897 13.6331 45.9356 13.8144 46.1169C13.9957 46.2982 14.2415 46.4 14.4979 46.4H18.3646C18.621 46.4 18.8668 46.2982 19.0481 46.1169C19.2294 45.9356 19.3313 45.6897 19.3313 45.4333C19.3313 45.177 19.2294 44.9311 19.0481 44.7498C18.8668 44.5685 18.621 44.4667 18.3646 44.4667ZM26.0979 44.4667H22.2313C21.9749 44.4667 21.729 44.5685 21.5477 44.7498C21.3664 44.9311 21.2646 45.177 21.2646 45.4333C21.2646 45.6897 21.3664 45.9356 21.5477 46.1169C21.729 46.2982 21.9749 46.4 22.2313 46.4H26.0979C26.3543 46.4 26.6002 46.2982 26.7815 46.1169C26.9627 45.9356 27.0646 45.6897 27.0646 45.4333C27.0646 45.177 26.9627 44.9311 26.7815 44.7498C26.6002 44.5685 26.3543 44.4667 26.0979 44.4667ZM18.3646 48.3333H14.4979C14.2415 48.3333 13.9957 48.4352 13.8144 48.6165C13.6331 48.7978 13.5312 49.0436 13.5312 49.3C13.5312 49.5564 13.6331 49.8023 13.8144 49.9835C13.9957 50.1648 14.2415 50.2667 14.4979 50.2667H18.3646C18.621 50.2667 18.8668 50.1648 19.0481 49.9835C19.2294 49.8023 19.3313 49.5564 19.3313 49.3C19.3313 49.0436 19.2294 48.7978 19.0481 48.6165C18.8668 48.4352 18.621 48.3333 18.3646 48.3333ZM26.0979 48.3333H22.2313C21.9749 48.3333 21.729 48.4352 21.5477 48.6165C21.3664 48.7978 21.2646 49.0436 21.2646 49.3C21.2646 49.5564 21.3664 49.8023 21.5477 49.9835C21.729 50.1648 21.9749 50.2667 22.2313 50.2667H26.0979C26.3543 50.2667 26.6002 50.1648 26.7815 49.9835C26.9627 49.8023 27.0646 49.5564 27.0646 49.3C27.0646 49.0436 26.9627 48.7978 26.7815 48.6165C26.6002 48.4352 26.3543 48.3333 26.0979 48.3333ZM33.8313 44.4667H29.9646C29.7082 44.4667 29.4623 44.5685 29.281 44.7498C29.0998 44.9311 28.9979 45.177 28.9979 45.4333C28.9979 45.6897 29.0998 45.9356 29.281 46.1169C29.4623 46.2982 29.7082 46.4 29.9646 46.4H33.8313C34.0876 46.4 34.3335 46.2982 34.5148 46.1169C34.6961 45.9356 34.7979 45.6897 34.7979 45.4333C34.7979 45.177 34.6961 44.9311 34.5148 44.7498C34.3335 44.5685 34.0876 44.4667 33.8313 44.4667Z" fill="white"/>
</g>
<defs>
<clipPath id="clip0_1431_43918">
<rect width="58" height="58" fill="white"/>
</clipPath>
</defs>
</svg>
