<svg width="15" height="17" viewBox="0 0 15 17" fill="none" xmlns="http://www.w3.org/2000/svg">
<path d="M7.5 0C4.51288 0 2.02148 2.40623 2.02148 5.47852C2.02148 6.64733 2.37271 7.68958 3.04676 8.66621L7.08074 14.9609C7.27644 15.2669 7.72396 15.2663 7.91926 14.9609L11.9707 8.6448C12.6303 7.71242 12.9785 6.61762 12.9785 5.47852C12.9785 2.45766 10.5209 0 7.5 0ZM7.5 7.96875C6.12695 7.96875 5.00977 6.85156 5.00977 5.47852C5.00977 4.10547 6.12695 2.98828 7.5 2.98828C8.87305 2.98828 9.99023 4.10547 9.99023 5.47852C9.99023 6.85156 8.87305 7.96875 7.5 7.96875Z" fill="#485648"/>
<path d="M11.3935 11.4448L8.88567 15.3657C8.23651 16.3778 6.75987 16.3745 6.11384 15.3666L3.60189 11.4459C1.39175 11.9568 0.0292969 12.8929 0.0292969 14.0116C0.0292969 15.9527 3.87847 16.9999 7.5 16.9999C11.1215 16.9999 14.9707 15.9527 14.9707 14.0116C14.9707 12.8921 13.6064 11.9556 11.3935 11.4448Z" fill="#485648"/>
</svg>
