<svg width="25" height="27" viewBox="0 0 25 27" fill="none" xmlns="http://www.w3.org/2000/svg">
<mask id="path-1-inside-1_1431_46404" fill="white">
<path d="M24.2065 11.7662C23.9429 11.3654 23.6015 11.0218 23.2024 10.7556C22.8033 10.4894 22.3548 10.3063 21.8835 10.2169C21.2936 10.1726 20.7015 10.2663 20.1541 10.4905C19.6396 10.6555 19.082 10.6216 18.5913 10.3955C18.632 10.2508 18.6547 10.1021 18.6838 9.95519C19.5507 10.0377 20.4251 9.98076 21.274 9.78656C21.817 9.6426 22.3233 9.38524 22.7596 9.03143C23.1771 8.68425 23.5087 8.24537 23.7288 7.74898C24 7.13024 24.0936 6.44817 23.9988 5.77925C23.8994 5.07811 23.669 4.40191 23.3199 3.78583C22.5391 2.37444 21.3089 1.26461 19.8248 0.632812C20.3733 1.29804 20.853 2.01705 21.2567 2.77887C21.5938 3.38128 21.8438 4.02839 21.9994 4.70093C22.1172 5.2137 22.0806 5.74985 21.8944 6.24191C21.6564 6.73668 21.236 7.11997 20.7214 7.31126C19.9947 7.57598 19.2109 7.64376 18.4496 7.50772C18.3885 7.50452 18.3574 7.44661 18.3187 7.40853C17.7627 6.79072 17.0661 6.31583 16.2879 6.02402C15.636 5.79544 14.9325 5.75693 14.2596 5.91299C13.707 6.02497 13.2065 6.29985 12.6639 6.44382C12.4506 6.48224 12.2307 6.4542 12.0338 6.3635C11.5166 6.13392 10.9749 5.96399 10.4193 5.85699C9.48964 5.73951 8.54866 5.95844 7.76638 6.47422C7.32255 6.75694 6.92022 7.10004 6.57096 7.49364C5.73424 7.66889 4.86341 7.57191 4.08574 7.21687C3.60271 6.98761 3.22993 6.57664 3.04871 6.07361C2.87887 5.45705 2.90651 4.80277 3.12775 4.20274C3.51393 3.0789 4.08267 2.02638 4.81112 1.08749C4.92183 0.935828 5.03478 0.785763 5.15989 0.645292C4.68251 0.842106 4.2302 1.09495 3.81249 1.39851C3.01212 1.97269 2.33576 2.70237 1.82384 3.54391C1.39695 4.23288 1.11618 5.00221 0.998957 5.80419C0.882977 6.64949 1.07344 7.50838 1.53587 8.22542C2.00139 8.93632 2.69789 9.46489 3.50785 9.72193C4.42099 9.97516 5.37412 10.0515 6.31592 9.94687C6.3373 10.0972 6.36722 10.2462 6.40552 10.3932C6.11022 10.5273 5.78909 10.5949 5.4648 10.5913C5.02846 10.533 4.59919 10.4304 4.18363 10.2851C3.75791 10.1738 3.31136 10.1688 2.88327 10.2707C2.18557 10.4499 1.56002 10.8397 1.09176 11.3871C0.705955 11.8081 0.411387 12.3045 0.226562 12.8448C0.651904 12.9138 1.05786 13.0719 1.41782 13.3088C1.69393 13.4989 1.9816 13.6716 2.27918 13.8259C2.47322 13.9096 2.68205 13.9538 2.89338 13.9556C3.10472 13.9575 3.3143 13.9171 3.50979 13.8368C3.6666 13.7651 3.81618 13.6785 3.95647 13.5782C3.75199 14.0981 3.67179 14.6585 3.72225 15.2149C3.93794 14.9026 4.22189 14.6435 4.55257 14.4572C4.9135 14.2636 5.31667 14.1619 5.66864 13.95C6.00673 13.7395 6.29409 13.4569 6.51016 13.1223C6.62695 12.954 6.71078 12.7661 6.81797 12.5921C6.80672 13.0304 6.87046 13.4673 7.00644 13.8841C7.1051 14.2727 7.11232 14.6788 7.02755 15.0706C6.95775 15.536 6.96294 16.0096 7.04291 16.4733C7.19925 17.0467 7.39687 17.608 7.63422 18.1528C7.73659 18.3976 7.80038 18.6568 7.82332 18.9211C7.84668 19.2746 7.77725 19.625 7.77565 19.9779C7.7557 20.309 7.78963 20.6411 7.87612 20.9612C7.92037 21.1106 8.00519 21.2449 8.12116 21.349C8.23713 21.4531 8.3797 21.523 8.53302 21.5509C8.94916 21.5573 9.3633 21.492 9.75723 21.3577C9.66394 21.6184 9.65443 21.9018 9.73004 22.1682C9.96494 22.7858 10.3612 23.3292 10.8775 23.7418C10.9581 23.8416 11.0188 23.9562 11.056 24.079C11.2134 24.4469 11.4133 24.7951 11.6518 25.1164C11.942 25.5272 12.237 25.9361 12.4923 26.37C12.6623 26.0974 12.8373 25.828 13.0264 25.5682C13.3896 25.1065 13.6968 24.6034 13.9415 24.0694C13.9757 23.948 14.0366 23.8357 14.1197 23.7408C14.5062 23.4064 14.8342 23.0099 15.0902 22.5675C15.197 22.3883 15.2646 22.1886 15.2886 21.9814C15.3127 21.7742 15.2926 21.5643 15.2297 21.3654C15.43 21.4099 15.6268 21.4687 15.8281 21.51C16.107 21.596 16.4073 21.5809 16.6763 21.4675C16.8067 21.3871 16.917 21.2779 16.9987 21.1483C17.0804 21.0186 17.1314 20.872 17.1476 20.7197C17.1956 20.1752 17.1982 19.6276 17.1553 19.0827C17.1639 18.7661 17.2293 18.4536 17.3486 18.1602C17.5825 17.6292 17.7746 17.0807 17.9229 16.5197C17.9995 16.1087 18.0121 15.6883 17.96 15.2734C17.8965 14.9028 17.8772 14.5259 17.9024 14.1507C17.9448 13.9511 17.9972 13.7539 18.0595 13.5597C18.1345 13.2383 18.17 12.9089 18.1651 12.579C18.4081 13.1419 18.8099 13.6217 19.3215 13.9596C19.7391 14.2163 20.2417 14.3007 20.6398 14.5922C20.8794 14.7681 21.0922 14.9778 21.2714 15.2149C21.3084 14.667 21.2307 14.1174 21.0433 13.6013C21.1799 13.6691 21.2992 13.7683 21.4423 13.8246C21.8285 13.9923 22.265 14.0019 22.6582 13.8512C22.9478 13.7133 23.2249 13.5505 23.4863 13.3645C23.8731 13.1017 24.3115 12.9242 24.7722 12.8439C24.6361 12.4595 24.4456 12.0966 24.2065 11.7662ZM6.73382 11.0655C6.86118 10.9156 7.01906 10.7947 7.1969 10.7107C7.37474 10.6267 7.56846 10.5816 7.76511 10.5785C8.06015 10.5874 8.34256 10.7003 8.56245 10.8972C8.76937 11.0911 8.9388 11.3215 9.06225 11.5768C9.2168 11.8773 9.36367 12.1825 9.48877 12.4967C9.25019 12.0531 8.93057 11.6582 8.54645 11.3323C8.18933 11.0514 7.73782 10.9186 7.28547 10.9615C7.09865 10.9782 6.91389 11.013 6.73382 11.0655ZM8.69492 13.3504C8.54966 13.2323 8.35735 13.1901 8.21817 13.0634C8.04388 12.874 7.84995 12.7037 7.63966 12.5553C7.40897 12.4328 7.15479 12.361 6.89412 12.3447C7.05804 12.3047 7.21966 12.2558 7.37824 12.1982C7.61855 12.0825 7.8817 12.022 8.14841 12.0212C8.27624 12.0328 8.39955 12.0743 8.50835 12.1424C8.61714 12.2105 8.70836 12.3033 8.7746 12.4132C8.93624 12.721 9.0311 13.0594 9.05297 13.4064C9.08024 13.5613 9.09734 13.7177 9.10417 13.8748C9.00704 13.6726 8.86745 13.4938 8.69492 13.3504ZM11.4403 21.606C11.1206 21.5893 10.7991 21.6066 10.481 21.5634C11.049 21.4783 11.6147 21.3769 12.1788 21.2684C12.307 21.2323 12.4411 21.2221 12.5733 21.2383C13.204 21.35 13.8343 21.4674 14.4675 21.5641C13.4596 21.6166 12.4495 21.6514 11.4403 21.606ZM15.3206 19.0267C15.2331 19.3363 15.0549 19.6125 14.8089 19.8199C14.7481 19.8579 14.6804 19.8833 14.6096 19.8947C14.5388 19.9061 14.4665 19.9032 14.3968 19.8861C14.3272 19.8691 14.2617 19.8383 14.2041 19.7956C14.1466 19.7528 14.0982 19.699 14.0618 19.6372C14.0115 19.5536 13.9894 19.4559 13.9989 19.3588C14.0083 19.2616 14.0488 19.1701 14.1143 19.0977C14.3347 18.8933 14.578 18.715 14.8393 18.5663C14.9544 18.4911 15.0403 18.3789 15.0828 18.2482C15.0831 18.1903 15.0702 18.133 15.045 18.0808C15.0198 18.0286 14.983 17.9829 14.9375 17.9471C14.8919 17.9113 14.8388 17.8864 14.7821 17.8742C14.7255 17.8621 14.6668 17.863 14.6106 17.877C14.4339 17.951 14.2708 18.0537 14.1277 18.181C13.9493 18.2968 13.751 18.3785 13.5428 18.4219C13.1475 18.5018 12.7444 18.5364 12.3413 18.525C11.9347 18.5304 11.5301 18.4665 11.1449 18.3362C10.879 18.2357 10.6867 18.0098 10.4292 17.8943C10.3756 17.8717 10.3175 17.8617 10.2595 17.865C10.2014 17.8684 10.1449 17.885 10.0943 17.9136C10.0437 17.9423 10.0003 17.9821 9.96746 18.0301C9.93466 18.0781 9.9133 18.133 9.90505 18.1906C9.88681 18.3458 10.0106 18.4616 10.1182 18.5525C10.3386 18.7214 10.5962 18.8379 10.8051 19.0225C10.8771 19.0845 10.9305 19.1652 10.9596 19.2557C10.9886 19.3461 10.9921 19.4428 10.9696 19.5351C10.928 19.6579 10.8435 19.7616 10.7317 19.8273C10.6199 19.893 10.4882 19.9163 10.3607 19.8929C10.262 19.8642 10.1703 19.8156 10.0911 19.7502C10.0118 19.6848 9.94679 19.6039 9.89993 19.5124C9.77073 19.2685 9.6593 19.0156 9.56652 18.7557C9.45982 18.5414 9.42827 18.2974 9.47693 18.063C9.51928 17.9301 9.59195 17.8089 9.68918 17.709C9.78642 17.609 9.90556 17.533 10.0372 17.487C10.318 17.3949 10.6075 17.332 10.9011 17.2992C11.2975 17.2472 11.6963 17.2161 12.0959 17.2061C12.761 17.1853 13.4267 17.2159 14.0871 17.2976C14.3864 17.3283 14.6816 17.3914 14.9673 17.4858C15.1218 17.541 15.2574 17.6391 15.3583 17.7686C15.4591 17.8981 15.521 18.0535 15.5368 18.2169C15.5219 18.4989 15.4483 18.7748 15.3206 19.0267ZM17.5479 12.4529C17.3542 12.53 17.1783 12.6459 17.0311 12.7937C16.8906 12.9687 16.7158 13.1134 16.5176 13.2189C16.2301 13.3628 15.9999 13.6 15.8648 13.8918C15.8991 13.5172 15.961 13.1457 16.0501 12.7802C16.0823 12.6337 16.1464 12.4962 16.2377 12.3772C16.3289 12.2582 16.4453 12.1607 16.5784 12.0916C16.7121 12.0393 16.8552 12.0154 16.9986 12.0212C17.142 12.0271 17.2826 12.0628 17.4116 12.1259C17.6314 12.2162 17.8576 12.2901 18.0883 12.347C17.9044 12.3593 17.7229 12.3949 17.5479 12.4529ZM16.7397 11.1288C16.2123 11.4658 15.7864 11.9397 15.5074 12.4999C15.672 12.089 15.8636 11.6893 16.0808 11.3036C16.1835 11.1169 16.3267 10.9555 16.4998 10.8313C16.6729 10.707 16.8716 10.6231 17.0814 10.5855C17.2968 10.5708 17.5128 10.6057 17.7125 10.6876C17.9123 10.7696 18.0906 10.8963 18.2336 11.0581C17.7439 10.8967 17.2119 10.9219 16.7397 11.1288Z"/>
</mask>
<path d="M24.2065 11.7662C23.9429 11.3654 23.6015 11.0218 23.2024 10.7556C22.8033 10.4894 22.3548 10.3063 21.8835 10.2169C21.2936 10.1726 20.7015 10.2663 20.1541 10.4905C19.6396 10.6555 19.082 10.6216 18.5913 10.3955C18.632 10.2508 18.6547 10.1021 18.6838 9.95519C19.5507 10.0377 20.4251 9.98076 21.274 9.78656C21.817 9.6426 22.3233 9.38524 22.7596 9.03143C23.1771 8.68425 23.5087 8.24537 23.7288 7.74898C24 7.13024 24.0936 6.44817 23.9988 5.77925C23.8994 5.07811 23.669 4.40191 23.3199 3.78583C22.5391 2.37444 21.3089 1.26461 19.8248 0.632812C20.3733 1.29804 20.853 2.01705 21.2567 2.77887C21.5938 3.38128 21.8438 4.02839 21.9994 4.70093C22.1172 5.2137 22.0806 5.74985 21.8944 6.24191C21.6564 6.73668 21.236 7.11997 20.7214 7.31126C19.9947 7.57598 19.2109 7.64376 18.4496 7.50772C18.3885 7.50452 18.3574 7.44661 18.3187 7.40853C17.7627 6.79072 17.0661 6.31583 16.2879 6.02402C15.636 5.79544 14.9325 5.75693 14.2596 5.91299C13.707 6.02497 13.2065 6.29985 12.6639 6.44382C12.4506 6.48224 12.2307 6.4542 12.0338 6.3635C11.5166 6.13392 10.9749 5.96399 10.4193 5.85699C9.48964 5.73951 8.54866 5.95844 7.76638 6.47422C7.32255 6.75694 6.92022 7.10004 6.57096 7.49364C5.73424 7.66889 4.86341 7.57191 4.08574 7.21687C3.60271 6.98761 3.22993 6.57664 3.04871 6.07361C2.87887 5.45705 2.90651 4.80277 3.12775 4.20274C3.51393 3.0789 4.08267 2.02638 4.81112 1.08749C4.92183 0.935828 5.03478 0.785763 5.15989 0.645292C4.68251 0.842106 4.2302 1.09495 3.81249 1.39851C3.01212 1.97269 2.33576 2.70237 1.82384 3.54391C1.39695 4.23288 1.11618 5.00221 0.998957 5.80419C0.882977 6.64949 1.07344 7.50838 1.53587 8.22542C2.00139 8.93632 2.69789 9.46489 3.50785 9.72193C4.42099 9.97516 5.37412 10.0515 6.31592 9.94687C6.3373 10.0972 6.36722 10.2462 6.40552 10.3932C6.11022 10.5273 5.78909 10.5949 5.4648 10.5913C5.02846 10.533 4.59919 10.4304 4.18363 10.2851C3.75791 10.1738 3.31136 10.1688 2.88327 10.2707C2.18557 10.4499 1.56002 10.8397 1.09176 11.3871C0.705955 11.8081 0.411387 12.3045 0.226562 12.8448C0.651904 12.9138 1.05786 13.0719 1.41782 13.3088C1.69393 13.4989 1.9816 13.6716 2.27918 13.8259C2.47322 13.9096 2.68205 13.9538 2.89338 13.9556C3.10472 13.9575 3.3143 13.9171 3.50979 13.8368C3.6666 13.7651 3.81618 13.6785 3.95647 13.5782C3.75199 14.0981 3.67179 14.6585 3.72225 15.2149C3.93794 14.9026 4.22189 14.6435 4.55257 14.4572C4.9135 14.2636 5.31667 14.1619 5.66864 13.95C6.00673 13.7395 6.29409 13.4569 6.51016 13.1223C6.62695 12.954 6.71078 12.7661 6.81797 12.5921C6.80672 13.0304 6.87046 13.4673 7.00644 13.8841C7.1051 14.2727 7.11232 14.6788 7.02755 15.0706C6.95775 15.536 6.96294 16.0096 7.04291 16.4733C7.19925 17.0467 7.39687 17.608 7.63422 18.1528C7.73659 18.3976 7.80038 18.6568 7.82332 18.9211C7.84668 19.2746 7.77725 19.625 7.77565 19.9779C7.7557 20.309 7.78963 20.6411 7.87612 20.9612C7.92037 21.1106 8.00519 21.2449 8.12116 21.349C8.23713 21.4531 8.3797 21.523 8.53302 21.5509C8.94916 21.5573 9.3633 21.492 9.75723 21.3577C9.66394 21.6184 9.65443 21.9018 9.73004 22.1682C9.96494 22.7858 10.3612 23.3292 10.8775 23.7418C10.9581 23.8416 11.0188 23.9562 11.056 24.079C11.2134 24.4469 11.4133 24.7951 11.6518 25.1164C11.942 25.5272 12.237 25.9361 12.4923 26.37C12.6623 26.0974 12.8373 25.828 13.0264 25.5682C13.3896 25.1065 13.6968 24.6034 13.9415 24.0694C13.9757 23.948 14.0366 23.8357 14.1197 23.7408C14.5062 23.4064 14.8342 23.0099 15.0902 22.5675C15.197 22.3883 15.2646 22.1886 15.2886 21.9814C15.3127 21.7742 15.2926 21.5643 15.2297 21.3654C15.43 21.4099 15.6268 21.4687 15.8281 21.51C16.107 21.596 16.4073 21.5809 16.6763 21.4675C16.8067 21.3871 16.917 21.2779 16.9987 21.1483C17.0804 21.0186 17.1314 20.872 17.1476 20.7197C17.1956 20.1752 17.1982 19.6276 17.1553 19.0827C17.1639 18.7661 17.2293 18.4536 17.3486 18.1602C17.5825 17.6292 17.7746 17.0807 17.9229 16.5197C17.9995 16.1087 18.0121 15.6883 17.96 15.2734C17.8965 14.9028 17.8772 14.5259 17.9024 14.1507C17.9448 13.9511 17.9972 13.7539 18.0595 13.5597C18.1345 13.2383 18.17 12.9089 18.1651 12.579C18.4081 13.1419 18.8099 13.6217 19.3215 13.9596C19.7391 14.2163 20.2417 14.3007 20.6398 14.5922C20.8794 14.7681 21.0922 14.9778 21.2714 15.2149C21.3084 14.667 21.2307 14.1174 21.0433 13.6013C21.1799 13.6691 21.2992 13.7683 21.4423 13.8246C21.8285 13.9923 22.265 14.0019 22.6582 13.8512C22.9478 13.7133 23.2249 13.5505 23.4863 13.3645C23.8731 13.1017 24.3115 12.9242 24.7722 12.8439C24.6361 12.4595 24.4456 12.0966 24.2065 11.7662ZM6.73382 11.0655C6.86118 10.9156 7.01906 10.7947 7.1969 10.7107C7.37474 10.6267 7.56846 10.5816 7.76511 10.5785C8.06015 10.5874 8.34256 10.7003 8.56245 10.8972C8.76937 11.0911 8.9388 11.3215 9.06225 11.5768C9.2168 11.8773 9.36367 12.1825 9.48877 12.4967C9.25019 12.0531 8.93057 11.6582 8.54645 11.3323C8.18933 11.0514 7.73782 10.9186 7.28547 10.9615C7.09865 10.9782 6.91389 11.013 6.73382 11.0655ZM8.69492 13.3504C8.54966 13.2323 8.35735 13.1901 8.21817 13.0634C8.04388 12.874 7.84995 12.7037 7.63966 12.5553C7.40897 12.4328 7.15479 12.361 6.89412 12.3447C7.05804 12.3047 7.21966 12.2558 7.37824 12.1982C7.61855 12.0825 7.8817 12.022 8.14841 12.0212C8.27624 12.0328 8.39955 12.0743 8.50835 12.1424C8.61714 12.2105 8.70836 12.3033 8.7746 12.4132C8.93624 12.721 9.0311 13.0594 9.05297 13.4064C9.08024 13.5613 9.09734 13.7177 9.10417 13.8748C9.00704 13.6726 8.86745 13.4938 8.69492 13.3504ZM11.4403 21.606C11.1206 21.5893 10.7991 21.6066 10.481 21.5634C11.049 21.4783 11.6147 21.3769 12.1788 21.2684C12.307 21.2323 12.4411 21.2221 12.5733 21.2383C13.204 21.35 13.8343 21.4674 14.4675 21.5641C13.4596 21.6166 12.4495 21.6514 11.4403 21.606ZM15.3206 19.0267C15.2331 19.3363 15.0549 19.6125 14.8089 19.8199C14.7481 19.8579 14.6804 19.8833 14.6096 19.8947C14.5388 19.9061 14.4665 19.9032 14.3968 19.8861C14.3272 19.8691 14.2617 19.8383 14.2041 19.7956C14.1466 19.7528 14.0982 19.699 14.0618 19.6372C14.0115 19.5536 13.9894 19.4559 13.9989 19.3588C14.0083 19.2616 14.0488 19.1701 14.1143 19.0977C14.3347 18.8933 14.578 18.715 14.8393 18.5663C14.9544 18.4911 15.0403 18.3789 15.0828 18.2482C15.0831 18.1903 15.0702 18.133 15.045 18.0808C15.0198 18.0286 14.983 17.9829 14.9375 17.9471C14.8919 17.9113 14.8388 17.8864 14.7821 17.8742C14.7255 17.8621 14.6668 17.863 14.6106 17.877C14.4339 17.951 14.2708 18.0537 14.1277 18.181C13.9493 18.2968 13.751 18.3785 13.5428 18.4219C13.1475 18.5018 12.7444 18.5364 12.3413 18.525C11.9347 18.5304 11.5301 18.4665 11.1449 18.3362C10.879 18.2357 10.6867 18.0098 10.4292 17.8943C10.3756 17.8717 10.3175 17.8617 10.2595 17.865C10.2014 17.8684 10.1449 17.885 10.0943 17.9136C10.0437 17.9423 10.0003 17.9821 9.96746 18.0301C9.93466 18.0781 9.9133 18.133 9.90505 18.1906C9.88681 18.3458 10.0106 18.4616 10.1182 18.5525C10.3386 18.7214 10.5962 18.8379 10.8051 19.0225C10.8771 19.0845 10.9305 19.1652 10.9596 19.2557C10.9886 19.3461 10.9921 19.4428 10.9696 19.5351C10.928 19.6579 10.8435 19.7616 10.7317 19.8273C10.6199 19.893 10.4882 19.9163 10.3607 19.8929C10.262 19.8642 10.1703 19.8156 10.0911 19.7502C10.0118 19.6848 9.94679 19.6039 9.89993 19.5124C9.77073 19.2685 9.6593 19.0156 9.56652 18.7557C9.45982 18.5414 9.42827 18.2974 9.47693 18.063C9.51928 17.9301 9.59195 17.8089 9.68918 17.709C9.78642 17.609 9.90556 17.533 10.0372 17.487C10.318 17.3949 10.6075 17.332 10.9011 17.2992C11.2975 17.2472 11.6963 17.2161 12.0959 17.2061C12.761 17.1853 13.4267 17.2159 14.0871 17.2976C14.3864 17.3283 14.6816 17.3914 14.9673 17.4858C15.1218 17.541 15.2574 17.6391 15.3583 17.7686C15.4591 17.8981 15.521 18.0535 15.5368 18.2169C15.5219 18.4989 15.4483 18.7748 15.3206 19.0267ZM17.5479 12.4529C17.3542 12.53 17.1783 12.6459 17.0311 12.7937C16.8906 12.9687 16.7158 13.1134 16.5176 13.2189C16.2301 13.3628 15.9999 13.6 15.8648 13.8918C15.8991 13.5172 15.961 13.1457 16.0501 12.7802C16.0823 12.6337 16.1464 12.4962 16.2377 12.3772C16.3289 12.2582 16.4453 12.1607 16.5784 12.0916C16.7121 12.0393 16.8552 12.0154 16.9986 12.0212C17.142 12.0271 17.2826 12.0628 17.4116 12.1259C17.6314 12.2162 17.8576 12.2901 18.0883 12.347C17.9044 12.3593 17.7229 12.3949 17.5479 12.4529ZM16.7397 11.1288C16.2123 11.4658 15.7864 11.9397 15.5074 12.4999C15.672 12.089 15.8636 11.6893 16.0808 11.3036C16.1835 11.1169 16.3267 10.9555 16.4998 10.8313C16.6729 10.707 16.8716 10.6231 17.0814 10.5855C17.2968 10.5708 17.5128 10.6057 17.7125 10.6876C17.9123 10.7696 18.0906 10.8963 18.2336 11.0581C17.7439 10.8967 17.2119 10.9219 16.7397 11.1288Z" fill="#485648" stroke="black" stroke-width="2" mask="url(#path-1-inside-1_1431_46404)"/>
</svg>
