<svg width="31" height="30" viewBox="0 0 31 30" fill="none" xmlns="http://www.w3.org/2000/svg">
<path d="M12.0719 12.1875H7.73438C7.22188 12.1875 6.79688 11.7625 6.79688 11.25C6.79688 10.7375 7.22188 10.3125 7.73438 10.3125H12.0719C12.5844 10.3125 13.0094 10.7375 13.0094 11.25C13.0094 11.7625 12.5969 12.1875 12.0719 12.1875Z" fill="#485648"/>
<path d="M12.0719 17.1875H7.73438C7.22188 17.1875 6.79688 16.7625 6.79688 16.25C6.79688 15.7375 7.22188 15.3125 7.73438 15.3125H12.0719C12.5844 15.3125 13.0094 15.7375 13.0094 16.25C13.0094 16.7625 12.5969 17.1875 12.0719 17.1875Z" fill="#485648"/>
<path opacity="0.4" d="M16.4867 9.26294V27.5004H5.96172C4.51172 27.5004 3.32422 26.3379 3.32422 24.9129V6.36294C3.32422 3.08794 5.77422 1.60044 8.76172 3.06294L14.2992 5.80044C15.4992 6.38794 16.4867 7.95044 16.4867 9.26294Z" fill="#485648"/>
<path opacity="0.6" d="M28.3594 18.8188V24.3812C28.3594 26.1062 26.9594 27.5062 25.2344 27.5062H16.4844V13.0312L17.0719 13.1563L22.1219 14.2812L22.7219 14.4187L25.2719 14.9937C25.8844 15.1187 26.4469 15.3313 26.9344 15.6438C26.9344 15.6563 26.9469 15.6563 26.9469 15.6563C27.0719 15.7438 27.1969 15.8438 27.3094 15.9563C27.8844 16.5313 28.2594 17.3687 28.3469 18.5937C28.3469 18.6687 28.3594 18.7438 28.3594 18.8188Z" fill="#485648"/>
<path d="M16.4844 13.0312V20.5312C17.0594 21.2938 17.9594 21.7812 18.9844 21.7812C20.7219 21.7812 22.1219 20.3812 22.1219 18.6562V14.2938L17.0719 13.1687L16.4844 13.0312Z" fill="#485648"/>
<path d="M28.3461 18.5859C28.2586 17.3609 27.8836 16.5234 27.3086 15.9484C27.1961 15.8359 27.0711 15.7359 26.9461 15.6484C26.9461 15.6484 26.9336 15.6484 26.9336 15.6359C26.4461 15.3234 25.8836 15.1109 25.2711 14.9859L22.7211 14.4109L22.1211 14.2734V18.6484C22.1211 20.3609 23.5086 21.7734 25.2461 21.7734C26.9211 21.7734 28.2586 20.4609 28.3586 18.8234V18.8109C28.3586 18.7359 28.3461 18.6609 28.3461 18.5859Z" fill="#485648"/>
</svg>
