<svg width="26" height="26" viewBox="0 0 26 26" fill="none" xmlns="http://www.w3.org/2000/svg">
<path opacity="0.4" d="M18.0969 0.5H7.62187C3.07187 0.5 0.359375 3.2125 0.359375 7.7625V18.225C0.359375 22.7875 3.07187 25.5 7.62187 25.5H18.0844C22.6344 25.5 25.3469 22.7875 25.3469 18.2375V7.7625C25.3594 3.2125 22.6469 0.5 18.0969 0.5Z" fill="#485648"/>
<path d="M18.3852 7.7625V18.2375C18.3852 19.0375 17.7352 19.6875 16.9352 19.6875C16.1227 19.6875 15.4727 19.0375 15.4727 18.2375V7.7625C15.4727 6.9625 16.1227 6.3125 16.9352 6.3125C17.7352 6.3125 18.3852 6.9625 18.3852 7.7625Z" fill="#485648"/>
<path d="M10.2484 14.1687V18.2438C10.2484 19.0438 9.59844 19.6937 8.78594 19.6937C7.98594 19.6937 7.33594 19.0438 7.33594 18.2438V14.1687C7.33594 13.3687 7.98594 12.7188 8.78594 12.7188C9.59844 12.7188 10.2484 13.3687 10.2484 14.1687Z" fill="#485648"/>
</svg>
