<svg width="25" height="24" viewBox="0 0 25 24" fill="none" xmlns="http://www.w3.org/2000/svg">
<path d="M12.8594 0.200195C15.3025 0.200195 16.1416 0.208019 16.9463 0.236328L17.7979 0.271484C19.5057 0.349071 21.1853 0.799535 22.4551 1.92188L22.7041 2.15527C23.9148 3.36595 24.4368 5.01183 24.5664 6.71875L24.5879 7.06152C24.6457 8.33663 24.6592 8.74242 24.6592 12C24.6592 14.4431 24.6514 15.2822 24.623 16.0869L24.5879 16.9385C24.5041 18.7655 24.0025 20.5464 22.7041 21.8447C21.4935 23.0554 19.8468 23.5774 18.1406 23.707L17.7979 23.7285C16.5227 23.7863 16.117 23.7998 12.8594 23.7998C10.4163 23.7998 9.5772 23.792 8.77246 23.7637L7.9209 23.7285C6.20997 23.65 4.53459 23.202 3.26367 22.0781L3.01465 21.8447L2.78223 21.5967C1.73726 20.4151 1.27336 18.8725 1.15234 17.2803L1.13086 16.9385C1.07308 15.6634 1.05957 15.2576 1.05957 12C1.05957 9.55689 1.06739 8.71782 1.0957 7.91309L1.13086 7.06152C1.20938 5.34887 1.65593 3.67568 2.78027 2.4043L3.01465 2.15527C4.22625 0.94367 5.8713 0.422501 7.57812 0.292969L7.9209 0.271484C9.196 0.213707 9.60179 0.200195 12.8594 0.200195ZM12.8594 1.96191C10.4562 1.96191 9.63935 1.96915 8.8457 1.99707L8.00098 2.03223C6.75813 2.08922 5.44869 2.35219 4.45508 3.21973L4.26074 3.40137C3.38849 4.27362 3.04032 5.47752 2.92676 6.64453L2.8916 7.1416C2.83339 8.41128 2.82129 8.79518 2.82129 12C2.82129 14.4032 2.82852 15.22 2.85645 16.0137L2.8916 16.8584C2.94859 18.0966 3.21469 19.4123 4.08008 20.4043L4.26074 20.5986C5.12883 21.4676 6.34017 21.8184 7.50586 21.9326L8.00098 21.9678C9.27065 22.026 9.65455 22.0381 12.8594 22.0381C15.2626 22.0381 16.0794 22.0309 16.873 22.0029L17.7178 21.9678C19.0475 21.907 20.4429 21.6138 21.458 20.5986C22.333 19.7237 22.679 18.5254 22.792 17.3564L22.8271 16.8584C22.8854 15.5887 22.8975 15.2048 22.8975 12C22.8975 9.59681 22.8902 8.77997 22.8623 7.98633L22.8271 7.1416C22.7702 5.89604 22.5085 4.59138 21.6396 3.59668L21.458 3.40137C20.5778 2.52113 19.3888 2.17979 18.2178 2.06738L17.7178 2.03223C16.4481 1.97401 16.0642 1.96191 12.8594 1.96191Z" fill="#485648" stroke="white" stroke-width="0.4"/>
<path d="M12.8574 6.03613C14.3396 6.03616 15.7648 6.58805 16.8584 7.57812L17.0732 7.78223C18.1913 8.90031 18.8193 10.4169 18.8193 11.998C18.8193 13.4802 18.2674 14.9054 17.2773 15.999L17.0732 16.2139C15.9552 17.3319 14.4386 17.9599 12.8574 17.96C12.1724 17.96 11.4933 17.8415 10.8496 17.6113L10.5762 17.5059C9.94317 17.2437 9.36013 16.8751 8.85352 16.416L8.6416 16.2139C8.15722 15.7295 7.76011 15.1658 7.46777 14.5479L7.34961 14.2793C7.05001 13.556 6.89552 12.7809 6.89551 11.998C6.89551 11.3131 7.01301 10.6338 7.24316 9.99023L7.34961 9.7168C7.61182 9.08375 7.9803 8.50078 8.43945 7.99414L8.6416 7.78223C9.12603 7.2978 9.68965 6.90075 10.3076 6.6084L10.5762 6.49023C11.2091 6.22808 11.8816 6.07655 12.5645 6.04297L12.8574 6.03613ZM12.8574 7.79785C11.813 7.79785 10.8086 8.18697 10.0381 8.88477L9.8877 9.02832C9.10004 9.81597 8.65723 10.8841 8.65723 11.998C8.65725 13.0422 9.04661 14.046 9.74414 14.8164L9.8877 14.9678C10.6753 15.7554 11.7436 16.1982 12.8574 16.1982C13.9713 16.1982 15.0395 15.7554 15.8271 14.9678C16.6148 14.1801 17.0576 13.1119 17.0576 11.998C17.0576 10.9537 16.6684 9.94919 15.9707 9.17871L15.8271 9.02832C15.0395 8.24069 13.9713 7.79788 12.8574 7.79785Z" fill="#485648" stroke="white" stroke-width="0.4"/>
<path d="M19.2686 4.35645C19.9532 4.35668 20.5078 4.91199 20.5078 5.59668C20.5076 6.28117 19.953 6.83571 19.2686 6.83594C18.5839 6.83594 18.0286 6.28132 18.0283 5.59668C18.0283 4.91185 18.5837 4.35645 19.2686 4.35645Z" fill="#485648" stroke="white" stroke-width="0.4"/>
</svg>
