<svg width="26" height="26" viewBox="0 0 26 26" fill="none" xmlns="http://www.w3.org/2000/svg">
<path opacity="0.4" d="M7.42109 24.1422C7.38359 24.1422 7.33359 24.1672 7.29609 24.1672C4.87109 22.9672 2.89609 20.9797 1.68359 18.5547C1.68359 18.5172 1.70859 18.4672 1.70859 18.4297C3.23359 18.8797 4.80859 19.2172 6.37109 19.4797C6.64609 21.0547 6.97109 22.6172 7.42109 24.1422Z" fill="#485648"/>
<path opacity="0.4" d="M24.0352 18.5672C22.7977 21.0547 20.7352 23.0672 18.2227 24.2797C18.6977 22.6922 19.0977 21.0922 19.3602 19.4797C20.9352 19.2172 22.4852 18.8797 24.0102 18.4297C23.9977 18.4797 24.0352 18.5297 24.0352 18.5672Z" fill="#485648"/>
<path opacity="0.4" d="M24.1352 7.63125C22.5602 7.15625 20.9727 6.76875 19.3602 6.49375C19.0977 4.88125 18.7102 3.28125 18.2227 1.71875C20.8102 2.95625 22.8977 5.04375 24.1352 7.63125Z" fill="#485648"/>
<path opacity="0.4" d="M7.42344 1.86562C6.97344 3.39062 6.64844 4.94062 6.38594 6.51562C4.77344 6.76562 3.17344 7.16563 1.58594 7.64062C2.79844 5.12813 4.81094 3.06562 7.29844 1.82812C7.33594 1.82812 7.38594 1.86562 7.42344 1.86562Z" fill="#485648"/>
<path d="M17.2211 6.2375C14.3211 5.9125 11.3961 5.9125 8.49609 6.2375C8.80859 4.525 9.20859 2.8125 9.77109 1.1625C9.79609 1.0625 9.78359 0.9875 9.79609 0.8875C10.7836 0.65 11.7961 0.5 12.8586 0.5C13.9086 0.5 14.9336 0.65 15.9086 0.8875C15.9211 0.9875 15.9211 1.0625 15.9461 1.1625C16.5086 2.825 16.9086 4.525 17.2211 6.2375Z" fill="#485648"/>
<path d="M6.09688 17.3578C4.37188 17.0453 2.67188 16.6453 1.02187 16.0828C0.921875 16.0578 0.846875 16.0703 0.746875 16.0578C0.509375 15.0703 0.359375 14.0578 0.359375 12.9953C0.359375 11.9453 0.509375 10.9203 0.746875 9.94531C0.846875 9.93281 0.921875 9.93281 1.02187 9.90781C2.68438 9.35781 4.37188 8.94531 6.09688 8.63281C5.78438 11.5328 5.78438 14.4578 6.09688 17.3578Z" fill="#485648"/>
<path d="M25.3586 12.9953C25.3586 14.0578 25.2086 15.0703 24.9711 16.0578C24.8711 16.0703 24.7961 16.0578 24.6961 16.0828C23.0336 16.6328 21.3336 17.0453 19.6211 17.3578C19.9461 14.4578 19.9461 11.5328 19.6211 8.63281C21.3336 8.94531 23.0461 9.34531 24.6961 9.90781C24.7961 9.93281 24.8711 9.94531 24.9711 9.94531C25.2086 10.9328 25.3586 11.9453 25.3586 12.9953Z" fill="#485648"/>
<path d="M17.2211 19.7578C16.9086 21.4828 16.5086 23.1828 15.9461 24.8328C15.9211 24.9328 15.9211 25.0078 15.9086 25.1078C14.9336 25.3453 13.9086 25.4953 12.8586 25.4953C11.7961 25.4953 10.7836 25.3453 9.79609 25.1078C9.78359 25.0078 9.79609 24.9328 9.77109 24.8328C9.22109 23.1703 8.80859 21.4828 8.49609 19.7578C9.94609 19.9203 11.3961 20.0328 12.8586 20.0328C14.3211 20.0328 15.7836 19.9203 17.2211 19.7578Z" fill="#485648"/>
<path d="M17.5635 17.7042C14.4372 18.0986 11.2816 18.0986 8.15521 17.7042C7.76076 14.5778 7.76076 11.4222 8.15521 8.29584C11.2816 7.90139 14.4372 7.90139 17.5635 8.29584C17.958 11.4222 17.958 14.5778 17.5635 17.7042Z" fill="#485648"/>
</svg>
