<svg width="26" height="26" viewBox="0 0 26 26" fill="none" xmlns="http://www.w3.org/2000/svg">
<path opacity="0.4" d="M18.0961 0.5H7.63359C3.08359 0.5 0.371094 3.2125 0.371094 7.7625V18.225C0.371094 22.775 3.08359 25.4875 7.63359 25.4875H18.0961C22.6461 25.4875 25.3586 22.775 25.3586 18.225V7.7625C25.3586 3.2125 22.6461 0.5 18.0961 0.5Z" fill="#485648"/>
<path d="M22.0453 8.33751C21.9953 8.22501 21.9328 8.125 21.8453 8.0375L19.5953 5.7875C19.2328 5.425 18.6328 5.425 18.2703 5.7875C17.9078 6.15 17.9078 6.75 18.2703 7.1125L18.9203 7.7625H18.7328C16.2953 7.7625 14.1828 9.1 13.0203 11.0625C11.8703 9.1 9.75784 7.7625 7.32034 7.7625H6.78285L7.43279 7.1125C7.79529 6.75 7.79529 6.15 7.43279 5.7875C7.07029 5.425 6.4703 5.425 6.1078 5.7875L3.85781 8.0375C3.49531 8.4 3.49531 9 3.85781 9.3625L6.1078 11.6125C6.2953 11.8 6.53283 11.8875 6.77033 11.8875C7.00783 11.8875 7.24529 11.8 7.43279 11.6125C7.79529 11.25 7.79529 10.65 7.43279 10.2875L6.78285 9.6375H7.30782C9.93282 9.6375 12.0703 11.775 12.0703 14.4V16.85V19.5625C12.0703 20.075 12.4953 20.5 13.0078 20.5C13.5203 20.5 13.9453 20.075 13.9453 19.5625V16.85V14.4C13.9453 11.775 16.0828 9.6375 18.7203 9.6375H18.9079L18.2578 10.2875C17.8953 10.65 17.8953 11.25 18.2578 11.6125C18.4453 11.8 18.6828 11.8875 18.9203 11.8875C19.1578 11.8875 19.3953 11.8 19.5828 11.6125L21.8328 9.3625C21.9203 9.275 21.9829 9.17501 22.0329 9.06251C22.1454 8.82501 22.1453 8.56251 22.0453 8.33751Z" fill="#485648"/>
</svg>
