<svg width="11" height="11" viewBox="0 0 11 11" fill="none" xmlns="http://www.w3.org/2000/svg">
<path d="M0 8.70833C0.000727768 9.3159 0.242404 9.89837 0.672017 10.328C1.10163 10.7576 1.6841 10.9993 2.29167 11H8.70833C9.3159 10.9993 9.89837 10.7576 10.328 10.328C10.7576 9.89837 10.9993 9.3159 11 8.70833V4.58333H0V8.70833ZM7.79167 6.64583C7.92764 6.64583 8.06056 6.68615 8.17362 6.7617C8.28668 6.83724 8.3748 6.94461 8.42683 7.07024C8.47887 7.19586 8.49248 7.3341 8.46596 7.46746C8.43943 7.60082 8.37395 7.72332 8.2778 7.81947C8.18165 7.91562 8.05915 7.9811 7.92579 8.00762C7.79243 8.03415 7.6542 8.02054 7.52857 7.9685C7.40295 7.91646 7.29557 7.82835 7.22003 7.71529C7.14449 7.60223 7.10417 7.46931 7.10417 7.33333C7.10417 7.151 7.1766 6.97613 7.30553 6.8472C7.43446 6.71827 7.60933 6.64583 7.79167 6.64583ZM5.5 6.64583C5.63597 6.64583 5.7689 6.68615 5.88195 6.7617C5.99501 6.83724 6.08313 6.94461 6.13517 7.07024C6.1872 7.19586 6.20082 7.3341 6.17429 7.46746C6.14776 7.60082 6.08228 7.72332 5.98614 7.81947C5.88999 7.91562 5.76749 7.9811 5.63413 8.00762C5.50076 8.03415 5.36253 8.02054 5.23691 7.9685C5.11128 7.91646 5.00391 7.82835 4.92836 7.71529C4.85282 7.60223 4.8125 7.46931 4.8125 7.33333C4.8125 7.151 4.88493 6.97613 5.01386 6.8472C5.1428 6.71827 5.31766 6.64583 5.5 6.64583ZM3.20833 6.64583C3.34431 6.64583 3.47723 6.68615 3.59029 6.7617C3.70335 6.83724 3.79147 6.94461 3.8435 7.07024C3.89554 7.19586 3.90915 7.3341 3.88262 7.46746C3.8561 7.60082 3.79062 7.72332 3.69447 7.81947C3.59832 7.91562 3.47582 7.9811 3.34246 8.00762C3.2091 8.03415 3.07086 8.02054 2.94524 7.9685C2.81961 7.91646 2.71224 7.82835 2.6367 7.71529C2.56115 7.60223 2.52083 7.46931 2.52083 7.33333C2.52083 7.151 2.59327 6.97613 2.7222 6.8472C2.85113 6.71827 3.026 6.64583 3.20833 6.64583ZM8.70833 0.916667H8.25V0.458333C8.25 0.336776 8.20171 0.220197 8.11576 0.134243C8.0298 0.0482886 7.91322 0 7.79167 0C7.67011 0 7.55353 0.0482886 7.46758 0.134243C7.38162 0.220197 7.33333 0.336776 7.33333 0.458333V0.916667H3.66667V0.458333C3.66667 0.336776 3.61838 0.220197 3.53242 0.134243C3.44647 0.0482886 3.32989 0 3.20833 0C3.08678 0 2.9702 0.0482886 2.88424 0.134243C2.79829 0.220197 2.75 0.336776 2.75 0.458333V0.916667H2.29167C1.6841 0.917394 1.10163 1.15907 0.672017 1.58868C0.242404 2.0183 0.000727768 2.60077 0 3.20833V3.66667H11V3.20833C10.9993 2.60077 10.7576 2.0183 10.328 1.58868C9.89837 1.15907 9.3159 0.917394 8.70833 0.916667Z" fill="white"/>
</svg>
