<svg width="19" height="19" viewBox="0 0 19 19" fill="none" xmlns="http://www.w3.org/2000/svg">
<path d="M13.2609 2.82094V1.58594C13.2609 1.26135 12.9918 0.992188 12.6672 0.992188C12.3426 0.992188 12.0734 1.26135 12.0734 1.58594V2.77344H6.92759V1.58594C6.92759 1.26135 6.65842 0.992188 6.33384 0.992188C6.00926 0.992188 5.74009 1.26135 5.74009 1.58594V2.82094C3.60259 3.01885 2.56551 4.29344 2.40717 6.18552C2.39134 6.4151 2.58134 6.6051 2.80301 6.6051H16.198C16.4276 6.6051 16.6176 6.40719 16.5938 6.18552C16.4355 4.29344 15.3984 3.01885 13.2609 2.82094Z" fill="#485648"/>
<path opacity="0.4" d="M15.8333 7.78906C16.2688 7.78906 16.625 8.14531 16.625 8.58073V13.4574C16.625 15.8324 15.4375 17.4157 12.6667 17.4157H6.33333C3.5625 17.4157 2.375 15.8324 2.375 13.4574V8.58073C2.375 8.14531 2.73125 7.78906 3.16667 7.78906H15.8333Z" fill="#485648"/>
<path d="M6.72917 11.8715C6.52333 11.8715 6.3175 11.7844 6.16708 11.6419C6.02458 11.4915 5.9375 11.2857 5.9375 11.0799C5.9375 10.874 6.02458 10.6682 6.16708 10.5178C6.38875 10.2961 6.73708 10.2248 7.03 10.3515C7.13292 10.3911 7.22 10.4465 7.29125 10.5178C7.43375 10.6682 7.52083 10.874 7.52083 11.0799C7.52083 11.2857 7.43375 11.4915 7.29125 11.6419C7.14083 11.7844 6.935 11.8715 6.72917 11.8715Z" fill="#485648"/>
<path d="M9.4987 11.8715C9.29286 11.8715 9.08703 11.7844 8.93662 11.6419C8.79412 11.4915 8.70703 11.2857 8.70703 11.0799C8.70703 10.874 8.79412 10.6682 8.93662 10.5178C9.00787 10.4465 9.09495 10.3911 9.19786 10.3515C9.49078 10.2248 9.83911 10.2961 10.0608 10.5178C10.2033 10.6682 10.2904 10.874 10.2904 11.0799C10.2904 11.2857 10.2033 11.4915 10.0608 11.6419C10.0212 11.6736 9.98162 11.7053 9.94203 11.7369C9.89453 11.7686 9.84703 11.7924 9.79953 11.8082C9.75203 11.8319 9.70453 11.8478 9.65703 11.8557C9.60162 11.8636 9.55411 11.8715 9.4987 11.8715Z" fill="#485648"/>
<path d="M12.2721 11.8724C12.0663 11.8724 11.8605 11.7853 11.7101 11.6428C11.5676 11.4924 11.4805 11.2866 11.4805 11.0807C11.4805 10.8749 11.5676 10.6691 11.7101 10.5187C11.7892 10.4474 11.8684 10.392 11.9713 10.3524C12.1138 10.2891 12.2721 10.2732 12.4305 10.3049C12.478 10.3128 12.5255 10.3286 12.573 10.3524C12.6205 10.3682 12.668 10.392 12.7155 10.4237C12.7551 10.4553 12.7946 10.487 12.8342 10.5187C12.9767 10.6691 13.0638 10.8749 13.0638 11.0807C13.0638 11.2866 12.9767 11.4924 12.8342 11.6428C12.7946 11.6745 12.7551 11.7061 12.7155 11.7378C12.668 11.7695 12.6205 11.7932 12.573 11.8091C12.5255 11.8328 12.478 11.8487 12.4305 11.8566C12.3751 11.8645 12.3196 11.8724 12.2721 11.8724Z" fill="#485648"/>
<path d="M6.72917 14.6458C6.62625 14.6458 6.52333 14.6221 6.42833 14.5825C6.32542 14.5429 6.24625 14.4875 6.16708 14.4163C6.02458 14.2658 5.9375 14.06 5.9375 13.8542C5.9375 13.6483 6.02458 13.4425 6.16708 13.2921C6.24625 13.2208 6.32542 13.1654 6.42833 13.1258C6.57083 13.0625 6.72917 13.0467 6.8875 13.0783C6.935 13.0863 6.9825 13.1021 7.03 13.1258C7.0775 13.1417 7.125 13.1654 7.1725 13.1971C7.21208 13.2288 7.25167 13.2604 7.29125 13.2921C7.43375 13.4425 7.52083 13.6483 7.52083 13.8542C7.52083 14.06 7.43375 14.2658 7.29125 14.4163C7.25167 14.4479 7.21208 14.4875 7.1725 14.5112C7.125 14.5429 7.0775 14.5667 7.03 14.5825C6.9825 14.6063 6.935 14.6221 6.8875 14.63C6.83208 14.6379 6.78458 14.6458 6.72917 14.6458Z" fill="#485648"/>
<path d="M9.4987 14.6437C9.29286 14.6437 9.08703 14.5567 8.93662 14.4142C8.79412 14.2637 8.70703 14.0579 8.70703 13.8521C8.70703 13.6462 8.79412 13.4404 8.93662 13.29C9.22953 12.9971 9.76786 12.9971 10.0608 13.29C10.2033 13.4404 10.2904 13.6462 10.2904 13.8521C10.2904 14.0579 10.2033 14.2637 10.0608 14.4142C9.91036 14.5567 9.70453 14.6437 9.4987 14.6437Z" fill="#485648"/>
<path d="M12.2721 14.6437C12.0663 14.6437 11.8605 14.5567 11.7101 14.4142C11.5676 14.2637 11.4805 14.0579 11.4805 13.8521C11.4805 13.6462 11.5676 13.4404 11.7101 13.29C12.003 12.9971 12.5413 12.9971 12.8342 13.29C12.9767 13.4404 13.0638 13.6462 13.0638 13.8521C13.0638 14.0579 12.9767 14.2637 12.8342 14.4142C12.6838 14.5567 12.478 14.6437 12.2721 14.6437Z" fill="#485648"/>
</svg>
