<svg width="20" height="20" viewBox="0 0 20 20" fill="none" xmlns="http://www.w3.org/2000/svg">
<path d="M7.42798 13.7812C7.64371 13.7812 7.8186 13.6064 7.8186 13.3906C7.8186 13.1749 7.64371 13 7.42798 13C7.21224 13 7.03735 13.1749 7.03735 13.3906C7.03735 13.6064 7.21224 13.7812 7.42798 13.7812Z" fill="#1B1C1E"/>
<path d="M19.3584 7.33422C18.9554 7.06434 18.4466 7.01367 17.9974 7.19867C16.4872 7.82082 14.9097 8.26574 13.3039 8.52297C13.2292 8.38742 13.129 8.26752 13.009 8.1698C12.9005 8.08106 12.7774 8.01187 12.6452 7.96531L13.1936 4.85867C13.1936 4.85867 13.3602 4.63973 13.3623 4.63687C13.5509 4.37496 13.6261 4.05523 13.5743 3.73668C13.5224 3.41809 13.3495 3.13883 13.0876 2.95031C12.5495 2.56293 11.7975 2.68313 11.4066 3.21727L10.6385 4.19059C10.6105 4.22599 10.5717 4.25138 10.5281 4.26297L9.09156 4.64168C9.5891 4.24734 9.90922 3.63836 9.90922 2.95566C9.90922 1.76961 8.9443 0.804688 7.75824 0.804688C6.57219 0.804688 5.60727 1.76961 5.60727 2.95566C5.60727 3.53809 5.84031 4.06684 6.21758 4.45453C5.20094 4.76898 4.40754 5.62465 4.20535 6.71648L4.20461 6.7207L3.99832 7.90723C3.31996 7.7041 2.65225 7.46701 1.9977 7.19684C1.77833 7.1061 1.53995 7.07096 1.30373 7.09451C1.06751 7.11807 0.840762 7.19961 0.643633 7.33187C0.445445 7.46414 0.282994 7.64331 0.17071 7.85346C0.0584261 8.06362 -0.000213413 8.29825 5.83616e-07 8.53652V10.1405C5.83616e-07 11.1129 0.378516 12.027 1.0659 12.7143C1.75387 13.4018 2.66797 13.7804 3.63984 13.7804H5.6357C5.85188 13.7804 6.02711 13.6052 6.02711 13.389C6.02711 13.1729 5.85188 12.9976 5.6357 12.9976H3.63984C2.87695 12.9976 2.1593 12.7003 1.6193 12.1607C1.07984 11.6213 0.782774 10.9038 0.782774 10.1405V8.53648C0.782774 8.31023 0.890665 8.10828 1.07883 7.98242C1.26566 7.85738 1.49168 7.83477 1.69898 7.92035C3.92559 8.83934 6.26586 9.37969 8.65879 9.5277L8.71719 9.65324C8.95152 10.157 9.46367 10.4793 10.0139 10.4792C10.0486 10.4792 11.4246 10.3783 11.4246 10.3783L10.9621 12.9975H9.22008C9.00391 12.9975 8.82867 13.1728 8.82867 13.3889C8.82867 13.6051 9.00391 13.7804 9.22008 13.7804H10.8239L10.6707 14.6486C9.98797 14.6904 9.38473 15.1538 9.18531 15.8373L8.66246 17.6291C8.49949 18.1877 8.86965 18.7818 9.44164 18.8827L11.1424 19.1829C11.7154 19.2841 12.2657 18.8515 12.3037 18.2718L12.4258 16.4092C12.4723 15.7004 12.0661 15.0599 11.4413 14.7858L11.445 14.7652L11.6189 13.7803H16.3602C18.3672 13.7803 20 12.1475 20 10.1405V8.53645C20 8.05273 19.7602 7.60324 19.3584 7.33422ZM10.7275 5.01992C10.9352 4.96475 11.1195 4.84396 11.2529 4.67555C11.2529 4.67555 12.0329 3.68699 12.0362 3.6823C12.1733 3.49187 12.4397 3.44848 12.6302 3.58559C12.6757 3.61811 12.7142 3.65933 12.7436 3.70687C12.773 3.7544 12.7927 3.8073 12.8016 3.8625C12.8197 3.97238 12.7939 4.085 12.7295 4.1759L11.5088 5.77906C11.4785 5.81885 11.4349 5.84641 11.3859 5.85672L9.81082 6.18816L9.75715 6.06672C9.64882 5.82178 9.50728 5.59293 9.33652 5.3866L10.7275 5.01992ZM12.1316 6.25332L11.8585 7.91855L10.6947 7.98477C10.6436 7.98707 10.5958 7.95988 10.5732 7.91371L10.1342 6.92004L11.5472 6.62269C11.78 6.57371 11.9874 6.4426 12.1316 6.25332ZM7.75816 1.5875C8.51262 1.5875 9.12637 2.20125 9.12637 2.95566C9.12637 3.71012 8.51262 4.32387 7.75816 4.32387C7.00371 4.32387 6.38996 3.71012 6.38996 2.95566C6.38996 2.20125 7.00375 1.5875 7.75816 1.5875ZM8.11004 7.32449C8.05823 7.34237 8.01076 7.37092 7.97068 7.4083C7.93061 7.44569 7.89884 7.49107 7.87741 7.54151C7.85599 7.59196 7.8454 7.64634 7.84632 7.70113C7.84724 7.75593 7.85966 7.80992 7.88277 7.85961L8.28102 8.7157C7.09108 8.61794 5.91172 8.41831 4.7559 8.11902L4.97531 6.85703C5.16414 5.8427 6.04961 5.10672 7.08152 5.10672C7.9293 5.10672 8.69852 5.60777 9.04113 6.3832L9.27895 6.92141L8.11004 7.32449ZM11.6447 16.358L11.5226 18.2206C11.5146 18.3429 11.3993 18.4333 11.2785 18.4121L9.5777 18.1119C9.45711 18.0906 9.37953 17.9662 9.41391 17.8484L9.93676 16.0565C10.0225 15.7626 10.2502 15.5465 10.5266 15.4647L10.4223 16.0554C10.3857 16.2627 10.5258 16.4666 10.7321 16.5074C10.9442 16.5494 11.1555 16.4044 11.1932 16.1916L11.2972 15.6024C11.4135 15.6894 11.5063 15.8041 11.567 15.9361C11.6277 16.068 11.6544 16.2131 11.6447 16.358ZM10.0604 9.69477C9.79406 9.71437 9.53953 9.56523 9.42695 9.32312L8.77563 7.92301L9.59652 7.63988L9.85934 8.23473L9.86246 8.2416C10.0206 8.58164 10.3645 8.78793 10.7392 8.76629C10.7392 8.76629 12.1964 8.68328 12.2022 8.6827C12.3151 8.67102 12.426 8.70445 12.5141 8.77633C12.5575 8.81155 12.5935 8.85503 12.62 8.90425C12.6465 8.95347 12.663 9.00746 12.6684 9.06309C12.692 9.29508 12.5236 9.50309 12.2924 9.52895L10.0604 9.69477ZM19.2172 10.1405C19.2172 11.7159 17.9355 12.9976 16.3602 12.9976H11.757L12.23 10.3185C12.23 10.3185 12.3634 10.3086 12.367 10.3082C12.9241 10.2517 13.3552 9.82309 13.4386 9.29422C15.1005 9.02719 16.7328 8.56629 18.2955 7.9225C18.5058 7.83602 18.7344 7.85855 18.9228 7.98469C19.1099 8.10996 19.2172 8.31113 19.2172 8.53656V10.1405Z" fill="#1B1C1E"/>
</svg>
