<svg width="25" height="25" viewBox="0 0 25 25" fill="none" xmlns="http://www.w3.org/2000/svg">
<g clip-path="url(#clip0_1431_46248)">
<path d="M24.6087 2.47586C24.4948 1.98097 24.25 1.52581 23.8997 1.15807C23.7122 0.964173 23.4868 0.810887 23.2375 0.707722C22.9882 0.604557 22.7204 0.553714 22.4507 0.558348C21.8706 0.57139 21.3093 0.766554 20.8463 1.11621C20.2908 1.51629 19.7814 1.97691 19.3276 2.48956C19.2348 2.46582 19.147 2.42561 19.0685 2.37083C17.642 1.6029 16.073 1.13635 14.4587 1.00015C13.6824 0.927898 12.8996 0.983301 12.1412 1.16416C11.3416 1.36221 10.5718 1.66534 9.85192 2.06564C9.72977 1.97697 9.6335 1.85597 9.51286 1.76426C8.82119 1.09465 7.95028 0.639827 7.00552 0.45484C6.18565 0.313652 5.34258 0.482674 4.6405 0.928989C4.0658 1.30827 3.6376 1.87217 3.42659 2.52761C3.21921 3.20651 3.18947 3.92726 3.34021 4.62093C3.47311 5.15948 3.6951 5.67202 3.997 6.13736C4.25044 6.55025 4.52138 6.95247 4.81478 7.33795C4.42552 8.07788 4.08387 8.8419 3.79193 9.62535C3.44807 10.5409 3.15237 11.4739 2.90603 12.4204C2.56409 13.9645 2.09937 15.4789 1.51631 16.9491C1.20237 17.7029 0.803192 18.4164 0.435977 19.1444C0.274216 19.5339 0.236607 19.9638 0.328285 20.3755C0.388804 20.884 0.519159 21.3817 0.715668 21.8546C0.85387 21.1722 1.11901 20.5219 1.49729 19.9375C2.10331 18.9155 2.60996 17.8379 3.01029 16.7193C3.27285 15.9567 3.48443 15.1781 3.69068 14.3991C4.10587 12.7169 4.62451 11.0618 5.24364 9.44345C5.3203 9.22229 5.41289 9.00698 5.52067 8.7992C5.53932 9.19608 5.59489 9.59033 5.61771 9.98685C5.68011 10.657 5.71779 11.3309 5.82929 11.9953C5.79377 11.9709 5.75354 11.9543 5.71119 11.9465C5.66883 11.9387 5.62531 11.9398 5.58344 11.9499C5.54157 11.96 5.50228 11.9788 5.46813 12.005C5.43398 12.0313 5.40573 12.0644 5.3852 12.1022C5.23345 12.3735 5.16975 12.6852 5.20292 12.9942C5.21277 13.241 5.29641 13.4792 5.44304 13.678C5.46705 13.7064 5.49667 13.7294 5.53003 13.7457C5.56339 13.7621 5.59977 13.7713 5.63687 13.7729C5.67398 13.7744 5.711 13.7683 5.74563 13.7549C5.78025 13.7414 5.81171 13.721 5.83804 13.6948C5.92679 13.5718 5.99006 13.4323 6.02412 13.2846C6.07777 13.4786 6.11507 13.6773 6.16796 13.8717C6.3744 14.7387 6.73658 15.5609 7.23689 16.2984C7.58517 16.8057 8.02621 17.2426 8.5368 17.5861C9.18046 17.9906 9.90287 18.2534 10.656 18.3571C11.5687 18.4763 12.4945 18.4506 13.3993 18.281C13.6573 18.2338 13.9099 18.1619 14.1691 18.1177C13.6204 18.0496 13.0686 18.007 12.5195 17.9427C11.773 17.8739 11.0346 17.7356 10.3139 17.5294C9.74738 17.3487 9.22246 17.0572 8.76968 16.6717C8.22206 16.163 7.784 15.548 7.48233 14.8642C6.92645 13.5772 6.6349 12.1916 6.62499 10.7898C6.55497 9.84567 6.68892 8.88254 6.45832 7.95404C6.30715 7.38513 6.05616 6.84759 5.71704 6.36645C5.30149 5.73438 4.78587 5.1396 4.59332 4.39109C4.42846 3.78074 4.4998 3.13068 4.7931 2.57061C4.91568 2.35231 5.08274 2.16218 5.28346 2.01253C5.48418 1.86287 5.71408 1.75704 5.95829 1.70186C6.59492 1.58003 7.25412 1.69622 7.81073 2.02836C8.29887 2.32301 8.74572 2.68118 9.13956 3.09348C9.54102 3.45537 9.92917 3.83438 10.3592 4.16354C10.6176 4.36138 10.9427 4.45115 11.266 4.41393C11.6168 4.37121 11.9571 4.26577 12.2706 4.10266C12.4332 4.03221 12.5667 3.90791 12.6485 3.75066C12.6911 3.61367 12.5602 3.51433 12.4506 3.46716C12.0211 3.32062 11.561 3.28733 11.1149 3.37051C10.9692 3.25254 10.823 3.13457 10.6834 3.00938C11.3921 2.61099 12.1721 2.35539 12.9792 2.25705C13.8463 2.16697 14.7215 2.19231 15.582 2.3324C15.6463 2.33201 15.66 2.40013 15.6901 2.44352C15.7433 2.51541 15.8155 2.57102 15.8986 2.6041C16.1468 2.71948 16.402 2.819 16.6627 2.90206C16.7716 2.94449 16.8895 2.95825 17.0052 2.94202C17.0524 2.872 17.0254 2.78333 17.0284 2.70532C17.1589 2.7624 17.2902 2.81872 17.4215 2.8758C18.7802 3.48543 20.0097 4.34958 21.0434 5.42158C21.5243 5.90001 21.9521 6.42898 22.3194 6.99927C22.7156 7.59483 22.9884 8.26381 23.1215 8.96664C23.0101 8.79362 22.8672 8.643 22.7003 8.52255C22.3528 8.33173 21.951 8.26399 21.5602 8.33037C21.611 8.04844 21.6017 7.75895 21.5327 7.48088C21.4638 7.20282 21.3369 6.94248 21.1603 6.71692C21.0747 6.58189 20.9562 6.47084 20.8159 6.39422C20.7944 6.38483 20.7709 6.38088 20.7476 6.38273C20.7242 6.38457 20.7016 6.39215 20.6819 6.40479C20.6621 6.41743 20.6458 6.43475 20.6343 6.45521C20.6228 6.47567 20.6166 6.49863 20.6161 6.52208C20.651 6.69274 20.7035 6.85931 20.7729 7.01906C20.9381 7.46181 20.9945 7.93778 20.9373 8.40687C20.8794 8.68923 20.7231 8.94304 20.6884 9.23187C20.6383 9.79471 20.7017 10.3619 20.8749 10.8998C21.1794 11.7395 21.5337 12.5604 21.9358 13.358C22.2346 13.9756 22.4305 14.6378 22.5158 15.3185C22.6108 15.9889 22.4819 16.6718 22.1493 17.2615C22.0708 17.4148 21.9581 17.5479 21.8199 17.6507C21.6817 17.7535 21.5218 17.8232 21.3525 17.8544C21.0351 17.8921 20.79 17.6527 20.5233 17.5249C20.7385 16.9203 21.0688 16.3632 21.4959 15.8844C21.7243 15.6279 22.0637 15.4909 22.2593 15.2028C22.3381 15.0966 22.3777 14.9664 22.3714 14.8343C22.365 14.7022 22.313 14.5764 22.2243 14.4783C22.1421 14.4205 22.0479 14.3822 21.9487 14.3663C21.8495 14.3504 21.748 14.3573 21.652 14.3866C21.4423 14.4364 21.3388 14.6708 21.1211 14.704C20.76 14.7934 20.4719 14.5099 20.1484 14.4148C19.8944 14.3685 19.6322 14.4199 19.4144 14.5586C19.3201 14.6104 19.2123 14.6325 19.1052 14.6219C18.9981 14.6114 18.8967 14.5688 18.8143 14.4996C18.7431 14.4342 18.7024 14.3257 18.6042 14.2972C18.4349 14.2804 18.3329 14.4806 18.3618 14.6278C18.4152 14.8967 18.5427 15.1452 18.7298 15.3455C19.0084 15.6834 19.5061 15.7329 19.7618 16.0971C20.051 16.4811 19.9384 16.9853 19.9662 17.4305C19.3052 17.5869 18.7511 18.0336 18.0787 18.1562C17.8184 18.2039 17.5507 18.192 17.2957 18.1213C17.0407 18.0507 16.805 17.9231 16.6064 17.7482C16.9415 17.6856 17.2615 17.5593 17.549 17.3761C17.595 17.3421 17.6346 17.3004 17.6662 17.2528C17.0766 17.2394 16.4884 17.1879 15.9055 17.0987L15.8084 17.0758C16.2586 17.0088 16.6992 16.8884 17.1209 16.7174C17.271 16.662 17.4123 16.5851 17.5402 16.489C17.538 16.4731 17.5338 16.4419 17.5315 16.4259C17.3222 16.3787 17.1057 16.376 16.8933 16.3486C16.4607 16.2927 16.0307 16.2208 15.5999 16.1523C16.0276 16.0963 16.458 16.0663 16.8865 16.0179C16.7081 15.8391 16.5956 15.6052 16.5672 15.3543C16.5845 15.0084 16.6867 14.6722 16.8648 14.3752C17.2183 13.7512 17.4435 13.0629 17.5273 12.3507C17.5772 11.8358 17.512 11.3163 17.3363 10.8297C17.1631 10.4696 17.0099 10.1002 16.8774 9.72314C16.8143 9.39519 16.7782 9.06264 16.7693 8.7288C16.7424 8.25225 16.665 7.77989 16.5383 7.31969C16.4686 7.04059 16.3551 6.77433 16.2019 6.53084C16.1689 6.46933 16.1198 6.4179 16.0599 6.382C16 6.34609 15.9315 6.32704 15.8617 6.32687C15.7728 6.35944 15.6954 6.41742 15.6392 6.4936C15.583 6.56978 15.5504 6.6608 15.5455 6.75536C15.5254 7.06656 15.5938 7.37709 15.7426 7.65113C15.97 8.02929 16.1341 8.44201 16.2285 8.87303C15.5522 8.46468 14.7482 8.32228 13.9727 8.47347C13.9716 8.48374 13.9701 8.50467 13.9689 8.51495L14.042 8.53968C13.9971 8.52941 13.9522 8.52027 13.9073 8.51381L13.8875 8.50048C13.8197 8.47727 13.7303 8.4925 13.7219 8.57583L13.7326 8.50657C13.6614 8.53359 13.5518 8.51457 13.5336 8.6097C13.5359 8.59486 13.5412 8.56478 13.5435 8.54996C13.1514 8.64967 12.7715 8.79181 12.4102 8.97387C11.2428 9.59809 10.2678 10.5291 9.59048 11.6665C9.4889 11.815 9.41467 11.9805 9.37129 12.1551C9.36497 12.1913 9.37158 12.2284 9.38995 12.2602C9.40832 12.2919 9.43728 12.3162 9.47175 12.3287C9.62871 12.3126 9.77986 12.2606 9.91355 12.1768C10.3271 11.9464 10.7051 11.6574 11.0358 11.3187C11.4821 10.8876 11.8212 10.3601 12.2687 9.93052C12.528 9.67633 12.8065 9.4425 13.1017 9.23111C13.1742 9.5079 13.2937 9.7702 13.4548 10.0066C13.6808 10.329 14.0076 10.5672 14.3837 10.6836C14.7194 10.7752 15.0671 10.8155 15.4149 10.8031C15.6129 10.8113 15.8072 10.8597 15.9858 10.9455C16.1644 11.0313 16.3237 11.1526 16.4538 11.302C16.529 11.4058 16.5721 11.5294 16.578 11.6574C16.5838 11.7855 16.552 11.9125 16.4865 12.0227C16.3043 12.3363 16.0276 12.579 15.8202 12.8743C15.4163 13.4269 15.1029 14.0403 14.8917 14.6914C14.6518 15.3486 14.6035 16.0604 14.7524 16.744C14.8209 17.0324 14.9464 17.3041 15.1215 17.5433C15.2966 17.7825 15.5177 17.9843 15.7719 18.1367C15.4607 18.6994 15.2185 19.2976 15.0508 19.9184C14.8605 20.5969 14.7094 21.2864 14.5789 21.9786C14.4263 22.842 14.2844 23.7081 14.2064 24.5815C14.6299 24.5795 15.0534 24.5795 15.4774 24.5788C15.6113 23.4467 15.8088 22.3222 16.0512 21.208C16.1696 20.5281 16.3718 19.8655 16.6532 19.2353C17.0832 19.6281 17.6071 19.9035 18.1744 20.035C18.7417 20.1666 19.3333 20.1499 19.8923 19.9865C20.5891 19.7776 21.1773 19.306 21.5328 18.6714C21.8057 18.6134 22.0626 18.4965 22.2856 18.3289C22.5087 18.1613 22.6924 17.947 22.824 17.701C23.1747 17.1326 23.3676 16.481 23.3829 15.8132C23.3899 15.1123 23.2354 14.4192 22.9312 13.7876C23.0184 13.6358 23.0884 13.4745 23.1638 13.3165C23.5169 12.6023 23.8038 11.8573 24.0211 11.0908C24.2106 10.3204 24.2384 9.51921 24.1029 8.73756C23.9769 8.02001 23.7136 7.33353 23.3274 6.71579C23.8089 6.08666 24.2018 5.39449 24.4952 4.65861C24.7416 3.95696 24.781 3.19927 24.6087 2.47586ZM15.566 10.0671C15.4626 10.1715 15.3358 10.2497 15.196 10.2951C15.0563 10.3405 14.9077 10.3518 14.7627 10.3282C14.5797 10.3034 14.4036 10.2419 14.2449 10.1474C14.0862 10.0529 13.9482 9.9274 13.8392 9.77832C13.6685 9.52727 13.554 9.24237 13.5035 8.94305C13.6835 8.92098 13.8628 8.89434 14.0439 8.88673C14.0497 9.05782 14.0912 9.22581 14.1657 9.37993C14.2402 9.53405 14.3461 9.67091 14.4766 9.78175C14.6024 9.89505 14.7633 9.96171 14.9324 9.97058C15.1015 9.97944 15.2685 9.92998 15.4054 9.83045C15.6024 9.66927 15.7302 9.43871 15.7624 9.18621C15.8103 9.2279 15.8505 9.27776 15.8811 9.33347C15.8711 9.60873 15.7587 9.87035 15.566 10.0671ZM19.6313 19.2122C19.0337 19.3852 18.3928 19.3274 17.8359 19.05C17.6553 18.9573 17.4832 18.8489 17.3214 18.7262C17.6917 18.7289 18.0595 18.6665 18.4082 18.542C18.906 18.3784 19.3276 18.0024 19.866 17.9648C20.2142 17.9906 20.5411 18.1423 20.7854 18.3917C20.5097 18.793 20.1008 19.0836 19.6313 19.2122ZM21.2885 9.97924C21.4136 9.95681 21.5329 9.90943 21.6393 9.83994C21.7457 9.77045 21.837 9.68026 21.9079 9.57474C21.9787 9.46922 22.0276 9.35052 22.0516 9.22572C22.0756 9.10092 22.0743 8.97256 22.0477 8.84829C22.1273 8.8476 22.2062 8.863 22.2798 8.89358C22.308 9.03991 22.3072 9.19038 22.2772 9.33637C22.2473 9.48237 22.1889 9.62103 22.1053 9.74442C22.0217 9.8678 21.9146 9.9735 21.7901 10.0554C21.6656 10.1374 21.5262 10.194 21.3798 10.222C21.3551 10.1391 21.3246 10.0579 21.2885 9.97924ZM23.0839 10.4835C22.9655 11.2579 22.735 12.011 22.3997 12.7191C22.2079 12.251 22.0005 11.7895 21.803 11.3233C21.7048 11.1117 21.6279 10.8899 21.5145 10.6851C21.7523 10.6488 21.9794 10.5616 22.1804 10.4295C22.3814 10.2975 22.5516 10.1236 22.6794 9.91988C22.8241 9.66642 22.912 9.38453 22.937 9.09374C23.0771 9.54275 23.127 10.0151 23.0839 10.4835ZM23.0778 4.75831C22.8205 5.22218 22.5066 5.65371 22.2771 6.13318C22.0814 5.90483 21.9415 5.63412 21.8684 5.34243C21.848 4.98687 21.9312 4.63301 22.1078 4.32374C22.3543 3.87805 22.5229 3.3935 22.6063 2.89103C22.2059 3.45344 21.6469 3.88375 21.0008 4.127C20.927 4.1388 20.892 4.2385 20.814 4.21072C20.7339 4.21752 20.6554 4.23704 20.5815 4.26856C20.375 4.07033 20.158 3.88334 19.9315 3.70841C20.4125 3.22437 20.8592 2.70304 21.3852 2.2658C21.6519 2.01978 21.983 1.85444 22.3399 1.78899C22.501 1.77603 22.6625 1.80809 22.8065 1.88161C22.9504 1.95512 23.0711 2.06718 23.155 2.2053C23.3462 2.52165 23.4479 2.88402 23.4492 3.25367C23.4635 3.77955 23.3352 4.29951 23.0778 4.75831Z" fill="#485648"/>
<path d="M14.2431 2.63158C13.8151 2.40421 13.324 2.32487 12.8462 2.40592C12.7784 2.41025 12.7124 2.4299 12.6533 2.46338C12.5942 2.49686 12.5434 2.54331 12.5048 2.59923C12.4691 2.72823 12.5821 2.82945 12.6723 2.90176C13.0371 3.12642 13.459 3.24111 13.8873 3.23206C14.075 3.24876 14.264 3.22112 14.4391 3.15138C14.5106 3.11295 14.5902 3.03875 14.5593 2.94894C14.492 2.81103 14.3808 2.6994 14.2431 2.63158Z" fill="#485648"/>
<path d="M16.4555 3.05067C16.227 2.89984 15.9523 2.83498 15.6804 2.86763C15.6062 2.88666 15.5316 2.99245 15.6146 3.04838C15.7825 3.16467 15.961 3.26493 16.1477 3.34786C16.3912 3.46583 16.6051 3.63744 16.8536 3.74437C16.9613 3.81515 17.0796 3.6755 17.0241 3.57123C16.8937 3.34249 16.6949 3.16041 16.4555 3.05067Z" fill="#485648"/>
<path d="M8.07996 4.22248C7.71935 3.84887 7.28689 3.55206 6.80859 3.34991C6.56787 3.27486 6.31439 3.24954 6.06358 3.27551C5.81276 3.30148 5.56985 3.3782 5.34961 3.50098C5.60726 3.60217 5.84081 3.7563 6.03516 3.95341C6.22951 4.15051 6.38034 4.38621 6.47789 4.64525C6.73116 5.27458 6.91874 5.92838 7.03766 6.59625C7.11034 6.97146 7.18112 7.34743 7.22641 7.72682C7.80606 6.85354 8.53001 6.0852 9.36729 5.45465C8.95214 5.02921 8.50311 4.63916 8.07996 4.22248Z" fill="#485648"/>
<path d="M18.2578 3.55861C18.1838 3.53279 18.1048 3.52509 18.0272 3.53617C18.0096 3.58725 18.0069 3.64232 18.0196 3.69485C18.0323 3.74738 18.0598 3.79519 18.0987 3.8326C18.338 4.04533 18.6015 4.22912 18.8838 4.38019C18.9816 4.4152 19.1224 4.49169 19.2019 4.38818C19.2065 4.3341 19.1978 4.27972 19.1766 4.22974C19.1555 4.17976 19.1225 4.13566 19.0805 4.10126C18.8538 3.85696 18.5716 3.67083 18.2578 3.55861Z" fill="#485648"/>
<path d="M14.244 3.8444C14.2046 3.86156 14.1735 3.89369 14.1578 3.93373C14.142 3.97376 14.1428 4.01842 14.1599 4.05788C14.2462 4.25458 14.407 4.40897 14.6071 4.48713C14.6884 4.53601 14.782 4.56072 14.8769 4.55836C14.9718 4.556 15.064 4.52667 15.1429 4.47381C15.1799 4.43671 15.2017 4.387 15.2037 4.3346C15.2057 4.28219 15.188 4.23094 15.1539 4.19107C15.0266 4.03184 14.8538 3.91528 14.6584 3.85696C14.5265 3.80236 14.3791 3.7979 14.244 3.8444Z" fill="#485648"/>
<path d="M17.874 4.21655C17.8321 4.17692 17.782 4.14702 17.7272 4.129C17.6724 4.11097 17.6143 4.10527 17.557 4.11229C17.4482 4.18421 17.538 4.33833 17.5962 4.42088C17.729 4.5826 17.8382 4.79191 18.0422 4.87258C18.1248 4.91672 18.2226 4.82615 18.2104 4.74016C18.1938 4.6343 18.1553 4.53307 18.0974 4.44292C18.0394 4.35277 17.9634 4.27568 17.874 4.21655Z" fill="#485648"/>
<path d="M16.9719 4.47149C16.8939 4.55178 16.9525 4.66368 16.9936 4.74662C17.0794 4.91101 17.1858 5.06381 17.3102 5.20136C17.3677 5.25995 17.448 5.32769 17.5366 5.29573C17.6207 5.2885 17.5998 5.18347 17.5998 5.12411C17.5536 4.92474 17.4525 4.7423 17.3079 4.59745C17.2181 4.51944 17.0986 4.40908 16.9719 4.47149Z" fill="#485648"/>
<path d="M15.5054 5.07824C15.5423 5.24137 15.6374 5.38546 15.7729 5.48351C15.8246 5.52891 15.889 5.55722 15.9574 5.56458C16.0258 5.57194 16.0948 5.55798 16.1549 5.52461C16.2178 5.46581 16.257 5.38612 16.2654 5.30046C16.2737 5.2148 16.2506 5.12903 16.2002 5.05921C16.1535 4.96911 16.0798 4.89589 15.9894 4.84982C15.8989 4.80376 15.7964 4.78716 15.696 4.80236C15.6365 4.81787 15.5844 4.85425 15.5494 4.90489C15.5145 4.95552 15.4988 5.01704 15.5054 5.07824Z" fill="#485648"/>
<path d="M12.0797 4.88014C12.0413 4.89537 12.0066 4.91852 11.9778 4.94809C11.949 4.97766 11.9267 5.01298 11.9125 5.05173C11.8983 5.09049 11.8924 5.13181 11.8952 5.17299C11.8981 5.21418 11.9096 5.2543 11.929 5.29073C12.0111 5.42994 12.1447 5.53125 12.301 5.57276C12.4572 5.61427 12.6235 5.59266 12.7639 5.51259C12.8281 5.47802 12.8769 5.42046 12.9004 5.35144C12.924 5.28242 12.9206 5.20705 12.891 5.14042C12.8095 5.00686 12.6827 4.90706 12.5338 4.85927C12.3848 4.81148 12.2236 4.81889 12.0797 4.88014Z" fill="#485648"/>
<path d="M18.733 5.91643C18.7561 5.61311 18.6834 5.31018 18.5252 5.05034C18.4651 4.97195 18.3821 4.83838 18.2676 4.88442C18.2246 5.23354 18.3006 5.58698 18.4834 5.88752C18.5233 5.99977 18.6858 6.05532 18.733 5.91643Z" fill="#485648"/>
<path d="M20.1949 5.57268C20.2088 5.50712 20.2091 5.43943 20.1959 5.37374C20.1826 5.30806 20.1561 5.24577 20.1179 5.19069C20.0798 5.13561 20.0308 5.0889 19.9739 5.05342C19.9171 5.01795 19.8536 4.99445 19.7874 4.98438C19.7456 4.9869 19.7049 4.99882 19.6683 5.01924C19.6317 5.03967 19.6002 5.06807 19.5762 5.10234C19.642 5.3058 19.7539 5.49135 19.9031 5.64461C19.9234 5.66815 19.9499 5.68561 19.9795 5.69505C20.0091 5.70449 20.0408 5.70555 20.071 5.6981C20.1012 5.69066 20.1288 5.675 20.1507 5.65287C20.1725 5.63073 20.1878 5.60298 20.1949 5.57268Z" fill="#485648"/>
<path d="M17.8594 5.67477C17.9431 5.96093 18.0565 6.2372 18.152 6.51955C18.1918 6.67153 18.27 6.81071 18.3792 6.92368C18.4895 6.94195 18.5112 6.79849 18.5078 6.71857C18.4972 6.34326 18.3873 5.97746 18.1893 5.65842C18.1117 5.52788 17.9583 5.62758 17.8594 5.67477Z" fill="#485648"/>
<path d="M18.8983 7.66827C18.9225 7.79965 18.9748 7.92426 19.0516 8.03358C19.1628 8.09979 19.2286 7.9548 19.2282 7.86348C19.2336 7.65324 19.2132 7.44313 19.1673 7.23788C19.1328 7.01587 19.0583 6.80197 18.9474 6.60657C18.9154 6.55025 18.8484 6.53732 18.7936 6.51562C18.7502 6.60276 18.7317 6.70023 18.7403 6.79722C18.7682 7.09152 18.821 7.38292 18.8983 7.66827Z" fill="#485648"/>
<path d="M9.18484 8.17982C9.25525 8.034 9.28746 7.87268 9.27845 7.71101C9.27071 7.68255 9.2561 7.65644 9.23591 7.63495C9.21573 7.61346 9.19057 7.59725 9.16266 7.58774C9.13475 7.57824 9.10493 7.57573 9.07583 7.58043C9.04672 7.58514 9.01921 7.59691 8.99571 7.61473C8.72606 7.77175 8.51174 8.00854 8.38229 8.29246C8.30504 8.44506 8.21866 8.64484 8.33168 8.802C8.39324 8.85482 8.47256 8.88228 8.5536 8.87882C8.63463 8.87535 8.71133 8.84123 8.76816 8.78335C8.95203 8.61727 9.0947 8.41063 9.18484 8.17982Z" fill="#485648"/>
<path d="M10.3059 9.60058C10.3744 9.51648 10.4642 9.4183 10.441 9.30072C10.4283 9.2699 10.4091 9.24222 10.3847 9.21961C10.3602 9.197 10.3311 9.18 10.2994 9.16981C10.1227 9.12779 9.93825 9.13119 9.76323 9.1797C9.45425 9.2619 9.09197 9.43276 9.02385 9.77866C9.00052 9.85178 9.00634 9.93108 9.04009 10C9.07384 10.0689 9.13292 10.1221 9.20499 10.1485C9.39274 10.1752 9.58369 10.1311 9.74078 10.0249C9.94935 9.91257 10.1398 9.76954 10.3059 9.60058Z" fill="#485648"/>
<path d="M8.19972 10.0119C7.95383 10.0929 7.74007 10.25 7.58934 10.4605C7.43282 10.6452 7.35387 10.8833 7.36903 11.1249C7.37719 11.1674 7.39444 11.2076 7.41959 11.2428C7.44475 11.278 7.47722 11.3074 7.51477 11.3288C7.55232 11.3503 7.59407 11.3634 7.63716 11.3672C7.68025 11.371 7.72366 11.3655 7.7644 11.351C8.11053 11.2201 8.39427 10.963 8.55858 10.6314C8.61183 10.5545 8.64403 10.465 8.65198 10.3718C8.65992 10.2786 8.64334 10.185 8.60386 10.1002C8.51556 9.96774 8.33519 9.98296 8.19972 10.0119Z" fill="#485648"/>
<path d="M7.80123 13.3776C8.02566 13.3272 8.23087 13.2133 8.39244 13.0496C8.55401 12.8859 8.66515 12.6792 8.71262 12.4541C8.73962 12.3636 8.73504 12.2667 8.69963 12.1792C8.66422 12.0917 8.60009 12.0189 8.51778 11.9727C8.35462 11.9117 8.17605 11.9054 8.00901 11.9548C7.83034 12.001 7.6664 12.092 7.53269 12.2191C7.39899 12.3463 7.29993 12.5055 7.24489 12.6816C7.2104 12.7829 7.20365 12.8915 7.22533 12.9962C7.24701 13.101 7.29634 13.198 7.36819 13.2772C7.42927 13.3234 7.4994 13.3562 7.57401 13.3735C7.64862 13.3908 7.72604 13.3922 7.80123 13.3776Z" fill="#485648"/>
<path d="M4.33059 13.1102C4.32937 13.2864 4.38532 13.4582 4.49003 13.5999C4.51653 13.6241 4.54778 13.6426 4.58178 13.654C4.61579 13.6655 4.65181 13.6698 4.68756 13.6666C4.72331 13.6634 4.75801 13.6529 4.78945 13.6355C4.82089 13.6182 4.84838 13.5946 4.87019 13.566C4.96949 13.4184 5.0278 13.247 5.03914 13.0694C5.06279 12.841 5.04225 12.6101 4.97864 12.3894C4.94515 12.2833 4.84774 12.171 4.72444 12.1999C4.67558 12.2148 4.63013 12.2392 4.5907 12.2716C4.55126 12.3041 4.5186 12.344 4.4946 12.3891C4.44468 12.4607 4.40966 12.5416 4.39162 12.6271C4.37357 12.7125 4.37288 12.8007 4.38957 12.8864C4.36231 12.9161 4.3427 12.952 4.33242 12.991C4.32214 13.03 4.32151 13.0709 4.33059 13.1102Z" fill="#485648"/>
<path d="M13.4136 12.5926C13.3459 12.53 13.2636 12.4853 13.1742 12.4625C13.0849 12.4397 12.9912 12.4396 12.9018 12.4621C12.8535 12.4639 12.8063 12.4766 12.7636 12.499C12.7209 12.5215 12.6837 12.5532 12.6548 12.5918C12.639 12.6282 12.6363 12.669 12.6473 12.7071C12.6583 12.7453 12.6822 12.7784 12.7149 12.8008C12.8845 12.8851 13.0794 12.9035 13.2618 12.8525C13.3676 12.8293 13.4973 12.7011 13.4136 12.5926Z" fill="#485648"/>
<path d="M12.0851 12.9922C12.0779 12.9427 12.0534 12.8973 12.0161 12.864C11.9787 12.8306 11.9308 12.8115 11.8808 12.81C11.6936 12.7884 11.5044 12.7935 11.3187 12.8252C11.1713 12.8526 11.0378 12.93 10.9408 13.0444C10.9043 13.0903 10.8824 13.146 10.8778 13.2045C10.8733 13.263 10.8864 13.3214 10.9153 13.3724C10.9541 13.4185 11.0018 13.4563 11.0554 13.4836C11.1091 13.511 11.1677 13.5272 11.2278 13.5315C11.3572 13.5425 11.4876 13.5268 11.6107 13.4854C11.7338 13.444 11.8471 13.3777 11.9436 13.2906C11.9884 13.255 12.0245 13.2096 12.049 13.1579C12.0736 13.1062 12.0859 13.0495 12.0851 12.9922Z" fill="#485648"/>
<path d="M9.2117 14.0451C9.37073 14.0952 9.54233 14.0873 9.69616 14.0231C9.84999 13.9588 9.97613 13.8422 10.0523 13.6939C10.1067 13.5943 10.1197 13.4773 10.0885 13.3682C10.0573 13.2591 9.98444 13.1667 9.88563 13.1109C9.81297 13.0754 9.7334 13.0562 9.65253 13.0548C9.57166 13.0533 9.49145 13.0696 9.41757 13.1025C9.2038 13.1827 9.02891 13.3418 8.92896 13.547C8.90642 13.5979 8.89611 13.6534 8.89888 13.709C8.90164 13.7647 8.9174 13.8189 8.94489 13.8673C8.97238 13.9157 9.01083 13.957 9.05716 13.9879C9.1035 14.0188 9.15642 14.0384 9.2117 14.0451Z" fill="#485648"/>
<path d="M12.3323 14.5113C12.5273 14.5843 12.7426 14.5813 12.9355 14.5029C12.9858 14.4822 13.0297 14.4483 13.0622 14.4046C13.0948 14.361 13.1149 14.3093 13.1204 14.2552C13.1096 14.1884 13.08 14.1261 13.0352 14.0755C12.9903 14.0249 12.932 13.9881 12.867 13.9694C12.6951 13.9127 12.5106 13.9066 12.3354 13.9519C12.2254 13.9842 12.1021 14.0512 12.0842 14.1764C12.0816 14.252 12.1047 14.3263 12.1498 14.3871C12.1949 14.448 12.2592 14.4917 12.3323 14.5113Z" fill="#485648"/>
<path d="M8.97497 15.3745C9.03023 15.3678 9.0836 15.3501 9.13198 15.3226C9.18035 15.2951 9.22276 15.2582 9.25673 15.2141C9.2907 15.17 9.31555 15.1196 9.32983 15.0658C9.34411 15.012 9.34753 14.9558 9.3399 14.9007C9.3255 14.8264 9.29599 14.7558 9.2532 14.6934C9.2104 14.6309 9.15524 14.578 9.09113 14.5377C9.02701 14.4975 8.95532 14.4708 8.88048 14.4594C8.80565 14.448 8.72927 14.4521 8.65608 14.4715C8.47495 14.5175 8.27707 14.656 8.28963 14.8642C8.31814 15.0201 8.4047 15.1595 8.53187 15.2542C8.65904 15.3489 8.81737 15.3919 8.97497 15.3745Z" fill="#485648"/>
<path d="M11.0598 15.4517C11.1446 15.424 11.2218 15.3771 11.2855 15.3147C11.3492 15.2523 11.3976 15.1759 11.427 15.0917C11.4401 15.0145 11.4266 14.935 11.3888 14.8665C11.3509 14.7979 11.2908 14.7442 11.2184 14.7142C10.9355 14.5976 10.6219 14.5776 10.3265 14.6575C10.137 14.7055 9.9037 14.7953 9.85955 15.0099C9.85673 15.1084 9.88802 15.2048 9.94815 15.2829C10.0083 15.361 10.0935 15.4159 10.1895 15.4384C10.47 15.5395 10.7763 15.5442 11.0598 15.4517Z" fill="#485648"/>
<path d="M4.88384 14.6913C4.78207 14.745 4.69487 14.8226 4.62971 14.9175C4.56456 15.0123 4.5234 15.1216 4.50977 15.2358C4.46555 15.4105 4.463 15.5931 4.50233 15.7689C4.54166 15.9448 4.62177 16.1089 4.73619 16.248C4.79801 16.3166 4.8838 16.3587 4.97581 16.3657C5.06783 16.3727 5.15901 16.3441 5.2305 16.2857C5.35172 16.1463 5.42822 15.9737 5.45007 15.7903C5.50909 15.4606 5.44879 15.1206 5.27997 14.8313C5.2401 14.766 5.17894 14.7164 5.10679 14.6909C5.03464 14.6654 4.9559 14.6655 4.88384 14.6913Z" fill="#485648"/>
<path d="M9.33012 16.5236C9.43652 16.583 9.55524 16.6168 9.67693 16.6225C9.79863 16.6281 9.91998 16.6055 10.0314 16.5564C10.0938 16.5315 10.1453 16.4855 10.1772 16.4264C10.209 16.3674 10.2191 16.299 10.2057 16.2333C10.1663 16.1455 10.1074 16.0678 10.0336 16.0061C9.95976 15.9443 9.8729 15.9001 9.77953 15.8767C9.61507 15.8109 9.43138 15.812 9.26771 15.8798C9.1741 15.9399 9.17486 16.062 9.17638 16.1606C9.1686 16.2292 9.17866 16.2987 9.2056 16.3623C9.23253 16.4259 9.27542 16.4815 9.33012 16.5236Z" fill="#485648"/>
<path d="M4.0011 17.767C4.19059 17.5551 4.29248 17.2791 4.28612 16.9949C4.31257 16.7682 4.26117 16.5393 4.14037 16.3457C4.10292 16.2882 4.0456 16.2465 3.97934 16.2285C3.91309 16.2105 3.84253 16.2176 3.78115 16.2483C3.65272 16.3326 3.54343 16.4429 3.46037 16.5721C3.37731 16.7013 3.32234 16.8465 3.29901 16.9983C3.23505 17.2501 3.26947 17.5169 3.39528 17.7442C3.43251 17.7872 3.47816 17.822 3.52942 17.8466C3.58067 17.8712 3.63643 17.885 3.69323 17.8871C3.75004 17.8893 3.80668 17.8797 3.85964 17.859C3.9126 17.8384 3.96075 17.8071 4.0011 17.767Z" fill="#485648"/>
<path d="M6.47272 16.9772C6.41298 16.9378 6.34433 16.9139 6.27302 16.9078C6.2017 16.9017 6.13 16.9135 6.06441 16.9422C5.95107 16.9954 5.85301 17.0764 5.77937 17.1776C5.70572 17.2789 5.65886 17.3971 5.64316 17.5213C5.60322 17.7362 5.61319 17.9574 5.67231 18.1678C5.73143 18.3782 5.83811 18.5722 5.98412 18.7349C6.05454 18.8416 6.15409 18.926 6.27097 18.9779C6.38784 19.0298 6.51716 19.0472 6.64359 19.0279C6.72781 18.9853 6.80026 18.9227 6.85455 18.8455C6.90884 18.7683 6.94329 18.679 6.95487 18.5853C7.00638 18.2961 6.99391 17.9992 6.91833 17.7154C6.85862 17.4256 6.70134 17.165 6.47272 16.9772Z" fill="#485648"/>
<path d="M5.10504 19.6169C5.19985 19.4157 5.22606 19.189 5.17963 18.9715C5.14589 18.6871 5.02461 18.4202 4.83258 18.2077C4.78861 18.1562 4.72967 18.1198 4.66397 18.1034C4.59828 18.087 4.52911 18.0916 4.46612 18.1164C4.39199 18.1506 4.32568 18.1997 4.27128 18.2605C4.21689 18.3214 4.17557 18.3928 4.1499 18.4703C4.07816 18.6976 4.0833 18.9423 4.16453 19.1664C4.24577 19.3905 4.39857 19.5816 4.59931 19.7101C4.68001 19.7606 4.77669 19.779 4.87029 19.7617C4.9639 19.7445 5.04765 19.6928 5.10504 19.6169Z" fill="#485648"/>
<path d="M3.03293 20.8877C3.27554 20.4829 3.36428 20.0043 3.28293 19.5394C3.26195 19.3675 3.19577 19.2041 3.09114 19.0661C3.05232 19.0259 3.00192 18.9989 2.947 18.9888C2.89207 18.9787 2.83537 18.986 2.78481 19.0097C2.59451 19.1094 2.44735 19.2754 2.37117 19.4763C2.20182 19.8714 2.18047 20.3144 2.31104 20.724C2.37078 20.8782 2.45108 21.0589 2.62498 21.108C2.7076 21.1197 2.79179 21.1046 2.86521 21.065C2.93863 21.0253 2.99741 20.9632 3.03293 20.8877Z" fill="#485648"/>
<path d="M10.942 19.0725C10.8721 19.1322 10.8154 19.2058 10.7753 19.2885C10.7353 19.3713 10.7129 19.4614 10.7094 19.5533C10.706 19.6451 10.7217 19.7367 10.7554 19.8222C10.7891 19.9077 10.8402 19.9853 10.9054 20.0501C10.9447 20.0794 10.9894 20.1005 11.037 20.1121C11.0846 20.1237 11.134 20.1256 11.1824 20.1176C11.2307 20.1096 11.2769 20.092 11.3182 20.0658C11.3596 20.0395 11.3952 20.0052 11.423 19.9648C11.496 19.8437 11.5288 19.7025 11.5165 19.5615C11.5041 19.4206 11.4474 19.2872 11.3545 19.1806C11.3141 19.1115 11.248 19.0614 11.1706 19.0411C11.0933 19.0208 11.011 19.0321 10.942 19.0725Z" fill="#485648"/>
<path d="M8.97999 21.4094C9.09365 21.4076 9.20521 21.3784 9.30517 21.3243C9.40514 21.2702 9.49057 21.1927 9.55421 21.0985C9.6439 20.9227 9.67826 20.7238 9.65277 20.5281C9.63525 20.2799 9.55524 20.0401 9.42018 19.8312C9.28512 19.6222 9.0994 19.4508 8.88029 19.3328C8.63812 19.1968 8.3526 19.1599 8.08383 19.2301C7.97022 19.258 7.8683 19.3209 7.79259 19.4101C7.71688 19.4993 7.67125 19.6101 7.6622 19.7267C7.65767 20.2033 7.82907 20.6647 8.14358 21.0228C8.24177 21.1496 8.36902 21.2509 8.51459 21.3182C8.66017 21.3855 8.81979 21.4168 8.97999 21.4094Z" fill="#485648"/>
<path d="M13.3701 20.2051C13.2238 20.2657 13.0947 20.3612 12.9938 20.4833C12.893 20.6054 12.8236 20.7502 12.7917 20.9053C12.7582 21.0224 12.7547 21.1461 12.7815 21.2649C12.8083 21.3837 12.8645 21.4939 12.945 21.5853C13.0284 21.661 13.1338 21.708 13.2458 21.7196C13.3578 21.7312 13.4705 21.7067 13.5676 21.6496C13.7721 21.5263 13.9224 21.3303 13.9884 21.1007C14.0544 20.8712 14.0312 20.6252 13.9234 20.4121C13.8747 20.3138 13.7904 20.2377 13.6877 20.1993C13.5849 20.1608 13.4714 20.1629 13.3701 20.2051Z" fill="#485648"/>
<path d="M6.21565 21.3156C6.11657 21.2266 6.00056 21.1586 5.87455 21.1156C5.74855 21.0725 5.61515 21.0554 5.48236 21.0652C5.35412 21.0818 5.2344 21.1385 5.14031 21.2272C5.04621 21.3159 4.98253 21.4321 4.95836 21.5591C4.90254 21.9447 4.97105 22.3381 5.15396 22.6821C5.2534 22.899 5.40634 23.087 5.59842 23.2285C5.75335 23.3163 5.93426 23.3466 6.10932 23.3141C6.28438 23.2816 6.44237 23.1883 6.55545 23.0508C6.67858 22.8834 6.7451 22.681 6.74534 22.4732C6.7455 22.2535 6.69826 22.0363 6.60685 21.8365C6.51544 21.6368 6.382 21.4591 6.21565 21.3156Z" fill="#485648"/>
<path d="M1.4581 21.2632C1.3087 21.3539 1.19492 21.493 1.13579 21.6575C1.00465 21.9384 0.989738 22.2598 1.0943 22.5517C1.11558 22.6134 1.15126 22.6692 1.19837 22.7144C1.24549 22.7596 1.30269 22.7929 1.36524 22.8116C1.41606 22.816 1.46713 22.8068 1.51326 22.785C1.55938 22.7632 1.5989 22.7296 1.6278 22.6876C1.78634 22.467 1.87467 22.2038 1.88124 21.9322C1.91718 21.7109 1.8638 21.4844 1.73283 21.3024C1.69757 21.2668 1.65165 21.2438 1.60205 21.2367C1.55246 21.2296 1.50191 21.2389 1.4581 21.2632Z" fill="#485648"/>
<path d="M3.38687 22.3027C3.16712 22.3651 2.97962 22.5093 2.86289 22.7057C2.66612 23.041 2.55491 23.4196 2.53906 23.8081C2.55961 23.8796 2.64675 23.9097 2.70156 23.955C3.07353 24.1966 3.48486 24.3713 3.91699 24.4713C4.07864 24.1721 4.16436 23.8377 4.16662 23.4976C4.17613 23.139 4.06682 22.7874 3.85572 22.4975C3.80307 22.425 3.73143 22.3685 3.64871 22.3341C3.56599 22.2998 3.47538 22.2889 3.38687 22.3027Z" fill="#485648"/>
<path d="M12.8325 22.7591C12.7391 22.7292 12.6391 22.7263 12.5441 22.7509C12.4492 22.7755 12.3631 22.8265 12.296 22.898C12.0805 23.1176 11.9471 23.4045 11.9181 23.7107C11.8891 24.017 11.9662 24.3239 12.1365 24.58C12.4048 24.5773 12.6735 24.5872 12.9414 24.5731C13.0831 24.3946 13.1829 24.1865 13.2333 23.9642C13.2838 23.7419 13.2836 23.5111 13.2328 23.2888C13.2108 23.1759 13.1633 23.0695 13.0939 22.9777C13.0245 22.8859 12.9351 22.8112 12.8325 22.7591Z" fill="#485648"/>
<path d="M9.37041 23.1318C9.06237 23.2179 8.79476 23.4103 8.61499 23.6748C8.43521 23.9393 8.35489 24.259 8.38825 24.5771C9.14437 24.5721 9.90087 24.5801 10.6574 24.5752C10.7239 24.187 10.6387 23.7881 10.4196 23.461C10.2958 23.3099 10.1305 23.1982 9.94413 23.1397C9.75774 23.0813 9.55834 23.0785 9.37041 23.1318Z" fill="#485648"/>
</g>
<defs>
<clipPath id="clip0_1431_46248">
<rect width="25" height="25" fill="white"/>
</clipPath>
</defs>
</svg>
