<svg width="512" height="512" viewBox="0 0 512 512" fill="none" xmlns="http://www.w3.org/2000/svg">
<path d="M302.906 256.421L502.272 57.0519C515.245 44.0836 515.245 23.115 502.272 10.1481C489.304 -2.82022 468.335 -2.82022 455.368 10.1481L255.998 209.516L56.6347 10.1481C43.6602 -2.82022 22.6993 -2.82022 9.73094 10.1481C-3.24365 23.1165 -3.24365 44.0836 9.73094 57.0519L209.092 256.421L9.73249 455.789C-3.24209 468.757 -3.24209 489.726 9.73249 502.693C12.8086 505.777 16.4641 508.224 20.4887 509.892C24.5133 511.56 28.8279 512.416 33.1844 512.411C41.6745 512.411 50.1677 509.161 56.6363 502.693L255.998 303.325L455.368 502.693C458.445 505.777 462.1 508.223 466.125 509.891C470.149 511.559 474.464 512.415 478.82 512.411C487.31 512.411 495.804 509.161 502.272 502.693C515.245 489.724 515.245 468.757 502.272 455.789L302.906 256.421Z" fill="white"/>
</svg>
