<svg width="12" height="12" viewBox="0 0 12 12" fill="none" xmlns="http://www.w3.org/2000/svg">
<path d="M4.70121 12C4.5603 11.9912 4.4208 11.9667 4.28531 11.927C3.93598 11.8305 3.62523 11.6278 3.39598 11.347C3.16674 11.0662 3.03032 10.7211 3.00557 10.3594C2.98082 9.99765 3.06897 9.63717 3.25782 9.32773C3.44668 9.01829 3.72694 8.77516 4.05987 8.63192C3.97062 8.1798 3.98035 7.7137 4.08836 7.26569C4.24008 6.6524 4.58144 6.10267 5.06378 5.69485C5.54611 5.28703 6.14482 5.04193 6.77457 4.99449C7.40431 4.94705 8.03296 5.09968 8.57091 5.43063C9.10886 5.76159 9.52866 6.25397 9.77048 6.83761C9.81149 6.90406 9.86748 6.95997 9.93397 7.00087C10.0005 7.04177 10.0756 7.06653 10.1534 7.07315C10.7812 7.24434 11.3179 7.6532 11.6497 8.21322C11.9816 8.77323 12.0826 9.44045 11.9314 10.0737C11.8269 10.5242 11.5982 10.9365 11.2713 11.2636C10.9444 11.5906 10.5323 11.8194 10.0819 11.924C9.90763 11.9672 9.72943 11.9927 9.55003 12H4.70121ZM3.00163 8.11433C2.99187 7.74928 3.03053 7.38454 3.1166 7.02965C3.311 6.23899 3.74193 5.52649 4.35181 4.98733C4.9617 4.44817 5.72151 4.10801 6.52975 4.01229C7.338 3.91658 8.1562 4.06985 8.87506 4.45165C9.59392 4.83345 10.1792 5.4256 10.5528 6.149C11.1004 6.32331 11.5971 6.62909 11.9994 7.03965C12.0113 6.17703 11.7425 5.33393 11.2336 4.63747C10.7248 3.94101 10.0033 3.42895 9.17812 3.17849C9.09238 3.15196 9.01455 3.10459 8.95157 3.04063C8.88859 2.97666 8.84243 2.89809 8.81721 2.81192C8.5527 1.96159 8.01215 1.22385 7.28118 0.715581C6.55021 0.20731 5.67063 -0.0424373 4.78175 0.00590003C3.89287 0.0542374 3.04553 0.397896 2.37394 0.982438C1.70235 1.56698 1.24492 2.35899 1.0741 3.23299C0.898365 4.11648 1.03999 5.03368 1.474 5.82294C0.968349 6.08411 0.557179 6.49718 0.298247 7.00414C0.0393149 7.5111 -0.0543692 8.08646 0.0303539 8.64942C0.132311 9.17514 0.377759 9.66235 0.739503 10.0571C1.10125 10.4518 1.56517 10.7386 2.07985 10.8858C1.95785 10.3839 1.9796 9.8577 2.14262 9.36755C2.30564 8.8774 2.60334 8.44308 3.00163 8.11433Z" fill="white"/>
</svg>
