<svg width="58" height="58" viewBox="0 0 58 58" fill="none" xmlns="http://www.w3.org/2000/svg">
<path d="M57.9547 39.5994L47.0797 3.79535C47.0161 3.5788 46.8741 3.39376 46.6813 3.27641C46.4886 3.15906 46.259 3.11786 46.0375 3.16085L35.8875 5.01903C34.8453 1.61991 31.3109 -0.555523 27.6859 0.124301C24.0609 0.758803 21.5688 4.06728 21.75 7.64769L11.6 9.50587C11.2828 9.5512 11.0109 9.82313 10.9203 10.1404L0.0453125 45.9445C0 46.0351 0 46.1257 0 46.2164C0 52.6974 5.30156 58 11.7812 58C18.2609 58 23.5625 52.6974 23.5625 46.2164C23.5625 46.1257 23.5625 46.0351 23.5172 45.9445L12.9594 11.1375L22.1125 9.46055C23.0641 12.4518 25.8734 14.4913 29 14.4913C29.4078 14.4913 29.8609 14.4459 30.3141 14.3553C33.9391 13.6755 36.4313 10.4123 36.25 6.8319L44.95 5.20032L34.5281 39.5994C34.4375 39.6901 34.4375 39.7807 34.4375 39.8714C34.4375 46.3523 39.7391 51.655 46.2188 51.655C52.6984 51.655 58 46.3523 58 39.8714C58 39.7807 58 39.6901 57.9547 39.5994ZM11.7812 56.1871C6.57031 56.1871 2.31094 52.1988 1.85781 47.1228H21.7047C21.2516 52.1988 16.9922 56.1871 11.7812 56.1871ZM7.79375 45.3099C8.20156 43.4971 9.83281 42.1374 11.7812 42.1374C13.7297 42.1374 15.3609 43.4971 15.7687 45.3099H7.79375ZM21.4328 45.3099H17.5812C17.1281 42.5 14.7266 40.3246 11.7812 40.3246C8.83594 40.3246 6.38906 42.5 5.98125 45.3099H2.12969L11.7812 13.5395L21.4328 45.3099ZM29.9969 12.5877C27.0516 13.1316 24.1969 11.1828 23.6531 8.19155C23.3813 6.74126 23.6984 5.33629 24.5141 4.1126C25.3297 2.93424 26.5984 2.11845 28.0031 1.84652C28.3656 1.84652 28.6828 1.8012 29 1.8012C31.5828 1.8012 33.8484 3.65939 34.3469 6.24272C34.8906 9.23394 32.9422 12.0439 29.9969 12.5877ZM46.2188 7.19447L55.8703 38.9649H52.3812L46.8984 33.481C46.5359 33.1184 45.9922 33.1184 45.6297 33.481L40.0563 38.9649H36.5672L46.2188 7.19447ZM49.7984 38.9649H42.6391L46.2188 35.3845L49.7984 38.9649ZM46.2188 49.8421C41.0078 49.8421 36.7484 45.8538 36.2953 40.7778H56.1422C55.6891 45.8538 51.4297 49.8421 46.2188 49.8421Z" fill="white"/>
</svg>
