<svg width="46" height="46" viewBox="0 0 46 46" fill="none" xmlns="http://www.w3.org/2000/svg">
<path d="M41.2075 0H4.79157C2.1495 0 0 2.16025 0 4.81554L0.000958244 31.327C0.000958244 33.9823 2.15141 36.1426 4.79253 36.1426H13.1107C13.3648 36.1426 13.6086 36.0411 13.7883 35.8605C13.968 35.6799 14.069 35.4349 14.069 35.1795C14.069 34.924 13.968 34.6791 13.7883 34.4985C13.6086 34.3178 13.3648 34.2164 13.1107 34.2164H4.79253C3.20747 34.2164 1.91759 32.92 1.91759 31.327V8.05159H44.0834V31.327C44.0834 32.92 42.7944 34.2164 41.2084 34.2164H32.8903C32.6361 34.2164 32.3924 34.3178 32.2126 34.4985C32.0329 34.6791 31.932 34.924 31.932 35.1795C31.932 35.4349 32.0329 35.6799 32.2126 35.8605C32.3924 36.0411 32.6361 36.1426 32.8903 36.1426H41.2084C43.8505 36.1426 46 33.9823 46 31.327V4.82229C46 2.17663 43.862 0 41.2075 0ZM44.0824 6.12537H1.91759V4.82229C1.91759 3.2293 3.20747 1.93296 4.79253 1.93296H41.2084C42.7897 1.93296 44.0815 3.22352 44.0815 4.81554L44.0824 6.12537Z" fill="white"/>
<path d="M7.29851 3.06269H6.91902C6.66486 3.06269 6.42111 3.16416 6.24139 3.34477C6.06167 3.52539 5.96071 3.77036 5.96071 4.02579C5.96071 4.28123 6.06167 4.5262 6.24139 4.70682C6.42111 4.88743 6.66486 4.9889 6.91902 4.9889H7.29851C7.55268 4.9889 7.79643 4.88743 7.97614 4.70682C8.15586 4.5262 8.25683 4.28123 8.25683 4.02579C8.25683 3.77036 8.15586 3.52539 7.97614 3.34477C7.79643 3.16416 7.55268 3.06269 7.29851 3.06269ZM11.0465 3.06269H10.667C10.4128 3.06269 10.1691 3.16416 9.98936 3.34477C9.80964 3.52539 9.70867 3.77036 9.70867 4.02579C9.70867 4.28123 9.80964 4.5262 9.98936 4.70682C10.1691 4.88743 10.4128 4.9889 10.667 4.9889H11.0465C11.3006 4.9889 11.5444 4.88743 11.7241 4.70682C11.9038 4.5262 12.0048 4.28123 12.0048 4.02579C12.0048 3.77036 11.9038 3.52539 11.7241 3.34477C11.5444 3.16416 11.3006 3.06269 11.0465 3.06269ZM14.7944 3.06269H14.415C14.1608 3.06269 13.917 3.16416 13.7373 3.34477C13.5576 3.52539 13.4566 3.77036 13.4566 4.02579C13.4566 4.28123 13.5576 4.5262 13.7373 4.70682C13.917 4.88743 14.1608 4.9889 14.415 4.9889H14.7944C15.0486 4.9889 15.2924 4.88743 15.4721 4.70682C15.6518 4.5262 15.7528 4.28123 15.7528 4.02579C15.7528 3.77036 15.6518 3.52539 15.4721 3.34477C15.2924 3.16416 15.0486 3.06269 14.7944 3.06269ZM3.83134 25.819V28.8287C3.8314 29.0046 3.8794 29.1772 3.97012 29.3276C4.06084 29.478 4.19081 29.6006 4.34595 29.682C9.59559 32.4423 14.9276 32.451 20.185 29.682C20.34 29.6006 20.4698 29.4779 20.5604 29.3275C20.6509 29.1771 20.6987 29.0046 20.6986 28.8287V25.819C20.6986 23.0327 18.4466 20.7656 15.679 20.7656H15.2362C15.0915 20.7656 14.9487 20.7983 14.8174 20.8619C13.2669 21.6179 11.3014 21.6247 9.7173 20.86C9.58808 20.7977 9.4466 20.7655 9.30331 20.7656H8.85098C6.08242 20.7656 3.83134 23.0327 3.83134 25.819ZM5.74796 25.819C5.74796 24.9911 6.07461 24.197 6.65629 23.6108C7.23797 23.0246 8.02722 22.6941 8.85098 22.6918H9.09248C11.0781 23.5808 13.4787 23.5759 15.448 22.6918H15.678C16.5021 22.6936 17.2918 23.0239 17.8739 23.6101C18.456 24.1964 18.7829 24.9908 18.7829 25.819V28.2364C14.4073 30.3784 10.1322 30.3774 5.74796 28.2364V25.819ZM12.2693 19.2025C14.6507 19.2025 16.5874 17.2483 16.5874 14.8473C16.5862 13.6967 16.1308 12.5936 15.3213 11.78C14.5117 10.9664 13.4141 10.5088 12.2693 10.5075C9.88117 10.5075 7.93771 12.4549 7.93771 14.8473C7.93872 16.0017 8.39535 17.1086 9.2074 17.9251C10.0195 18.7415 11.1206 19.2009 12.2693 19.2025ZM12.2693 12.4337C12.906 12.4345 13.5164 12.689 13.9666 13.1415C14.4168 13.594 14.6701 14.2074 14.6708 14.8473C14.6721 15.4892 14.42 16.1054 13.9698 16.5608C13.5196 17.0161 12.908 17.2734 12.2693 17.2762C11.6288 17.2752 11.0148 17.0189 10.5621 16.5636C10.1094 16.1082 9.85484 15.491 9.85434 14.8473C9.85687 14.2056 10.1125 13.5912 10.5653 13.1387C11.018 12.6862 11.6308 12.4327 12.2693 12.4337ZM28.1926 19.7765H37.7087C38.8901 19.7752 40.0228 19.303 40.8583 18.4634C41.6937 17.6238 42.1636 16.4854 42.1648 15.298C42.1636 14.1107 41.6937 12.9723 40.8583 12.1327C40.0228 11.2931 38.8901 10.8208 37.7087 10.8196H28.1926C27.0112 10.8208 25.8785 11.2931 25.043 12.1327C24.2076 12.9723 23.7377 14.1107 23.7365 15.298C23.7377 16.4854 24.2076 17.6238 25.043 18.4634C25.8785 19.303 27.0112 19.7752 28.1926 19.7765ZM28.1926 12.7458H37.7087C38.382 12.7465 39.0275 13.0157 39.5036 13.4942C39.9796 13.9726 40.2474 14.6214 40.2482 15.298C40.2482 16.7042 39.1097 17.8503 37.7087 17.8503H28.1926C27.5193 17.8495 26.8738 17.5804 26.3977 17.1019C25.9217 16.6234 25.6539 15.9747 25.6531 15.298C25.6539 14.6214 25.9217 13.9726 26.3977 13.4942C26.8738 13.0157 27.5193 12.7465 28.1926 12.7458Z" fill="white"/>
<path d="M29.1308 16.2611H36.7714C37.0256 16.2611 37.2694 16.1597 37.4491 15.979C37.6288 15.7984 37.7298 15.5535 37.7298 15.298C37.7298 15.0426 37.6288 14.7976 37.4491 14.617C37.2694 14.4364 37.0256 14.3349 36.7714 14.3349H29.1308C28.8766 14.3349 28.6329 14.4364 28.4532 14.617C28.2735 14.7976 28.1725 15.0426 28.1725 15.298C28.1725 15.5535 28.2735 15.7984 28.4532 15.979C28.6329 16.1597 28.8766 16.2611 29.1308 16.2611ZM28.1926 30.4834H37.7087C38.8901 30.4821 40.0228 30.0098 40.8583 29.1702C41.6937 28.3306 42.1636 27.1923 42.1648 26.0049C42.1636 24.8175 41.6937 23.6792 40.8583 22.8396C40.0228 22 38.8901 21.5277 37.7087 21.5264H28.1926C27.0112 21.5277 25.8785 22 25.043 22.8396C24.2076 23.6792 23.7377 24.8175 23.7365 26.0049C23.7377 27.1923 24.2076 28.3306 25.043 29.1702C25.8785 30.0098 27.0112 30.4821 28.1926 30.4834ZM28.1926 23.4527H37.7087C38.382 23.4534 39.0275 23.7226 39.5036 24.201C39.9796 24.6795 40.2474 25.3282 40.2482 26.0049C40.2482 27.413 39.1097 28.5571 37.7087 28.5571H28.1926C27.5193 28.5564 26.8738 28.2872 26.3977 27.8088C25.9217 27.3303 25.6539 26.6816 25.6531 26.0049C25.6539 25.3282 25.9217 24.6795 26.3977 24.201C26.8738 23.7226 27.5193 23.4534 28.1926 23.4527Z" fill="white"/>
<path d="M29.1308 26.968H36.7714C37.0256 26.968 37.2694 26.8665 37.4491 26.6859C37.6288 26.5053 37.7298 26.2603 37.7298 26.0049C37.7298 25.7495 37.6288 25.5045 37.4491 25.3239C37.2694 25.1433 37.0256 25.0418 36.7714 25.0418H29.1308C28.8767 25.0418 28.6329 25.1433 28.4532 25.3239C28.2735 25.5045 28.1725 25.7495 28.1725 26.0049C28.1725 26.2603 28.2735 26.5053 28.4532 26.6859C28.6329 26.8665 28.8767 26.968 29.1308 26.968ZM23.0014 46C27.1548 46 30.5338 42.6041 30.5338 38.4309C30.5338 34.2578 27.1548 30.8609 23.0014 30.8609C18.8481 30.8609 15.4691 34.2568 15.4691 38.4309C15.4691 42.605 18.8481 46 23.0014 46ZM23.0014 32.7881C26.0968 32.7881 28.6172 35.3191 28.6172 38.4309C28.6172 41.5427 26.0968 44.0747 23.0014 44.0747C19.9051 44.0747 17.3857 41.5418 17.3857 38.4309C17.3857 35.3201 19.9051 32.7881 23.0014 32.7881Z" fill="white"/>
<path d="M20.2827 39.394H22.0422V41.1633C22.0422 41.4187 22.1431 41.6637 22.3229 41.8443C22.5026 42.0249 22.7463 42.1264 23.0005 42.1264C23.2546 42.1264 23.4984 42.0249 23.6781 41.8443C23.8578 41.6637 23.9588 41.4187 23.9588 41.1633V39.394H25.7192C25.9734 39.394 26.2171 39.2926 26.3968 39.1119C26.5766 38.9313 26.6775 38.6864 26.6775 38.4309C26.6775 38.1755 26.5766 37.9305 26.3968 37.7499C26.2171 37.5693 25.9734 37.4678 25.7192 37.4678H23.9588V35.6986C23.9588 35.4432 23.8578 35.1982 23.6781 35.0176C23.4984 34.8369 23.2546 34.7355 23.0005 34.7355C22.7463 34.7355 22.5026 34.8369 22.3229 35.0176C22.1431 35.1982 22.0422 35.4432 22.0422 35.6986V37.4678H20.2817C20.0276 37.4678 19.7838 37.5693 19.6041 37.7499C19.4244 37.9305 19.3234 38.1755 19.3234 38.4309C19.3234 38.6864 19.4244 38.9313 19.6041 39.1119C19.7838 39.2926 20.0285 39.394 20.2827 39.394Z" fill="white"/>
</svg>
