<svg width="20" height="20" viewBox="0 0 20 20" fill="none" xmlns="http://www.w3.org/2000/svg">
<path d="M7.83883 17.0556C8.56926 17.0556 9.12008 16.7174 9.12008 16.2689C9.12008 15.8205 8.56926 15.4822 7.83883 15.4822C7.1084 15.4822 6.55758 15.8204 6.55758 16.2689C6.55758 16.7174 7.1084 17.0556 7.83883 17.0556ZM7.83883 16.0291C8.31207 16.0291 8.56234 16.2138 8.57328 16.2679C8.56238 16.324 8.31203 16.5087 7.83883 16.5087C7.36562 16.5087 7.11531 16.324 7.10437 16.2699C7.11527 16.2138 7.36559 16.0291 7.83883 16.0291ZM12.93 16.7602C12.9935 16.8432 13.0655 16.9373 13.0732 16.9981C13.1041 17.2422 13.2312 17.4522 13.431 17.5896C13.5945 17.702 13.7994 17.7601 14.0193 17.7601C14.1207 17.7601 14.2253 17.7478 14.3304 17.7227C14.3551 17.7181 14.3836 17.7125 14.4155 17.7062C14.6302 17.6638 15.03 17.5849 15.4123 17.6155C15.6985 17.6383 16.3688 17.692 16.473 17.2533C16.6058 16.6936 15.4857 16.2201 15.3575 16.1679C15.1337 16.0768 15.0483 15.9819 14.9579 15.8813C14.7897 15.6943 14.6274 15.5485 14.2028 15.5133C13.9901 15.4955 13.5363 15.5365 13.1932 15.6828C13.026 15.7542 12.7957 15.8776 12.728 16.1247C12.68 16.2993 12.7291 16.488 12.8737 16.6855C12.8922 16.7106 12.911 16.7355 12.93 16.7602L12.93 16.7602ZM13.4079 16.1859C13.6477 16.0835 14.0033 16.0455 14.1575 16.0583C14.3996 16.0784 14.444 16.1278 14.5512 16.247C14.6609 16.369 14.8111 16.536 15.1514 16.6745C15.4716 16.8048 15.7117 16.9636 15.84 17.0767C15.758 17.0833 15.6354 17.0847 15.4558 17.0704C14.9982 17.0336 14.5501 17.1222 14.3095 17.1697C14.277 17.1761 14.2484 17.1817 14.2241 17.1862C14.2188 17.1871 14.2136 17.1883 14.2084 17.1895C14.0237 17.2347 13.8532 17.2163 13.7408 17.139C13.6691 17.0897 13.627 17.0191 13.6156 16.9292C13.5893 16.722 13.4646 16.559 13.3643 16.4279C13.3476 16.4062 13.3311 16.3844 13.3148 16.3624C13.2803 16.3152 13.2662 16.285 13.2606 16.2692C13.2765 16.2545 13.3163 16.2249 13.4078 16.1858L13.4079 16.1859ZM10.7455 17.9698C11.4759 17.9698 12.0268 17.6155 12.0268 17.1456C12.0268 16.6757 11.4759 16.3214 10.7455 16.3214C10.0151 16.3214 9.46426 16.6757 9.46426 17.1456C9.46426 17.6155 10.0151 17.9698 10.7455 17.9698ZM10.7455 16.8682C11.2024 16.8682 11.4799 17.0609 11.4799 17.1456C11.4799 17.2303 11.2024 17.4229 10.7455 17.4229C10.2886 17.4229 10.0111 17.2303 10.0111 17.1456C10.0111 17.0609 10.2886 16.8682 10.7455 16.8682ZM19.7634 18.3859L16.0327 14.6552C15.9814 14.6039 15.9119 14.5751 15.8394 14.5751H12.729C12.7322 14.52 12.7334 14.4628 12.7313 14.402C12.7108 13.8255 12.5133 13.1646 12.4073 12.8095C12.3821 12.7252 12.3604 12.6525 12.3504 12.6121C12.3387 12.5645 12.3145 12.521 12.2802 12.486C12.2459 12.4511 12.2029 12.4259 12.1556 12.4133C12.1083 12.4006 12.0585 12.4009 12.0114 12.414C11.9642 12.4272 11.9214 12.4527 11.8875 12.4881C11.8588 12.5181 11.8035 12.5703 11.7395 12.6308C11.4701 12.8852 10.9688 13.3588 10.6628 13.8477C10.4889 14.1256 10.4295 14.3709 10.4274 14.5751H6.56687C6.49437 14.5751 6.42483 14.6039 6.37355 14.6552L2.64285 18.3859C2.61736 18.4113 2.59713 18.4414 2.58335 18.4747C2.56956 18.5079 2.56249 18.5435 2.56254 18.5795V19.5711C2.56254 19.6437 2.59135 19.7132 2.64263 19.7645C2.69391 19.8158 2.76346 19.8446 2.83598 19.8446H19.5704C19.6429 19.8446 19.7124 19.8158 19.7637 19.7645C19.815 19.7132 19.8438 19.6437 19.8438 19.5711V18.5795C19.8438 18.5435 19.8368 18.5079 19.823 18.4747C19.8092 18.4414 19.789 18.4113 19.7635 18.3859H19.7634ZM11.1263 14.1379C11.3434 13.7911 11.6903 13.436 11.9483 13.187C12.0473 13.5317 12.1702 14.0127 12.1848 14.4215C12.1946 14.6975 12.1218 14.9063 11.9741 15.0252C11.8371 15.1357 11.634 15.1711 11.4304 15.12C11.2285 15.0624 11.0703 14.9303 11.0068 14.7661C10.9385 14.5892 10.9798 14.372 11.1263 14.1379V14.1379ZM6.68008 15.122H10.5752C10.7249 15.3703 10.9798 15.5615 11.2857 15.6474L11.2921 15.6491C11.3961 15.6758 11.5031 15.6893 11.6106 15.6894C11.873 15.6894 12.1238 15.607 12.3173 15.451C12.4092 15.377 12.5079 15.2705 12.5863 15.122H15.7261L18.9102 18.3061H3.49602L6.68008 15.122ZM19.2968 19.2977H3.10934V18.8529H19.2968V19.2977ZM15.5277 3.20852L15.8098 3.37138L13.1829 7.9213C13.0807 8.09825 13.0537 8.30485 13.1069 8.50313C13.1307 8.59147 13.17 8.67485 13.2231 8.74934L12.7656 9.73817C12.737 9.80011 12.7325 9.87054 12.7531 9.9356C12.7737 10.0007 12.818 10.0557 12.8771 10.0898L13.0009 10.1613L12.0966 11.7275C12.0726 11.7691 12.0599 11.8162 12.0599 11.8642C12.0599 11.9122 12.0725 11.9593 12.0965 12.0009C12.1204 12.0425 12.1549 12.077 12.1965 12.101C12.238 12.125 12.2851 12.1377 12.3331 12.1377C12.3812 12.1378 12.4284 12.1252 12.47 12.1012C12.5116 12.0772 12.5462 12.0426 12.5702 12.001L13.4745 10.4347L13.5983 10.5062C13.6574 10.5404 13.7271 10.5512 13.7938 10.5365C13.8605 10.5218 13.9192 10.4827 13.9585 10.4269L14.5859 9.53661C14.6099 9.53888 14.6339 9.5404 14.6579 9.5404C14.9231 9.5404 15.1814 9.40286 15.3234 9.15712L17.9502 4.6072L18.2323 4.77005C18.2634 4.78801 18.2977 4.79967 18.3333 4.80436C18.3689 4.80906 18.4051 4.80669 18.4398 4.79739C18.4745 4.7881 18.507 4.77206 18.5355 4.7502C18.564 4.72834 18.5879 4.70107 18.6058 4.66997C18.6421 4.60717 18.6519 4.53253 18.6331 4.46249C18.6144 4.39244 18.5685 4.33272 18.5057 4.29645L17.7856 3.88067L19.1123 1.58286L19.4336 1.76841C19.4647 1.78637 19.4991 1.79803 19.5347 1.80272C19.5703 1.80742 19.6064 1.80505 19.6411 1.79575C19.6758 1.78646 19.7083 1.77042 19.7368 1.74856C19.7653 1.7267 19.7892 1.69943 19.8071 1.66833C19.8434 1.60553 19.8532 1.53089 19.8345 1.46084C19.8157 1.3908 19.7699 1.33107 19.7071 1.29481L17.8001 0.193798C17.769 0.17556 17.7346 0.163656 17.6988 0.158771C17.6631 0.153886 17.6268 0.156116 17.5919 0.165333C17.557 0.17455 17.5243 0.190572 17.4957 0.212477C17.467 0.234382 17.443 0.261736 17.425 0.292966C17.407 0.324195 17.3953 0.358683 17.3906 0.394443C17.386 0.430203 17.3885 0.466529 17.3979 0.501331C17.4074 0.536132 17.4236 0.56872 17.4457 0.59722C17.4678 0.62572 17.4953 0.649568 17.5266 0.667391L17.848 0.852938L16.5214 3.15075L15.8012 2.73497C15.7384 2.69928 15.6641 2.68987 15.5944 2.70879C15.5247 2.72771 15.4654 2.77342 15.4293 2.83595C15.3932 2.89848 15.3833 2.97276 15.4017 3.04256C15.4202 3.11237 15.4655 3.17205 15.5278 3.20856L15.5277 3.20852ZM13.6554 9.9077L13.3668 9.7411L13.6691 9.08763L14.0701 9.31915L13.6553 9.90774L13.6554 9.9077ZM14.8497 8.88364C14.8205 8.93413 14.7724 8.97096 14.716 8.98606C14.6597 9.00116 14.5996 8.9933 14.5491 8.96419L13.737 8.49536C13.6866 8.46622 13.6504 8.41876 13.6351 8.36161C13.6198 8.30446 13.6274 8.24524 13.6565 8.19477L16.2834 3.64485L17.4766 4.33372L14.8497 8.88368V8.88364ZM18.3216 1.12634L18.6386 1.30938L17.312 3.6072L16.9949 3.42415L18.3216 1.12634ZM3.97211 8.88372L5.67906 9.86923V11.5151C5.67906 11.5876 5.70787 11.6572 5.75915 11.7084C5.81043 11.7597 5.87998 11.7885 5.9525 11.7885C6.02502 11.7885 6.09457 11.7597 6.14585 11.7084C6.19713 11.6572 6.22594 11.5876 6.22594 11.5151V9.86923L7.93289 8.88372L9.47516 9.77415C9.44384 9.88032 9.42794 9.99044 9.42793 10.1011C9.42793 10.741 9.94848 11.2616 10.5884 11.2616C11.2282 11.2616 11.7488 10.741 11.7488 10.1011C11.7488 9.46126 11.2282 8.94067 10.5884 8.94067C10.2585 8.94067 9.96066 9.07923 9.74918 9.30087L8.20637 8.41013V6.43907L10.05 5.37466C10.0916 5.35066 10.1261 5.31614 10.1501 5.27458C10.1741 5.23301 10.1868 5.18586 10.1868 5.13786V3.00895L11.7292 2.11841C11.9408 2.3402 12.2388 2.4788 12.5688 2.4788C13.2089 2.4788 13.7296 1.95802 13.7296 1.31794C13.7296 0.67786 13.2089 0.157079 12.5688 0.157079C11.9286 0.157079 11.4079 0.67786 11.4079 1.31794C11.4079 1.43153 11.4246 1.5413 11.4552 1.64513L9.91328 2.53532L8.06961 1.47087C8.02804 1.44688 7.98089 1.43425 7.93289 1.43425C7.88489 1.43425 7.83774 1.44688 7.79617 1.47087L5.9525 2.53532L4.41027 1.64493C4.44159 1.53876 4.45749 1.42863 4.4575 1.31794C4.4575 0.678055 3.93695 0.157469 3.29707 0.157469C2.65719 0.157469 2.1366 0.678055 2.1366 1.31794C2.1366 1.95782 2.65719 2.47841 3.29707 2.47841C3.62687 2.47841 3.92477 2.33985 4.13625 2.11821L5.6791 3.00895V4.97997L3.97215 5.96548L2.5468 5.14255C2.48403 5.10686 2.40969 5.09745 2.34001 5.11637C2.27032 5.13528 2.21095 5.181 2.17485 5.24353C2.13874 5.30606 2.12884 5.38033 2.14729 5.45014C2.16575 5.51995 2.21107 5.57962 2.27336 5.61614L3.69871 6.43907V8.41013L2.1559 9.30087C1.94441 9.07919 1.64652 8.94067 1.31668 8.94067C0.676797 8.94067 0.15625 9.46126 0.15625 10.1011C0.15625 10.741 0.676797 11.2616 1.31668 11.2616C1.95656 11.2616 2.47715 10.741 2.47715 10.1011C2.47715 9.98759 2.46047 9.87794 2.42992 9.77415L3.97211 8.88372ZM10.5883 9.48755C10.9266 9.48755 11.2019 9.76278 11.2019 10.1011C11.2019 10.4395 10.9266 10.7147 10.5883 10.7147C10.25 10.7147 9.97477 10.4395 9.97477 10.1011C9.97477 9.76278 10.25 9.48755 10.5883 9.48755ZM12.5687 0.703993C12.9073 0.703993 13.1827 0.979423 13.1827 1.31798C13.1827 1.65653 12.9073 1.93196 12.5687 1.93196C12.2302 1.93196 11.9547 1.65653 11.9547 1.31798C11.9547 0.979423 12.2302 0.703993 12.5687 0.703993ZM3.29703 1.93157C2.95871 1.93157 2.68344 1.65634 2.68344 1.31798C2.68344 0.979618 2.95871 0.704383 3.29703 0.704383C3.63535 0.704383 3.91059 0.979618 3.91059 1.31798C3.91059 1.65634 3.63535 1.93157 3.29703 1.93157ZM6.2259 3.00899L7.93285 2.02348L9.6398 3.00899V4.98001L7.93285 5.96552L6.2259 4.98001V3.00899ZM4.24551 6.43911L5.95246 5.4536L7.65945 6.43911V8.41013L5.9525 9.39563L4.24555 8.41013L4.24551 6.43911ZM1.31664 10.7147C0.97832 10.7147 0.703086 10.4395 0.703086 10.1011C0.703086 9.76278 0.97832 9.48755 1.31664 9.48755C1.65496 9.48755 1.93023 9.76278 1.93023 10.1011C1.93023 10.4395 1.65496 10.7147 1.31664 10.7147Z" fill="#1B1C1E"/>
</svg>
