<svg width="15" height="17" viewBox="0 0 15 17" fill="none" xmlns="http://www.w3.org/2000/svg">
<path d="M4.16667 10.2C3.93056 10.2 3.73264 10.1185 3.57292 9.95563C3.41319 9.79271 3.33333 9.59083 3.33333 9.35C3.33333 9.10917 3.41319 8.90729 3.57292 8.74438C3.73264 8.58146 3.93056 8.5 4.16667 8.5C4.40278 8.5 4.60069 8.58146 4.76042 8.74438C4.92014 8.90729 5 9.10917 5 9.35C5 9.59083 4.92014 9.79271 4.76042 9.95563C4.60069 10.1185 4.40278 10.2 4.16667 10.2ZM7.5 10.2C7.26389 10.2 7.06597 10.1185 6.90625 9.95563C6.74653 9.79271 6.66667 9.59083 6.66667 9.35C6.66667 9.10917 6.74653 8.90729 6.90625 8.74438C7.06597 8.58146 7.26389 8.5 7.5 8.5C7.73611 8.5 7.93403 8.58146 8.09375 8.74438C8.25347 8.90729 8.33333 9.10917 8.33333 9.35C8.33333 9.59083 8.25347 9.79271 8.09375 9.95563C7.93403 10.1185 7.73611 10.2 7.5 10.2ZM10.8333 10.2C10.5972 10.2 10.3993 10.1185 10.2396 9.95563C10.0799 9.79271 10 9.59083 10 9.35C10 9.10917 10.0799 8.90729 10.2396 8.74438C10.3993 8.58146 10.5972 8.5 10.8333 8.5C11.0694 8.5 11.2674 8.58146 11.4271 8.74438C11.5868 8.90729 11.6667 9.10917 11.6667 9.35C11.6667 9.59083 11.5868 9.79271 11.4271 9.95563C11.2674 10.1185 11.0694 10.2 10.8333 10.2ZM1.66667 17C1.20833 17 0.815972 16.8335 0.489583 16.5006C0.163195 16.1677 0 15.7675 0 15.3V3.4C0 2.9325 0.163195 2.53229 0.489583 2.19938C0.815972 1.86646 1.20833 1.7 1.66667 1.7H2.5V0.85C2.5 0.609167 2.57986 0.407292 2.73958 0.244375C2.89931 0.0814584 3.09722 0 3.33333 0C3.56944 0 3.76736 0.0814584 3.92708 0.244375C4.08681 0.407292 4.16667 0.609167 4.16667 0.85V1.7H10.8333V0.85C10.8333 0.609167 10.9132 0.407292 11.0729 0.244375C11.2326 0.0814584 11.4306 0 11.6667 0C11.9028 0 12.1007 0.0814584 12.2604 0.244375C12.4201 0.407292 12.5 0.609167 12.5 0.85V1.7H13.3333C13.7917 1.7 14.184 1.86646 14.5104 2.19938C14.8368 2.53229 15 2.9325 15 3.4V15.3C15 15.7675 14.8368 16.1677 14.5104 16.5006C14.184 16.8335 13.7917 17 13.3333 17H1.66667ZM1.66667 15.3H13.3333V6.8H1.66667V15.3ZM1.66667 5.1H13.3333V3.4H1.66667V5.1Z" fill="#9F9F9F"/>
</svg>
