<svg width="48" height="47" viewBox="0 0 48 47" fill="none" xmlns="http://www.w3.org/2000/svg">
<path d="M0.953125 37.2083C0.956235 39.8043 1.98885 42.293 3.82447 44.1287C5.66009 45.9643 8.14883 46.9969 10.7448 47H38.1615C40.7574 46.9969 43.2462 45.9643 45.0818 44.1287C46.9174 42.293 47.95 39.8043 47.9531 37.2083V19.5833H0.953125V37.2083ZM34.2448 28.3958C34.8258 28.3958 35.3937 28.5681 35.8768 28.8909C36.3598 29.2137 36.7364 29.6724 36.9587 30.2092C37.181 30.746 37.2392 31.3366 37.1259 31.9064C37.0125 32.4762 36.7327 32.9996 36.3219 33.4105C35.9111 33.8213 35.3877 34.101 34.8179 34.2144C34.248 34.3277 33.6574 34.2696 33.1207 34.0472C32.5839 33.8249 32.1251 33.4484 31.8023 32.9653C31.4796 32.4823 31.3073 31.9143 31.3073 31.3333C31.3073 30.5543 31.6168 29.8071 32.1677 29.2562C32.7186 28.7053 33.4657 28.3958 34.2448 28.3958ZM24.4531 28.3958C25.0341 28.3958 25.602 28.5681 26.0851 28.8909C26.5682 29.2137 26.9447 29.6724 27.167 30.2092C27.3894 30.746 27.4475 31.3366 27.3342 31.9064C27.2208 32.4762 26.9411 32.9996 26.5303 33.4105C26.1194 33.8213 25.596 34.101 25.0262 34.2144C24.4564 34.3277 23.8658 34.2696 23.329 34.0472C22.7922 33.8249 22.3335 33.4484 22.0107 32.9653C21.6879 32.4823 21.5156 31.9143 21.5156 31.3333C21.5156 30.5543 21.8251 29.8071 22.376 29.2562C22.9269 28.7053 23.6741 28.3958 24.4531 28.3958ZM14.6615 28.3958C15.2424 28.3958 15.8104 28.5681 16.2934 28.8909C16.7765 29.2137 17.153 29.6724 17.3754 30.2092C17.5977 30.746 17.6559 31.3366 17.5425 31.9064C17.4292 32.4762 17.1494 32.9996 16.7386 33.4105C16.3278 33.8213 15.8044 34.101 15.2345 34.2144C14.6647 34.3277 14.0741 34.2696 13.5373 34.0472C13.0006 33.8249 12.5418 33.4484 12.219 32.9653C11.8962 32.4823 11.724 31.9143 11.724 31.3333C11.724 30.5543 12.0334 29.8071 12.5843 29.2562C13.1352 28.7053 13.8824 28.3958 14.6615 28.3958ZM38.1615 3.91667H36.2031V1.95833C36.2031 1.43895 35.9968 0.940841 35.6295 0.573583C35.2623 0.206324 34.7642 0 34.2448 0C33.7254 0 33.2273 0.206324 32.86 0.573583C32.4928 0.940841 32.2865 1.43895 32.2865 1.95833V3.91667H16.6198V1.95833C16.6198 1.43895 16.4135 0.940841 16.0462 0.573583C15.6789 0.206324 15.1808 0 14.6615 0C14.1421 0 13.644 0.206324 13.2767 0.573583C12.9094 0.940841 12.7031 1.43895 12.7031 1.95833V3.91667H10.7448C8.14883 3.91978 5.66009 4.95239 3.82447 6.78801C1.98885 8.62363 0.956235 11.1124 0.953125 13.7083V15.6667H47.9531V13.7083C47.95 11.1124 46.9174 8.62363 45.0818 6.78801C43.2462 4.95239 40.7574 3.91978 38.1615 3.91667Z" fill="#485648"/>
</svg>
