<svg width="15" height="15" viewBox="0 0 15 15" fill="none" xmlns="http://www.w3.org/2000/svg">
<path d="M11.8221 9.12495C11.3683 9.12532 10.9214 9.23622 10.52 9.44808C10.1186 9.65995 9.77474 9.96641 9.51805 10.341L5.61156 8.5752C5.88903 7.90445 5.8901 7.15105 5.61456 6.47952L9.51565 4.70468C9.89608 5.25549 10.4611 5.65156 11.1083 5.82104C11.7554 5.99052 12.4418 5.92219 13.0429 5.62845C13.644 5.3347 14.1201 4.835 14.3847 4.21997C14.6493 3.60495 14.685 2.91535 14.4853 2.27625C14.2855 1.63715 13.8636 1.0909 13.2959 0.736564C12.7283 0.382233 12.0527 0.243297 11.3915 0.344959C10.7303 0.44662 10.1275 0.782146 9.69224 1.29067C9.25702 1.7992 9.01827 2.44705 9.01931 3.1167C9.02186 3.2752 9.03792 3.43319 9.06733 3.58895L4.92017 5.47554C4.52186 5.10196 4.02322 4.85299 3.48551 4.75921C2.9478 4.66544 2.39444 4.73095 1.89341 4.94769C1.39238 5.16443 0.965499 5.52297 0.665218 5.97925C0.364937 6.43553 0.204331 6.96968 0.203132 7.51609C0.201933 8.06249 0.360192 8.59735 0.658468 9.05495C0.956743 9.51255 1.38204 9.87296 1.88212 10.0919C2.38219 10.3108 2.93526 10.3788 3.47338 10.2874C4.0115 10.196 4.51122 9.9492 4.91117 9.57737L9.06913 11.4568C9.04025 11.6124 9.02439 11.7701 9.02171 11.9284C9.0216 12.483 9.18578 13.0253 9.49351 13.4865C9.80124 13.9477 10.2387 14.3072 10.7505 14.5195C11.2624 14.7318 11.8256 14.7874 12.369 14.6792C12.9124 14.571 13.4115 14.304 13.8033 13.9118C14.195 13.5196 14.4618 13.0199 14.5699 12.4759C14.6779 11.9319 14.6224 11.3681 14.4103 10.8557C14.1983 10.3433 13.8392 9.90533 13.3785 9.59727C12.9178 9.2892 12.3761 9.12483 11.8221 9.12495ZM11.8221 1.5143C12.1387 1.51418 12.4482 1.60806 12.7115 1.78406C12.9748 1.96006 13.1801 2.21028 13.3013 2.50307C13.4226 2.79586 13.4544 3.11807 13.3927 3.42894C13.331 3.73982 13.1786 4.0254 12.9547 4.24955C12.7309 4.47371 12.4457 4.62639 12.1352 4.68827C11.8247 4.75014 11.5028 4.71845 11.2103 4.59718C10.9178 4.47592 10.6678 4.27053 10.4918 4.00701C10.3159 3.74348 10.222 3.43365 10.222 3.1167C10.2224 2.69192 10.391 2.28462 10.691 1.98419C10.991 1.68377 11.3978 1.51478 11.8221 1.5143ZM3.02004 9.12495C2.70343 9.12507 2.39391 9.03119 2.1306 8.85519C1.8673 8.67919 1.66205 8.42897 1.54081 8.13618C1.41956 7.84339 1.38778 7.52118 1.44947 7.21031C1.51117 6.89943 1.66357 6.61385 1.8874 6.38969C2.11123 6.16553 2.39643 6.01286 2.70695 5.95098C3.01746 5.88911 3.33933 5.9208 3.63184 6.04207C3.92436 6.16333 4.17438 6.36871 4.35029 6.63224C4.52619 6.89577 4.62008 7.2056 4.62008 7.52255C4.61961 7.94728 4.4509 8.35449 4.15095 8.65488C3.85101 8.95527 3.44431 9.12431 3.02004 9.12495ZM11.8221 13.5308C11.5055 13.5308 11.196 13.4368 10.9328 13.2607C10.6696 13.0847 10.4644 12.8344 10.3433 12.5416C10.2221 12.2488 10.1904 11.9266 10.2522 11.6158C10.314 11.305 10.4664 11.0194 10.6903 10.7953C10.9141 10.5712 11.1993 10.4186 11.5098 10.3568C11.8203 10.295 12.1422 10.3267 12.4346 10.448C12.7271 10.5693 12.9771 10.7746 13.153 11.0382C13.3289 11.3017 13.4227 11.6115 13.4227 11.9284C13.4224 12.3533 13.2537 12.7607 12.9536 13.0611C12.6535 13.3616 12.2465 13.5305 11.8221 13.5308Z" fill="#485648"/>
</svg>
