<svg width="12" height="15" viewBox="0 0 12 15" fill="none" xmlns="http://www.w3.org/2000/svg">
<path d="M11.4308 2.75569H9.6378C9.50356 2.08619 9.14838 1.48463 8.63213 1.05239C8.11588 0.620154 7.47012 0.383675 6.80369 0.382812H5.64691C4.98049 0.383675 4.33473 0.620154 3.81848 1.05239C3.30223 1.48463 2.94705 2.08619 2.8128 2.75569H1.0198C0.866398 2.75569 0.719282 2.81819 0.610813 2.92944C0.502344 3.04069 0.441406 3.19158 0.441406 3.34891C0.441406 3.50625 0.502344 3.65713 0.610813 3.76838C0.719282 3.87963 0.866398 3.94213 1.0198 3.94213H1.59819V11.654C1.5991 12.4404 1.90409 13.1943 2.44623 13.7503C2.98838 14.3064 3.72342 14.6192 4.49014 14.6201H7.96047C8.72718 14.6192 9.46223 14.3064 10.0044 13.7503C10.5465 13.1943 10.8515 12.4404 10.8524 11.654V3.94213H11.4308C11.5842 3.94213 11.7313 3.87963 11.8398 3.76838C11.9483 3.65713 12.0092 3.50625 12.0092 3.34891C12.0092 3.19158 11.9483 3.04069 11.8398 2.92944C11.7313 2.81819 11.5842 2.75569 11.4308 2.75569ZM5.64691 1.56925H6.80369C7.16245 1.5697 7.5123 1.68397 7.80524 1.89638C8.09819 2.10879 8.3199 2.40895 8.43996 2.75569H4.01065C4.13071 2.40895 4.35242 2.10879 4.64537 1.89638C4.93831 1.68397 5.28815 1.5697 5.64691 1.56925ZM9.69564 11.654C9.69564 12.126 9.51283 12.5787 9.18742 12.9124C8.86202 13.2462 8.42067 13.4337 7.96047 13.4337H4.49014C4.02994 13.4337 3.58859 13.2462 3.26319 12.9124C2.93778 12.5787 2.75497 12.126 2.75497 11.654V3.94213H9.69564V11.654Z" fill="#485648"/>
<path d="M5.06852 11.0608C5.22192 11.0608 5.36904 10.9983 5.47751 10.887C5.58598 10.7758 5.64691 10.6249 5.64691 10.4676V6.90824C5.64691 6.7509 5.58598 6.60002 5.47751 6.48877C5.36904 6.37752 5.22192 6.31502 5.06852 6.31502C4.91513 6.31502 4.76801 6.37752 4.65954 6.48877C4.55107 6.60002 4.49014 6.7509 4.49014 6.90824V10.4676C4.49014 10.6249 4.55107 10.7758 4.65954 10.887C4.76801 10.9983 4.91513 11.0608 5.06852 11.0608ZM7.38208 11.0608C7.53548 11.0608 7.6826 10.9983 7.79107 10.887C7.89954 10.7758 7.96047 10.6249 7.96047 10.4676V6.90824C7.96047 6.7509 7.89954 6.60002 7.79107 6.48877C7.6826 6.37752 7.53548 6.31502 7.38208 6.31502C7.22869 6.31502 7.08157 6.37752 6.9731 6.48877C6.86463 6.60002 6.80369 6.7509 6.80369 6.90824V10.4676C6.80369 10.6249 6.86463 10.7758 6.9731 10.887C7.08157 10.9983 7.22869 11.0608 7.38208 11.0608Z" fill="#485648"/>
</svg>
