<svg width="16" height="16" viewBox="0 0 16 16" fill="none" xmlns="http://www.w3.org/2000/svg">
<path d="M6.146 10.305C6.434 10.0397 6.87801 10.0601 7.13001 10.3509L7.49001 10.759C7.77201 11.0803 8.24 11.0803 8.522 10.759L8.87601 10.356C9.12801 10.0704 9.572 10.0499 9.86 10.3101C10.49 10.8814 11 10.6927 11 9.89182V6.50988C11 5.30096 10.664 5 9.332 5H6.668C5.336 5 5 5.30096 5 6.50988V9.89182C5.006 10.6825 5.522 10.8712 6.146 10.305Z" fill="#EAE3D2"/>
<path opacity="0.4" d="M11.1428 0.5H4.86531C2.13531 0.5 0.507812 2.1275 0.507812 4.8575V11.135C0.507812 13.865 2.13531 15.4925 4.86531 15.4925H11.1428C13.8728 15.4925 15.5003 13.865 15.5003 11.135V4.8575C15.5003 2.1275 13.8728 0.5 11.1428 0.5Z" fill="#EAE3D2"/>
</svg>
