<svg width="18" height="18" viewBox="0 0 18 18" fill="none" xmlns="http://www.w3.org/2000/svg">
<path opacity="0.4" d="M14.5576 0.664062H12.9742C11.1576 0.664062 10.1992 1.6224 10.1992 3.43906V5.0224C10.1992 6.83906 11.1576 7.7974 12.9742 7.7974H14.5576C16.3742 7.7974 17.3326 6.83906 17.3326 5.0224V3.43906C17.3326 1.6224 16.3742 0.664062 14.5576 0.664062Z" fill="#EAE3D2"/>
<path opacity="0.4" d="M5.03464 10.1953H3.4513C1.6263 10.1953 0.667969 11.1536 0.667969 12.9703V14.5536C0.667969 16.3786 1.6263 17.337 3.44297 17.337H5.0263C6.84297 17.337 7.8013 16.3786 7.8013 14.562V12.9786C7.80964 11.1536 6.8513 10.1953 5.03464 10.1953Z" fill="#EAE3D2"/>
<path d="M4.24297 7.81406C6.21739 7.81406 7.81797 6.21348 7.81797 4.23906C7.81797 2.26464 6.21739 0.664062 4.24297 0.664062C2.26855 0.664062 0.667969 2.26464 0.667969 4.23906C0.667969 6.21348 2.26855 7.81406 4.24297 7.81406Z" fill="#EAE3D2"/>
<path d="M13.7586 17.3297C15.733 17.3297 17.3336 15.7291 17.3336 13.7547C17.3336 11.7803 15.733 10.1797 13.7586 10.1797C11.7842 10.1797 10.1836 11.7803 10.1836 13.7547C10.1836 15.7291 11.7842 17.3297 13.7586 17.3297Z" fill="#EAE3D2"/>
</svg>
