<svg width="18" height="18" viewBox="0 0 18 18" fill="none" xmlns="http://www.w3.org/2000/svg">
<path d="M15.6667 4.6224C16.9323 4.6224 17.9583 3.59638 17.9583 2.33073C17.9583 1.06508 16.9323 0.0390625 15.6667 0.0390625C14.401 0.0390625 13.375 1.06508 13.375 2.33073C13.375 3.59638 14.401 4.6224 15.6667 4.6224Z" fill="#EAE3D2"/>
<path opacity="0.4" d="M15.668 5.66406C13.8263 5.66406 12.3346 4.1724 12.3346 2.33073C12.3346 1.7224 12.5096 1.15573 12.8013 0.664062H4.83464C2.53464 0.664062 0.667969 2.5224 0.667969 4.81406V9.7974V10.6307C0.667969 12.9224 2.53464 14.7807 4.83464 14.7807H6.08464C6.30964 14.7807 6.60964 14.9307 6.7513 15.1141L8.0013 16.7724C8.5513 17.5057 9.4513 17.5057 10.0013 16.7724L11.2513 15.1141C11.4096 14.9057 11.6596 14.7807 11.918 14.7807H13.168C15.468 14.7807 17.3346 12.9224 17.3346 10.6307V5.1974C16.843 5.48906 16.2763 5.66406 15.668 5.66406Z" fill="#EAE3D2"/>
<path d="M9.0013 9.0026C8.53464 9.0026 8.16797 8.6276 8.16797 8.16927C8.16797 7.71094 8.54297 7.33594 9.0013 7.33594C9.45964 7.33594 9.83464 7.71094 9.83464 8.16927C9.83464 8.6276 9.46797 9.0026 9.0013 9.0026Z" fill="#EAE3D2"/>
<path d="M12.3333 9.0026C11.8667 9.0026 11.5 8.6276 11.5 8.16927C11.5 7.71094 11.875 7.33594 12.3333 7.33594C12.7917 7.33594 13.1667 7.71094 13.1667 8.16927C13.1667 8.6276 12.8 9.0026 12.3333 9.0026Z" fill="#EAE3D2"/>
<path d="M5.66536 9.0026C5.1987 9.0026 4.83203 8.6276 4.83203 8.16927C4.83203 7.71094 5.20703 7.33594 5.66536 7.33594C6.1237 7.33594 6.4987 7.71094 6.4987 8.16927C6.4987 8.6276 6.13203 9.0026 5.66536 9.0026Z" fill="#EAE3D2"/>
</svg>
