<svg width="18" height="18" viewBox="0 0 18 18" fill="none" xmlns="http://www.w3.org/2000/svg">
<path opacity="0.4" d="M17.3346 5.50573V12.4891C17.3346 14.8307 16.2596 16.439 14.368 17.0474C13.818 17.239 13.1846 17.3307 12.493 17.3307H5.50963C4.81797 17.3307 4.18463 17.239 3.63463 17.0474C1.74297 16.439 0.667969 14.8307 0.667969 12.4891V5.50573C0.667969 2.47239 2.4763 0.664062 5.50963 0.664062H12.493C15.5263 0.664062 17.3346 2.47239 17.3346 5.50573Z" fill="#EAE3D2"/>
<path d="M14.3661 17.049C13.8161 17.2406 13.1828 17.3323 12.4911 17.3323H5.50781C4.81615 17.3323 4.18281 17.2406 3.63281 17.049C3.92448 14.849 6.22448 13.1406 8.99948 13.1406C11.7745 13.1406 14.0745 14.849 14.3661 17.049Z" fill="#EAE3D2"/>
<path d="M11.9842 8.64741C11.9842 10.2974 10.6509 11.639 9.00091 11.639C7.35091 11.639 6.01758 10.2974 6.01758 8.64741C6.01758 6.99741 7.35091 5.66406 9.00091 5.66406C10.6509 5.66406 11.9842 6.99741 11.9842 8.64741Z" fill="#EAE3D2"/>
</svg>
