<svg width="18" height="16" viewBox="0 0 18 16" fill="none" xmlns="http://www.w3.org/2000/svg">
<path opacity="0.4" d="M16.4743 11.3974C16.2743 13.6224 14.666 15.0807 12.3327 15.0807H4.83268C2.53268 15.0807 0.666016 13.2141 0.666016 10.9141V5.08073C0.666016 2.81406 2.03268 1.23073 4.15768 0.964062C4.37435 0.930729 4.59935 0.914062 4.83268 0.914062H12.3327C12.5493 0.914062 12.7577 0.922396 12.9577 0.955729C14.9493 1.18906 16.2993 2.58073 16.4743 4.5974C16.4993 4.83906 16.2993 5.03906 16.0577 5.03906H14.766C13.966 5.03906 13.2243 5.3474 12.691 5.8974C12.0577 6.51406 11.741 7.38073 11.816 8.2474C11.9493 9.76406 13.2827 10.9557 14.866 10.9557H16.0577C16.2993 10.9557 16.4993 11.1557 16.4743 11.3974Z" fill="#EAE3D2"/>
<path d="M17.3329 7.13906V8.85573C17.3329 9.31406 16.9662 9.68906 16.4995 9.70573H14.8662C13.9662 9.70573 13.1412 9.0474 13.0662 8.1474C13.0162 7.6224 13.2162 7.13073 13.5662 6.78906C13.8745 6.4724 14.2995 6.28906 14.7662 6.28906H16.4995C16.9662 6.30573 17.3329 6.68073 17.3329 7.13906Z" fill="#EAE3D2"/>
</svg>
