<svg width="18" height="18" viewBox="0 0 18 18" fill="none" xmlns="http://www.w3.org/2000/svg">
<path d="M9.41016 11.9795C9.83013 11.9795 10.1601 12.3195 10.1602 12.7295C10.1602 13.1395 9.83016 13.4795 9.41016 13.4795C8.99016 13.4795 8.66016 13.1395 8.66016 12.7295C8.6602 12.3195 8.99018 11.9795 9.41016 11.9795ZM9.41016 5C10.74 5 11.8201 6.07936 11.8203 7.40918C11.8203 8.54911 10.98 9.11907 10.6699 9.3291C10.2799 9.5891 10.1602 9.76004 10.1602 10.04V10.25C10.1599 10.6598 9.82001 11 9.41016 11C9.0003 11 8.66039 10.6598 8.66016 10.25V10.04C8.66016 8.88026 9.50994 8.30993 9.83008 8.08984C10.2001 7.83984 10.3203 7.66918 10.3203 7.40918C10.3201 6.90936 9.91003 6.5 9.41016 6.5C8.91029 6.5 8.50021 6.90936 8.5 7.40918C8.5 7.81918 8.16 8.15918 7.75 8.15918C7.34007 8.15909 7 7.81913 7 7.40918C7.00021 6.07936 8.08029 5 9.41016 5Z" fill="#EAE3D2"/>
<path opacity="0.4" d="M17.3346 5.50573V12.4891C17.3346 14.8307 16.2596 16.439 14.368 17.0474C13.818 17.239 13.1846 17.3307 12.493 17.3307H5.50963C4.81797 17.3307 4.18463 17.239 3.63463 17.0474C1.74297 16.439 0.667969 14.8307 0.667969 12.4891V5.50573C0.667969 2.47239 2.4763 0.664062 5.50963 0.664062H12.493C15.5263 0.664062 17.3346 2.47239 17.3346 5.50573Z" fill="#EAE3D2"/>
</svg>
