<svg width="16" height="18" viewBox="0 0 16 18" fill="none" xmlns="http://www.w3.org/2000/svg">
<path opacity="0.4" d="M9.03255 0.664062C9.42422 0.664062 9.74922 0.980729 9.74922 1.38073V16.6224C9.74922 17.0141 9.43255 17.3391 9.03255 17.3391C4.12422 17.3391 0.699219 13.9141 0.699219 9.00573C0.699219 4.0974 4.13255 0.664062 9.03255 0.664062Z" fill="#EAE3D2"/>
<path d="M15.1164 8.61875L12.7497 6.24375C12.5081 6.00208 12.1081 6.00208 11.8664 6.24375C11.6247 6.48542 11.6247 6.88542 11.8664 7.12708L13.1664 8.42708H5.19141C4.84974 8.42708 4.56641 8.71042 4.56641 9.05208C4.56641 9.39375 4.84974 9.67708 5.19141 9.67708H13.1664L11.8664 10.9771C11.6247 11.2188 11.6247 11.6188 11.8664 11.8604C11.9914 11.9854 12.1497 12.0438 12.3081 12.0438C12.4664 12.0438 12.6247 11.9854 12.7497 11.8604L15.1164 9.48542C15.3581 9.25208 15.3581 8.86042 15.1164 8.61875Z" fill="#EAE3D2"/>
</svg>
