<svg width="18" height="18" viewBox="0 0 18 18" fill="none" xmlns="http://www.w3.org/2000/svg">
<path opacity="0.4" d="M12.493 0.664062H5.50964C2.4763 0.664062 0.667969 2.4724 0.667969 5.50573V12.4807C0.667969 15.5224 2.4763 17.3307 5.50964 17.3307H12.4846C15.518 17.3307 17.3263 15.5224 17.3263 12.4891V5.50573C17.3346 2.4724 15.5263 0.664062 12.493 0.664062Z" fill="#EAE3D2"/>
<path d="M12.125 7.125H5.875C5.53333 7.125 5.25 6.84167 5.25 6.5C5.25 6.15833 5.53333 5.875 5.875 5.875H12.125C12.4667 5.875 12.75 6.15833 12.75 6.5C12.75 6.84167 12.4667 7.125 12.125 7.125Z" fill="#EAE3D2"/>
<path d="M12.125 12.125H5.875C5.53333 12.125 5.25 11.8417 5.25 11.5C5.25 11.1583 5.53333 10.875 5.875 10.875H12.125C12.4667 10.875 12.75 11.1583 12.75 11.5C12.75 11.8417 12.4667 12.125 12.125 12.125Z" fill="#EAE3D2"/>
</svg>
