<svg width="20" height="19" viewBox="0 0 20 19" fill="none" xmlns="http://www.w3.org/2000/svg">
<path opacity="0.4" d="M15.0447 10.7323C14.7122 11.0569 14.5222 11.524 14.5697 12.0227C14.6409 12.8777 15.4247 13.5031 16.2797 13.5031H17.7839V14.4452C17.7839 16.084 16.4459 17.4219 14.8072 17.4219H5.71885C4.0801 17.4219 2.74219 16.084 2.74219 14.4452V9.1173C2.74219 7.47855 4.0801 6.14062 5.71885 6.14062H14.8072C16.4459 6.14062 17.7839 7.47855 17.7839 9.1173V10.2573H16.1847C15.7414 10.2573 15.3376 10.4314 15.0447 10.7323Z" fill="#EAE3D2"/>
<path d="M12.5193 3.12981V6.13813H5.71885C4.0801 6.13813 2.74219 7.47605 2.74219 9.1148V6.2094C2.74219 5.26732 3.3201 4.42812 4.19885 4.09562L10.4847 1.72062C11.4664 1.35645 12.5193 2.07689 12.5193 3.12981Z" fill="#EAE3D2"/>
<path d="M18.6231 11.0575V12.6883C18.6231 13.1238 18.2747 13.48 17.8314 13.4958H16.2797C15.4247 13.4958 14.641 12.8704 14.5697 12.0154C14.5222 11.5167 14.7122 11.0496 15.0447 10.725C15.3376 10.4241 15.7414 10.25 16.1847 10.25H17.8314C18.2747 10.2658 18.6231 10.6221 18.6231 11.0575Z" fill="#EAE3D2"/>
<path d="M11.8464 10.0938H6.30469C5.9801 10.0938 5.71094 9.82458 5.71094 9.5C5.71094 9.17542 5.9801 8.90625 6.30469 8.90625H11.8464C12.1709 8.90625 12.4401 9.17542 12.4401 9.5C12.4401 9.82458 12.1709 10.0938 11.8464 10.0938Z" fill="#EAE3D2"/>
</svg>
