<svg width="26" height="26" viewBox="0 0 26 26" fill="none" xmlns="http://www.w3.org/2000/svg">
<g clip-path="url(#clip0_1431_46377)">
<path d="M8.76646 14.0312C8.55826 16.4941 7.61373 19.2973 5.77545 21.0086C5.61295 21.1559 5.82115 21.4148 5.99888 21.2828C7.99459 19.7543 9.21842 17.5047 9.88365 15.0621C9.79224 14.8184 9.60943 14.341 9.53834 14.1227C9.37076 14.082 8.97974 14.0668 8.76646 14.0312Z" fill="#485648"/>
<path d="M17.2352 14.0312C17.0117 14.0719 16.641 14.082 16.4684 14.1277C16.3973 14.341 16.2145 14.8082 16.123 15.0672C16.7883 17.5098 18.0121 19.7645 20.0078 21.2879C20.1855 21.4199 20.3887 21.1609 20.2312 21.0137C18.393 19.2973 17.4434 16.4992 17.2352 14.0312Z" fill="#485648"/>
<path d="M7.72978 12.5642C7.64853 12.1122 7.89228 11.4267 8.2122 10.7716C8.2122 10.7716 8.2122 10.7665 8.21728 10.7665C8.53213 9.78646 8.36455 9.14154 7.90244 8.58802C7.50127 8.11068 7.29306 7.56224 7.29306 7.00364C7.29306 6.49075 7.4708 5.98294 7.81611 5.53099C8.62353 4.47474 7.84658 2.9513 9.52236 1.83411C8.95869 1.57005 8.33916 1.29583 7.61806 1.14349C5.81025 0.762629 2.62627 3.0681 1.10791 4.35286C-0.41045 5.63763 -0.0600597 6.22161 0.376659 7.24232C0.813378 8.27825 3.64697 11.1372 4.69814 12.1884C5.74931 13.2396 8.004 14.0318 7.72978 12.5642Z" fill="#485648"/>
<path d="M24.8988 4.36068C23.3805 3.07591 20.1965 0.770442 18.3887 1.1513C17.6625 1.30364 17.048 1.57786 16.4844 1.84193C17.5152 2.52747 17.6727 3.49739 17.825 4.7263C17.9266 5.54388 18.7086 5.79779 18.7086 7.00638C18.7086 8.75833 17.0988 8.6263 17.7844 10.7642C17.7895 10.7693 17.7895 10.7693 17.7895 10.7693C18.1094 11.4243 18.3531 12.1099 18.2668 12.5618C17.9977 14.0243 20.2523 13.2322 21.3035 12.181C22.3547 11.1298 25.1883 8.27083 25.625 7.24505C26.0617 6.22943 26.4121 5.64544 24.8988 4.36068Z" fill="#485648"/>
<path d="M17.3926 11.3687C17.2859 10.9218 17.0473 10.546 17.0777 9.68271C17.098 9.14443 17.3316 8.65186 17.6719 8.24053C17.9816 7.86982 18.1543 7.45342 18.1543 7.01162C18.1543 5.996 17.3977 5.8081 17.2758 4.79756C17.1184 3.54834 16.9254 2.45654 15.6203 2.04014C13.8734 1.48662 12.1266 1.48662 10.3797 2.04014C9.04922 2.46162 8.87148 3.58896 8.72422 4.79756C8.67852 5.19365 8.4957 5.55928 8.25703 5.87412C7.99297 6.22451 7.8457 6.60537 7.8457 7.01162C7.8457 7.45342 8.01836 7.86982 8.32812 8.24053C8.67344 8.65186 8.90195 9.14951 8.92227 9.68271C8.95273 10.546 8.71406 10.9269 8.60742 11.3687C8.46016 11.9831 8.35859 13.2069 8.63789 13.4151C8.91211 13.6183 9.92266 13.4151 10.0395 13.8823C10.1562 14.3495 11.0348 16.1015 11.0906 18.1429C11.1617 20.6413 12.1875 21.0069 11.6594 23.6069C11.6188 23.7847 12.0656 23.8761 12.1773 24.2315C12.4668 25.1354 13.5484 25.0796 13.8227 24.2315C13.9344 23.8761 14.3762 23.7897 14.3406 23.6069C13.8227 21.0425 14.8383 20.6159 14.9094 18.1429C14.9652 16.0964 15.8437 14.3495 15.9605 13.8823C16.0773 13.4151 17.0828 13.6183 17.3621 13.4151C17.6414 13.2069 17.5398 11.978 17.3926 11.3687ZM10.5523 8.54014C10.2273 8.54014 9.96836 8.28115 9.96836 7.95615C9.96836 7.63623 10.2273 7.37217 10.5523 7.37217C10.8723 7.37217 11.1363 7.63623 11.1363 7.95615C11.1363 8.28115 10.8723 8.54014 10.5523 8.54014ZM15.4477 8.54014C15.1227 8.54014 14.8637 8.28115 14.8637 7.95615C14.8637 7.63623 15.1227 7.37217 15.4477 7.37217C15.7676 7.37217 16.0316 7.63623 16.0316 7.95615C16.0316 8.28115 15.7676 8.54014 15.4477 8.54014Z" fill="#485648"/>
</g>
<defs>
<clipPath id="clip0_1431_46377">
<rect width="26" height="26" fill="white"/>
</clipPath>
</defs>
</svg>
