<svg width="17" height="15" viewBox="0 0 17 15" fill="none" xmlns="http://www.w3.org/2000/svg">
<path d="M10.2588 2.45549C11.0448 2.94832 11.596 3.7823 11.6963 4.75037C12.0169 4.90015 12.3727 4.98628 12.7499 4.98628C14.127 4.98628 15.2431 3.87014 15.2431 2.49325C15.2431 1.11615 14.127 0 12.7499 0C11.3859 0.000424311 10.2796 1.09663 10.2588 2.45549ZM8.62538 7.56036C10.0025 7.56036 11.1186 6.444 11.1186 5.06712C11.1186 3.69023 10.0023 2.57408 8.62538 2.57408C7.2485 2.57408 6.13171 3.69044 6.13171 5.06733C6.13171 6.44422 7.2485 7.56036 8.62538 7.56036ZM9.68298 7.7303H7.56737C5.80711 7.7303 4.37507 9.16256 4.37507 10.9228V13.51L4.38164 13.5506L4.55985 13.6064C6.2397 14.1312 7.69911 14.3063 8.90034 14.3063C11.2466 14.3063 12.6065 13.6373 12.6903 13.5947L12.8568 13.5105H12.8746V10.9228C12.8753 9.16256 11.4432 7.7303 9.68298 7.7303ZM13.8079 5.15643H11.7086C11.6859 5.99636 11.3274 6.75269 10.7603 7.29666C12.3249 7.76191 13.4697 9.21284 13.4697 10.9266V11.7239C15.5425 11.648 16.7369 11.0605 16.8156 11.021L16.9822 10.9366H17V8.34852C17 6.58848 15.568 5.15643 13.8079 5.15643ZM4.25053 4.98671C4.73828 4.98671 5.19208 4.84435 5.5765 4.60186C5.6987 3.80479 6.12598 3.10829 6.73635 2.63391C6.7389 2.58723 6.74335 2.54098 6.74335 2.49389C6.74335 1.11679 5.62699 0.00063642 4.25053 0.00063642C2.87322 0.00063642 1.75728 1.11679 1.75728 2.49389C1.75728 3.87035 2.87322 4.98671 4.25053 4.98671ZM6.48962 7.29666C5.92528 6.75545 5.56801 6.00315 5.54192 5.16831C5.46406 5.16259 5.38705 5.15643 5.3077 5.15643H3.1923C1.43205 5.15643 0 6.58848 0 8.34852V10.9362L0.00657681 10.9761L0.184787 11.0323C1.5324 11.453 2.73511 11.6469 3.77976 11.708V10.9266C3.78018 9.21284 4.92455 7.76234 6.48962 7.29666Z" fill="#485648"/>
</svg>
