<svg width="12" height="12" viewBox="0 0 12 12" fill="none" xmlns="http://www.w3.org/2000/svg">
<path opacity="0.4" d="M11.3954 4.34021C11.1096 3.88521 10.7829 3.47687 10.4446 3.10938L8.24544 5.30854C8.31544 5.52438 8.35628 5.75771 8.35628 6.00271C8.35628 7.30937 7.30044 8.35938 5.99961 8.35938C5.75461 8.35938 5.52128 8.31854 5.30544 8.24854L3.28711 10.2669C4.13878 10.7452 5.06044 10.996 5.99961 10.996C7.03794 10.996 8.04711 10.6927 8.96878 10.1269C9.89044 9.55521 10.7188 8.72104 11.3954 7.65938C11.9788 6.74938 11.9788 5.25604 11.3954 4.34021Z" fill="#757575"/>
<path d="M7.17772 4.81812L4.82105 7.17479C4.52355 6.87146 4.33105 6.45146 4.33105 5.99646C4.33105 5.08062 5.07772 4.32812 5.99939 4.32812C6.45439 4.32812 6.87439 4.52062 7.17772 4.81812Z" fill="#757575"/>
<path opacity="0.4" d="M9.64616 2.35333L7.66866 4.33083C7.24283 3.89917 6.65366 3.6425 6.00033 3.6425C4.69366 3.6425 3.64366 4.69833 3.64366 5.99917C3.64366 6.6525 3.90616 7.24167 4.33199 7.6675L2.36033 9.645H2.35449C1.70699 9.12 1.11199 8.44917 0.604492 7.65583C0.0211588 6.74 0.0211588 5.2525 0.604492 4.33667C1.28116 3.275 2.10949 2.44083 3.03116 1.86917C3.95283 1.30917 4.96199 1 6.00033 1C7.30116 1 8.56116 1.47833 9.64616 2.35333Z" fill="#757575"/>
<path d="M7.66789 5.9976C7.66789 6.91344 6.92122 7.66594 5.99956 7.66594C5.96456 7.66594 5.93539 7.66594 5.90039 7.65427L7.65622 5.89844C7.66789 5.93344 7.66789 5.9626 7.66789 5.9976Z" fill="#757575"/>
<path d="M11.6995 0.303125C11.5245 0.128125 11.2387 0.128125 11.0637 0.303125L0.301172 11.0715C0.126172 11.2465 0.126172 11.5323 0.301172 11.7073C0.388672 11.789 0.499505 11.8356 0.616172 11.8356C0.732839 11.8356 0.843672 11.789 0.931172 11.7015L11.6995 0.933125C11.8803 0.758125 11.8803 0.478125 11.6995 0.303125Z" fill="#757575"/>
</svg>
