<svg width="12" height="10" viewBox="0 0 12 10" fill="none" xmlns="http://www.w3.org/2000/svg">
<path opacity="0.4" d="M11.3954 3.34021C11.1096 2.88521 10.7829 2.47687 10.4446 2.10938L8.24544 4.30854C8.31544 4.52438 8.35628 4.75771 8.35628 5.00271C8.35628 6.30937 7.30044 7.35938 5.99961 7.35938C5.75461 7.35938 5.52128 7.31854 5.30544 7.24854L3.28711 9.26687C4.13878 9.74521 5.06044 9.99604 5.99961 9.99604C7.03794 9.99604 8.04711 9.69271 8.96878 9.12687C9.89044 8.55521 10.7188 7.72104 11.3954 6.65938C11.9788 5.74938 11.9788 4.25604 11.3954 3.34021Z" fill="#757575"/>
<path d="M7.17772 3.81812L4.82105 6.17479C4.52355 5.87146 4.33105 5.45146 4.33105 4.99646C4.33105 4.08062 5.07772 3.32812 5.99939 3.32812C6.45439 3.32812 6.87439 3.52062 7.17772 3.81812Z" fill="#757575"/>
<path opacity="0.4" d="M9.64616 1.35333L7.66866 3.33083C7.24283 2.89917 6.65366 2.6425 6.00033 2.6425C4.69366 2.6425 3.64366 3.69833 3.64366 4.99917C3.64366 5.6525 3.90616 6.24167 4.33199 6.6675L2.36033 8.645H2.35449C1.70699 8.12 1.11199 7.44917 0.604492 6.65583C0.0211588 5.74 0.0211588 4.2525 0.604492 3.33667C1.28116 2.275 2.10949 1.44083 3.03116 0.869167C3.95283 0.309167 4.96199 0 6.00033 0C7.30116 0 8.56116 0.478333 9.64616 1.35333Z" fill="#757575"/>
<path d="M7.66789 4.9976C7.66789 5.91344 6.92122 6.66594 5.99956 6.66594C5.96456 6.66594 5.93539 6.66594 5.90039 6.65427L7.65622 4.89844C7.66789 4.93344 7.66789 4.9626 7.66789 4.9976Z" fill="#757575"/>
</svg>
