<svg width="20" height="20" viewBox="0 0 20 20" fill="none" xmlns="http://www.w3.org/2000/svg">
<mask id="mask0_1841_51031" style="mask-type:luminance" maskUnits="userSpaceOnUse" x="0" y="0" width="20" height="20">
<path d="M19.7002 19.7002V0.299805H0.299805V19.7002H19.7002Z" fill="white" stroke="white" stroke-width="0.6"/>
</mask>
<g mask="url(#mask0_1841_51031)">
<path d="M3.98608 11.5703C6.54135 7.12068 11.2474 1.97167 19.6874 0.309956" stroke="#1B1C1E" stroke-width="0.6" stroke-miterlimit="10" stroke-linecap="round" stroke-linejoin="round"/>
<path d="M2.22801 13.1174C2.41917 12.7119 2.62011 12.3112 2.83067 11.9155C3.05012 11.5032 3.56207 11.3468 3.97422 11.5664C4.38633 11.7859 4.54254 12.2981 4.32312 12.7105C2.51176 16.114 1.99571 18.9598 1.99071 18.9882C1.91833 19.3984 1.56153 19.6875 1.15895 19.6875C1.1097 19.6875 1.06054 19.6832 1.01204 19.6746C0.552509 19.594 0.245049 19.1566 0.325205 18.6968C0.342315 18.5984 0.674892 16.7424 1.75016 14.1886" stroke="#1B1C1E" stroke-width="0.6" stroke-miterlimit="10" stroke-linecap="round" stroke-linejoin="round"/>
<path d="M6.32604 14.141C6.32604 14.8527 5.74932 15.4297 5.03788 15.4297C4.32647 15.4297 3.74976 14.8527 3.74976 14.141C3.74976 13.4293 4.32647 12.8523 5.03788 12.8523C5.74932 12.8523 6.32604 13.4293 6.32604 14.141Z" stroke="#1B1C1E" stroke-width="0.6" stroke-miterlimit="10" stroke-linecap="round" stroke-linejoin="round"/>
<path d="M5.03784 14.1425L6.30151 16.4609" stroke="#1B1C1E" stroke-width="0.6" stroke-miterlimit="10" stroke-linecap="round" stroke-linejoin="round"/>
<path d="M6.60143 16.4656C6.60144 16.3861 6.56986 16.3098 6.51363 16.2535C6.4574 16.1973 6.38113 16.1657 6.30159 16.1656C6.22204 16.1656 6.14576 16.1973 6.08952 16.2535C6.03329 16.3098 6.0017 16.3861 6.00171 16.4656C6.0017 16.5452 6.03329 16.6215 6.08952 16.6777C6.14576 16.734 6.22204 16.7656 6.30159 16.7656C6.38113 16.7656 6.4574 16.734 6.51363 16.6777C6.56986 16.6215 6.60144 16.5452 6.60143 16.4656Z" stroke="#1B1C1E" stroke-width="0.6" stroke-miterlimit="10" stroke-linecap="round" stroke-linejoin="round"/>
<path d="M19.6875 0.310853C19.6875 0.310853 12.8155 5.14111 13.6955 7.39532C14.3555 9.08594 17.3937 7.28646 17.9385 8.64681C18.3258 9.61391 16.4686 11.2812 16.4686 11.2812" stroke="#1B1C1E" stroke-width="0.6" stroke-miterlimit="10" stroke-linecap="round" stroke-linejoin="round"/>
<path d="M14.6162 12.3168L14.7391 12.5156" stroke="#1B1C1E" stroke-width="0.6" stroke-miterlimit="10" stroke-linecap="round" stroke-linejoin="round"/>
<path d="M12.8159 11.4802C12.8011 12.5704 13.1279 13.8891 14.5817 14.5781" stroke="#1B1C1E" stroke-width="0.6" stroke-miterlimit="10" stroke-linecap="round" stroke-linejoin="round"/>
<path d="M16.1807 12.605C16.3166 12.2288 16.4158 11.7931 16.4686 11.2825C16.4686 11.2825 13.6224 10.6278 11.3912 12.1917C9.48038 13.5311 9.30467 16.5807 10.8237 18.1953" stroke="#1B1C1E" stroke-width="0.6" stroke-miterlimit="10" stroke-linecap="round" stroke-linejoin="round"/>
<path d="M11.7676 18.8905C12.1015 19.0525 12.4779 19.1647 12.8966 19.2146C14.0554 19.3527 14.79 19.0482 14.79 19.0482C15.9101 20.1919 17.0546 19.4522 17.0546 19.4522C17.0546 19.4522 16.1373 18.683 16.0124 18.0265C15.8449 17.1464 16.3116 16.2548 16.3116 16.2548C14.9576 16.3698 14.5201 17.6396 14.5201 17.6396C14.2917 17.7309 14.0571 17.7717 13.8328 17.7813C12.4917 17.8385 11.9703 16.0642 13.1361 15.3988C13.1456 15.3934 13.1552 15.3879 13.165 15.3825C14.0293 14.9055 14.9625 14.4988 15.6233 13.6376" stroke="#1B1C1E" stroke-width="0.6" stroke-miterlimit="10" stroke-linecap="round" stroke-linejoin="round"/>
<path d="M10.8788 12.6339C10.4129 12.5494 9.7246 12.4964 9.24527 12.7764C8.60765 13.1488 8.78207 14.7696 9.80706 15.5391C9.78839 14.4785 10.1444 13.4031 10.8788 12.6339Z" stroke="#1B1C1E" stroke-width="0.6" stroke-miterlimit="10" stroke-linecap="round" stroke-linejoin="round"/>
</g>
</svg>
