<svg width="15" height="12" viewBox="0 0 15 12" fill="none" xmlns="http://www.w3.org/2000/svg">
<path d="M6.875 12C3.53748 12 0.643712 9.57245 0.0193331 6.47855C-0.120668 5.78339 0.521836 5.15321 1.23059 5.29052C4.38498 5.90293 6.875 8.72649 6.875 12ZM10.6219 5.2893C10.5169 3.66971 9.59689 1.88215 8.40688 0.426844C8.29795 0.29363 8.15991 0.186114 8.00295 0.112235C7.84598 0.0383556 7.6741 0 7.5 0C7.3259 0 7.15402 0.0383556 6.99705 0.112235C6.84009 0.186114 6.70205 0.29363 6.59312 0.426844C5.40311 1.88215 4.48248 3.66971 4.37811 5.2893C5.77094 6.16659 6.85954 7.43781 7.5 8.93491C8.14046 7.43781 9.22906 6.16659 10.6219 5.2893ZM13.7694 5.29114C10.615 5.90354 8.125 8.72649 8.125 12C11.4625 12 14.3563 9.57245 14.9807 6.47855C15.1207 5.78339 14.4782 5.15382 13.7694 5.29114Z" fill="white"/>
</svg>
