<svg width="230" height="53" viewBox="0 0 230 53" fill="none" xmlns="http://www.w3.org/2000/svg">
<path d="M33.1861 20.3915L31.1078 9.02526C31.0565 8.74303 30.8512 8.51211 30.569 8.43514V8.40948C30.3124 8.35817 30.0302 8.40948 29.825 8.58909L29.4401 8.97395C29.2861 9.10223 29.1065 9.1792 28.9269 9.1792H4.19329C4.01369 9.1792 3.80843 9.10223 3.68015 8.97395L3.29529 8.58909C3.09003 8.40948 2.8078 8.35817 2.55122 8.40948V8.43514C2.26899 8.51211 2.06374 8.74303 2.01242 9.02526L0.0111504 19.904C-0.0401643 20.1862 0.0881223 20.4941 0.344695 20.648C0.601269 20.8276 0.934814 20.8276 1.19139 20.6737L3.65449 19.006C3.78278 18.929 3.93672 18.8777 4.06501 18.8777H10.9668C11.3773 18.8777 11.7109 19.2112 11.7109 19.6474V32.2964C11.7109 42.739 16.1753 48.7941 23.9238 52.0269C24.9244 52.4374 25.8994 52.7453 26.7461 52.9762C27.4645 53.1558 28.0033 52.2835 27.4901 51.719C25.2066 49.1533 21.3837 43.7653 21.3837 36.5299V19.6474C21.3837 19.2112 21.7429 18.8777 22.1534 18.8777H29.0296C29.1835 18.8777 29.3375 18.929 29.4657 19.006L31.9289 20.6737C32.1854 20.8276 32.519 20.8276 32.7755 20.648L33.1861 20.3915Z" fill="white"/>
<path d="M218.202 42.4566V16.5171C218.202 9.12778 214.251 3.68843 211.968 1.17402C211.506 0.66087 211.968 -0.134507 212.635 0.0194374C213.533 0.250353 214.585 0.558241 215.662 1.02007C223.411 4.25289 227.875 10.308 227.875 20.7505V42.0974C227.875 42.3284 227.978 42.5336 228.183 42.6876L229.338 43.4573C229.594 43.6369 229.697 43.9704 229.62 44.2527C229.517 44.5349 229.261 44.7401 228.953 44.7401H217.099C216.791 44.7401 216.535 44.5349 216.432 44.2527C216.355 43.9704 216.458 43.6369 216.714 43.4573L218.202 42.4566Z" fill="white"/>
<path d="M46.1161 27.1867V11.8693C46.1161 11.6384 46.2187 11.4074 46.3983 11.2791L47.6042 10.4838C47.8608 10.3042 47.9634 10.0219 47.8864 9.73971C47.8095 9.43182 47.5272 9.22656 47.2193 9.22656H35.3913C35.0834 9.22656 34.8268 9.40616 34.7499 9.71405H34.7242C34.6472 9.99628 34.7499 10.3298 35.0064 10.4838L36.1867 11.2791C36.3663 11.4074 36.4946 11.6384 36.4946 11.8693V26.9814C36.4946 27.0327 36.4946 31.3688 38.3932 35.8075C40.4971 40.7081 44.7306 44.7363 52.0173 44.7363C55.8915 44.7363 58.8164 43.6074 61.023 41.9396C65.2564 38.7068 67.5656 32.2925 67.5656 26.9814V11.8693C67.5656 11.6384 67.6939 11.4074 67.8735 11.2791L69.0537 10.4838C69.3103 10.3298 69.4129 9.99628 69.3103 9.71405C69.2333 9.40616 68.9511 9.22656 68.6689 9.22656H56.8152C56.5073 9.22656 56.2507 9.43182 56.1737 9.73971C56.0968 10.0219 56.1994 10.3042 56.456 10.4838L57.6362 11.2791C57.8415 11.4074 57.9441 11.6384 57.9441 11.8693V27.0841C57.9441 27.4946 57.8415 29.5728 57.0204 31.4715C56.1994 33.3701 54.7626 35.0378 52.0173 35.0378C47.6555 35.0378 46.424 30.9583 46.1161 27.1867Z" fill="white"/>
<path d="M80.2431 20.5202C80.2431 19.7248 81.0642 18.8782 81.8595 18.8782H94.4316C94.5513 18.8782 94.6625 18.9038 94.7652 18.9551L98.3572 20.7768C98.6138 20.9051 98.9216 20.8794 99.1526 20.6998L99.1782 20.6742C99.4091 20.5202 99.5118 20.2123 99.4604 19.9558L97.4335 9.87244C97.4079 9.71849 97.3309 9.5902 97.2026 9.48758L97.0743 9.35929C96.946 9.25666 96.7664 9.17969 96.5868 9.17969H81.8595C81.5516 9.17969 80.7049 9.28232 79.6273 9.53889C77.9853 9.94941 75.7274 10.7191 73.8801 12.4382C72.0071 14.1315 70.5703 16.7229 70.5703 20.4432C70.5703 23.009 71.2374 25.0359 72.2124 26.5753C73.7262 28.8845 75.8814 30.2443 77.78 30.9627C79.1142 31.4246 80.4997 31.8351 81.8595 31.8351H91.5323C92.3534 31.8351 93.1231 32.3996 93.1231 33.4259C93.1231 34.5035 92.4817 34.914 91.5837 35.0423C91.5494 35.0423 91.5152 35.0423 91.481 35.0423H76.8307C76.711 35.0423 76.5998 35.0166 76.4972 34.9653L72.8538 33.1693C72.5972 33.041 72.2893 33.0923 72.0584 33.2719C71.8532 33.4258 71.7505 33.7081 71.8019 33.9903L73.7775 44.048C73.8031 44.2019 73.8801 44.3302 74.0084 44.4328L74.1367 44.5611C74.265 44.6638 74.4446 44.7407 74.6242 44.7407H92.6099C92.9691 44.7407 93.6362 44.6381 94.6625 44.3815C99.0243 43.2013 102.796 39.7376 102.796 33.4259C102.796 30.9627 102.231 28.9358 101.359 27.3964C100.076 25.0872 98.0493 23.7787 96.3046 23.0603C95.1244 22.5471 93.8415 22.1366 92.6099 22.1366H81.8595C81.0642 22.1366 80.2431 21.2899 80.2431 20.5202Z" fill="white"/>
<path d="M141.281 43.7658L138.716 42.0467C138.681 42.0125 138.647 41.9783 138.613 41.9441L124.912 26.4727C124.732 26.2931 124.758 25.9852 124.938 25.78L137.433 12.0276C137.467 11.9934 137.501 11.9592 137.535 11.925L139.87 10.3856C140.075 10.2573 140.152 10.0007 140.075 9.79546L139.998 9.53889C139.947 9.33363 139.742 9.17969 139.511 9.17969H127.401C127.195 9.17969 126.99 9.33363 126.913 9.53889L126.836 9.79546C126.759 10.0007 126.862 10.2573 127.041 10.3856H127.067C127.324 10.5652 127.349 10.9244 127.144 11.181L117.754 21.5722C117.42 21.9057 116.83 21.7005 116.83 21.213V11.7198C116.83 11.5658 116.932 11.3862 117.061 11.3092L118.421 10.3856C118.626 10.2573 118.703 10.0007 118.626 9.79546L118.549 9.53889C118.472 9.33363 118.292 9.17969 118.061 9.17969H105.951C105.72 9.17969 105.515 9.33363 105.464 9.53889L105.387 9.79546C105.31 10.0007 105.387 10.2573 105.592 10.3856L106.977 11.3092C107.131 11.3862 107.208 11.5658 107.208 11.7454V42.175C107.208 42.3546 107.131 42.5342 106.977 42.6112L105.592 43.5348C105.387 43.6631 105.31 43.9197 105.387 44.125L105.464 44.3815C105.515 44.5868 105.72 44.7407 105.951 44.7407H118.061C118.292 44.7407 118.472 44.5868 118.549 44.3815L118.626 44.125C118.703 43.9197 118.626 43.6631 118.421 43.5348L117.061 42.6112C116.932 42.5342 116.83 42.3546 116.83 42.2007V34.914C116.83 34.7857 116.881 34.6574 116.984 34.5548L118.369 33.0667C118.575 32.8357 118.934 32.8357 119.139 33.0667L128.17 42.7651C128.376 42.996 128.35 43.3552 128.093 43.5348C127.914 43.6631 127.837 43.894 127.914 44.125L127.991 44.3815C128.068 44.5868 128.273 44.7407 128.504 44.7407H140.589C140.819 44.7407 141.025 44.5868 141.102 44.3815L141.281 43.7658Z" fill="white"/>
<path fill-rule="evenodd" clip-rule="evenodd" d="M176.765 41.6831L179.331 43.4534C179.562 43.633 179.69 43.9666 179.587 44.2488C179.485 44.531 179.228 44.7363 178.92 44.7363H167.066C166.784 44.7363 166.502 44.531 166.425 44.2488C166.322 43.9666 166.425 43.633 166.682 43.4791L167.092 43.1969C167.349 43.0173 167.451 42.6581 167.349 42.3502L167.143 41.914C167.041 41.6574 166.784 41.4778 166.502 41.4778H155.931C155.649 41.4778 155.392 41.6574 155.29 41.914L155.085 42.3502C154.982 42.6581 155.085 43.0173 155.341 43.1969L155.752 43.4791C156.008 43.633 156.111 43.9666 156.008 44.2488C155.931 44.531 155.649 44.7363 155.367 44.7363H143.513C143.205 44.7363 142.949 44.531 142.846 44.2488C142.743 43.9666 142.872 43.633 143.128 43.4791L145.566 41.837C145.668 41.7686 145.745 41.6745 145.797 41.5548L160.575 9.63708C160.678 9.38051 160.934 9.22656 161.191 9.22656H161.242C161.499 9.22656 161.755 9.38051 161.858 9.63708L176.765 41.6831ZM159.626 31.882C159.421 32.3438 159.78 32.8313 160.267 32.8313H162.192C162.705 32.8313 163.038 32.3438 162.833 31.882L161.242 27.9821L159.626 31.882Z" fill="white"/>
<path fill-rule="evenodd" clip-rule="evenodd" d="M206.603 33.9647L211.812 42.4572C211.863 42.5256 211.931 42.5941 212.017 42.6625L213.223 43.4835C213.479 43.6375 213.582 43.9454 213.505 44.2532H213.479C213.402 44.5611 213.12 44.7407 212.838 44.7407H201.01C200.676 44.7407 200.42 44.5355 200.343 44.2276C200.266 43.9454 200.368 43.6631 200.625 43.4835L200.753 43.4065C201.061 43.2013 201.138 42.7908 200.933 42.4829L197.161 36.4278C197.059 36.2225 196.828 36.0942 196.597 36.0942H193.133C192.748 36.0942 192.44 36.4021 192.44 36.787V42.098C192.44 42.3289 192.543 42.5342 192.748 42.6625L193.954 43.4835C194.185 43.6631 194.288 43.9454 194.236 44.2276C194.134 44.5355 193.877 44.7407 193.569 44.7407H181.741C181.433 44.7407 181.177 44.5355 181.074 44.2532L181.048 44.2019C180.971 43.894 181.074 43.5862 181.331 43.4322L182.511 42.6112C182.716 42.5085 182.819 42.2776 182.819 42.0467V11.8224C182.819 11.5915 182.716 11.3606 182.511 11.2323L181.331 10.4369C181.1 10.283 180.971 9.94941 181.074 9.66718C181.151 9.35929 181.433 9.17969 181.716 9.17969H200.471C200.779 9.17969 201.651 9.28232 202.729 9.5902C203.806 9.89809 205.218 10.3599 206.552 11.2836C209.22 13.1053 211.735 16.569 211.735 22.5985C211.735 28.3714 209.733 31.8351 206.603 33.9647ZM198.367 26.4214C199.137 26.4214 200.009 25.9596 200.574 25.5491C201.395 24.9333 202.113 24.0866 202.113 22.6498C202.113 20.6998 200.676 19.4939 199.291 19.0321C198.88 18.8782 198.572 18.8782 198.367 18.8782H193.133C192.748 18.8782 192.44 19.186 192.44 19.5709V26.4214H198.367Z" fill="white"/>
</svg>
