<svg width="13" height="10" viewBox="0 0 13 10" fill="none" xmlns="http://www.w3.org/2000/svg">
<path d="M12.6029 6.38095C11.7631 7.73248 9.85276 10 6.5 10C3.14724 10 1.23695 7.73248 0.397136 6.38095C0.137518 5.96602 0 5.48783 0 5C0 4.51217 0.137518 4.03398 0.397136 3.61905C1.23695 2.26752 3.14724 0 6.5 0C9.85276 0 11.7631 2.26752 12.6029 3.61905C12.8625 4.03398 13 4.51217 13 5C13 5.48783 12.8625 5.96602 12.6029 6.38095ZM11.6797 4.17924C10.9584 3.02033 9.32591 1.07009 6.5 1.07009C3.67409 1.07009 2.04157 3.02033 1.32034 4.17924C1.16609 4.42587 1.08439 4.71007 1.08439 5C1.08439 5.28993 1.16609 5.57413 1.32034 5.82076C2.04157 6.97967 3.67409 8.92991 6.5 8.92991C9.32591 8.92991 10.9584 6.98181 11.6797 5.82076C11.8339 5.57413 11.9156 5.28993 11.9156 5C11.9156 4.71007 11.8339 4.42587 11.6797 4.17924Z" fill="white"/>
<path d="M6.5 7.67523C5.96454 7.67523 5.44111 7.51833 4.99589 7.22437C4.55067 6.93041 4.20366 6.5126 3.99875 6.02376C3.79384 5.53493 3.74023 4.99703 3.84469 4.47809C3.94915 3.95915 4.207 3.48247 4.58563 3.10833C4.96426 2.73419 5.44666 2.4794 5.97183 2.37618C6.497 2.27295 7.04135 2.32593 7.53605 2.52841C8.03075 2.73089 8.45358 3.07378 8.75106 3.51372C9.04855 3.95366 9.20733 4.47089 9.20733 5C9.20647 5.70925 8.92096 6.38921 8.41342 6.89073C7.90588 7.39225 7.21776 7.67438 6.5 7.67523ZM6.5 3.39486C6.17872 3.39486 5.86466 3.489 5.59753 3.66538C5.3304 3.84175 5.1222 4.09244 4.99925 4.38574C4.8763 4.67904 4.84414 5.00178 4.90681 5.31315C4.96949 5.62451 5.1242 5.91052 5.35138 6.135C5.57855 6.35949 5.86799 6.51236 6.1831 6.57429C6.4982 6.63623 6.82481 6.60444 7.12163 6.48295C7.41845 6.36146 7.67215 6.15573 7.85064 5.89177C8.02913 5.6278 8.1244 5.31747 8.1244 5C8.1244 4.57429 7.95326 4.16602 7.64862 3.865C7.34399 3.56397 6.93082 3.39486 6.5 3.39486Z" fill="white"/>
</svg>
