<svg width="18" height="18" viewBox="0 0 18 18" fill="none" xmlns="http://www.w3.org/2000/svg">
<path d="M6.97502 9.38281L4.43335 11.9245" stroke="#1B1C1E" stroke-width="0.8" stroke-miterlimit="10" stroke-linecap="round" stroke-linejoin="round"/>
<path d="M4.4585 9.40625L7.00016 11.9479" stroke="#1B1C1E" stroke-width="0.8" stroke-miterlimit="10" stroke-linecap="round" stroke-linejoin="round"/>
<path d="M10.2749 10.6641H10.2832" stroke="#1B1C1E" stroke-miterlimit="10" stroke-linecap="round" stroke-linejoin="round"/>
<path d="M13.5583 10.6641H13.5667" stroke="#1B1C1E" stroke-miterlimit="10" stroke-linecap="round" stroke-linejoin="round"/>
<path d="M11.9167 12.3135V12.2969" stroke="#1B1C1E" stroke-miterlimit="10" stroke-linecap="round" stroke-linejoin="round"/>
<path d="M11.9167 9.03229V9.01562" stroke="#1B1C1E" stroke-miterlimit="10" stroke-linecap="round" stroke-linejoin="round"/>
<path d="M6.50008 17.3333H11.5001C15.6667 17.3333 17.3334 15.6667 17.3334 11.5V9.83333C17.3334 5.66667 15.6667 4 11.5001 4H6.50008C2.33341 4 0.666748 5.66667 0.666748 9.83333V11.5C0.666748 15.6667 2.33341 17.3333 6.50008 17.3333Z" stroke="#1B1C1E" stroke-width="0.8" stroke-linecap="round" stroke-linejoin="round"/>
<path d="M9.84157 0.664062L9.83324 1.50573C9.8249 1.96406 9.45824 2.33073 8.9999 2.33073H8.9749C8.51657 2.33073 8.1499 2.70573 8.1499 3.16406C8.1499 3.6224 8.5249 3.9974 8.98324 3.9974H9.81657" stroke="#1B1C1E" stroke-width="0.8" stroke-linecap="round" stroke-linejoin="round"/>
</svg>
