<svg width="52" height="52" viewBox="0 0 52 52" fill="none" xmlns="http://www.w3.org/2000/svg">
<path d="M23.056 33.667C22.5752 33.6666 22.1142 33.4752 21.7745 33.1349L15.9228 27.2819C15.2216 26.5805 15.2216 25.4195 15.9228 24.7181C16.624 24.0167 17.7847 24.0167 18.4859 24.7181L23.056 29.2893L33.4536 18.8893C34.1548 18.1879 35.3155 18.1879 36.0167 18.8893C36.718 19.5907 36.718 20.7516 36.0167 21.453L24.3376 33.1349C23.9978 33.4752 23.5368 33.6666 23.056 33.667Z" fill="white"/>
<path d="M25.9819 52C24.4585 52 22.9351 51.4921 21.7503 50.4763L17.9298 47.187C17.5429 46.8484 16.5757 46.5098 16.0679 46.5098H11.9089C10.1902 46.5098 8.54186 45.8269 7.32656 44.6113C6.11125 43.3957 5.4285 41.747 5.4285 40.0279V35.8921C5.4285 35.3842 5.08998 34.4409 4.75145 34.054L1.4871 30.2084C-0.495699 27.8623 -0.495699 24.1619 1.4871 21.8158L4.75145 17.9702C5.08998 17.5833 5.4285 16.64 5.4285 16.1321V11.9721C5.4285 8.39256 8.33016 5.49023 11.9089 5.49023H16.0921C16.5999 5.49023 17.5671 5.12744 17.954 4.81302L21.7745 1.52372C24.1442 -0.507907 27.8438 -0.507907 30.2134 1.52372L34.0339 4.81302C34.4208 5.15163 35.3881 5.49023 35.8958 5.49023H40.0065C43.5852 5.49023 46.4869 8.39256 46.4869 11.9721V16.0837C46.4869 16.5916 46.8496 17.5591 47.1881 17.946L50.4766 21.7674C52.5078 24.1377 52.5078 27.8381 50.4766 30.2084L47.1881 34.0298C46.8496 34.4167 46.4869 35.3842 46.4869 35.8921V40.0037C46.4869 43.5833 43.5852 46.4856 40.0065 46.4856H35.8958C35.3881 46.4856 34.4208 46.8484 34.0339 47.1628L30.2134 50.4521C29.0286 51.4921 27.5052 52 25.9819 52ZM11.9089 9.11814C10.3371 9.11814 9.05557 10.4 9.05557 11.9721V16.1079C9.05557 17.4865 8.4027 19.2521 7.50802 20.2921L4.24366 24.1377C3.39735 25.1293 3.39735 26.8465 4.24366 27.8381L7.50802 31.6837C8.4027 32.7479 9.05557 34.4893 9.05557 35.8679V40.0037C9.05557 41.5758 10.3371 42.8577 11.9089 42.8577H16.0921C17.4945 42.8577 19.2597 43.5107 20.3236 44.4298L24.1442 47.7191C25.1355 48.5656 26.8765 48.5656 27.8679 47.7191L31.6884 44.4298C32.7524 43.5349 34.5176 42.8577 35.92 42.8577H40.0307C41.6024 42.8577 42.884 41.5758 42.884 40.0037V35.8921C42.884 34.4893 43.5368 32.7237 44.4557 31.6595L47.7442 27.8381C48.5906 26.8465 48.5906 25.1051 47.7442 24.1135L44.4557 20.2921C43.5368 19.2279 42.884 17.4623 42.884 16.0595V11.9721C42.884 10.4 41.6024 9.11814 40.0307 9.11814H35.92C34.5176 9.11814 32.7524 8.46512 31.6884 7.54605L27.8679 4.25674C26.8765 3.41023 25.1355 3.41023 24.1442 4.25674L20.3236 7.57023C19.2597 8.46512 17.4704 9.11814 16.0921 9.11814H11.9089Z" fill="white"/>
</svg>
