<svg width="28" height="28" viewBox="0 0 28 28" fill="none" xmlns="http://www.w3.org/2000/svg">
<path d="M23.1759 17.3062C23.1133 17.207 23.0617 17.1012 23.0222 16.9907C23.0326 16.6744 22.9904 16.3585 22.8971 16.056C22.7932 15.8017 22.6063 15.59 22.3669 15.4552C22.1889 15.3447 21.9753 15.3066 21.8042 15.184C21.5873 15.0185 21.4007 14.8166 21.2529 14.5873C21.0142 14.2305 20.794 13.8617 20.5932 13.4823C20.4722 13.2658 20.3639 13.0425 20.2687 12.8136C20.526 12.4661 20.6569 12.0411 20.6396 11.6091C21.1476 11.5315 21.6532 11.4394 22.1616 11.3612C21.8615 11.2572 21.5551 11.1726 21.2442 11.1077C21.2614 10.8861 21.2613 10.6636 21.2439 10.4421C21.9516 10.1889 22.5343 9.67234 22.8705 9.00007C23.5866 7.71458 24.2713 6.41144 24.9646 5.11314C24.8091 5.1495 24.6522 5.18032 24.496 5.21289C24.4617 5.21808 24.4725 5.2534 24.4707 5.27764C24.4228 5.27467 24.3756 5.26488 24.3305 5.24855C23.7383 5.36906 23.147 5.49373 22.5567 5.62256C22.0317 5.70255 21.5217 5.86133 21.044 6.09353C20.568 6.32882 20.1867 6.71986 19.9636 7.20172C19.7665 7.68691 19.9397 8.23856 19.7312 8.71958C19.4345 8.60214 19.1575 8.43979 18.9101 8.23821C19.2188 7.80519 19.4838 7.3427 19.7014 6.85749C19.3111 7.17575 18.9108 7.48361 18.5292 7.81226C18.4137 7.61241 18.3135 7.40415 18.2293 7.18926C17.9744 6.53058 17.7389 5.86429 17.4795 5.20735C17.2364 4.62729 16.9729 4.05623 16.7104 3.48483C16.6258 3.32939 16.569 3.1604 16.5424 2.98546C16.6377 2.84138 16.7086 2.68262 16.7523 2.51552C16.7923 2.34206 16.7934 2.16191 16.7557 1.98794C16.718 1.81398 16.6423 1.65049 16.5341 1.50916C16.4064 1.34068 16.2354 1.21004 16.0392 1.13117C15.8431 1.0523 15.6292 1.02817 15.4204 1.06134C15.1328 1.12471 14.8582 1.23705 14.6087 1.39345C14.4718 1.48791 14.3551 1.60864 14.2654 1.74862C14.1756 1.8886 14.1146 2.04503 14.0859 2.20881C14.0572 2.37259 14.0614 2.54045 14.0981 2.70261C14.1349 2.86477 14.2036 3.018 14.3001 3.15337C14.4737 3.38448 14.7166 3.5541 14.9934 3.63751C15.0478 3.82625 15.0665 4.02399 15.1067 4.21619C15.204 4.58076 15.1893 4.96621 15.0644 5.32229C14.9965 5.49507 14.891 5.65058 14.7556 5.77756C14.6202 5.90454 14.4582 5.99981 14.2814 6.05645C14.1219 6.08594 13.9577 6.07839 13.8015 6.03438C13.6453 5.99036 13.5013 5.91107 13.3807 5.80261C13.0821 5.50767 12.8466 5.15516 12.6884 4.76647C12.4546 4.30553 12.2091 3.85083 11.992 3.38159C11.9276 3.22333 11.8341 3.03528 11.9245 2.8694C12.0334 2.66677 12.0871 2.43897 12.0799 2.209C12.0686 1.94083 11.9692 1.68387 11.7971 1.4779C11.625 1.27193 11.3898 1.12844 11.1279 1.06965C10.7294 1.01846 10.3254 1.10707 9.98479 1.32038C9.82353 1.40039 9.68232 1.51563 9.57161 1.65757C9.46089 1.79952 9.38351 1.96454 9.34517 2.14043C9.26971 2.44225 9.31245 2.76151 9.46465 3.03286C9.6415 3.33296 9.92895 3.55178 10.2653 3.64236C10.453 4.57115 10.6881 5.49198 10.8152 6.43219C10.8739 6.8013 10.8449 7.17904 10.7304 7.53483C10.6269 7.81513 10.4335 8.0533 10.1805 8.2122C9.61944 7.80703 9.08058 7.37068 8.53516 6.94438C8.63905 7.11753 8.73809 7.29346 8.84164 7.46696C9.20564 8.0453 9.64949 8.56934 10.16 9.02358C10.4402 8.64992 10.7048 8.26517 10.9773 7.88597C11.3185 8.16051 11.7168 8.35516 12.143 8.45564C12.3639 8.51208 12.5928 8.52179 12.8162 8.56611C13.2681 8.66602 13.691 8.86826 14.0525 9.15728C14.5225 9.48852 14.89 9.94524 15.1129 10.4753C15.2639 10.8642 15.2202 11.3231 15.4872 11.6659C15.7435 12.0392 16.2138 12.1275 16.5888 12.3319C16.9485 12.5341 17.261 12.8104 17.5058 13.1425C17.888 13.6596 18.2397 14.1986 18.559 14.7567C18.6214 14.8498 18.6578 14.958 18.6643 15.0699C18.6707 15.1819 18.647 15.2935 18.5957 15.3932C18.4201 15.7142 18.0911 15.9095 17.8916 16.2125C17.7297 16.4535 17.6506 16.7406 17.6662 17.0305C17.6859 17.4534 17.9599 17.8021 18.0496 18.2073C18.1228 18.5094 18.1249 18.8244 18.0555 19.1274C17.1215 18.8517 16.1355 18.9736 15.178 19.002C14.4457 19.0498 13.7106 19.0295 12.9821 18.9414C12.3637 18.871 11.7862 18.5968 11.3406 18.1623C10.9712 17.7132 10.7556 17.1575 10.7252 16.5769C10.6459 15.6341 10.6248 14.6874 10.6622 13.742C10.5389 13.5207 10.3928 13.3098 10.2577 13.0944C10.2452 13.2974 10.2525 13.5013 10.2497 13.7046C10.2518 14.5825 10.2449 15.4625 10.3141 16.3379C10.3462 16.9323 10.4992 17.5138 10.764 18.0469C11.1339 18.7176 11.6873 19.2689 12.3594 19.6361C12.8565 19.8769 13.3174 20.1862 13.7287 20.5549C13.9688 20.7691 14.1618 21.0309 14.2953 21.3237C14.4289 21.6165 14.5001 21.9338 14.5044 22.2556C14.5055 23.8205 14.5037 25.3858 14.5089 26.9508C14.8521 26.9518 15.195 26.947 15.5381 26.9498C15.5416 25.2009 15.5357 23.4521 15.5423 21.7032C15.5343 21.2646 15.6243 20.8296 15.8058 20.4302C15.8918 20.2405 16.0199 20.0728 16.1803 19.94C16.3408 19.8071 16.5294 19.7126 16.7319 19.6635C17.1251 19.5807 17.5349 19.6358 17.8923 19.8197C17.9943 19.8592 18.0834 19.9262 18.1496 20.0133C18.2217 20.1261 18.2837 20.2456 18.3619 20.3551C18.6934 20.8463 19.1797 21.2125 19.7433 21.3954C20.0849 21.4947 20.4437 21.5204 20.7959 21.4706C21.1482 21.4209 21.4858 21.2969 21.7865 21.1069C21.906 21.045 22.0408 21.0187 22.1747 21.0311C22.4683 21.02 22.7549 20.9389 23.0106 20.7943C23.2663 20.6498 23.4837 20.4461 23.6445 20.2003C23.8641 19.8146 23.9289 19.36 23.8259 18.9283C23.687 18.3596 23.4682 17.8134 23.1759 17.3062ZM21.6816 8.25895C22.136 7.77343 22.6107 7.30764 23.0686 6.82559C22.7714 7.39942 22.5477 8.00788 22.2475 8.57996C21.977 9.12251 21.5348 9.56044 20.9897 9.82562C20.9077 9.63193 20.7853 9.45801 20.6306 9.3155C20.9945 8.97753 21.3308 8.61045 21.6816 8.25895ZM19.548 10.1356C19.5927 9.87671 19.6667 9.62377 19.7686 9.38167C19.9743 9.42958 20.1635 9.53107 20.3172 9.67584C20.471 9.8206 20.5836 10.0035 20.6437 10.2059C20.7157 10.4915 20.743 10.7866 20.7248 11.0806C20.4399 11.0595 20.1577 11.1479 19.9359 11.3279C19.8174 11.432 19.7184 11.5565 19.6436 11.6953C19.4735 11.1932 19.4405 10.6547 19.548 10.1356ZM20.6091 17.3741C20.7213 17.5081 20.8334 17.6422 20.9454 17.7765C20.4342 17.6911 19.9508 17.4847 19.5356 17.1746C19.3158 16.9765 19.1774 16.7039 19.147 16.4096C19.7276 16.5606 20.2417 16.8998 20.6091 17.3741ZM21.4437 21.0861C20.7379 21.1572 20.0294 20.9794 19.4407 20.5836C19.0931 20.3407 18.8092 20.0174 18.6134 19.6413C18.7492 19.7127 18.8801 19.793 19.0054 19.8817C19.5603 20.2301 20.1455 20.528 20.7539 20.7717C21.1101 20.9015 21.4795 20.9918 21.8554 21.0411C21.7183 21.0567 21.5801 21.0657 21.4437 21.0861ZM22.3808 17.3353C22.2977 17.4825 22.1982 17.6198 22.084 17.7446C22.0366 17.5261 22.0556 17.3006 22.0283 17.0794C22.012 16.7438 21.9923 16.4082 21.9874 16.0727C22.0674 16.0872 22.1433 16.1189 22.2098 16.1656C22.2764 16.2123 22.332 16.2729 22.3729 16.3431C22.4548 16.4954 22.4983 16.6653 22.4997 16.8382C22.5011 17.0111 22.4603 17.1817 22.3808 17.3353Z" fill="#485648"/>
<path d="M9.61959 10.777C9.43324 10.556 9.1753 10.4072 8.89062 10.3566C8.4605 10.2593 8.01585 10.2288 7.59232 10.099C6.94952 9.92464 6.38576 9.53552 5.99481 8.99632C5.73132 8.59805 5.51811 8.16872 5.36003 7.7181C5.26401 7.47778 5.18134 7.23234 5.11241 6.98289C5.27553 7.29515 5.45481 7.5987 5.64953 7.89229C5.70041 7.96608 5.77492 8.02032 5.86077 8.04605C5.97886 8.02908 6.0457 7.89125 6.17037 7.89056C6.30681 7.85801 6.39755 7.98788 6.45503 8.09038C6.56482 8.4186 6.69304 8.74037 6.83909 9.05415C6.94829 9.22285 7.10578 9.35475 7.29103 9.43266C7.58853 9.56391 7.89325 9.67888 8.20181 9.7807C8.67003 9.95651 9.16121 10.0637 9.6601 10.099C9.42767 9.93725 9.2236 9.73821 9.05615 9.50989C8.74192 9.03435 8.54241 8.49235 8.47332 7.92657C8.39814 7.55007 8.23953 7.19521 8.00916 6.88807C7.77879 6.58094 7.48252 6.32933 7.14212 6.15176C6.66705 5.90004 6.15259 5.73105 5.6208 5.65204C4.75884 5.46815 3.89342 5.30054 3.0332 5.10938C3.69603 6.37894 4.37168 7.6418 5.06014 8.89796C5.21846 9.20144 5.40924 9.48685 5.62912 9.74918C5.96794 10.1548 6.41619 10.4544 6.9205 10.6125C7.4038 10.7019 7.89587 10.7347 8.38675 10.7102C8.89655 10.7002 9.39274 10.875 9.78375 11.2023C9.76502 11.0491 9.70862 10.903 9.61959 10.777Z" fill="#485648"/>
<path d="M13.0887 9.18107C12.8312 9.02423 12.5442 8.92189 12.2456 8.88037C11.9469 8.83886 11.6429 8.85905 11.3524 8.93969C11.1619 8.99641 10.9851 9.09163 10.833 9.21947C10.6808 9.34731 10.5566 9.50503 10.4679 9.68287C10.3378 9.96224 10.267 10.2655 10.2598 10.5736C10.3776 10.3802 10.5282 10.2089 10.7048 10.0673C10.9908 9.80688 11.3628 9.66103 11.7496 9.65759C12.2489 9.69959 12.7128 9.93253 13.0448 10.3079C13.4909 10.8346 13.9979 11.3065 14.5553 11.7136C14.575 11.3151 14.5059 10.9172 14.3531 10.5486C14.0895 9.96882 13.6461 9.4893 13.0887 9.18107Z" fill="#485648"/>
<path d="M12.5465 11.5022C12.1869 11.5038 11.8277 11.5252 11.4705 11.5663C10.735 11.6409 10.008 11.7834 9.29883 11.9922C9.65621 12.0511 10.0105 12.1346 10.3727 12.1605C10.4226 12.4833 10.5717 12.7826 10.7994 13.0167C11.0271 13.2509 11.3221 13.4083 11.6433 13.4672C11.8724 13.4964 12.1053 13.4706 12.3224 13.3916C12.5395 13.3127 12.7346 13.1831 12.8914 13.0135C13.0398 12.8467 13.2006 12.6914 13.3724 12.5488C13.738 12.3614 14.1455 12.2708 14.5561 12.2856C14.1369 12.1143 13.7387 11.8955 13.3693 11.6335C12.9002 11.2632 12.3904 10.9476 11.8497 10.6929C11.6935 10.6256 11.5249 10.5918 11.3548 10.5938C11.1847 10.5959 11.017 10.6336 10.8624 10.7047C10.4979 10.9142 10.2232 11.2504 10.0905 11.6494C10.2266 11.5524 10.3433 11.4305 10.4846 11.3405C10.7755 11.1073 11.1342 10.9746 11.5069 10.9623C12.0004 11.0541 12.4726 11.2365 12.8997 11.5002C12.7823 11.5168 12.6642 11.497 12.5465 11.5022Z" fill="#485648"/>
<path d="M9.44348 15.5105C9.30253 18.247 9.1415 20.9825 8.98775 23.719C8.90948 24.7967 8.86515 25.8768 8.78516 26.9549C9.15259 26.9545 9.52002 26.9524 9.88779 26.9545C9.89056 24.6977 9.88537 22.4411 9.88954 20.1842C9.89681 18.5109 9.86876 16.8369 9.91967 15.1635C9.93454 14.2392 9.92868 13.3146 9.95534 12.3906C9.73977 12.861 9.60849 13.3656 9.56748 13.8815C9.50235 14.4224 9.46322 14.9661 9.44348 15.5105Z" fill="#485648"/>
<path d="M17.7466 14.297C17.2054 13.7096 16.556 13.2321 15.834 12.8906C15.9465 13.4525 16.1544 13.9909 16.4487 14.4826C16.7264 14.9589 17.1444 15.3379 17.6455 15.5679C17.6888 15.1451 17.7078 14.7205 17.7466 14.297Z" fill="#485648"/>
<path d="M10.9502 14.4375C10.9302 14.9807 10.954 15.5247 11.0212 16.0641C11.0772 16.6523 11.2743 17.2182 11.5957 17.7139C11.6522 17.2114 11.6557 16.7048 11.6886 16.2002C11.7178 15.9217 11.701 15.6403 11.6387 15.3673C11.5291 14.9844 11.2845 14.6541 10.9502 14.4375Z" fill="#485648"/>
<path d="M13.5898 14.9025C13.844 15.4241 14.118 15.9363 14.3725 16.4581C14.5969 16.4561 14.8217 16.454 15.0464 16.4578C15.2206 16.2462 15.4239 16.0609 15.6067 15.8566C15.7788 15.6596 15.9641 15.4746 16.1463 15.2869C15.8452 15.1084 15.5226 14.9687 15.1863 14.8714C14.6595 14.7519 14.1116 14.7626 13.5898 14.9025Z" fill="#485648"/>
<path d="M12.2616 17.544C12.4311 17.6919 12.6124 17.8258 12.8036 17.9443C13.3517 18.2764 13.9812 18.4498 14.6221 18.4451C14.5569 18.1652 14.4595 17.8938 14.3319 17.6364C13.7961 16.7866 13.2839 15.9222 12.7513 15.0703C12.5944 15.1869 12.4295 15.2923 12.2578 15.3858C12.2634 16.1051 12.2554 16.8247 12.2616 17.544Z" fill="#485648"/>
<path d="M15.2188 17.2283C15.3427 17.4946 15.4733 17.7574 15.5973 18.0234C15.617 18.0601 15.6381 18.1186 15.6925 18.1072C16.2061 18.1072 16.7193 18.1093 17.2329 18.109C17.1524 17.38 16.9102 16.6782 16.524 16.0547C16.0877 16.4446 15.6603 16.8449 15.2188 17.2283Z" fill="#485648"/>
<path d="M10.32 22.1612C10.6892 22.6575 11.0504 23.1603 11.4112 23.6628C11.647 23.0678 11.8912 22.4767 12.1298 21.8831C12.269 21.5593 12.3847 21.2255 12.5357 20.9069C12.3154 20.6925 12.0778 20.4972 11.85 20.2919C11.3329 19.841 10.8242 19.3811 10.3145 18.9219C10.3197 20.0017 10.3103 21.0818 10.32 22.1612Z" fill="#485648"/>
<path d="M13.028 21.1172C12.8379 21.6647 12.6145 22.2001 12.4043 22.74C12.3572 22.8761 12.2578 23.0059 12.2835 23.1573C12.328 23.358 12.4262 23.5429 12.5674 23.6923C12.7399 23.8531 12.9369 23.9854 13.1509 24.0843C13.3096 24.1619 13.4599 24.2544 13.6195 24.3302C13.6458 23.907 13.6988 23.4856 13.7116 23.0617C13.7799 22.6182 13.7214 22.1644 13.543 21.7527C13.4102 21.5121 13.2359 21.2969 13.028 21.1172Z" fill="#485648"/>
<path d="M11.1246 24.0888C10.8642 23.6313 10.5802 23.188 10.3135 22.7344C10.316 23.739 10.3212 24.7436 10.3125 25.7479C10.6062 25.2063 10.8268 24.628 11.1246 24.0888Z" fill="#485648"/>
<path d="M11.8839 24.2812C11.6963 24.6272 11.5054 24.9718 11.3188 25.3184C11.0168 25.8583 10.7377 26.411 10.4277 26.9468C11.4725 26.9409 12.5173 26.9482 13.5621 26.9443C13.5594 26.4329 13.5572 25.9216 13.5556 25.4106C12.9939 25.0407 12.4367 24.6643 11.8839 24.2812Z" fill="#485648"/>
</svg>
