<svg width="26" height="26" viewBox="0 0 26 26" fill="none" xmlns="http://www.w3.org/2000/svg">
<g clip-path="url(#clip0_1431_46426)">
<path d="M23.8968 16.8655C24.5536 17.1633 25.1522 17.5757 25.6645 18.0832C25.5982 16.9377 25.3167 15.8149 24.8349 14.7735C24.7096 14.4896 24.5617 14.2164 24.4278 13.9368C24.9243 14.1745 25.3448 14.5457 25.6422 15.0088C25.4757 13.742 24.8968 12.5653 23.9948 11.6603C24.4447 11.7897 24.86 12.0177 25.2107 12.3277C25.0604 12.0057 24.8858 11.6956 24.6885 11.3999C24.2017 10.6611 23.6085 9.99821 22.9281 9.43266C22.8832 9.38783 22.8527 9.33057 22.8407 9.26826C22.6927 8.83168 22.5032 8.41028 22.2748 8.00988C22.0263 7.58502 21.7427 7.18177 21.4268 6.80437C21.3125 6.66105 21.1765 6.53638 21.0683 6.38818C21.564 6.6538 22.0079 7.00621 22.379 7.42867C22.1322 6.67752 21.8058 5.95491 21.4054 5.27312C20.8296 4.26592 20.115 3.34474 19.2825 2.53668C18.3612 1.64273 17.2387 0.98295 16.0095 0.612762C15.0283 0.314604 13.9832 0.296506 12.9922 0.56051C12.1234 0.322734 11.2079 0.31389 10.3346 0.534839C9.16327 0.810193 8.07399 1.3596 7.15631 2.1379C6.27097 2.89109 5.50973 3.77896 4.90054 4.76891C4.36812 5.59864 3.94168 6.49176 3.63118 7.42744C3.99979 7.00044 4.44701 6.64825 4.94852 6.39001C4.24914 7.13493 3.69289 8.00226 3.30757 8.94861C3.24401 9.09315 3.21132 9.25297 3.134 9.38956C2.7381 9.71454 2.37058 10.0726 2.03545 10.46C1.54004 11.0264 1.12541 11.6586 0.803366 12.3387C1.14799 12.0185 1.56541 11.787 2.01954 11.6643C1.12478 12.5715 0.550015 13.7457 0.382279 15.0088C0.665454 14.5368 1.08516 14.1619 1.58595 13.9335C0.908612 15.1472 0.494329 16.4899 0.370043 17.8742C0.359347 17.9399 0.375239 18.0151 0.333984 18.0725C0.340708 18.0713 0.354155 18.0695 0.360874 18.0682C0.870035 17.5645 1.46574 17.1566 2.11948 16.864C1.85212 17.4333 1.64682 18.0298 1.5071 18.6431C1.36357 19.289 1.30654 19.9512 1.33751 20.6122C1.61881 19.9783 2.01817 19.4036 2.51429 18.919C2.48068 19.2609 2.47517 19.605 2.49779 19.9479C2.557 20.5675 2.70552 21.1752 2.93874 21.7523C3.14525 21.2997 3.3821 20.8615 3.64768 20.4408C3.87008 20.088 4.1186 19.7523 4.39115 19.4367C4.24502 20.0455 4.16632 20.6685 4.15646 21.2946C4.16503 22.0172 4.26891 22.7354 4.4654 23.4309C4.63589 22.7231 4.91988 22.0475 5.30634 21.4305C5.2518 22.2017 5.33742 22.9763 5.55905 23.7169C5.57464 23.7435 5.57036 23.7942 5.60825 23.8018C6.044 23.0562 6.4929 22.3182 6.94362 21.5818C7.61106 22.6263 8.46329 23.5403 9.45853 24.2791C9.89271 24.6062 10.3693 24.8729 10.8752 25.0718C10.5268 24.7536 10.315 24.313 10.2842 23.8422C10.7085 24.2535 11.1692 24.6257 11.6605 24.9542C11.9486 25.1508 12.2489 25.329 12.5595 25.4877C12.7095 25.5738 12.8795 25.6187 13.0524 25.6179C13.2989 25.576 13.5343 25.4848 13.7446 25.3496C14.471 24.9395 15.1412 24.437 15.7384 23.8547C15.7114 24.319 15.507 24.7551 15.1676 25.073C15.4734 24.9505 15.7684 24.8026 16.0495 24.6309C17.2781 23.8492 18.3196 22.8068 19.1001 21.5775C19.5401 22.3219 19.9782 23.0676 20.4144 23.8146C20.6674 23.0455 20.7672 22.2341 20.7081 21.4266C21.1046 22.0407 21.3921 22.7188 21.5579 23.4308C21.8411 22.4492 21.9266 21.4212 21.8097 20.4062C21.777 20.0811 21.6978 19.7633 21.6364 19.4437C21.7805 19.6036 21.9155 19.7714 22.041 19.9463C22.4452 20.5137 22.7922 21.1196 23.0769 21.7554C23.2539 21.3019 23.3818 20.8308 23.4583 20.35C23.5268 19.8754 23.5398 19.3945 23.4971 18.9169C23.8159 19.2355 24.0981 19.5888 24.3383 19.9702C24.4697 20.1764 24.5724 20.3989 24.683 20.6168C24.7045 20.1585 24.6845 19.6991 24.6231 19.2444C24.5052 18.4187 24.2602 17.6162 23.8968 16.8655ZM4.89107 8.8554C4.71349 9.0401 4.58262 9.26455 4.50938 9.51008C4.43613 9.7556 4.42262 10.0151 4.46999 10.2669C4.52648 10.5597 4.65787 10.8329 4.85135 11.0598C4.84982 11.3242 4.85287 11.5885 4.84951 11.8528C4.57958 11.698 4.34916 11.4827 4.17633 11.2239C3.86593 10.7399 3.74555 10.1581 3.83836 9.59063C3.89651 9.13175 4.12091 8.71013 4.46907 8.4056C4.63928 8.25175 4.85096 8.15132 5.07779 8.11682C5.20461 8.24516 5.29322 8.40406 5.41515 8.53668C5.22035 8.60565 5.04192 8.71416 4.89107 8.8554ZM16.7395 21.8073C16.5165 21.9832 16.2521 22.0989 15.9716 22.1434C15.9114 22.1514 15.8793 22.2094 15.8381 22.2473C15.5699 22.513 15.2547 22.7266 14.9085 22.8771C14.2897 23.1729 13.6511 23.4244 13.0216 23.6964C12.4181 23.437 11.8078 23.1931 11.2135 22.9135C10.9002 22.7777 10.6068 22.6 10.3414 22.3852C10.2639 22.3002 10.1783 22.2231 10.0856 22.1551C9.677 22.1021 9.30366 21.8963 9.04082 21.579C8.83111 21.3289 8.68628 21.0309 8.61913 20.7115C10.2601 20.6987 11.9007 20.7081 13.5414 20.7057C14.8248 20.7075 16.1079 20.7033 17.391 20.7072C17.3074 21.1382 17.0772 21.5269 16.7395 21.8073ZM17.4032 20.6534C16.0898 20.2608 14.7276 20.0551 13.3568 20.0423C12.683 20.0304 12.009 20.0597 11.3388 20.13C10.414 20.2205 9.49958 20.3963 8.6072 20.6553C8.45505 19.9912 8.44215 19.3029 8.56931 18.6336C8.72897 17.7695 9.19618 16.9925 9.88451 16.4463C9.70475 16.1941 9.60944 15.8915 9.61225 15.5818C9.61993 15.332 9.69816 15.0895 9.83789 14.8823C9.97763 14.6752 10.1732 14.5118 10.4019 14.4111C10.367 14.2142 10.4099 14.0115 10.5213 13.8455C10.6268 13.7468 10.7511 13.6703 10.8867 13.6207C11.0224 13.5711 11.1667 13.5493 11.3109 13.5567C11.9131 13.5752 12.4987 13.7577 13.0048 14.0844C13.5111 13.7566 14.0972 13.5732 14.7001 13.554C14.8524 13.5433 15.0051 13.5665 15.1473 13.6219C15.2895 13.6773 15.4177 13.7634 15.5227 13.8742C15.6217 14.0356 15.6626 14.226 15.6388 14.4138C15.9416 14.5491 16.1809 14.7956 16.3071 15.1023C16.3952 15.3234 16.4268 15.5629 16.3991 15.7992C16.3714 16.0356 16.2853 16.2613 16.1485 16.456C16.5893 16.8003 16.9377 17.2487 17.1624 17.7608C17.3994 18.2969 17.5241 18.8759 17.5288 19.462C17.5388 19.8629 17.4966 20.2634 17.4032 20.6534ZM19.5783 10.904C19.5531 11.5921 19.3931 12.2686 19.1075 12.8951C18.8732 13.4783 18.5534 14.0233 18.1586 14.5123C17.844 14.8728 17.62 15.3031 17.505 15.7676C17.397 16.2056 17.4103 16.6648 17.5435 17.0959C17.3834 16.9343 17.2607 16.7394 17.1842 16.5251C17.0987 16.2041 17.0332 15.8782 16.988 15.5491C16.9054 15.0948 16.765 14.6529 16.5702 14.2342C16.3857 13.929 16.1496 13.6582 15.8726 13.4336C15.5796 13.1816 15.3179 12.8953 15.0934 12.5807C15.4426 12.7696 15.8311 12.8744 16.228 12.8869C16.7419 12.8769 17.2425 12.7216 17.6719 12.4389C17.9002 12.2863 18.089 12.0816 18.2226 11.8416C18.3562 11.6017 18.4309 11.3334 18.4404 11.0589C18.4445 10.9813 18.4291 10.904 18.3957 10.8339C18.3623 10.7637 18.3119 10.7031 18.2491 10.6574C17.9954 10.4951 17.6931 10.4261 17.3941 10.4621C16.9547 10.5149 16.5269 10.6393 16.1278 10.8303C15.7987 10.9939 15.4556 11.1275 15.1026 11.2297C14.399 11.3808 13.6795 11.444 12.9605 11.418C12.4238 11.4226 11.8876 11.3871 11.3562 11.3119C10.9885 11.2605 10.63 11.1574 10.2912 11.0054C9.7789 10.7321 9.22328 10.5491 8.64877 10.4646C8.37058 10.4303 8.08853 10.4806 7.83929 10.6088C7.77233 10.6436 7.71493 10.6944 7.6721 10.7565C7.62927 10.8187 7.60232 10.8904 7.59361 10.9654C7.58151 11.2469 7.64088 11.5269 7.76618 11.7792C7.89148 12.0316 8.07863 12.2481 8.31019 12.4086C8.68352 12.6662 9.11476 12.8275 9.5655 12.878C10.0406 12.9079 10.5145 12.8038 10.9333 12.5776C10.7223 12.8617 10.4846 13.1249 10.2234 13.3636C9.89604 13.6191 9.62346 13.938 9.42188 14.3011C9.17793 14.8917 9.0149 15.5125 8.93722 16.1468C8.88632 16.5019 8.72723 16.8326 8.48161 17.0941C8.58534 16.7288 8.60972 16.3456 8.55312 15.9702C8.49651 15.5948 8.36023 15.2358 8.15342 14.9174C7.97313 14.6259 7.72561 14.3836 7.54165 14.0945C7.24618 13.6333 6.99909 13.1428 6.80431 12.6308C6.55803 12.0255 6.43303 11.3778 6.43639 10.7243C6.43431 10.3885 6.52141 10.0581 6.6888 9.76692C6.9054 9.43704 7.22148 9.18476 7.59117 9.04668C8.22297 8.79274 8.92415 8.77012 9.571 8.98281C10.0711 9.18071 10.5589 9.40847 11.0317 9.66486C11.611 9.95334 12.2223 10.1727 12.8529 10.3185C12.9261 10.3399 13.0028 10.3468 13.0787 10.339C13.684 10.2166 14.2722 10.021 14.8303 9.75653C15.3159 9.54568 15.7669 9.26363 16.2561 9.06103C16.8482 8.81428 17.5056 8.77149 18.1247 8.93941C18.6011 9.05039 19.0213 9.32999 19.3076 9.72658C19.517 10.0818 19.6116 10.493 19.5783 10.904ZM15.4182 11.7425C15.5436 11.6575 15.6845 11.5981 15.8329 11.5677C15.8794 11.6426 15.9422 11.706 16.0168 11.753C16.0913 11.8001 16.1755 11.8296 16.2631 11.8394C16.3606 11.8456 16.4578 11.8235 16.5428 11.7755C16.6279 11.7275 16.6972 11.6559 16.7423 11.5692C16.7841 11.4832 16.8129 11.3914 16.8278 11.297C16.9586 11.2655 17.0894 11.2355 17.2205 11.2062C17.2368 11.4287 17.1876 11.6511 17.0787 11.8458C17.0191 11.949 16.939 12.039 16.8435 12.1103C16.7479 12.1816 16.6388 12.2327 16.5229 12.2605C16.3819 12.2919 16.2355 12.2904 16.0951 12.2561C15.9548 12.2217 15.8243 12.1555 15.7137 12.0624C15.6043 11.9664 15.5053 11.8592 15.4182 11.7425ZM10.5953 11.7535C10.4532 11.977 10.2416 12.1476 9.99301 12.2391C9.83706 12.291 9.66975 12.2987 9.50969 12.2613C9.34963 12.2238 9.20309 12.1427 9.08636 12.027C8.98382 11.9198 8.90579 11.7916 8.85767 11.6512C8.80955 11.5109 8.79249 11.3618 8.80768 11.2142C8.94243 11.2331 9.07475 11.2655 9.20859 11.2884C9.2123 11.3861 9.23904 11.4816 9.28662 11.5671C9.3342 11.6525 9.40128 11.7255 9.48241 11.7801C9.55861 11.8227 9.64463 11.8446 9.73192 11.8435C9.81921 11.8425 9.9047 11.8186 9.97989 11.7743C10.0552 11.7209 10.1236 11.6585 10.1837 11.5885C10.2602 11.584 10.3368 11.5965 10.4079 11.625C10.4791 11.6535 10.543 11.6974 10.5953 11.7535ZM22.199 10.2314C22.1732 10.5647 22.0665 10.8867 21.8881 11.1694C21.7098 11.4521 21.4652 11.6871 21.1756 11.854C21.1725 11.5873 21.1683 11.3202 21.1738 11.0537C21.4214 10.7721 21.565 10.4139 21.5803 10.0392C21.5957 9.6644 21.4819 9.29572 21.2581 8.99474C21.0881 8.78436 20.8615 8.62693 20.6051 8.54096C20.7104 8.3983 20.8253 8.26293 20.9489 8.13577C21.0407 8.1247 21.1336 8.14265 21.2147 8.1871C21.5339 8.34068 21.7937 8.59494 21.9542 8.91071C22.1659 9.31661 22.2512 9.77661 22.199 10.2314Z" fill="#485648"/>
<path d="M12.5516 15.7147C12.283 15.4738 11.9838 15.2695 11.6617 15.1069C11.4508 14.981 11.2034 14.9302 10.9598 14.9627C10.8703 14.9819 10.7856 15.0191 10.711 15.0723C10.6364 15.1254 10.5735 15.1933 10.5261 15.2717C10.4788 15.3501 10.448 15.4374 10.4357 15.5282C10.4235 15.6189 10.4299 15.7112 10.4547 15.7994C10.5662 16.1688 10.9195 16.3757 11.193 16.6174C11.4445 16.8598 11.7443 17.0464 12.0727 17.165C12.1921 17.1934 12.317 17.1872 12.433 17.1472C12.5489 17.1073 12.6511 17.0351 12.7276 16.9392C12.81 16.834 12.8665 16.7109 12.8924 16.5798C12.9183 16.4487 12.9129 16.3134 12.8767 16.1847C12.8151 16.0004 12.7023 15.8374 12.5516 15.7147Z" fill="#485648"/>
<path d="M15.4045 15.1158C15.3204 15.0418 15.22 14.9885 15.1116 14.9604C15.0032 14.9323 14.8896 14.93 14.7802 14.9538C14.4923 15.0364 14.2198 15.1654 13.9734 15.3358C13.7374 15.4806 13.5222 15.6569 13.3339 15.8599C13.2109 16.0074 13.1404 16.1915 13.1334 16.3834C13.1264 16.5753 13.1832 16.7641 13.2951 16.9202C13.3549 17.0009 13.433 17.0662 13.523 17.1109C13.613 17.1556 13.7123 17.1783 13.8127 17.1772C14.0562 17.1543 14.2872 17.059 14.4761 16.9037C14.7245 16.7182 14.9614 16.5175 15.2012 16.3216C15.3922 16.1802 15.5338 15.9823 15.6061 15.756C15.6344 15.641 15.6306 15.5205 15.595 15.4076C15.5594 15.2947 15.4935 15.1938 15.4045 15.1158Z" fill="#485648"/>
</g>
<defs>
<clipPath id="clip0_1431_46426">
<rect width="26" height="26" fill="white"/>
</clipPath>
</defs>
</svg>
