<svg width="18" height="17" viewBox="0 0 18 17" fill="none" xmlns="http://www.w3.org/2000/svg">
<path d="M8.99917 15.6664H16.4992M11.4992 3.16645L13.9992 5.66645M12.6458 2.01811C12.9776 1.68637 13.4275 1.5 13.8967 1.5C14.3658 1.5 14.8158 1.68637 15.1475 2.01811C15.4792 2.34985 15.6656 2.79979 15.6656 3.26895C15.6656 3.7381 15.4792 4.18804 15.1475 4.51978L5.13917 14.5289C4.94091 14.7272 4.69585 14.8722 4.42667 14.9506L2.03333 15.6489C1.96163 15.6699 1.88562 15.6711 1.81326 15.6526C1.7409 15.634 1.67486 15.5964 1.62204 15.5436C1.56922 15.4908 1.53157 15.4247 1.51304 15.3524C1.4945 15.28 1.49575 15.204 1.51667 15.1323L2.215 12.7389C2.29352 12.4701 2.43854 12.2253 2.63667 12.0273L12.6458 2.01811Z" stroke="#757575" stroke-width="1.5" stroke-linecap="round" stroke-linejoin="round"/>
</svg>
