<svg width="41" height="41" viewBox="0 0 41 41" fill="none" xmlns="http://www.w3.org/2000/svg">
<circle cx="20.3027" cy="20.3027" r="20.3027" fill="#EFF6EA"/>
<path d="M23.8221 22.1249C23.3683 22.1253 22.9214 22.2362 22.52 22.4481C22.1186 22.6599 21.7747 22.9664 21.5181 23.341L17.6116 21.5752C17.889 20.9045 17.8901 20.1511 17.6146 19.4795L21.5157 17.7047C21.8961 18.2555 22.4611 18.6516 23.1083 18.821C23.7554 18.9905 24.4418 18.9222 25.0429 18.6284C25.644 18.3347 26.1201 17.835 26.3847 17.22C26.6493 16.605 26.685 15.9153 26.4853 15.2762C26.2855 14.6372 25.8636 14.0909 25.2959 13.7366C24.7283 13.3822 24.0527 13.2433 23.3915 13.345C22.7303 13.4466 22.1275 13.7821 21.6922 14.2907C21.257 14.7992 21.0183 15.447 21.0193 16.1167C21.0219 16.2752 21.0379 16.4332 21.0673 16.5889L16.9202 18.4755C16.5219 18.102 16.0232 17.853 15.4855 17.7592C14.9478 17.6654 14.3944 17.7309 13.8934 17.9477C13.3924 18.1644 12.9655 18.523 12.6652 18.9792C12.3649 19.4355 12.2043 19.9697 12.2031 20.5161C12.2019 21.0625 12.3602 21.5974 12.6585 22.0549C12.9567 22.5125 13.382 22.873 13.8821 23.0919C14.3822 23.3108 14.9353 23.3788 15.4734 23.2874C16.0115 23.196 16.5112 22.9492 16.9112 22.5774L21.0691 24.4568C21.0402 24.6124 21.0244 24.7701 21.0217 24.9284C21.0216 25.483 21.1858 26.0253 21.4935 26.4865C21.8012 26.9477 22.2387 27.3072 22.7505 27.5195C23.2624 27.7318 23.8256 27.7874 24.369 27.6792C24.9124 27.571 25.4115 27.304 25.8033 26.9118C26.195 26.5196 26.4618 26.0199 26.5699 25.4759C26.6779 24.9319 26.6224 24.3681 26.4103 23.8557C26.1983 23.3433 25.8392 22.9053 25.3785 22.5973C24.9178 22.2892 24.3761 22.1248 23.8221 22.1249ZM23.8221 14.5143C24.1387 14.5142 24.4482 14.6081 24.7115 14.7841C24.9748 14.9601 25.1801 15.2103 25.3013 15.5031C25.4226 15.7959 25.4544 16.1181 25.3927 16.4289C25.331 16.7398 25.1786 17.0254 24.9547 17.2496C24.7309 17.4737 24.4457 17.6264 24.1352 17.6883C23.8247 17.7501 23.5028 17.7184 23.2103 17.5972C22.9178 17.4759 22.6678 17.2705 22.4918 17.007C22.3159 16.7435 22.222 16.4336 22.222 16.1167C22.2224 15.6919 22.391 15.2846 22.691 14.9842C22.991 14.6838 23.3978 14.5148 23.8221 14.5143ZM15.02 22.1249C14.7034 22.1251 14.3939 22.0312 14.1306 21.8552C13.8673 21.6792 13.662 21.429 13.5408 21.1362C13.4196 20.8434 13.3878 20.5212 13.4495 20.2103C13.5112 19.8994 13.6636 19.6139 13.8874 19.3897C14.1112 19.1655 14.3964 19.0129 14.7069 18.951C15.0175 18.8891 15.3393 18.9208 15.6318 19.0421C15.9244 19.1633 16.1744 19.3687 16.3503 19.6322C16.5262 19.8958 16.6201 20.2056 16.6201 20.5225C16.6196 20.9473 16.4509 21.3545 16.151 21.6549C15.851 21.9553 15.4443 22.1243 15.02 22.1249ZM23.8221 26.5308C23.5055 26.5308 23.196 26.4368 22.9328 26.2607C22.6696 26.0847 22.4644 25.8344 22.3433 25.5416C22.2221 25.2488 22.1904 24.9266 22.2522 24.6158C22.314 24.305 22.4664 24.0194 22.6903 23.7953C22.9141 23.5712 23.1993 23.4186 23.5098 23.3568C23.8203 23.295 24.1422 23.3267 24.4346 23.448C24.7271 23.5693 24.9771 23.7746 25.153 24.0382C25.3289 24.3017 25.4227 24.6115 25.4227 24.9284C25.4224 25.3533 25.2537 25.7607 24.9536 26.0611C24.6535 26.3616 24.2465 26.5305 23.8221 26.5308Z" fill="#485648"/>
</svg>
