<svg width="11" height="11" viewBox="0 0 11 11" fill="none" xmlns="http://www.w3.org/2000/svg">
<path d="M10.9713 4.15673C10.9361 4.04299 10.8697 3.94256 10.7802 3.86797C10.6907 3.79337 10.5821 3.74792 10.468 3.73727L7.29311 3.43642L6.03768 0.370122C5.94508 0.145412 5.73427 0 5.50004 0C5.26582 0 5.05498 0.145435 4.96243 0.370682L3.70698 3.43644L0.531574 3.73727C0.417622 3.74816 0.309239 3.79371 0.219863 3.86827C0.130486 3.94284 0.0640481 4.04314 0.0287848 4.15673C-0.0436408 4.38918 0.0232417 4.64411 0.19974 4.80481L2.5996 7.00101L1.89193 10.2538C1.84016 10.493 1.9291 10.7402 2.11929 10.8837C2.22149 10.9608 2.3411 11 2.46169 11C2.56568 11 2.66881 10.9707 2.76141 10.9129L5.50004 9.20495L8.23769 10.9129C8.43802 11.0387 8.69055 11.0272 8.88031 10.8837C8.9732 10.8135 9.04428 10.7164 9.08471 10.6044C9.12513 10.4924 9.13311 10.3705 9.10766 10.2538L8.40001 7.00101L10.7999 4.80526C10.8862 4.72658 10.9485 4.62317 10.9789 4.50787C11.0094 4.39257 11.0068 4.27047 10.9713 4.15673Z" fill="#485648"/>
</svg>
