<svg width="13" height="12" viewBox="0 0 13 12" fill="none" xmlns="http://www.w3.org/2000/svg">
<path d="M1.75924 11.2945L8.21271 11.3344C8.65822 11.3372 9.02163 10.9782 9.02439 10.5327C9.02715 10.0872 8.6682 9.72379 8.22269 9.72103L3.71671 9.69315L12.0712 1.44139C12.3882 1.1283 12.3913 0.61758 12.0782 0.300586C12.0039 0.225103 11.9153 0.165062 11.8177 0.123911C11.7201 0.08276 11.6153 0.0613125 11.5093 0.0608C11.4034 0.0599947 11.2983 0.0801466 11.2001 0.120092C11.102 0.160039 11.0127 0.218991 10.9374 0.293564L2.58294 8.54529L2.61081 4.0393C2.61357 3.59379 2.25462 3.23037 1.80911 3.22762C1.3636 3.22486 1.00018 3.58381 0.997427 4.02932L0.9575 10.4828C0.954777 10.9283 1.31372 11.2917 1.75924 11.2945Z" fill="#3A8D72"/>
</svg>
