<svg width="512" height="410" viewBox="0 0 512 410" fill="none" xmlns="http://www.w3.org/2000/svg">
<path d="M486.4 230.603H25.6C18.8105 230.603 12.299 227.906 7.49807 223.105C2.69714 218.304 0 211.793 0 205.003C0 198.214 2.69714 191.702 7.49807 186.901C12.299 182.1 18.8105 179.403 25.6 179.403H486.4C493.19 179.403 499.701 182.1 504.502 186.901C509.303 191.702 512 198.214 512 205.003C512 211.793 509.303 218.304 504.502 223.105C499.701 227.906 493.19 230.603 486.4 230.603ZM486.4 51.4031H25.6C18.8105 51.4031 12.299 48.706 7.49807 43.9051C2.69714 39.1041 0 32.5927 0 25.8031C0 19.0136 2.69714 12.5021 7.49807 7.70119C12.299 2.90026 18.8105 0.203125 25.6 0.203125H486.4C493.19 0.203125 499.701 2.90026 504.502 7.70119C509.303 12.5021 512 19.0136 512 25.8031C512 32.5927 509.303 39.1041 504.502 43.9051C499.701 48.706 493.19 51.4031 486.4 51.4031ZM486.4 409.803H25.6C18.8105 409.803 12.299 407.106 7.49807 402.305C2.69714 397.504 0 390.993 0 384.203C0 377.414 2.69714 370.902 7.49807 366.101C12.299 361.3 18.8105 358.603 25.6 358.603H486.4C493.19 358.603 499.701 361.3 504.502 366.101C509.303 370.902 512 377.414 512 384.203C512 390.993 509.303 397.504 504.502 402.305C499.701 407.106 493.19 409.803 486.4 409.803Z" fill="white"/>
</svg>
