<svg width="58" height="46" viewBox="0 0 58 46" fill="none" xmlns="http://www.w3.org/2000/svg">
<path d="M13.5938 45.2031C10.9052 45.2031 8.27695 44.4059 6.04147 42.9122C3.80599 41.4185 2.06365 39.2954 1.03477 36.8115C0.00588998 34.3276 -0.263312 31.5943 0.261206 28.9574C0.785724 26.3204 2.0804 23.8983 3.98152 21.9971C5.88264 20.096 8.30482 18.8013 10.9417 18.2768C13.5787 17.7523 16.3119 18.0215 18.7959 19.0504C21.2798 20.0793 23.4028 21.8216 24.8965 24.0571C26.3902 26.2926 27.1875 28.9208 27.1875 31.6094C27.1837 35.2135 25.7502 38.6689 23.2017 41.2174C20.6533 43.7659 17.1979 45.1993 13.5938 45.2031ZM13.5938 19.8281C11.2636 19.8281 8.98586 20.5191 7.04844 21.8136C5.11103 23.1082 3.601 24.9481 2.7093 27.1009C1.81761 29.2536 1.5843 31.6224 2.03888 33.9078C2.49346 36.1931 3.61552 38.2923 5.26315 39.94C6.91079 41.5876 9.01001 42.7097 11.2953 43.1643C13.5807 43.6188 15.9495 43.3855 18.1022 42.4938C20.255 41.6021 22.095 40.0921 23.3895 38.1547C24.684 36.2173 25.375 33.9395 25.375 31.6094C25.3714 28.4859 24.129 25.4914 21.9204 23.2828C19.7118 21.0741 16.7172 19.8317 13.5938 19.8281Z" fill="white"/>
<path d="M13.5938 40.6747C11.8014 40.6747 10.0492 40.1432 8.5589 39.1474C7.06858 38.1516 5.90701 36.7362 5.2211 35.0803C4.53518 33.4243 4.35571 31.6021 4.70539 29.8442C5.05507 28.0862 5.91819 26.4714 7.1856 25.204C8.45301 23.9366 10.0678 23.0735 11.8257 22.7238C13.5837 22.3741 15.4059 22.5536 17.0618 23.2395C18.7178 23.9254 20.1331 25.087 21.1289 26.5773C22.1247 28.0677 22.6563 29.8198 22.6563 31.6122C22.6534 34.0148 21.6977 36.3182 19.9987 38.0172C18.2998 39.7161 15.9964 40.6718 13.5938 40.6747ZM13.5938 24.3622C12.1598 24.3622 10.7581 24.7874 9.56587 25.584C8.37361 26.3807 7.44436 27.513 6.89563 28.8377C6.34689 30.1625 6.20332 31.6202 6.48306 33.0266C6.7628 34.433 7.4533 35.7248 8.46723 36.7387C9.48116 37.7526 10.773 38.4431 12.1793 38.7229C13.5857 39.0026 15.0434 38.859 16.3682 38.3103C17.693 37.7616 18.8253 36.8323 19.6219 35.6401C20.4185 34.4478 20.8438 33.0461 20.8438 31.6122C20.8414 29.6901 20.0767 27.8474 18.7176 26.4883C17.3585 25.1292 15.5158 24.3646 13.5938 24.3622ZM26.2813 14.3898C26.0409 14.3898 25.8104 14.2943 25.6404 14.1244C25.4705 13.9544 25.375 13.7239 25.375 13.4836C25.3742 11.851 24.8225 10.2665 23.8093 8.98637C22.796 7.70629 21.3805 6.80555 19.7917 6.42993C18.2029 6.05431 16.5339 6.22577 15.0547 6.91658C13.5755 7.60738 12.3726 8.77711 11.6408 10.2365C11.5288 10.4436 11.3405 10.5991 11.1159 10.6698C10.8913 10.7406 10.6479 10.7211 10.4374 10.6156C10.2269 10.51 10.0657 10.3266 9.98804 10.1043C9.91038 9.88199 9.92231 9.63815 10.0213 9.42447C10.9357 7.59987 12.4392 6.1373 14.2884 5.27356C16.1375 4.40982 18.224 4.19547 20.2101 4.66521C22.1963 5.13495 23.9657 6.26129 25.232 7.86186C26.4983 9.46244 27.1873 11.4436 27.1875 13.4845C27.1875 13.7248 27.092 13.9553 26.9221 14.1253C26.7521 14.2952 26.5216 14.3907 26.2813 14.3907V14.3898Z" fill="white"/>
<path d="M26.2817 32.5192C26.0413 32.5192 25.8108 32.4238 25.6409 32.2538C25.4709 32.0839 25.3754 31.8534 25.3754 31.613V6.23438C25.3754 5.99402 25.4709 5.76351 25.6409 5.59356C25.8108 5.4236 26.0413 5.32813 26.2817 5.32812C26.522 5.32812 26.7525 5.4236 26.9225 5.59356C27.0924 5.76351 27.1879 5.99402 27.1879 6.23438V31.613C27.1879 31.8534 27.0924 32.0839 26.9225 32.2538C26.7525 32.4238 26.522 32.5192 26.2817 32.5192ZM2.1283 27.0781C1.97191 27.078 1.8182 27.0374 1.68214 26.9603C1.54607 26.8832 1.43227 26.7722 1.3518 26.6381C1.27134 26.504 1.22695 26.3514 1.22295 26.195C1.21895 26.0387 1.25548 25.884 1.32899 25.7459L10.0308 9.40625C10.1436 9.19402 10.3362 9.03531 10.566 8.96503C10.7959 8.89476 11.0443 8.91867 11.2565 9.03152C11.4687 9.14436 11.6274 9.33689 11.6977 9.56676C11.768 9.79662 11.7441 10.045 11.6312 10.2572L2.92852 26.5969C2.85137 26.7422 2.73613 26.8637 2.59516 26.9485C2.45419 27.0333 2.2928 27.0781 2.1283 27.0781Z" fill="white"/>
<path d="M26.2809 7.13785C26.0406 7.13785 25.81 7.04237 25.6401 6.87241C25.4701 6.70246 25.3747 6.47195 25.3747 6.2316C25.377 5.3289 25.0425 4.45778 24.4366 3.78869C23.8306 3.11959 22.9968 2.70065 22.0983 2.61384C21.1998 2.52702 20.3012 2.77858 19.5783 3.31929C18.8555 3.85999 18.3604 4.65095 18.1899 5.53741C18.1383 5.76724 17.9993 5.96795 17.8022 6.097C17.6052 6.22606 17.3656 6.27333 17.1343 6.22879C16.903 6.18425 16.6981 6.0514 16.5631 5.8584C16.4281 5.6654 16.3735 5.4274 16.4109 5.19485C16.6676 3.86659 17.4102 2.68172 18.4937 1.87165C19.5772 1.06159 20.9238 0.684511 22.2704 0.814065C23.617 0.943619 24.867 1.5705 25.7761 2.57228C26.6853 3.57405 27.1884 4.87876 27.1872 6.2316C27.1872 6.47195 27.0917 6.70246 26.9217 6.87241C26.7518 7.04237 26.5213 7.13785 26.2809 7.13785ZM44.4059 45.204C41.7173 45.204 39.0891 44.4067 36.8536 42.913C34.6181 41.4193 32.8758 39.2963 31.8469 36.8123C30.818 34.3284 30.5488 31.5951 31.0734 28.9582C31.5979 26.3213 32.8926 23.8991 34.7937 21.998C36.6948 20.0969 39.117 18.8022 41.7539 18.2777C44.3908 17.7532 47.1241 18.0224 49.608 19.0512C52.0919 20.0801 54.215 21.8225 55.7087 24.0579C57.2024 26.2934 57.9997 28.9216 57.9997 31.6102C57.9958 35.2143 56.5624 38.6697 54.0139 41.2182C51.4654 43.7667 48.01 45.2001 44.4059 45.204ZM44.4059 19.829C42.0758 19.829 39.798 20.5199 37.8606 21.8145C35.9232 23.109 34.4131 24.949 33.5215 27.1017C32.6298 29.2545 32.3964 31.6233 32.851 33.9086C33.3056 36.194 34.4277 38.2932 36.0753 39.9408C37.7229 41.5885 39.8222 42.7105 42.1075 43.1651C44.3928 43.6197 46.7617 43.3864 48.9144 42.4947C51.0671 41.603 52.9071 40.0929 54.2017 38.1555C55.4962 36.2181 56.1872 33.9403 56.1872 31.6102C56.1836 28.4867 54.9412 25.4922 52.7325 23.2836C50.5239 21.075 47.5294 19.8326 44.4059 19.829Z" fill="white"/>
<path d="M44.4062 40.6756C42.6139 40.6756 40.8617 40.1441 39.3714 39.1483C37.8811 38.1525 36.7195 36.7371 36.0336 35.0812C35.3477 33.4252 35.1682 31.603 35.5179 29.8451C35.8676 28.0871 36.7307 26.4723 37.9981 25.2049C39.2655 23.9375 40.8803 23.0744 42.6382 22.7247C44.3962 22.375 46.2184 22.5545 47.8743 23.2404C49.5303 23.9264 50.9456 25.0879 51.9414 26.5782C52.9372 28.0686 53.4688 29.8207 53.4688 31.6131C53.4659 34.0157 52.5102 36.3191 50.8112 38.0181C49.1123 39.717 46.8089 40.6727 44.4062 40.6756ZM44.4062 24.3631C42.9723 24.3631 41.5706 24.7883 40.3784 25.5849C39.1861 26.3816 38.2569 27.5139 37.7081 28.8386C37.1594 30.1634 37.0158 31.6211 37.2956 33.0275C37.5753 34.4339 38.2658 35.7257 39.2797 36.7396C40.2937 37.7535 41.5855 38.444 42.9918 38.7238C44.3982 39.0035 45.8559 38.86 47.1807 38.3112C48.5055 37.7625 49.6378 36.8332 50.4344 35.641C51.231 34.4487 51.6562 33.047 51.6562 31.6131C51.6539 29.691 50.8892 27.8483 49.5301 26.4892C48.171 25.1301 46.3283 24.3655 44.4062 24.3631ZM31.7188 14.3907C31.4784 14.3907 31.2479 14.2952 31.0779 14.1253C30.908 13.9553 30.8125 13.7248 30.8125 13.4845C30.8127 11.4436 31.5017 9.46244 32.768 7.86186C34.0343 6.26129 35.8037 5.13495 37.7899 4.66521C39.776 4.19547 41.8625 4.40982 43.7116 5.27356C45.5608 6.1373 47.0643 7.59987 47.9787 9.42447C48.0353 9.53112 48.07 9.648 48.0807 9.76824C48.0915 9.88848 48.0781 10.0097 48.0414 10.1247C48.0047 10.2397 47.9454 10.3462 47.867 10.438C47.7885 10.5297 47.6925 10.6049 47.5846 10.6591C47.4768 10.7132 47.3591 10.7453 47.2387 10.7534C47.1182 10.7614 46.9974 10.7453 46.8832 10.7061C46.7691 10.6668 46.6639 10.6051 46.5739 10.5246C46.4839 10.4441 46.4109 10.3465 46.3592 10.2374C45.6274 8.77802 44.4246 7.60829 42.9453 6.91748C41.4661 6.22668 39.7971 6.05521 38.2083 6.43084C36.6195 6.80646 35.204 7.70719 34.1907 8.98728C33.1775 10.2674 32.6258 11.8519 32.625 13.4845C32.625 13.7248 32.5295 13.9553 32.3596 14.1253C32.1896 14.2952 31.9591 14.3907 31.7188 14.3907Z" fill="white"/>
<path d="M31.7188 32.5192C31.4784 32.5192 31.2479 32.4238 31.0779 32.2538C30.908 32.0839 30.8125 31.8534 30.8125 31.613V6.23438C30.8125 5.99402 30.908 5.76351 31.0779 5.59356C31.2479 5.4236 31.4784 5.32813 31.7188 5.32812C31.9591 5.32812 32.1896 5.4236 32.3596 5.59356C32.5295 5.76351 32.625 5.99402 32.625 6.23438V31.613C32.625 31.8534 32.5295 32.0839 32.3596 32.2538C32.1896 32.4238 31.9591 32.5192 31.7188 32.5192ZM55.8721 27.0781C55.7077 27.0782 55.5464 27.0335 55.4054 26.9489C55.2645 26.8643 55.1492 26.7429 55.0719 26.5978L46.3692 10.2572C46.3133 10.1521 46.2786 10.0371 46.2671 9.91857C46.2556 9.80007 46.2676 9.68048 46.3024 9.56662C46.3371 9.45277 46.394 9.34687 46.4697 9.25497C46.5453 9.16308 46.6384 9.087 46.7435 9.03106C46.8486 8.97513 46.9636 8.94044 47.0821 8.92898C47.2006 8.91751 47.3202 8.9295 47.4341 8.96426C47.5479 8.99901 47.6538 9.05585 47.7457 9.13154C47.8376 9.20722 47.9137 9.30026 47.9696 9.40534L56.6714 25.7459C56.7449 25.884 56.7815 26.0387 56.7775 26.195C56.7735 26.3514 56.7291 26.504 56.6486 26.6381C56.5682 26.7722 56.4544 26.8832 56.3183 26.9603C56.1822 27.0374 56.0285 27.078 55.8721 27.0781Z" fill="white"/>
<path d="M31.7188 7.14097C31.4784 7.14097 31.2479 7.04549 31.0779 6.87553C30.908 6.70558 30.8125 6.47507 30.8125 6.23472C30.8124 4.8827 31.316 3.57915 32.2251 2.57837C33.1341 1.57759 34.3834 0.951369 35.7292 0.821882C37.075 0.692395 38.4208 1.06893 39.504 1.87803C40.5872 2.68712 41.3301 3.87074 41.5878 5.19797C41.6219 5.42895 41.5655 5.66417 41.4304 5.85461C41.2954 6.04504 41.092 6.17599 40.8627 6.22016C40.6335 6.26433 40.396 6.21831 40.1998 6.0917C40.0037 5.96508 39.8639 5.76764 39.8098 5.54053C39.6393 4.65407 39.1442 3.86312 38.4213 3.32241C37.6985 2.7817 36.7999 2.53015 35.9014 2.61696C35.0028 2.70378 34.169 3.12271 33.5631 3.79181C32.9571 4.46091 32.6226 5.33202 32.625 6.23472C32.625 6.47507 32.5295 6.70558 32.3596 6.87553C32.1896 7.04549 31.9591 7.14097 31.7188 7.14097ZM29 31.6133C28.283 31.6133 27.5822 31.4007 26.9861 31.0024C26.3899 30.6041 25.9253 30.038 25.6509 29.3756C25.3766 28.7132 25.3048 27.9843 25.4447 27.2811C25.5845 26.578 25.9298 25.932 26.4367 25.4251C26.9437 24.9181 27.5896 24.5729 28.2928 24.433C28.996 24.2931 29.7248 24.3649 30.3872 24.6393C31.0496 24.9136 31.6158 25.3783 32.0141 25.9744C32.4124 26.5705 32.625 27.2714 32.625 27.9883C32.624 28.9495 32.2418 29.8709 31.5622 30.5505C30.8826 31.2302 29.9611 31.6124 29 31.6133ZM29 26.1758C28.6415 26.1758 28.2911 26.2821 27.993 26.4813C27.695 26.6805 27.4627 26.9635 27.3255 27.2947C27.1883 27.6259 27.1524 27.9904 27.2223 28.3419C27.2923 28.6935 27.4649 29.0165 27.7184 29.27C27.9719 29.5235 28.2948 29.6961 28.6464 29.766C28.998 29.836 29.3624 29.8001 29.6936 29.6629C30.0248 29.5257 30.3079 29.2934 30.507 28.9953C30.7062 28.6973 30.8125 28.3468 30.8125 27.9883C30.8118 27.5079 30.6206 27.0473 30.2808 26.7075C29.9411 26.3678 29.4805 26.1766 29 26.1758ZM31.7188 14.391C31.4784 14.391 31.2479 14.2955 31.0779 14.1255C30.908 13.9556 30.8125 13.7251 30.8125 13.4847C30.8125 13.004 30.6215 12.543 30.2816 12.2031C29.9417 11.8632 29.4807 11.6722 29 11.6722C28.5193 11.6722 28.0583 11.8632 27.7184 12.2031C27.3785 12.543 27.1875 13.004 27.1875 13.4847C27.1875 13.7251 27.092 13.9556 26.9221 14.1255C26.7521 14.2955 26.5216 14.391 26.2813 14.391C26.0409 14.391 25.8104 14.2955 25.6404 14.1255C25.4705 13.9556 25.375 13.7251 25.375 13.4847C25.375 12.5233 25.7569 11.6013 26.4367 10.9215C27.1166 10.2416 28.0386 9.85972 29 9.85972C29.9614 9.85972 30.8834 10.2416 31.5633 10.9215C32.2431 11.6013 32.625 12.5233 32.625 13.4847C32.625 13.7251 32.5295 13.9556 32.3596 14.1255C32.1896 14.2955 31.9591 14.391 31.7188 14.391Z" fill="white"/>
</svg>
