<svg width="13" height="13" viewBox="0 0 13 13" fill="none" xmlns="http://www.w3.org/2000/svg">
<path d="M9.55955 8.04887C9.17483 8.04887 8.85849 8.0097 8.59036 7.94875L6.49996 10.0398L4.40934 7.94852C4.1402 8.00996 3.81667 8.04973 3.43238 8.04882L5.96137 10.5786L5.63325 10.9069C4.8635 11.6693 5.41662 13.0055 6.49999 13C7.58334 13.0054 8.1365 11.6692 7.36668 10.9069L7.03858 10.5786L9.56758 8.04882L9.55955 8.04887ZM6.92869 11.9515C6.89372 12.0364 6.83428 12.109 6.75793 12.1601C6.68158 12.2111 6.59178 12.2382 6.49996 12.238C6.08973 12.24 5.88048 11.7342 6.17184 11.4456L6.49996 11.1174L6.82809 11.4456C6.89314 11.5105 6.93744 11.5932 6.95536 11.6833C6.97327 11.7733 6.96399 11.8667 6.92869 11.9515ZM12.8884 5.82037L11.9068 4.83844H1.0931L0.11149 5.82037C0.0582481 5.87366 0.0219938 5.94154 0.00730969 6.01543C-0.00737443 6.08933 0.000170788 6.16592 0.0289917 6.23553C0.0578126 6.30514 0.106615 6.36463 0.169232 6.4065C0.231848 6.44837 0.305468 6.47073 0.380785 6.47076C1.78624 6.47076 1.79231 7.28693 3.44037 7.28693C5.08313 7.28693 5.10157 6.47076 6.49996 6.47076C7.90542 6.47076 7.91149 7.28693 9.55955 7.28693C11.2023 7.28693 11.2207 6.47076 12.6191 6.47076C12.6945 6.47076 12.7681 6.44841 12.8307 6.40655C12.8934 6.36468 12.9422 6.30518 12.971 6.23556C12.9998 6.16594 13.0074 6.08934 12.9927 6.01544C12.978 5.94153 12.9417 5.87365 12.8884 5.82037ZM10.6634 1.58979C10.5526 1.14729 10.2071 0.810657 9.76197 0.711601C8.65178 0.483392 6.50669 -0.0562337 6.41734 0.00477456C6.41734 0.00477456 4.23889 0.489005 3.23791 0.711601C2.79278 0.810657 2.44742 1.14709 2.33656 1.58979L2.12308 2.44419H10.8769L10.6634 1.58979ZM11.0673 3.20616H1.93267L1.7152 4.07648H11.2847L11.0673 3.20616Z" fill="white"/>
</svg>
