<svg width="28" height="28" viewBox="0 0 28 28" fill="none" xmlns="http://www.w3.org/2000/svg">
<path d="M27.1412 13.2617C26.6631 12.4756 26.0879 11.7527 25.4293 11.1101C25.2051 10.8811 25.0184 10.6181 24.876 10.331C24.8024 10.0802 24.7418 9.8257 24.6945 9.56861C24.5239 9.04496 24.2106 8.57924 23.79 8.22374C23.983 8.02009 24.1039 7.75879 24.1342 7.47987C24.1554 7.31654 24.1229 7.15074 24.0414 7.00759C23.9599 6.86444 23.834 6.75175 23.6827 6.6866C23.5408 6.63575 23.385 6.63936 23.2455 6.69673C23.1061 6.7541 22.9929 6.86116 22.9278 6.99718C22.2272 6.49706 21.3844 6.23535 20.5238 6.25063C19.7539 6.24549 18.9867 6.34201 18.2421 6.53769C17.5043 6.75278 16.7507 6.90967 15.9883 7.00693C15.3758 7.04648 14.7615 6.96493 14.1806 6.76694C13.2045 6.49625 12.1959 6.36053 11.183 6.36356C9.74397 6.36099 8.31394 6.58991 6.94767 7.04154L6.94835 7.00423L6.9228 7.1091C6.90967 7.0923 6.89658 7.07549 6.88347 7.05902C5.42382 7.53279 4.07446 8.29551 2.91576 9.30172C2.14093 10.0017 1.51928 10.8544 1.08988 11.8062C0.693192 12.6975 0.491821 13.6633 0.499299 14.6388C0.48456 15.3752 0.600061 16.1084 0.840474 16.8045C1.05707 17.378 1.30898 17.9375 1.59475 18.4798C1.82495 18.8924 1.97622 19.3443 2.04081 19.8123C2.05848 19.98 2.03736 20.1495 1.97908 20.3077C1.92079 20.466 1.82691 20.6087 1.70467 20.7249C1.39677 21.0402 0.910728 21.1441 0.683836 21.5434C0.685179 21.5498 0.68787 21.5619 0.688876 21.5683C0.868672 21.5551 1.04917 21.5545 1.22904 21.5666C1.71814 21.5949 2.20064 21.4428 2.58501 21.139C2.65892 21.2855 2.76198 21.4153 2.88787 21.5205C3.13676 21.6726 3.42377 21.7508 3.71542 21.7461C4.08679 21.7662 4.45923 21.7498 4.82737 21.697C4.99953 21.6919 5.16877 21.6513 5.32453 21.5778C5.48028 21.5043 5.61919 21.3994 5.73256 21.2698C5.83366 21.4155 5.97685 21.5269 6.14298 21.5891C6.52146 21.7043 6.91895 21.7439 7.31272 21.7054C7.60307 21.7019 7.89014 21.6435 8.15877 21.5333C8.21469 21.5125 8.2655 21.4799 8.30777 21.4379C8.35004 21.3958 8.38279 21.3451 8.40381 21.2892C8.40345 21.2013 8.3815 21.1149 8.33989 21.0375C8.29827 20.96 8.23827 20.894 8.16516 20.8452C7.91801 20.6676 7.71209 20.4388 7.56146 20.1743C7.39972 19.8626 7.34526 19.5063 7.40651 19.1605C7.44564 18.9821 7.52651 18.8155 7.64247 18.6745C7.4481 18.664 7.25713 18.6192 7.07844 18.542C6.84757 18.4059 6.60585 18.2891 6.35575 18.1928C6.2326 18.1622 6.10355 18.1646 5.98166 18.1999C5.85977 18.2352 5.74937 18.3021 5.66163 18.3938C5.47912 18.5992 5.34893 18.8456 5.28214 19.1121C5.27585 18.9591 5.29021 18.8059 5.32483 18.6566C5.36124 18.4226 5.41884 18.1924 5.49693 17.9689C5.57271 17.732 5.7201 17.5245 5.91878 17.3749C5.97715 17.3293 6.049 17.3044 6.12308 17.3039C6.19716 17.3035 6.26929 17.3277 6.32819 17.3726C7.15641 18.0831 8.12399 18.6126 9.16885 18.9272C9.82306 19.1135 10.4994 19.2106 11.1796 19.216C11.6584 19.2116 12.1347 19.1478 12.5977 19.026C12.6736 19.2691 12.816 19.486 13.0088 19.6523C12.9692 20.0197 12.9514 20.3891 12.9218 20.7575C12.9094 20.8653 12.9187 20.9745 12.9492 21.0786C12.9796 21.1828 13.0307 21.2797 13.0993 21.3638C13.2739 21.5503 13.508 21.6701 13.7614 21.7027C14.0633 21.7518 14.37 21.7635 14.6747 21.7376C14.9232 21.725 15.165 21.6519 15.3789 21.5248C15.434 21.4932 15.4773 21.4443 15.502 21.3857C15.5268 21.3272 15.5317 21.2621 15.516 21.2005C15.4293 20.9575 15.1752 20.8408 15.0196 20.6489C14.8044 20.3812 14.6917 20.0456 14.7016 19.7023C14.8158 19.6411 14.9162 19.5571 14.9966 19.4555C15.077 19.3539 15.1358 19.2369 15.1692 19.1117C15.2179 18.9188 15.2391 18.7201 15.2834 18.5262C15.4266 18.8388 15.4787 19.2193 15.7719 19.4391C15.7742 19.9225 15.7665 20.4059 15.7732 20.8892C15.7816 21.0483 15.8362 21.2016 15.9304 21.3301C16.0247 21.4586 16.1544 21.5568 16.3036 21.6126C16.6887 21.7409 17.0973 21.7835 17.5006 21.7373C17.7817 21.7287 18.057 21.6559 18.3056 21.5245C18.367 21.4955 18.4169 21.4466 18.4472 21.3859C18.4775 21.3251 18.4865 21.2559 18.4727 21.1894C18.3979 21.0113 18.2708 20.8601 18.1083 20.7558C17.93 20.604 17.7899 20.4125 17.6993 20.1966C17.6087 19.9808 17.5701 19.7466 17.5866 19.5131C17.7178 19.4283 17.8276 19.3143 17.9073 19.18C17.987 19.0457 18.0345 18.8948 18.0461 18.739C18.1429 18.0227 18.2317 17.3054 18.3315 16.5894C18.1738 16.5765 18.0178 16.547 17.8663 16.5014C17.5477 16.3606 17.2184 16.2456 16.8814 16.1575C16.6687 16.1319 16.453 16.153 16.2492 16.2192C16.0455 16.2855 15.8586 16.3953 15.7016 16.541C15.6052 16.6357 15.5151 16.7366 15.432 16.8432C15.5151 16.5372 15.6903 16.2641 15.9339 16.061C16.1012 15.9163 16.3013 15.8147 16.5168 15.765C16.7323 15.7153 16.9567 15.7189 17.1705 15.7756C17.5873 15.9243 17.9938 16.1005 18.3873 16.303C18.5777 16.3982 18.7861 16.4523 18.9988 16.4618C19.2114 16.4713 19.4237 16.436 19.6219 16.3582C19.7957 16.2849 19.8828 16.0889 20.0673 16.0351C20.2393 15.9929 20.417 15.9797 20.5933 15.9961C21.2661 16.0531 21.9133 16.2803 22.474 16.6563C22.8172 16.8927 23.1749 17.1074 23.5449 17.299C23.8093 17.4035 24.0867 17.4716 24.3695 17.5013L24.4226 17.4896C24.436 17.4324 24.3557 17.4472 24.3241 17.4281C23.8331 17.2977 23.3903 17.028 23.0491 16.6516C22.6969 16.1988 22.2787 15.8014 21.8085 15.4728C21.4658 15.2997 21.1143 15.1447 20.7554 15.0086C20.0127 14.649 19.4267 14.0311 19.107 13.2705C18.8617 12.6674 18.8147 12.0019 18.9728 11.3703C19.1249 10.8017 19.4542 10.2963 19.913 9.92761C19.8066 10.1056 19.7148 10.292 19.6387 10.4849C19.419 11.0235 19.3323 11.6072 19.386 12.1864C19.4451 12.7796 19.6537 13.348 19.9922 13.8386C20.3308 14.3293 20.7882 14.726 21.3217 14.9918C21.5735 15.089 21.8193 15.2009 22.0579 15.3269C22.3813 15.5201 22.6569 15.7838 22.8643 16.0983C23.0243 16.348 23.2004 16.587 23.3913 16.814C23.591 17.031 23.8358 17.2015 24.1086 17.3134C24.2428 17.363 24.3739 17.4201 24.5016 17.4845C24.5093 17.4936 24.5248 17.5114 24.5322 17.5205C24.6866 17.5458 24.8422 17.5631 24.9984 17.5723C25.42 17.5605 25.8302 17.4331 26.1843 17.2039C26.5819 16.9416 26.9095 16.5863 27.1388 16.1688C27.3681 15.7513 27.4922 15.2842 27.5002 14.8079C27.5081 14.271 27.3849 13.7402 27.1412 13.2617ZM11.9904 13.3279C11.9209 14.2328 12.0047 15.143 12.2381 16.02C12.4164 16.6548 12.522 17.3079 12.5527 17.9666C12.5586 18.2149 12.5303 18.4628 12.4687 18.7034C12.4904 18.1784 12.4076 17.6542 12.225 17.1615C12.0247 16.5246 11.744 15.9168 11.5369 15.2822C11.3321 14.6972 11.2747 14.0708 11.3699 13.4583C11.4777 12.8575 11.7954 12.3144 12.2663 11.9259C12.4031 11.8058 12.5472 11.6943 12.6979 11.5921C12.2839 12.081 12.0361 12.6889 11.9904 13.3279ZM20.5278 7.57029C20.4231 7.7227 20.2821 7.84656 20.1174 7.93063C20.157 7.70542 20.356 7.54173 20.3691 7.30946C20.3683 7.23055 20.3411 7.15417 20.2919 7.09248C20.2427 7.03079 20.1743 6.98731 20.0976 6.96895C20.016 6.94381 19.9291 6.94141 19.8463 6.96203C19.7635 6.98264 19.6879 7.02549 19.6276 7.08593C19.5014 7.28219 19.433 7.51006 19.4303 7.74341C19.4031 7.91853 19.228 8.03584 19.233 8.22004C19.2441 8.32388 19.2799 8.42357 19.3372 8.51084C19.3945 8.59812 19.4719 8.67047 19.5628 8.72189C19.5658 8.80391 19.5668 8.88592 19.5668 8.96828C19.3029 8.7992 18.9974 8.59147 18.9655 8.2503C18.9633 8.08204 19.0197 7.91827 19.1251 7.7871C19.2697 7.53433 19.2156 7.21601 19.3722 6.96862C19.4354 6.88194 19.517 6.81037 19.6113 6.7591C19.7055 6.70783 19.8099 6.67813 19.917 6.67215C20.0241 6.66617 20.1312 6.68405 20.2306 6.72451C20.3299 6.76497 20.4191 6.82699 20.4915 6.9061C20.5681 6.9982 20.6131 7.11255 20.6196 7.23219C20.6261 7.35183 20.5939 7.47039 20.5278 7.57029ZM22.1722 10.0668C22.1186 10.0071 22.0501 9.96273 21.9737 9.93838C21.8973 9.91404 21.8158 9.91055 21.7375 9.92827C21.6675 9.95813 21.6108 10.0127 21.5784 10.0817C21.546 10.1506 21.5401 10.229 21.5618 10.3021C21.6011 10.4576 21.6855 10.598 21.8044 10.7057C21.9574 10.8735 22.1587 10.9854 22.3228 11.1411C22.0759 11.0678 21.8415 10.9575 21.6276 10.814C21.5056 10.7327 21.4066 10.6214 21.3403 10.4906C21.2739 10.3599 21.2424 10.2143 21.2488 10.0678C21.253 9.97051 21.2821 9.87594 21.3333 9.79313C21.3845 9.71032 21.4561 9.64204 21.5412 9.59485C21.6279 9.55146 21.7252 9.53378 21.8215 9.5439C21.9179 9.55403 22.0094 9.59153 22.0851 9.65199C22.2451 9.78359 22.3723 9.95071 22.4564 10.1401C22.5406 10.3294 22.5794 10.5358 22.5698 10.7427C22.4907 10.49 22.3547 10.2587 22.1722 10.0668ZM22.8949 7.67147C22.2866 7.29853 21.5578 7.17486 20.8606 7.32628C21.1898 7.14805 21.5674 7.07963 21.9382 7.13099C22.4675 7.20222 22.9471 7.47975 23.2727 7.90309C23.1416 7.83416 23.0239 7.74307 22.8949 7.67147ZM25.5069 14.4439C25.485 14.4852 25.4495 14.5178 25.4065 14.5362C25.3634 14.5546 25.3154 14.5578 25.2703 14.5451C25.2163 14.4966 25.1724 14.4379 25.1411 14.3725C25.1098 14.307 25.0917 14.236 25.0878 14.1636C25.0671 13.9558 25.0604 13.747 25.068 13.5384C25.2234 13.5464 25.3708 13.61 25.4834 13.7175C25.5612 13.8216 25.6052 13.9471 25.6094 14.077C25.6136 14.2069 25.5778 14.335 25.5069 14.4439Z" fill="#485648"/>
</svg>
