<svg width="11" height="13" viewBox="0 0 11 13" fill="none" xmlns="http://www.w3.org/2000/svg">
<path d="M6.6 3.79167V0.249167C7.10878 0.43839 7.57091 0.73196 7.95575 1.11042L9.87195 2.99867C10.2567 3.37723 10.555 3.83224 10.747 4.33333H7.15C6.8464 4.33333 6.6 4.09013 6.6 3.79167ZM10.9868 5.41667H7.15C6.2403 5.41667 5.5 4.68758 5.5 3.79167V0.013C5.41145 0.00704167 5.3229 0 5.23325 0H2.75C1.23365 0 0 1.21496 0 2.70833V7.58333H2.18075L3.1174 6.19938C3.17032 6.11997 3.24378 6.05588 3.3302 6.0137C3.41662 5.97153 3.51289 5.95279 3.6091 5.95942C3.8049 5.97133 3.97925 6.08508 4.06725 6.25788L5.2932 8.67317L5.8674 7.82492C5.9697 7.67433 6.1413 7.58388 6.325 7.58388H8.8C8.94587 7.58388 9.08576 7.64094 9.18891 7.74253C9.29205 7.84411 9.35 7.98188 9.35 8.12554C9.35 8.2692 9.29205 8.40698 9.18891 8.50856C9.08576 8.61014 8.94587 8.66721 8.8 8.66721H6.61925L5.6826 10.0512C5.63236 10.1253 5.56431 10.1861 5.48448 10.2282C5.40465 10.2702 5.31553 10.2922 5.225 10.2922C5.21345 10.2922 5.2019 10.2922 5.1909 10.2911C5.09469 10.2852 5.00173 10.2546 4.92133 10.2022C4.84093 10.1498 4.7759 10.0776 4.73275 9.99267L3.5068 7.57738L2.9326 8.42563C2.88232 8.49975 2.81426 8.56053 2.73445 8.60258C2.65463 8.64462 2.56552 8.66663 2.475 8.66667H0V10.2917C0 11.785 1.23365 13 2.75 13H8.25C9.76635 13 11 11.785 11 10.2917V5.67938C11 5.59108 10.9928 5.50388 10.9868 5.41667Z" fill="white"/>
</svg>
