<svg width="16" height="18" viewBox="0 0 16 18" fill="none" xmlns="http://www.w3.org/2000/svg">
<path fill-rule="evenodd" clip-rule="evenodd" d="M15.4588 3.38984L15.1703 4.06156C15.1656 4.07072 15.1633 4.07188 15.1539 4.07304L12.8132 4.36576L10.9743 3.40788C11.2182 3.17732 11.4856 2.96412 11.7788 2.76756C11.8088 2.74782 11.8345 2.72232 11.8546 2.69254C11.8746 2.66276 11.8885 2.6293 11.8955 2.5941C11.9025 2.5589 11.9024 2.52266 11.8952 2.48749C11.8881 2.45232 11.874 2.41893 11.8538 2.38924C11.7506 2.23256 11.6615 2.02216 11.7624 1.70908L12.025 2.32404C12.0411 2.36176 12.0654 2.39537 12.0963 2.42233C12.1272 2.4493 12.1638 2.46893 12.2033 2.47976L15.4447 3.36376C15.4494 3.3654 15.4517 3.36632 15.4541 3.3668L15.4611 3.38156C15.4612 3.38232 15.4588 3.38492 15.4588 3.38984ZM11.6944 6.99124C11.6356 7.16468 11.7643 7.35032 11.9524 7.35032H14.448C14.4586 7.35032 14.4715 7.35996 14.4644 7.37588L13.2471 10.6238C13.2166 10.7073 13.1603 10.762 13.0735 10.7899L12.1682 11.092L12.0931 10.6334L13.2072 10.0759C13.2529 10.0535 13.2914 10.0188 13.3183 9.97562C13.3453 9.93247 13.3596 9.88263 13.3596 9.83176V8.53544C13.3596 8.35496 13.1862 8.22456 13.0125 8.27252L10.456 8.98296C10.1698 9.06224 9.94001 9.17904 9.70781 9.36176L8.32401 10.4545L8.09885 10.067L8.34041 7.58996C8.34277 7.56204 8.34041 7.53392 8.33573 7.50648C8.29821 7.32892 8.21613 7.17016 8.08945 7.0334C8.42906 6.91065 8.7716 6.79616 9.11677 6.69004C9.15665 6.67808 9.18949 6.6572 9.21997 6.63072L11.685 4.3934L12.4285 4.78156L11.6944 6.99124ZM9.04405 5.41748L7.46321 6.36596C7.21225 6.51512 6.89325 6.45276 6.71969 6.22032L6.16149 5.47424L5.61033 6.48116C6.31865 6.48888 6.98945 6.53064 7.47729 6.67956C7.91517 6.51199 8.35787 6.35729 8.80481 6.21564C8.86884 5.94513 8.94873 5.67861 9.04405 5.41748ZM8.10117 11.3871C8.11057 11.3193 8.09885 11.2004 8.09177 11.1371L7.58281 10.2669C7.55233 10.2174 7.54061 10.1595 7.54529 10.1025L7.79157 7.58396C7.76577 7.49884 7.71653 7.42448 7.64145 7.35716C7.25329 7.00852 5.71817 7.02488 5.15293 7.0262C4.94193 7.02668 4.81561 6.80108 4.91369 6.6228L5.88469 4.84052C5.97929 4.66732 6.22225 4.6484 6.34205 4.80744L7.15593 5.89292C7.16297 5.90136 7.17233 5.90324 7.18173 5.89808L9.24337 4.6604C9.53185 4.48728 9.61901 4.25652 9.52953 3.97176L7.78217 5.0842C7.65553 5.16512 7.48665 5.1276 7.40689 5.00024C7.22397 4.71456 7.09965 4.5546 6.96597 4.38548C6.83465 4.21708 6.69861 4.0428 6.50861 3.74588C6.41481 3.66216 6.05125 3.48132 5.93869 3.46208C5.57985 3.49704 4.92077 4.05408 4.59709 4.4312C4.07717 5.03636 3.93077 5.43312 3.68941 6.1694C3.50177 6.7358 3.35165 7.18332 3.68473 7.65404C3.83953 7.87312 4.09985 7.96644 4.47985 7.93972L6.62357 7.71196C6.93209 7.67888 7.25669 7.91204 7.22633 8.23688L7.00585 10.4465C7.15365 10.683 7.84553 11.2956 8.10117 11.3871ZM7.57345 17.2772L7.21693 17.2178C7.19113 17.2134 7.17705 17.1979 7.17473 17.1728L6.87449 14.4908C6.73845 13.5524 6.22013 12.9704 5.37809 12.8077C5.25804 12.768 5.13763 12.7294 5.01689 12.6918C4.13265 12.4137 3.21561 12.1254 2.92241 11.2393C2.64797 10.4194 3.21089 9.45748 4.35077 8.78832C4.55777 8.66773 4.76654 8.55021 4.97701 8.4358L6.67509 8.25496L6.45461 10.4655C6.45229 10.4946 6.45461 10.5237 6.45929 10.5521C6.51557 10.8026 6.95653 11.2104 7.15121 11.3807L6.92137 11.5616C6.87792 11.596 6.84607 11.643 6.83014 11.6961C6.8142 11.7493 6.81494 11.806 6.83225 11.8587C7.13481 12.8131 7.24037 13.7006 7.14421 14.4978C7.14185 14.5224 7.14185 14.548 7.14657 14.5726L7.57345 17.2772ZM4.53145 14.5262C5.06621 14.3029 5.50013 13.9957 5.84957 13.5915C5.69241 13.4668 5.49541 13.3842 5.25853 13.3406L4.64401 13.1464C4.52205 13.5732 4.33677 13.9572 4.08581 14.3116C4.08113 14.597 4.06705 14.9493 4.05297 15.3198C4.02717 15.9806 3.99669 16.7292 4.00605 17.2414C4.00605 17.2623 4.01073 17.2977 4.04121 17.3076L4.38601 17.4192L4.36489 14.7799C4.36257 14.669 4.43057 14.5687 4.53145 14.5262ZM9.94937 4.72932C9.79925 4.99812 9.67025 5.28284 9.56005 5.584L11.169 4.12444L10.5826 3.81908C10.3199 4.12344 10.1464 4.3832 9.94937 4.72932ZM2.37361 12.526C2.50025 12.3612 2.61049 12.186 2.70665 12.003C2.68353 11.9735 2.66238 11.9424 2.64333 11.9101C2.54482 12.0365 2.43909 12.1571 2.32669 12.2713C1.69229 12.9142 1.01377 13.0533 0.656729 13.9211C1.36257 13.1734 1.78009 13.3042 2.37361 12.526ZM15.949 3.137C15.8763 2.98736 15.7497 2.88112 15.5878 2.83748L12.4754 1.98844L12.0415 0.9752C11.9566 0.77968 11.692 0.75228 11.5677 0.92312C11.1714 1.4736 11.0728 1.98796 11.2722 2.45588C10.7844 2.80912 10.3598 3.21556 10.0033 3.67244C9.94237 3.5426 9.81729 3.22984 9.55065 3.32156C9.52932 3.32887 9.50887 3.33855 9.48969 3.3504L7.71653 4.47972C7.43729 4.07104 7.23045 3.87996 6.95661 3.43412C6.84137 3.24648 6.17513 2.89864 5.91289 2.91672C5.27257 2.95964 4.44701 3.76812 4.18429 4.07584C3.60497 4.7476 3.43609 5.20472 3.18749 5.9536L3.17105 5.99628C2.97169 6.5946 2.74653 7.27264 3.23909 7.96904C3.40093 8.19796 3.61905 8.3518 3.89349 8.42992C3.31649 8.80072 2.87089 9.24896 2.60113 9.7354C2.30797 10.2662 2.23289 10.8164 2.38065 11.3331C1.67105 12.4461 0.867849 12.4005 0.286169 13.4348C0.0375691 13.8765 -0.0515909 14.3658 0.0164491 14.89C0.0487291 15.1448 0.384089 15.2136 0.518369 14.9995C0.752929 14.6258 0.992129 14.3341 1.25013 14.1077C1.82953 13.5989 2.18877 13.6658 2.80749 12.8569C2.91518 12.7167 3.01313 12.5692 3.10065 12.4155C3.40321 12.6588 3.75973 12.8297 4.12561 12.9688C4.01537 13.3722 3.83945 13.7301 3.59553 14.0576C3.56255 14.104 3.5438 14.159 3.54157 14.2159C3.53689 14.5091 3.52281 14.8925 3.50641 15.2986C3.48061 15.9668 3.45013 16.7239 3.45949 17.2516C3.46417 17.5213 3.62837 17.7472 3.87229 17.8269L4.36249 17.9857C4.64629 18.078 4.93609 17.8646 4.93241 17.5685L4.91129 14.9547C5.40617 14.7237 5.83305 14.4148 6.18721 14.0327C6.25521 14.1845 6.30449 14.3618 6.33497 14.5651L6.63049 17.233C6.66097 17.5016 6.86033 17.7115 7.12537 17.7558L7.63433 17.8408C7.92877 17.8898 8.18141 17.6362 8.13625 17.3438L7.69061 14.5248C7.78209 13.7116 7.68593 12.8211 7.40681 11.8744L7.59445 11.7257C7.95797 11.9661 8.12217 11.9476 8.18549 11.9403C8.41769 11.9134 8.58189 11.7597 8.63113 11.5186C8.67349 11.3195 8.63645 11.1843 8.63113 11.0286C8.62879 10.9941 8.6192 10.9605 8.60297 10.9299L10.0478 9.79024C10.2213 9.65232 10.3878 9.56836 10.6013 9.50904L12.8131 8.89452V9.66288L11.774 10.1819C11.6028 10.2678 11.509 10.453 11.5394 10.6426L11.652 11.3094C11.6962 11.5744 11.9645 11.7355 12.2172 11.6506L13.2469 11.3077C13.4884 11.2275 13.6691 11.053 13.7582 10.8154L14.9755 7.56716C15.114 7.19688 14.8428 6.80444 14.4478 6.80444H12.3298L12.9655 4.89644L15.2218 4.61452C15.4235 4.58944 15.5923 4.46276 15.6697 4.27652L15.9582 3.60408C16.0241 3.452 16.0217 3.28596 15.949 3.137ZM8.08241 1.8414C7.96277 2.27392 7.56641 2.59196 7.09497 2.59196C6.62589 2.59196 6.22949 2.27392 6.10989 1.8414H8.08241ZM7.09501 0.54552C7.56645 0.54552 7.96281 0.86356 8.08245 1.2958H6.10993C6.22953 0.86356 6.62589 0.54552 7.09501 0.54552ZM7.09501 3.13772C6.23189 3.13772 5.52825 2.43408 5.52825 1.56864C5.52825 0.70364 6.23189 0 7.09501 0C7.86901 0 8.51165 0.56056 8.64065 1.29584H8.99625C9.13649 1.29584 9.25089 1.41024 9.25089 1.55048V1.58672C9.25089 1.72696 9.13649 1.84136 8.99625 1.84136H8.64065C8.51165 2.57692 7.86897 3.13772 7.09501 3.13772Z" fill="#1B1C1E"/>
</svg>
