<svg width="27" height="27" viewBox="0 0 27 27" fill="none" xmlns="http://www.w3.org/2000/svg">
<circle opacity="0.16" cx="13.5" cy="13.5" r="13.5" fill="#757575"/>
<path d="M9 14.0109C9 13.4597 9.459 12.9984 10.0125 12.9984C10.5637 12.9984 11.025 13.4597 11.025 14.0109C11.025 14.5622 10.5638 15.0234 10.0125 15.0234C9.459 15.0234 9 14.5622 9 14.0109ZM12.4875 14.0109C12.4875 13.4597 12.9465 12.9984 13.5 12.9984C14.0512 12.9984 14.5125 13.4597 14.5125 14.0109C14.5125 14.5622 14.0512 15.0234 13.5 15.0234C12.9465 15.0234 12.4875 14.5622 12.4875 14.0109ZM15.975 14.0109C15.975 13.4597 16.434 12.9984 16.9875 12.9984C17.5387 12.9984 18 13.4597 18 14.0109C18 14.5622 17.5387 15.0234 16.9875 15.0234C16.434 15.0234 15.975 14.5622 15.975 14.0109Z" fill="#757575"/>
</svg>
