<svg width="21" height="25" viewBox="0 0 21 25" fill="none" xmlns="http://www.w3.org/2000/svg">
<path d="M0.33732 19.1401C0.37941 18.8905 0.445553 18.6452 0.511372 18.4009C0.748096 17.5984 1.03828 16.8132 1.34904 16.0369C1.53449 15.5714 1.70728 15.1005 1.92152 14.6474C2.15899 14.1266 2.4975 13.6581 2.91741 13.2692C3.34538 12.8741 3.83645 12.5534 4.37028 12.3205C4.47413 12.2859 4.56872 12.2281 4.64687 12.1515C4.85098 11.9147 5.02092 11.6515 5.20036 11.3961C4.99371 11.0878 4.8013 10.7695 4.60351 10.4552C4.56459 10.4027 4.60446 10.3318 4.67123 10.3606C5.03959 10.4303 5.40512 10.5147 5.77093 10.5961C5.83834 10.5062 5.90796 10.4182 5.96904 10.3242C5.79878 10.0717 5.61587 9.82803 5.43802 9.58025C5.40895 9.54552 5.38701 9.50541 5.37346 9.46221C5.39941 9.42201 5.45763 9.43784 5.49719 9.43119C5.84815 9.43341 6.1991 9.43024 6.55005 9.42898C6.71704 9.22625 6.87074 9.01293 7.01019 8.79036C6.9476 8.66326 6.8662 8.54634 6.76873 8.44352C6.65739 8.31609 6.56128 8.17612 6.48233 8.02644C6.83677 7.98688 7.195 8.02201 7.5507 8.0027C7.71937 7.76219 7.89596 7.52706 8.06115 7.28371C7.70503 6.82073 7.44713 6.28996 7.30323 5.72388C7.15254 5.10545 7.14821 4.46039 7.29057 3.83999C7.44055 3.19155 7.71951 2.57992 8.11084 2.04155C8.44795 1.55374 8.864 1.12551 9.34188 0.77445C9.56912 0.595695 9.83264 0.468687 10.114 0.402292C10.4464 0.346276 10.7879 0.412006 11.0758 0.587422C12.2632 1.28823 13.1699 2.38029 13.6403 3.67638C13.8363 3.64748 14.0341 3.63278 14.2321 3.63239C14.535 3.62898 14.8373 3.65848 15.1337 3.72037C15.6397 2.46686 16.5203 1.40013 17.6553 0.665891C17.8285 0.552565 18.021 0.472009 18.2233 0.42823C18.4971 0.400952 18.7708 0.481434 18.9863 0.652601C19.3414 0.918884 19.6563 1.23488 19.9214 1.59088C20.3344 2.12739 20.644 2.73592 20.8347 3.38552C21.0684 4.17274 21.054 5.0128 20.7936 5.79157C20.4867 6.63658 19.9446 7.37622 19.2312 7.92325C19.3987 8.31421 19.528 8.72042 19.6173 9.13624C19.6326 9.28161 19.6755 9.42274 19.7436 9.55207C19.9682 9.89828 20.1838 10.2505 20.4075 10.5976C20.4552 10.656 20.4868 10.7258 20.4993 10.8002C20.2249 10.7736 19.9568 10.7043 19.6844 10.6625C19.6241 11.226 19.4511 11.7716 19.1758 12.267C19.3391 12.5442 19.5081 12.8185 19.6847 13.0875C19.8052 13.2678 19.8857 13.4718 19.9209 13.6857C19.956 13.8997 19.945 14.1187 19.8885 14.328C19.7792 14.6839 19.5527 14.9922 19.2458 15.2028C19.2023 15.2397 19.1738 15.2912 19.1657 15.3477C19.0814 15.6187 18.9316 15.8648 18.7296 16.0643C18.5276 16.2637 18.2796 16.4103 18.0075 16.4911C17.6509 16.5834 17.282 16.6189 16.9144 16.5961C16.9316 17.3491 16.8225 18.0995 16.5916 18.8164C16.9532 19.8137 17.1344 20.8674 17.1268 21.9282C17.1277 22.5608 17.1245 23.193 17.1271 23.8256C17.1333 23.9304 17.1284 24.0355 17.1125 24.1393C17.0816 24.2344 17.0152 24.314 16.9272 24.3615C16.8392 24.409 16.7362 24.4207 16.6397 24.3943C16.5622 24.3753 16.4933 24.3308 16.444 24.268C16.3947 24.2052 16.3679 24.1276 16.3679 24.0478C16.3682 23.3516 16.3682 22.6554 16.3679 21.9592C16.3829 21.2394 16.2964 20.5212 16.1109 19.8256C15.8399 20.2102 15.6845 20.6644 15.6631 21.1345C15.6672 21.3219 15.6365 21.5085 15.5726 21.6848C15.4765 21.9121 15.3431 22.1219 15.178 22.3054C15.1223 22.3763 14.996 22.4139 14.9388 22.3247C14.8824 22.2002 14.8455 22.0677 14.8296 21.932C14.7593 21.6366 14.7693 21.3279 14.8584 21.0376C15.3322 20.0496 15.7262 19.0252 16.0366 17.9743C16.1256 17.5128 16.1638 17.0429 16.1505 16.573C16.0108 16.5769 15.8721 16.5483 15.7454 16.4895C14.921 16.0509 14.084 15.6363 13.2552 15.2062C13.1262 15.1452 12.9829 15.1207 12.8409 15.1353C11.9197 15.1026 11.0322 14.7804 10.3045 14.2144C10.039 14.4309 9.75863 14.6296 9.48616 14.8375C9.46426 14.8544 9.43854 14.8656 9.41128 14.8702C9.38401 14.8748 9.35604 14.8726 9.32982 14.8638C9.33679 14.7379 9.34871 14.6125 9.36559 14.4879C9.45831 13.7651 9.56084 13.0426 9.61844 12.3157C9.37666 12.3546 9.1564 12.4761 8.91526 12.515C8.80482 12.5214 8.76241 12.3957 8.79311 12.3065C8.91083 11.6334 9.05039 10.9641 9.18868 10.2951C9.20862 10.2267 9.21875 10.128 9.29976 10.1055C9.3852 10.0818 9.43046 10.1748 9.46496 10.2356C9.7213 10.728 9.97446 11.2223 10.2381 11.7112C10.3244 11.8303 10.3755 11.9712 10.3855 12.1179C10.3599 12.434 10.3232 12.7492 10.2916 13.0651C10.2922 13.1242 10.2653 13.1999 10.3197 13.2442C11.014 13.9461 11.9482 14.3594 12.9346 14.4011C13.0507 14.3916 13.1676 14.4025 13.2799 14.4334C13.468 14.5116 13.6491 14.6056 13.8214 14.7144C13.9225 14.7937 14.038 14.8527 14.1615 14.8882C14.1111 14.6491 14.0464 14.4132 13.9679 14.1818C14.055 14.2423 14.137 14.3099 14.2128 14.3841C14.4758 14.6182 14.7454 14.8448 15.0081 15.0793C15.0891 15.1689 15.2013 15.2241 15.3217 15.2337C15.8306 15.2413 16.3397 15.2265 16.8483 15.2417C16.758 15.1595 16.6723 15.0725 16.5916 14.9809C16.3653 14.7006 16.2543 14.3446 16.2812 13.9853C16.3201 13.5858 16.5161 13.2181 16.8261 12.9632C16.3606 12.2229 15.9062 11.4758 15.4802 10.7119C15.2316 10.2363 15.0978 9.70915 15.0894 9.1726C15.088 9.15259 15.0929 9.13265 15.1035 9.11558C15.114 9.09851 15.1296 9.08517 15.1481 9.07742C15.1666 9.06967 15.1871 9.06791 15.2066 9.07238C15.2262 9.07685 15.2438 9.08733 15.2571 9.10234C15.5103 9.28904 15.7307 9.51653 15.9093 9.77549C16.0495 9.9891 16.1625 10.2192 16.2945 10.4379C16.7397 11.2306 17.2075 12.0103 17.6549 12.8018C17.9805 12.7424 18.3139 12.7407 18.6401 12.7968C18.5176 12.5895 18.4103 12.3736 18.2989 12.1604C18.0394 11.6442 17.7711 11.1309 17.5594 10.5929C17.4864 10.4295 17.4547 10.2507 17.4672 10.0722C17.4796 9.89364 17.5357 9.72091 17.6306 9.56918C17.7183 9.43939 17.8463 9.34207 17.9948 9.29225C18.1434 9.24242 18.3042 9.24286 18.4524 9.29349C18.5911 9.34821 18.7087 9.44584 18.788 9.57212C18.8673 9.69839 18.9042 9.84671 18.8932 9.99542C18.8861 10.1561 18.8272 10.3102 18.7252 10.4347C18.6233 10.5591 18.4839 10.6473 18.3277 10.6859C18.4552 10.959 18.6027 11.2223 18.728 11.4967C18.9006 11.0486 18.9835 10.571 18.972 10.091C18.9399 9.318 18.7678 8.55725 18.4641 7.84571C18.4499 7.8107 18.4428 7.77317 18.4434 7.73538C18.444 7.69759 18.4522 7.6603 18.4676 7.62577C18.5274 7.49729 18.6613 7.43273 18.766 7.34665C19.1374 7.05373 19.4595 6.70331 19.7202 6.30866C20.0834 5.76148 20.2725 5.11722 20.2629 4.46054C20.2275 3.85043 20.0548 3.25619 19.7575 2.72223C19.6208 2.46212 19.4604 2.21518 19.2784 1.98456C19.5978 2.82584 19.7697 3.7159 19.7866 4.6156C19.7875 5.1432 19.6183 5.65702 19.304 6.08081C18.9791 6.43473 18.5884 6.72195 18.1537 6.92638C18.1208 6.94597 18.0817 6.95226 18.0443 6.94397C18.007 6.93568 17.9742 6.91342 17.9527 6.88176C17.5847 6.48967 17.2211 6.09283 16.8511 5.70232C16.7357 5.59011 16.6284 5.46976 16.5302 5.34219C16.5663 5.29725 16.5967 5.22985 16.665 5.23522C16.9078 5.21656 17.1521 5.23934 17.3948 5.22415C17.4562 5.22193 17.4717 5.14345 17.4723 5.09471C17.4335 4.85057 17.3502 4.61565 17.2264 4.40166C17.1346 4.19681 17.0913 3.97353 17.0999 3.74921C17.1084 3.52488 17.1686 3.30556 17.2758 3.10829C17.3928 2.90419 17.5425 2.72063 17.7188 2.56493C17.8794 2.39077 18.0025 2.18542 18.0803 1.96166C18.1581 1.73791 18.189 1.50053 18.1711 1.26431C18.0585 1.30792 17.9531 1.36819 17.8584 1.44311C16.9166 2.10645 16.1934 3.03498 15.7809 4.11055C15.7324 4.23175 15.7065 4.36119 15.6489 4.47859C15.5916 4.57511 15.4606 4.54125 15.3707 4.52385C14.7057 4.37009 14.0163 4.35287 13.3444 4.47321C13.2792 4.48352 13.2124 4.46782 13.1586 4.42948C13.1047 4.39114 13.0681 4.33322 13.0565 4.26815C12.8027 3.41688 12.3412 2.64213 11.7134 2.01369C11.447 1.74286 11.1469 1.50749 10.8204 1.31336C10.8358 1.6375 10.9203 1.9546 11.0681 2.24344C11.2302 2.57224 11.5561 2.77731 11.727 3.09946C11.8438 3.29977 11.9122 3.52458 11.9268 3.756C11.9413 3.98741 11.9016 4.21902 11.8109 4.43239C11.662 4.67483 11.5584 4.94223 11.5049 5.22164C11.4976 5.2675 11.5194 5.33873 11.5767 5.33525C11.7976 5.33556 12.0182 5.3093 12.2394 5.31025C12.2686 5.30858 12.2974 5.31747 12.3206 5.33531C12.3438 5.35315 12.3598 5.37874 12.3656 5.4074C12.3198 5.48581 12.2609 5.55573 12.1913 5.61405C11.7656 6.06374 11.3311 6.5052 10.8982 6.94761C10.8327 7.01563 10.7675 7.11913 10.6583 7.10426C10.4906 7.06492 10.3269 7.01004 10.1694 6.94034C9.59673 6.7166 9.11659 6.30571 8.80704 5.7745C8.54511 5.34139 8.44751 4.82859 8.53204 4.32954C8.74377 3.33812 9.10802 2.38553 9.6118 1.50578C9.16079 1.88602 8.77797 2.34044 8.47983 2.84946C8.15616 3.375 7.96462 3.97112 7.92159 4.58682C7.89469 5.09898 7.99208 5.61004 8.20545 6.0764C8.49011 6.67013 8.87315 7.21143 9.33838 7.67737C9.45072 7.78813 9.41845 7.95775 9.41275 8.09921C9.40302 8.25534 9.36719 8.40873 9.30673 8.55301C9.25863 8.622 9.16306 8.57959 9.11844 8.52801C8.92129 8.32516 8.73206 8.11472 8.5352 7.91123C7.44753 9.45081 6.37695 11.0021 5.29687 12.5467C5.20035 12.6774 5.12028 12.8436 4.95477 12.8977C4.1846 13.1746 3.50667 13.6603 2.99684 14.3005C2.76647 14.6063 2.58174 14.9439 2.44842 15.3028C2.08227 16.2218 1.71233 17.1404 1.40123 18.0803C1.26546 18.4499 1.16708 18.8322 1.10756 19.2215C1.09922 19.3263 1.05119 19.4241 0.97328 19.4948C0.895367 19.5654 0.79343 19.6038 0.688251 19.6019C0.633644 19.5976 0.580557 19.5819 0.532473 19.5556C0.484388 19.5294 0.442396 19.4933 0.409254 19.4497C0.376112 19.4061 0.352568 19.356 0.34017 19.3026C0.327772 19.2493 0.326801 19.1939 0.33732 19.1401Z" fill="#485648"/>
<path d="M13.4744 9.35298C13.6327 9.34435 13.7907 9.37534 13.9339 9.44314C14.0772 9.51094 14.2013 9.61341 14.295 9.74127C14.4576 9.96442 14.6022 10.2001 14.7276 10.446C14.7411 10.4632 14.7498 10.4836 14.7528 10.5052C14.7557 10.5268 14.7529 10.5488 14.7446 10.5689C14.7362 10.5891 14.7226 10.6066 14.7053 10.6198C14.6879 10.6329 14.6673 10.6412 14.6456 10.6438C14.5104 10.6146 14.3733 10.5954 14.2352 10.5865C14.0039 10.6166 13.7969 10.7391 13.5662 10.7739C13.4177 10.8029 13.2641 10.7925 13.1209 10.7437C12.9776 10.6949 12.8497 10.6094 12.7497 10.4957C12.6165 10.3448 12.5874 10.128 12.4383 9.98846C12.3232 9.88397 12.192 9.7987 12.0497 9.73593C12.0032 9.70883 11.9657 9.66851 11.9421 9.62009C12.0538 9.51786 12.2048 9.59572 12.3358 9.59509C12.7343 9.61374 13.0805 9.365 13.4744 9.35298Z" fill="#485648"/>
<path d="M3.36901 15.4631C3.62605 15.0572 3.92948 14.6826 4.27315 14.3469C4.41006 14.2068 4.558 14.0779 4.71556 13.9615C4.77157 13.9197 4.8368 13.892 4.90575 13.8807C4.97471 13.8694 5.04536 13.8749 5.11177 13.8966C5.20527 13.9338 5.28158 14.0045 5.32585 14.0949C5.37013 14.1853 5.3792 14.2889 5.3513 14.3856C5.26911 14.5729 5.1604 14.7475 5.02851 14.9039C4.70576 15.3378 4.32535 15.7257 3.8978 16.0568C3.85504 16.0887 3.80621 16.1116 3.7543 16.1241C3.70239 16.1365 3.64848 16.1383 3.59587 16.1292C3.54327 16.1201 3.49307 16.1004 3.44835 16.0712C3.40363 16.0421 3.36532 16.0041 3.33577 15.9596C3.29169 15.8828 3.27133 15.7947 3.27724 15.7063C3.28316 15.618 3.31509 15.5333 3.36901 15.4631Z" fill="#485648"/>
<path d="M7.2314 17.0731C7.18149 17.1518 7.10577 17.2107 7.01722 17.2397C6.92867 17.2688 6.83278 17.2661 6.74595 17.2323C6.6736 17.2006 6.61168 17.1491 6.56733 17.0838C6.52299 17.0184 6.49802 16.9419 6.49532 16.863C6.47943 16.3149 6.53313 15.7671 6.65513 15.2326C6.69873 14.9997 6.76759 14.7723 6.86051 14.5544C6.9017 14.4632 6.9738 14.3895 7.06408 14.3463C7.15436 14.3031 7.257 14.2932 7.35387 14.3183C7.44849 14.3503 7.5299 14.4126 7.58546 14.4955C7.64103 14.5785 7.66764 14.6775 7.66115 14.7772C7.65573 15.366 7.57847 15.952 7.43109 16.5221C7.38974 16.714 7.32257 16.8993 7.2314 17.0731Z" fill="#485648"/>
<path d="M12.65 16.8272C12.6719 16.7674 12.7766 16.7436 12.7731 16.8297C12.7902 17.4205 12.7649 18.012 12.7782 18.6031C12.7722 18.7183 12.8038 18.8579 12.7089 18.9462C12.5247 19.125 12.2744 19.2218 12.1054 19.419C11.8684 19.7129 11.6475 20.0195 11.4437 20.3373C11.4322 20.3518 11.4179 20.3639 11.4017 20.3729C11.3855 20.3818 11.3677 20.3875 11.3494 20.3896C11.325 19.931 11.3459 19.4715 11.3364 19.0126C11.3268 18.8768 11.366 18.7421 11.4468 18.6326C11.8519 18.0332 12.253 17.4314 12.65 16.8272Z" fill="#485648"/>
<path d="M2.03643 19.0734C2.18738 18.6654 2.38208 18.2749 2.61713 17.9088C2.66472 17.8226 2.73967 17.7547 2.83015 17.7158C2.92063 17.6768 3.0215 17.6692 3.11682 17.6939C3.19231 17.7224 3.2575 17.7728 3.30389 17.8388C3.35029 17.9048 3.37575 17.9832 3.37695 18.0639C3.36126 18.3034 3.30852 18.539 3.22062 18.7623C3.07278 19.1987 2.87427 19.6162 2.62916 20.0063C2.58819 20.0934 2.52416 20.1677 2.444 20.221C2.36383 20.2744 2.2706 20.3047 2.17441 20.3088C2.11993 20.3024 2.06735 20.2848 2.01988 20.2573C1.97242 20.2298 1.93107 20.1929 1.89836 20.1488C1.86566 20.1048 1.84228 20.0545 1.82968 20.0011C1.81707 19.9477 1.81549 19.8923 1.82503 19.8383C1.8704 19.577 1.9412 19.3209 2.03643 19.0734Z" fill="#485648"/>
<path d="M5.2654 18.8079C5.29766 18.7759 5.33755 18.6918 5.38914 18.7424C5.42727 18.8302 5.4553 18.922 5.47268 19.0161C5.57047 19.4291 5.68534 19.8386 5.77711 20.2529C5.78876 20.3617 5.77574 20.4717 5.73904 20.5748C5.70233 20.6779 5.64288 20.7715 5.56509 20.8484C5.3193 21.224 5.12725 21.6321 4.99451 22.0608C4.95046 22.2051 4.8926 22.3447 4.82172 22.4779C4.77582 22.3272 4.73758 22.1742 4.70716 22.0196C4.59577 21.4763 4.50178 20.9291 4.43881 20.3782C4.40391 20.204 4.43206 20.0231 4.51824 19.8677C4.76921 19.5158 5.01699 19.1614 5.2654 18.8079Z" fill="#485648"/>
<path d="M6.31445 23.4689C6.5524 23.0373 6.845 22.6383 7.18503 22.2815C7.24341 22.2142 7.32122 22.1666 7.40775 22.1453C7.49429 22.124 7.58529 22.13 7.66826 22.1626C7.73204 22.1924 7.78666 22.2388 7.82645 22.2969C7.86624 22.355 7.88975 22.4227 7.89453 22.4929C7.89262 22.6568 7.84636 22.8171 7.76067 22.9569C7.5642 23.3367 7.32954 23.6955 7.06034 24.0278C6.94751 24.177 6.81607 24.3112 6.6692 24.4271C6.59461 24.4774 6.50482 24.5 6.41532 24.4911C6.32582 24.4822 6.24224 24.4424 6.17901 24.3784C6.13609 24.3356 6.10364 24.2834 6.08421 24.226C6.06478 24.1686 6.05888 24.1075 6.06697 24.0474C6.11819 23.8426 6.20173 23.6473 6.31445 23.4689Z" fill="#485648"/>
</svg>
