<svg width="46" height="41" viewBox="0 0 46 41" fill="none" xmlns="http://www.w3.org/2000/svg">
<path fill-rule="evenodd" clip-rule="evenodd" d="M44.3574 41H1.64256C1.20693 41 0.789136 40.8272 0.481096 40.5197C0.173055 40.2121 0 39.795 0 39.3601C0 38.9251 0.173055 38.508 0.481096 38.2005C0.789136 37.8929 1.20693 37.7201 1.64256 37.7201H3.56765C3.38055 37.1935 3.28446 36.639 3.28349 36.0802V17.954C3.28349 16.4781 3.94708 15.0808 5.09359 14.1477L19.8767 2.07124C20.7576 1.35157 21.8609 0.958383 22.9992 0.958383C24.1375 0.958383 25.2407 1.35157 26.1217 2.07124L40.9048 14.1477C41.4706 14.6083 41.9268 15.1887 42.2401 15.8471C42.5535 16.5054 42.7162 17.2251 42.7165 17.954V36.0802C42.7165 36.6443 42.618 37.1986 42.4324 37.7201H44.3574C44.7931 37.7201 45.2109 37.8929 45.5189 38.2005C45.8269 38.508 46 38.9251 46 39.3601C46 39.795 45.8269 40.2121 45.5189 40.5197C45.2109 40.8272 44.7931 41 44.3574 41ZM29.5744 37.7201V31.1604C29.5744 28.443 27.3635 26.2406 24.6434 26.2406H21.3566C18.6365 26.2406 16.4273 28.443 16.4273 31.1604V37.7201H19.7141V31.1604C19.7141 30.7255 19.8871 30.3083 20.1951 30.0008C20.5032 29.6932 20.921 29.5205 21.3566 29.5205H24.6434C25.079 29.5205 25.4968 29.6932 25.8049 30.0008C26.1129 30.3083 26.2859 30.7255 26.2859 31.1604V37.7201H29.5744ZM6.64581 8.63917C6.63485 6.84284 6.61733 5.04656 6.59325 3.25035V3.17819C6.61879 2.33266 6.97217 1.53007 7.57889 0.939615C8.18561 0.349161 8.99827 0.0169858 9.84553 0.0131193C10.8524 -1.69531e-07 12.1353 0 13.1422 0C14.1835 0 15.1099 0.482141 15.7128 1.23487L6.64581 8.63917Z" fill="#515F51"/>
</svg>
