<svg width="13" height="13" viewBox="0 0 13 13" fill="none" xmlns="http://www.w3.org/2000/svg">
<path fill-rule="evenodd" clip-rule="evenodd" d="M0 1.11512C0.00247619 0.750827 0.289615 0.45602 0.6448 0.453125H12.3552C12.7114 0.453125 13 0.749786 13 1.11512V11.7911C12.9975 12.1554 12.7104 12.4502 12.3552 12.4531H0.6448C0.2886 12.4528 0 12.1565 0 11.7911V1.11512ZM11.7001 1.78648H1.30007V11.1198L7.33987 4.9238C7.59371 4.66356 8.00515 4.66356 8.25899 4.9238L11.7001 8.4598V1.78648ZM2.59993 4.4531C2.59993 5.18948 3.18195 5.78643 3.89993 5.78643C4.6179 5.78643 5.19993 5.18948 5.19993 4.4531C5.19993 3.71672 4.6179 3.11977 3.89993 3.11977C3.18195 3.11977 2.59993 3.71672 2.59993 4.4531Z" fill="white"/>
</svg>
