<svg width="155" height="36" viewBox="0 0 155 36" fill="none" xmlns="http://www.w3.org/2000/svg">
<path d="M22.3992 13.7641L20.9965 6.09242C20.9619 5.90192 20.8233 5.74606 20.6328 5.69411V5.67679C20.4597 5.64216 20.2692 5.67679 20.1306 5.79802L19.8709 6.05778C19.7669 6.14437 19.6457 6.19632 19.5245 6.19632H2.8303C2.70908 6.19632 2.57054 6.14437 2.48395 6.05778L2.22418 5.79802C2.08564 5.67679 1.89515 5.64216 1.72197 5.67679V5.69411C1.53148 5.74606 1.39294 5.90192 1.3583 6.09242L0.00752605 13.4351C-0.0271092 13.6256 0.0594789 13.8334 0.232655 13.9373C0.405832 14.0585 0.630961 14.0585 0.804137 13.9546L2.46663 12.829C2.55322 12.777 2.65712 12.7424 2.74371 12.7424H7.40216C7.67924 12.7424 7.90437 12.9675 7.90437 13.2619V21.7995C7.90437 28.8478 10.9176 32.9348 16.1476 35.1168C16.823 35.3939 17.481 35.6017 18.0525 35.7575C18.5374 35.8788 18.9011 35.29 18.5547 34.909C17.0134 33.1772 14.4331 29.5405 14.4331 24.6569V13.2619C14.4331 12.9675 14.6756 12.7424 14.9526 12.7424H19.5938C19.6977 12.7424 19.8016 12.777 19.8882 12.829L21.5507 13.9546C21.7238 14.0585 21.949 14.0585 22.1221 13.9373L22.3992 13.7641Z" fill="#1B1C1E"/>
<path d="M147.276 28.6565V11.1484C147.276 6.16088 144.61 2.48954 143.068 0.792413C142.757 0.44606 143.068 -0.0907864 143.519 0.0131194C144.125 0.168978 144.835 0.37679 145.562 0.688507C150.792 2.87053 153.805 6.95749 153.805 14.0058V28.414C153.805 28.5699 153.874 28.7084 154.013 28.8124L154.792 29.3319C154.965 29.4531 155.035 29.6782 154.983 29.8687C154.914 30.0592 154.74 30.1978 154.533 30.1978H146.532C146.324 30.1978 146.151 30.0592 146.082 29.8687C146.03 29.6782 146.099 29.4531 146.272 29.3319L147.276 28.6565Z" fill="#1B1C1E"/>
<path d="M31.1278 18.3567V8.01809C31.1278 7.86223 31.1971 7.70637 31.3183 7.61979L32.1322 7.08294C32.3054 6.96172 32.3747 6.77122 32.3227 6.58073C32.2707 6.37292 32.0803 6.23438 31.8724 6.23438H23.889C23.6812 6.23438 23.508 6.3556 23.4561 6.56341H23.4387C23.3868 6.7539 23.4561 6.97903 23.6292 7.08294L24.4259 7.61979C24.5471 7.70637 24.6337 7.86223 24.6337 8.01809V18.2182C24.6337 18.2528 24.6337 21.1795 25.9152 24.1754C27.3352 27.4831 30.1926 30.202 35.1108 30.202C37.7258 30.202 39.7 29.44 41.1893 28.3144C44.0467 26.1323 45.6053 21.8029 45.6053 18.2182V8.01809C45.6053 7.86223 45.6919 7.70637 45.8131 7.61979L46.6098 7.08294C46.7829 6.97903 46.8522 6.7539 46.7829 6.56341C46.731 6.3556 46.5405 6.23438 46.35 6.23438H38.3492C38.1414 6.23438 37.9682 6.37292 37.9163 6.58073C37.8643 6.77122 37.9336 6.96172 38.1068 7.08294L38.9034 7.61979C39.0419 7.70637 39.1112 7.86223 39.1112 8.01809V18.2875C39.1112 18.5645 39.0419 19.9673 38.4878 21.2488C37.9336 22.5303 36.9638 23.6559 35.1108 23.6559C32.1668 23.6559 31.3356 20.9024 31.1278 18.3567Z" fill="#1B1C1E"/>
<path d="M54.1596 13.8497C54.1596 13.3129 54.7138 12.7414 55.2506 12.7414H63.7363C63.8171 12.7414 63.8921 12.7587 63.9614 12.7933L66.3859 14.0229C66.559 14.1095 66.7668 14.0922 66.9227 13.9709L66.94 13.9536C67.0959 13.8497 67.1652 13.6419 67.1305 13.4687L65.7624 6.66289C65.7451 6.55898 65.6932 6.47239 65.6066 6.40312L65.52 6.31654C65.4334 6.24727 65.3122 6.19531 65.1909 6.19531H55.2506C55.0428 6.19531 54.4713 6.26458 53.744 6.43776C52.6357 6.71484 51.1117 7.23437 49.8648 8.39465C48.6006 9.53762 47.6309 11.2867 47.6309 13.7978C47.6309 15.5295 48.0811 16.8976 48.7392 17.9367C49.7609 19.4953 51.2156 20.4131 52.4971 20.898C53.3976 21.2097 54.3328 21.4868 55.2506 21.4868H61.7794C62.3335 21.4868 62.8531 21.8678 62.8531 22.5605C62.8531 23.2878 62.4201 23.5649 61.814 23.6515C61.7909 23.6515 61.7678 23.6515 61.7447 23.6515H51.8564C51.7755 23.6515 51.7005 23.6342 51.6312 23.5995L49.1721 22.3873C48.999 22.3007 48.7911 22.3354 48.6353 22.4566C48.4967 22.5605 48.4275 22.751 48.4621 22.9415L49.7956 29.73C49.8129 29.8339 49.8648 29.9205 49.9514 29.9897L50.038 30.0763C50.1246 30.1456 50.2458 30.1976 50.367 30.1976H62.5067C62.7492 30.1976 63.1994 30.1283 63.8921 29.9551C66.8361 29.1585 69.3818 26.8206 69.3818 22.5605C69.3818 20.898 69.0008 19.5299 68.412 18.4908C67.5461 16.9322 66.178 16.049 65.0004 15.5642C64.2038 15.2178 63.338 14.9407 62.5067 14.9407H55.2506C54.7138 14.9407 54.1596 14.3692 54.1596 13.8497Z" fill="#1B1C1E"/>
<path d="M95.3585 29.5395L93.6267 28.3792C93.6036 28.3561 93.5805 28.333 93.5574 28.3099L84.3098 17.8674C84.1886 17.7462 84.2059 17.5384 84.3271 17.3998L92.7608 8.11757C92.7839 8.09448 92.807 8.07139 92.8301 8.0483L94.406 7.00924C94.5445 6.92265 94.5965 6.74948 94.5445 6.61094L94.4926 6.43776C94.4579 6.29922 94.3194 6.19531 94.1635 6.19531H85.9896C85.8511 6.19531 85.7125 6.29922 85.6606 6.43776L85.6086 6.61094C85.5567 6.74948 85.626 6.92265 85.7472 7.00924H85.7645C85.9377 7.13047 85.955 7.37291 85.8164 7.54609L79.4782 14.5597C79.2531 14.7849 78.8548 14.6463 78.8548 14.3173V7.90976C78.8548 7.80585 78.924 7.68463 79.0106 7.63268L79.9284 7.00924C80.067 6.92265 80.1189 6.74948 80.067 6.61094L80.015 6.43776C79.9631 6.29922 79.8419 6.19531 79.686 6.19531H71.5121C71.3562 6.19531 71.2177 6.29922 71.183 6.43776L71.1311 6.61094C71.0791 6.74948 71.1311 6.92265 71.2696 7.00924L72.2048 7.63268C72.3087 7.68463 72.3606 7.80585 72.3606 7.92708V28.4658C72.3606 28.587 72.3087 28.7082 72.2048 28.7602L71.2696 29.3836C71.1311 29.4702 71.0791 29.6434 71.1311 29.7819L71.183 29.9551C71.2177 30.0937 71.3562 30.1976 71.5121 30.1976H79.686C79.8419 30.1976 79.9631 30.0937 80.015 29.9551L80.067 29.7819C80.1189 29.6434 80.067 29.4702 79.9284 29.3836L79.0106 28.7602C78.924 28.7082 78.8548 28.587 78.8548 28.4831V23.5649C78.8548 23.4783 78.8894 23.3917 78.9587 23.3225L79.8938 22.318C80.0324 22.1622 80.2748 22.1622 80.4133 22.318L86.5092 28.8641C86.6477 29.02 86.6304 29.2624 86.4572 29.3836C86.336 29.4702 86.284 29.6261 86.336 29.7819L86.3879 29.9551C86.4399 30.0937 86.5784 30.1976 86.7343 30.1976H94.8909C95.0468 30.1976 95.1853 30.0937 95.2372 29.9551L95.3585 29.5395Z" fill="#1B1C1E"/>
<path fill-rule="evenodd" clip-rule="evenodd" d="M119.308 28.1412L121.04 29.3361C121.196 29.4573 121.283 29.6825 121.213 29.873C121.144 30.0634 120.971 30.202 120.763 30.202H112.762C112.572 30.202 112.381 30.0634 112.329 29.873C112.26 29.6825 112.329 29.4573 112.503 29.3534L112.78 29.1629C112.953 29.0417 113.022 28.7993 112.953 28.5914L112.814 28.297C112.745 28.1239 112.572 28.0026 112.381 28.0026H105.247C105.056 28.0026 104.883 28.1239 104.814 28.297L104.675 28.5914C104.606 28.7993 104.675 29.0417 104.848 29.1629L105.125 29.3534C105.298 29.4573 105.368 29.6825 105.298 29.873C105.247 30.0634 105.056 30.202 104.866 30.202H96.8648C96.657 30.202 96.4838 30.0634 96.4145 29.873C96.3453 29.6825 96.4319 29.4573 96.605 29.3534L98.2502 28.2451C98.3195 28.1989 98.3714 28.1354 98.4061 28.0546L108.381 6.51146C108.45 6.33828 108.623 6.23438 108.797 6.23438H108.831C109.004 6.23438 109.178 6.33828 109.247 6.51146L119.308 28.1412ZM107.74 21.5258C107.602 21.8376 107.844 22.1666 108.173 22.1666H109.472C109.818 22.1666 110.044 21.8376 109.905 21.5258L108.831 18.8936L107.74 21.5258Z" fill="#1B1C1E"/>
<path fill-rule="evenodd" clip-rule="evenodd" d="M139.449 22.9242L142.964 28.6563C142.999 28.7025 143.045 28.7486 143.103 28.7948L143.917 29.349C144.09 29.4529 144.159 29.6607 144.107 29.8685H144.09C144.038 30.0763 143.848 30.1976 143.657 30.1976H135.674C135.448 30.1976 135.275 30.059 135.223 29.8512C135.171 29.6607 135.241 29.4702 135.414 29.349L135.5 29.297C135.708 29.1585 135.76 28.8814 135.622 28.6736L133.076 24.5866C133.007 24.4481 132.851 24.3615 132.695 24.3615H130.357C130.097 24.3615 129.89 24.5693 129.89 24.8291V28.4138C129.89 28.5697 129.959 28.7082 130.097 28.7948L130.911 29.349C131.067 29.4702 131.136 29.6607 131.102 29.8512C131.032 30.059 130.859 30.1976 130.651 30.1976H122.668C122.46 30.1976 122.287 30.059 122.218 29.8685L122.2 29.8339C122.149 29.6261 122.218 29.4183 122.391 29.3144L123.188 28.7602C123.326 28.6909 123.395 28.5351 123.395 28.3792V7.97903C123.395 7.82317 123.326 7.66731 123.188 7.58072L122.391 7.04388C122.235 6.93997 122.149 6.71484 122.218 6.52435C122.27 6.31654 122.46 6.19531 122.651 6.19531H135.31C135.518 6.19531 136.107 6.26458 136.834 6.47239C137.561 6.68021 138.514 6.99192 139.414 7.61536C141.215 8.84491 142.912 11.1828 142.912 15.2524C142.912 19.1489 141.562 21.4868 139.449 22.9242ZM133.89 17.8328C134.409 17.8328 134.998 17.521 135.379 17.244C135.933 16.8283 136.418 16.2569 136.418 15.2871C136.418 13.9709 135.448 13.157 134.513 12.8453C134.236 12.7414 134.028 12.7414 133.89 12.7414H130.357C130.097 12.7414 129.89 12.9492 129.89 13.209V17.8328H133.89Z" fill="#1B1C1E"/>
</svg>
