<svg width="24" height="24" viewBox="0 0 24 24" fill="none" xmlns="http://www.w3.org/2000/svg">
<g clip-path="url(#clip0_1431_46294)">
<path d="M20.3775 18.2709C20.5447 18.2621 20.7123 18.2692 20.8782 18.2922C21.8293 18.3832 22.7735 18.5358 23.7048 18.7491C22.7021 18.3749 21.666 18.0975 20.6105 17.9205C20.7585 17.6717 20.8808 17.4084 20.9756 17.1349C21.3216 17.0957 21.671 17.1164 22.0186 17.1039C21.6942 17.029 21.3657 16.9702 21.0366 16.9188C21.1075 16.661 21.1567 16.3976 21.1838 16.1316C21.8656 16.2408 22.5216 16.4742 23.1193 16.8202C22.9555 16.672 22.7917 16.5236 22.6161 16.3899C22.2212 16.0676 21.754 15.8458 21.2546 15.7436C21.348 15.4866 21.4638 15.2383 21.6006 15.0015C21.9034 14.4531 22.0918 13.8488 22.1542 13.2254C22.2184 12.5334 22.2071 11.8376 22.2087 11.1434C22.2115 10.8172 22.1865 10.4913 22.1338 10.1693C22.0584 9.67454 21.8971 9.19639 21.837 8.69915C21.8475 8.44285 21.951 8.19916 22.1282 8.0137C22.389 7.69661 22.5942 7.33772 22.7354 6.95219C22.9319 6.35667 23.0094 5.72828 22.9633 5.10285C23.3259 4.71372 23.59 4.24338 23.7334 3.73122C23.8769 3.21905 23.8955 2.67997 23.7878 2.15912C23.6617 1.56938 23.3353 1.0415 22.8641 0.665176C22.3664 0.285586 21.7527 0.089772 21.1271 0.110926C20.6226 0.129536 20.1261 0.242545 19.6632 0.444098C19.0718 0.713573 18.5289 1.0789 18.0566 1.52533C17.8361 1.72229 17.6348 1.94023 17.3974 2.11778C17.2806 2.04168 17.1701 1.95714 17.0567 1.87665C16.4804 1.46072 15.8549 1.11745 15.1946 0.854596C14.1096 0.442364 12.9553 0.243228 11.7949 0.268096C11.4599 0.286883 11.1239 0.305359 10.791 0.349508C9.89924 0.462115 9.03146 0.71789 8.22117 1.10697C7.64604 1.38803 7.10046 1.72591 6.59258 2.11556C6.38096 1.95913 6.18279 1.78527 6.00015 1.5958C5.39442 0.993333 4.65704 0.539798 3.84612 0.270949C3.2971 0.0976164 2.7129 0.0674369 2.14895 0.183274C1.50782 0.323065 0.94693 0.708383 0.586436 1.25669C0.223946 1.83281 0.0725515 2.51685 0.158073 3.19214C0.239286 3.90873 0.545461 4.58115 1.03264 5.11289C1.02485 5.42222 1.03572 5.73173 1.06521 6.03975C1.11447 6.62682 1.30949 7.19231 1.63258 7.68494C1.75971 7.87876 1.91753 8.05098 2.03903 8.24856C2.13589 8.40057 2.17624 8.58178 2.15302 8.76053C2.1167 9.04641 2.03811 9.32478 1.97642 9.60597C1.88007 9.99648 1.82642 10.3963 1.81641 10.7984C1.81266 11.2997 1.81453 11.801 1.81485 12.3023C1.80819 12.6384 1.82084 12.9745 1.85272 13.309C1.92522 13.9172 2.11674 14.5052 2.41635 15.0394C2.54641 15.2654 2.65431 15.5034 2.73856 15.7502C2.02708 15.9306 1.38137 16.3091 0.876371 16.8418C1.47124 16.4868 2.12707 16.2459 2.81025 16.1313C2.84094 16.3967 2.8879 16.6601 2.95087 16.9197C2.62264 16.9636 2.29711 17.0257 1.97579 17.1057C2.31898 17.1098 2.66217 17.1092 3.00505 17.117C3.1099 17.3961 3.23496 17.6672 3.37924 17.928C2.35163 18.1184 1.34195 18.3952 0.360982 18.7556C1.42419 18.5017 2.50645 18.3355 3.59686 18.2587C3.92877 18.7223 4.37214 19.0948 4.88602 19.3418C5.00031 19.3991 5.12494 19.4336 5.2361 19.4971C4.37811 19.9064 3.59577 20.4582 2.92239 21.1292C3.29344 20.9244 3.65198 20.697 4.03337 20.5113C4.6305 20.1972 5.27375 19.9799 5.93908 19.8676C6.05433 19.8372 6.17552 19.8374 6.29064 19.8683C6.40576 19.8991 6.51082 19.9596 6.5954 20.0435C6.71783 20.2107 6.81991 20.3927 6.94955 20.5549C7.07042 20.7164 7.23356 20.8408 7.35317 21.0036C7.60819 21.3811 7.82242 21.7846 7.99227 22.2073C8.23566 22.7454 8.63989 23.1948 9.14928 23.4936C9.71731 23.8082 10.3679 23.9417 11.014 23.8762C11.2983 23.8609 11.576 23.7933 11.8582 23.7601C12.0458 23.7487 12.2341 23.7663 12.4165 23.812C12.9841 23.9294 13.571 23.9161 14.1327 23.7732C14.4702 23.6751 14.7887 23.5207 15.0746 23.3164C15.492 23.0008 15.8191 22.5809 16.0228 22.0989C16.1876 21.6941 16.4023 21.3114 16.6619 20.9597C16.8474 20.7762 17.0177 20.5779 17.171 20.3667C17.2533 20.2159 17.3563 20.0775 17.477 19.9552C17.6226 19.8637 17.7968 19.8291 17.9664 19.8578C18.2605 19.8906 18.5507 19.9527 18.8325 20.0432C19.6156 20.3118 20.3652 20.6694 21.0667 21.1091C20.3932 20.4366 19.6096 19.8843 18.7498 19.4761C19.1023 19.3583 19.4313 19.1794 19.7218 18.9476C19.9626 18.7447 20.1823 18.518 20.3775 18.2709ZM5.6106 18.5098C5.35924 18.4553 5.12553 18.3387 4.9308 18.1707C5.23536 18.141 5.54138 18.129 5.84733 18.1347C5.92663 18.1401 6.00207 18.171 6.06245 18.2227C6.19622 18.3067 6.34362 18.3666 6.49801 18.3999C6.50427 18.4447 6.51022 18.4898 6.51586 18.5355C6.21417 18.5633 5.91023 18.5547 5.6106 18.5098ZM14.8871 22.0335C14.6762 22.3595 14.3664 22.6093 14.0031 22.7462C13.5906 22.8873 13.1479 22.9161 12.7205 22.8294C12.509 22.7765 12.2943 22.7376 12.0777 22.713C11.7004 22.7428 11.3251 22.7937 10.9535 22.8655C10.4226 22.9311 9.88726 22.7839 9.4646 22.4559C9.11115 22.1407 8.85572 21.7306 8.72875 21.2744C9.60566 21.2515 10.4674 21.0401 11.2554 20.6548C11.4328 20.5696 11.6301 20.5347 11.8259 20.5536C12.0448 20.5455 12.264 20.5489 12.4825 20.564C12.629 20.6033 12.7688 20.6644 12.8972 20.7453C13.6355 21.066 14.4271 21.2461 15.2315 21.2763C15.1517 21.5432 15.0358 21.7979 14.8871 22.0335ZM17.9654 18.5518C17.7939 18.5468 17.6223 18.5443 17.4516 18.5283C17.4532 18.4879 17.455 18.4475 17.4569 18.4077C17.6155 18.3649 17.7676 18.3008 17.9091 18.2174C17.9673 18.1658 18.0418 18.1364 18.1195 18.1344C18.4336 18.141 18.7486 18.1353 19.0614 18.1723C18.7564 18.4314 18.3654 18.5669 17.9654 18.5518ZM19.408 17.7138C19.1077 17.701 18.8078 17.6794 18.5072 17.6772C18.7871 17.2978 18.9134 16.8266 18.8607 16.358C18.5259 16.7456 18.2172 17.1552 17.8803 17.5413C17.8064 17.6435 17.702 17.7197 17.5822 17.7589C17.581 17.5045 17.567 17.2504 17.5402 16.9974C17.6862 16.9233 17.828 16.8413 17.9651 16.7519C17.8142 16.7513 17.6633 16.7572 17.5124 16.7619C17.5035 16.6217 17.5052 16.481 17.5174 16.3411C17.5997 16.206 17.7003 16.0828 17.8161 15.975C17.9293 15.8555 18.0257 15.7211 18.1026 15.5755C18.1165 15.5252 18.1174 15.4722 18.1049 15.4215C18.0925 15.3708 18.0673 15.3241 18.0317 15.286C17.9961 15.2478 17.9513 15.2195 17.9016 15.2036C17.8519 15.1877 17.7989 15.1849 17.7478 15.1953C17.6173 15.2502 17.4953 15.3235 17.3855 15.413C17.12 15.5996 16.8479 15.7771 16.5686 15.9428C16.5667 16.2688 16.5708 16.5944 16.5717 16.9204C16.1728 17.0006 15.7841 17.1252 15.4128 17.2917C15.1857 17.3805 14.9748 17.506 14.7884 17.6631C15.4258 17.6929 16.0622 17.5845 16.6537 17.3453C16.6609 17.6268 16.6609 17.9089 16.6572 18.1904C16.0432 18.2303 15.4338 18.3231 14.8357 18.4676C14.603 18.5155 14.3775 18.5933 14.1647 18.699C14.3158 18.7616 14.4753 18.8014 14.6381 18.817C15.0346 18.8638 15.4345 18.8757 15.833 18.8524C16.0588 18.8324 16.2833 18.8007 16.5081 18.7716C16.4294 19.0436 16.32 19.3058 16.1822 19.5532C15.5454 19.4038 14.8841 19.3911 14.242 19.5159C14.1724 19.5333 14.1098 19.5718 14.0629 19.6261C14.1702 19.752 14.318 19.8365 14.4809 19.8651C14.9153 19.9579 15.3571 20.0122 15.8011 20.0273C15.606 20.2148 15.3538 20.3316 15.0846 20.3592C14.4646 20.3948 13.8454 20.276 13.2826 20.0135C12.9914 19.905 12.7311 19.7271 12.5242 19.4952C12.4334 19.3714 12.3731 19.228 12.3482 19.0765C12.3233 18.925 12.3345 18.7698 12.3808 18.6235C12.4313 18.512 12.5136 18.418 12.6175 18.3533C13.2096 17.8297 13.7836 17.2861 14.3594 16.7441C14.5263 16.6097 14.6541 16.433 14.7296 16.2324C14.7639 16.1263 14.7683 16.0127 14.7422 15.9043C14.7161 15.7958 14.6606 15.6967 14.5818 15.6178C14.5652 15.6016 14.5457 15.5888 14.5241 15.5803C14.5026 15.5718 14.4796 15.5676 14.4565 15.5681C14.4334 15.5686 14.4106 15.5738 14.3894 15.5832C14.3683 15.5926 14.3493 15.6062 14.3335 15.6231C14.2051 15.7637 14.1941 15.9847 14.0347 16.1012C13.9094 16.1532 13.7801 16.1948 13.648 16.2255C13.2503 16.3688 12.8395 16.4728 12.4215 16.5362C12.2454 16.5595 12.0677 16.5688 11.8901 16.564C11.7216 16.5459 11.5516 16.5415 11.3844 16.5136C11.0113 16.4405 10.6436 16.3422 10.2838 16.2193C10.1648 16.1927 10.0495 16.1517 9.94056 16.0972C9.78087 15.971 9.76334 15.7414 9.61585 15.6055C9.59571 15.5901 9.57263 15.5789 9.54803 15.5727C9.52342 15.5665 9.49781 15.5653 9.47275 15.5693C9.44769 15.5733 9.42371 15.5824 9.40228 15.596C9.38085 15.6096 9.36242 15.6275 9.34812 15.6484C9.24833 15.779 9.19862 15.941 9.20798 16.105C9.21735 16.2691 9.28517 16.4244 9.39917 16.5427C9.69883 16.8696 10.0342 17.1618 10.3558 17.4665C10.7196 17.8025 11.0816 18.1409 11.4615 18.4588C11.522 18.5169 11.5697 18.587 11.6017 18.6645C11.6337 18.7421 11.6491 18.8255 11.6471 18.9094C11.6419 19.0665 11.6016 19.2205 11.5293 19.3601C11.457 19.4997 11.3544 19.6214 11.2291 19.7163C10.9398 19.9193 10.6191 20.0733 10.2797 20.1719C9.81823 20.3378 9.32592 20.4 8.83772 20.3541C8.5804 20.324 8.34067 20.2084 8.15697 20.0257C8.65848 20.0219 9.15739 19.9532 9.64122 19.8212C9.74808 19.7871 9.84095 19.7192 9.90582 19.6277C9.74589 19.5094 9.55075 19.4484 9.35189 19.4545C8.82861 19.4072 8.30118 19.4393 7.78749 19.5497C7.65888 19.2997 7.55394 19.0381 7.47405 18.7685C8.15292 18.8906 8.84795 18.8928 9.52755 18.7747C9.61572 18.7579 9.70241 18.7342 9.78682 18.7037C9.67397 18.634 9.55133 18.5817 9.42297 18.5483C8.74266 18.3507 8.04227 18.2302 7.33501 18.1892C7.33126 17.9064 7.33408 17.6234 7.33501 17.3406C7.9205 17.5755 8.54897 17.6842 9.17935 17.6597C8.98688 17.4985 8.76999 17.3691 8.53681 17.2761C8.17713 17.1171 7.80141 16.9972 7.41612 16.9185C7.41925 16.5963 7.41799 16.2744 7.41799 15.9525C7.11707 15.7687 6.82305 15.5736 6.53841 15.3654C6.43153 15.269 6.29969 15.2047 6.15796 15.1797C6.10665 15.1902 6.05853 15.2126 6.01744 15.2451C5.97636 15.2776 5.94344 15.3192 5.92135 15.3667C5.89925 15.4142 5.88858 15.4662 5.89019 15.5186C5.8918 15.5709 5.90565 15.6221 5.93062 15.6682C6.06822 15.8607 6.21821 16.0441 6.37965 16.2171C6.51179 16.368 6.44948 16.5813 6.45981 16.7629C6.30938 16.7506 6.15825 16.7495 6.00765 16.7594C6.14637 16.8408 6.28665 16.9197 6.43163 16.989C6.41034 17.2382 6.40282 17.4878 6.39436 17.7376C6.35372 17.7363 6.31382 17.7264 6.27732 17.7085C6.24082 17.6906 6.20856 17.6651 6.18269 17.6337C5.80098 17.2404 5.50069 16.7779 5.13433 16.3711C5.09042 16.8335 5.21094 17.2965 5.4747 17.6788C5.14936 17.6797 4.82433 17.7095 4.49868 17.7082C4.23628 17.3927 4.04404 17.025 3.93473 16.6295C3.80478 16.2127 3.80259 15.7709 3.69801 15.3494C3.52453 14.8252 3.17696 14.3784 3.00975 13.8511C2.84864 13.2975 2.78621 12.72 2.82531 12.1448C2.825 11.7071 2.82312 11.269 2.82625 10.8312C2.84938 10.3972 2.91941 9.96699 3.03511 9.54804C3.19683 9.1073 3.22696 8.62907 3.12184 8.17152C2.96528 7.59599 2.45582 7.21302 2.25479 6.65942C2.18332 6.45078 2.13921 6.23374 2.12359 6.01375C2.34757 6.22893 2.629 6.37476 2.93396 6.43365C3.28616 6.48097 3.64444 6.4505 3.98359 6.3444C3.65669 6.21093 3.35787 6.01706 3.10275 5.77294C2.90215 5.51348 2.77332 5.20582 2.72919 4.88084C2.90944 5.02349 3.11989 5.12309 3.34449 5.17205C3.68767 5.21104 4.0332 5.22548 4.37844 5.21526C3.93319 5.03981 3.55905 4.72109 3.31504 4.3094C3.21383 4.1262 3.14258 3.92799 3.104 3.72228C3.31573 3.94585 3.58461 4.1072 3.8815 4.18884C4.41448 4.29826 4.96491 4.29014 5.49443 4.16505C5.45574 3.49978 5.19875 2.86584 4.76327 2.36142C4.17901 1.74558 3.39906 1.35167 2.55665 1.24698C2.76146 1.21103 2.97 1.20125 3.17727 1.21785C3.82477 1.30799 4.4311 1.58778 4.91984 2.02197C5.30413 2.41562 5.73238 2.7638 6.19615 3.05969C6.41217 3.19069 6.67065 3.23257 6.91698 3.17648C7.14085 3.10446 7.26643 2.88998 7.45368 2.76252C7.99387 2.36002 8.58646 2.03313 9.21506 1.7909C10.6719 1.25319 12.2534 1.14889 13.7683 1.49059C14.7865 1.71583 15.7429 2.16214 16.5695 2.79791C16.7621 2.94758 16.9186 3.18337 17.1826 3.20435C17.5042 3.1988 17.8147 3.08619 18.065 2.88433C18.3531 2.66364 18.6263 2.4242 18.8829 2.16758C19.3127 1.75476 19.8357 1.45165 20.4076 1.28393C20.5906 1.23901 20.778 1.21412 20.9665 1.20971C21.1153 1.21366 21.2637 1.22716 21.4108 1.25011C20.7627 1.33001 20.1469 1.57867 19.625 1.97123C19.2154 2.28387 18.8987 2.70229 18.7091 3.18148C18.5921 3.49912 18.5179 3.83093 18.4884 4.16815C19.0346 4.29727 19.603 4.3008 20.1508 4.17848C20.428 4.09487 20.6786 3.94018 20.8776 3.72977C20.805 4.06499 20.6498 4.37676 20.4262 4.63678C20.2025 4.8968 19.9175 5.09683 19.5969 5.2187C20.0199 5.24167 20.4441 5.20712 20.8578 5.11599C21.0062 5.05984 21.1468 4.98492 21.2762 4.89305C21.2331 5.2322 21.0896 5.55072 20.8641 5.8077C20.6189 6.03877 20.3304 6.21905 20.0152 6.33815C20.3635 6.45475 20.7346 6.48653 21.0977 6.43084C21.3929 6.37323 21.664 6.22799 21.8755 6.01406C21.8607 6.24078 21.8151 6.46443 21.7399 6.67883C21.5427 7.21116 21.0642 7.58722 20.9001 8.13552C20.8007 8.48522 20.7972 8.85523 20.8901 9.20673C21.0005 9.6273 21.0879 10.0536 21.1519 10.4837C21.1712 10.692 21.1792 10.9013 21.1757 11.1106C21.1766 11.6441 21.1785 12.1777 21.1753 12.711C21.1779 13.2457 21.0583 13.7739 20.8256 14.2553C20.6153 14.6207 20.4321 15.001 20.2776 15.3932C20.1952 15.7261 20.1909 16.0727 20.1107 16.4062C20.0109 16.8704 19.8097 17.3068 19.5214 17.6841C19.4988 17.7267 19.4462 17.7107 19.408 17.7138Z" fill="#485648"/>
<path d="M11.4448 2.22883C11.6436 2.30124 11.8553 2.33172 12.0665 2.31836C12.2777 2.30499 12.4838 2.24807 12.6719 2.15118C12.7211 2.13182 12.7632 2.09791 12.7926 2.05398C12.822 2.01006 12.8372 1.95821 12.8363 1.90537C12.819 1.8532 12.7901 1.80558 12.7519 1.76602C12.7137 1.72647 12.6671 1.69597 12.6156 1.67679C12.3432 1.55528 12.042 1.51295 11.7466 1.55466C11.5767 1.57791 11.4127 1.63361 11.2638 1.71875C11.2139 1.74438 11.1743 1.78641 11.1516 1.83777C11.129 1.88914 11.1247 1.94672 11.1395 2.00087C11.1912 2.12644 11.3289 2.17873 11.4448 2.22883Z" fill="#485648"/>
<path d="M10.0586 3.16429C10.3727 3.23313 10.7004 3.20282 10.9965 3.07756C11.1627 3.0177 11.3012 2.89893 11.3857 2.74376C11.4327 2.64481 11.3519 2.53991 11.2658 2.49576C11.0527 2.40502 10.8167 2.38259 10.5903 2.43157C10.3551 2.46606 10.1359 2.57085 9.96126 2.73218C9.92344 2.76467 9.89455 2.8063 9.87734 2.8531C9.86014 2.8999 9.85518 2.95033 9.86294 2.99959C9.87735 3.04233 9.90322 3.0803 9.93773 3.10935C9.97224 3.13839 10.0141 3.1574 10.0586 3.16429Z" fill="#485648"/>
<path d="M12.5684 2.72125C12.6095 2.8217 12.6805 2.90701 12.7719 2.96549C13.0655 3.16078 13.4214 3.2393 13.7699 3.18561C13.8895 3.16839 14.0411 3.14366 14.094 3.0184C14.1032 2.95629 14.0946 2.89284 14.0693 2.83538C14.044 2.77792 14.0029 2.7288 13.9509 2.69369C13.6932 2.49859 13.3765 2.39739 13.0534 2.40686C13.0519 2.42784 13.0491 2.46917 13.0475 2.48984C13.0462 2.46948 13.0437 2.42846 13.0428 2.4078C12.9152 2.41281 12.7902 2.44584 12.6768 2.50455C12.6389 2.52554 12.6084 2.55746 12.589 2.59613C12.5697 2.6348 12.5625 2.67842 12.5684 2.72125Z" fill="#485648"/>
<path d="M7.57987 3.44508C7.7812 3.49529 7.99375 3.47358 8.18077 3.3837C8.44811 3.26292 8.6668 3.05537 8.80139 2.79471C8.8165 2.76436 8.82515 2.73121 8.82681 2.69735C8.82847 2.66349 8.8231 2.62966 8.81104 2.59798C8.79898 2.56629 8.78049 2.53745 8.75673 2.51327C8.73298 2.48909 8.70447 2.47009 8.67301 2.45747C8.57148 2.43206 8.46539 2.43088 8.36332 2.45402C8.1281 2.52708 7.90971 2.64607 7.72078 2.8041C7.59047 2.88122 7.49609 3.0069 7.45838 3.15356C7.44177 3.26127 7.45994 3.40531 7.57987 3.44508Z" fill="#485648"/>
<path d="M15.4389 3.14805C15.5506 3.26305 15.6862 3.35223 15.836 3.40935C15.9858 3.46647 16.1463 3.49014 16.3063 3.47872C16.3462 3.47801 16.3852 3.46656 16.4192 3.44556C16.4532 3.42457 16.4809 3.39481 16.4995 3.35941C16.5217 3.29425 16.5268 3.22444 16.5142 3.15674C16.5016 3.08905 16.4717 3.02576 16.4274 2.973C16.2966 2.84077 16.1496 2.72557 15.99 2.63012C15.7956 2.49055 15.5554 2.43011 15.318 2.46104C15.27 2.47693 15.2285 2.50821 15.2 2.55004C15.1716 2.59187 15.1577 2.64192 15.1605 2.69244C15.1953 2.87292 15.2942 3.03474 15.4389 3.14805Z" fill="#485648"/>
<path d="M12.6202 3.63504C12.6426 3.60495 12.6549 3.5686 12.6555 3.53111C12.6561 3.49363 12.6448 3.45692 12.6234 3.42617C12.5217 3.33737 12.3889 3.29255 12.2542 3.30155C12.0338 3.3006 11.8124 3.28808 11.5929 3.30843C11.4958 3.32284 11.3787 3.35227 11.3395 3.45435C11.3283 3.51357 11.3342 3.57478 11.3568 3.63069C11.3793 3.6866 11.4175 3.73485 11.4667 3.76967C11.5618 3.84294 11.6715 3.89504 11.7884 3.92247C11.9054 3.9499 12.0268 3.95204 12.1446 3.92874C12.2406 3.91785 12.3331 3.88587 12.4153 3.8351C12.4975 3.78433 12.5675 3.71601 12.6202 3.63504Z" fill="#485648"/>
<path d="M8.30837 4.26785C8.29319 4.30075 8.28469 4.33633 8.28338 4.37254C8.28207 4.40875 8.28797 4.44486 8.30073 4.47877C8.31349 4.51269 8.33286 4.54373 8.35771 4.57009C8.38257 4.59645 8.41242 4.61761 8.44552 4.63235C8.59563 4.68754 8.75843 4.69851 8.91459 4.66397C9.22424 4.61184 9.5267 4.52356 9.81578 4.40094C9.96406 4.34777 10.0898 4.24573 10.1724 4.11161C10.1958 4.05245 10.1998 3.9874 10.1838 3.92584C10.1678 3.86427 10.1327 3.80937 10.0835 3.76905C9.93804 3.65975 9.75652 3.60972 9.57561 3.62908C9.25102 3.66015 8.93816 3.76651 8.6619 3.9397C8.51618 4.01458 8.39387 4.1281 8.30837 4.26785Z" fill="#485648"/>
<path d="M13.791 4.00018C13.808 4.08137 13.8449 4.15707 13.8984 4.22051C13.9518 4.28396 14.0201 4.33316 14.0973 4.36372C14.3731 4.49074 14.6636 4.58319 14.9621 4.63897C15.153 4.69613 15.3574 4.68909 15.5439 4.61893C15.605 4.59088 15.6532 4.54084 15.679 4.47878C15.7047 4.41673 15.7062 4.34724 15.6829 4.28419C15.5821 4.11007 15.4281 3.9728 15.2436 3.89247C14.9405 3.71478 14.5949 3.62238 14.2435 3.62506C14.0406 3.64446 13.7988 3.77128 13.791 4.00018Z" fill="#485648"/>
<path d="M6.39178 5.44955C6.46957 5.46344 6.54943 5.46054 6.62601 5.44105C6.70259 5.42155 6.77412 5.38591 6.8358 5.33651C6.9819 5.23513 7.11321 5.11394 7.22596 4.97641C7.35343 4.84529 7.4418 4.68122 7.48116 4.50264C7.48217 4.42324 7.45461 4.34611 7.4035 4.28533C7.34592 4.23907 7.27771 4.20791 7.20504 4.19468C7.13237 4.18145 7.05755 4.18656 6.98735 4.20955C6.79035 4.27264 6.61435 4.38841 6.47841 4.54433C6.34247 4.70025 6.25177 4.89038 6.21611 5.09415C6.20098 5.16452 6.2101 5.23794 6.24199 5.30247C6.27389 5.367 6.32668 5.41884 6.39178 5.44955Z" fill="#485648"/>
<path d="M16.5046 4.5309C16.5657 4.74285 16.6854 4.93323 16.85 5.08013C16.9781 5.22632 17.1352 5.34435 17.3113 5.42676C17.3741 5.4575 17.4451 5.46742 17.5139 5.45509C17.5828 5.44276 17.6459 5.40882 17.6942 5.35819C17.7276 5.30043 17.7481 5.2362 17.7546 5.16981C17.761 5.10343 17.7531 5.03644 17.7315 4.97335C17.6493 4.70161 17.4711 4.46902 17.2301 4.31891C17.0999 4.22446 16.9407 4.1785 16.7802 4.18896C16.7392 4.1923 16.6994 4.20393 16.6631 4.22315C16.6268 4.24237 16.5948 4.26878 16.569 4.30077C16.5432 4.33275 16.5242 4.36965 16.5131 4.40922C16.5021 4.44878 16.4992 4.49018 16.5046 4.5309Z" fill="#485648"/>
<path d="M11.6035 4.96751C11.6274 4.9094 11.6307 4.84484 11.6126 4.78465C11.5946 4.72445 11.5565 4.67228 11.5046 4.63684C11.4424 4.6027 11.374 4.58117 11.3035 4.57348C11.2329 4.5658 11.1616 4.57211 11.0935 4.59206C10.9799 4.61993 10.8734 4.67138 10.781 4.74307C10.6886 4.81477 10.6123 4.9051 10.5571 5.00821C10.5423 5.03749 10.5342 5.06967 10.5333 5.10246C10.5324 5.13524 10.5388 5.16781 10.552 5.19784C10.5652 5.22786 10.5849 5.25459 10.6096 5.2761C10.6344 5.29762 10.6636 5.31339 10.6952 5.32228C10.9018 5.35956 11.115 5.32903 11.3029 5.23523C11.4344 5.18889 11.5424 5.09273 11.6035 4.96751Z" fill="#485648"/>
<path d="M12.9181 5.32092C12.9968 5.3469 13.0804 5.35451 13.1625 5.34317C13.2447 5.33183 13.3231 5.30183 13.3918 5.25548C13.4234 5.22264 13.4435 5.1805 13.4492 5.13531C13.4549 5.09013 13.4459 5.04431 13.4235 5.00466C13.3415 4.85212 13.2107 4.73149 13.0521 4.6621C12.9729 4.61691 12.8849 4.5892 12.7942 4.58082C12.7034 4.57245 12.6118 4.58361 12.5257 4.61356C12.4919 4.62961 12.4617 4.65233 12.4369 4.68036C12.4121 4.70839 12.3932 4.74114 12.3814 4.77665C12.3696 4.81216 12.3651 4.8497 12.3681 4.887C12.3712 4.9243 12.3818 4.96059 12.3992 4.9937C12.4577 5.08173 12.5342 5.15639 12.6236 5.21279C12.7131 5.26918 12.8134 5.30603 12.9181 5.32092Z" fill="#485648"/>
<path d="M12.3426 5.9701C12.3993 5.71051 12.1478 5.38141 11.8701 5.49007C11.7656 5.53672 11.6833 5.62226 11.6408 5.72855C11.5983 5.83483 11.5989 5.95349 11.6425 6.05934C11.6831 6.12038 11.74 6.16885 11.8068 6.1993C11.8735 6.22975 11.9474 6.24097 12.0202 6.2317C12.0929 6.22242 12.1617 6.19302 12.2186 6.1468C12.2756 6.10059 12.3185 6.03939 12.3426 5.9701Z" fill="#485648"/>
<path d="M8.78433 5.82618C8.79877 5.77263 8.79454 5.71576 8.77234 5.66493C8.75015 5.61411 8.71131 5.57236 8.66222 5.54655C8.5279 5.48965 8.37723 5.48474 8.23949 5.53277C7.89542 5.65783 7.58154 5.85393 7.31826 6.10831C7.18669 6.21497 7.08568 6.35455 7.02549 6.51287C7.00913 6.56832 7.01322 6.62781 7.03701 6.6805C7.0608 6.7332 7.10271 6.7756 7.15512 6.80001C7.31219 6.84805 7.48172 6.83381 7.62857 6.76026C7.97427 6.60542 8.2915 6.39362 8.56703 6.13369C8.66204 6.04917 8.73639 5.94396 8.78433 5.82618Z" fill="#485648"/>
<path d="M16.3696 6.76435C16.5085 6.83411 16.6692 6.84637 16.8171 6.79848C16.8703 6.77608 16.9139 6.73547 16.94 6.68391C16.9661 6.63234 16.973 6.57317 16.9595 6.51697C16.8993 6.36022 16.7991 6.22194 16.669 6.11586C16.4386 5.89594 16.1733 5.71584 15.8839 5.58294C15.7179 5.49665 15.5252 5.47684 15.345 5.52751C15.3104 5.53926 15.2787 5.55849 15.2523 5.58384C15.226 5.6092 15.2055 5.64005 15.1924 5.67422C15.1792 5.70838 15.1738 5.74501 15.1764 5.78152C15.1791 5.81802 15.1897 5.85349 15.2076 5.88542C15.3406 6.08417 15.5115 6.25474 15.7105 6.38737C15.9152 6.53751 16.1364 6.66398 16.3696 6.76435Z" fill="#485648"/>
<path d="M10.5513 5.98598C10.5967 5.8886 10.6355 5.74644 10.5406 5.66536C10.4827 5.63164 10.4183 5.6107 10.3516 5.60395C10.285 5.5972 10.2177 5.60479 10.1542 5.62622C9.90979 5.6948 9.69648 5.84551 9.55018 6.05297C9.51253 6.10322 9.48642 6.16114 9.4737 6.22262C9.46098 6.28411 9.46197 6.34763 9.47659 6.40869C9.49307 6.45374 9.52279 6.49276 9.56186 6.52059C9.60093 6.54843 9.64751 6.56378 9.69547 6.56463C9.86071 6.55977 10.0205 6.50436 10.1533 6.40587C10.3186 6.3009 10.4553 6.15665 10.5513 5.98598Z" fill="#485648"/>
<path d="M14.3572 6.53907C14.4095 6.51612 14.4521 6.4756 14.4777 6.42453C14.5032 6.37346 14.5101 6.31506 14.4972 6.25945C14.4414 6.05654 14.3091 5.8832 14.128 5.77597C14.0408 5.70747 13.9399 5.65836 13.8322 5.6319C13.7245 5.60544 13.6124 5.60225 13.5033 5.62254C13.4738 5.63423 13.4471 5.65222 13.4252 5.67527C13.4034 5.69831 13.3868 5.72585 13.3766 5.75596C13.3665 5.78607 13.3631 5.81803 13.3666 5.84961C13.37 5.88119 13.3804 5.91163 13.3968 5.9388C13.5198 6.1845 13.7225 6.38122 13.9717 6.4968C14.0299 6.52915 14.094 6.54955 14.1602 6.5568C14.2264 6.56406 14.2934 6.55803 14.3572 6.53907Z" fill="#485648"/>
<path d="M5.81221 7.41576C5.87266 7.41514 5.93225 7.40134 5.98681 7.37532C6.04138 7.34931 6.08962 7.31171 6.12816 7.26514C6.36699 7.04889 6.53496 6.76557 6.61007 6.45226C6.62414 6.39295 6.62473 6.33124 6.61177 6.27168C6.59882 6.21212 6.57266 6.15623 6.53523 6.10812C6.49882 6.0777 6.45487 6.05768 6.40802 6.05018C6.36116 6.04269 6.31316 6.04799 6.26907 6.06554C6.07505 6.1457 5.9095 6.28214 5.79374 6.45726C5.71221 6.56526 5.65439 6.68925 5.62407 6.82113C5.59374 6.953 5.59159 7.08979 5.61776 7.22256C5.6267 7.2707 5.6501 7.31498 5.68484 7.3495C5.71958 7.38401 5.76401 7.40712 5.81221 7.41576Z" fill="#485648"/>
<path d="M17.541 6.05935C17.4814 6.09412 17.4347 6.14728 17.4079 6.21086C17.3811 6.27443 17.3756 6.34499 17.3923 6.41194C17.4612 6.75993 17.6466 7.07404 17.918 7.30248C17.9624 7.35547 18.0245 7.3905 18.0928 7.40105C18.1611 7.41159 18.2308 7.39693 18.2891 7.35978C18.3402 7.29206 18.3753 7.21362 18.3918 7.13036C18.4082 7.04711 18.4055 6.96121 18.384 6.87913C18.32 6.57095 18.1363 6.30076 17.8733 6.12793C17.8269 6.0917 17.7728 6.06666 17.7152 6.05477C17.6575 6.04287 17.5979 6.04444 17.541 6.05935Z" fill="#485648"/>
<path d="M10.1413 7.34692C10.3187 7.35384 10.4928 7.29721 10.6322 7.18722C10.7098 7.14421 10.7719 7.07798 10.8099 6.99783C10.8479 6.91768 10.8598 6.82764 10.8439 6.74038C10.8253 6.70478 10.7997 6.67325 10.7687 6.64762C10.7377 6.622 10.702 6.6028 10.6635 6.59114C10.625 6.57948 10.5846 6.5756 10.5446 6.57972C10.5046 6.58384 10.4659 6.59588 10.4306 6.61513C10.3293 6.65796 10.2393 6.72381 10.1679 6.80746C10.0965 6.89111 10.0455 6.99026 10.0191 7.09704C10.0086 7.12129 10.0034 7.14754 10.0039 7.17398C10.0045 7.20043 10.0108 7.22644 10.0224 7.2502C10.0341 7.27397 10.0507 7.29492 10.0712 7.31162C10.0917 7.32832 10.1156 7.34037 10.1413 7.34692Z" fill="#485648"/>
<path d="M13.5745 6.62817C13.5247 6.59972 13.4692 6.58291 13.412 6.57901C13.3549 6.5751 13.2976 6.5842 13.2444 6.60562C13.2142 6.62491 13.1882 6.65008 13.168 6.67963C13.1477 6.70917 13.1336 6.7425 13.1264 6.77761C13.1193 6.81273 13.1193 6.84892 13.1265 6.88404C13.1336 6.91915 13.1477 6.95247 13.168 6.982C13.2765 7.14882 13.4411 7.27133 13.6321 7.32738C13.6797 7.34801 13.732 7.35572 13.7835 7.34973C13.8351 7.34374 13.8842 7.32426 13.9258 7.29325C13.952 7.25979 13.9678 7.2194 13.9713 7.17706C13.9748 7.13472 13.9659 7.09227 13.9455 7.05496C13.8778 6.87237 13.7459 6.72068 13.5745 6.62817Z" fill="#485648"/>
<path d="M4.35957 8.46501C4.43575 8.49744 4.52093 8.50193 4.6001 8.4777C4.67927 8.45347 4.74734 8.40207 4.79232 8.33255C5.08251 7.96106 5.2557 7.51168 5.28988 7.04152C5.30961 6.8336 5.0995 6.60909 4.88908 6.7143C4.74942 6.7853 4.63304 6.89483 4.55371 7.02994C4.35221 7.34356 4.23259 7.70272 4.20583 8.07454C4.19488 8.14739 4.20333 8.22184 4.23032 8.2904C4.25731 8.35895 4.30189 8.41917 4.35957 8.46501Z" fill="#485648"/>
<path d="M19.3186 8.43753C19.3729 8.47831 19.4399 8.49876 19.5077 8.49533C19.5755 8.4919 19.64 8.4648 19.69 8.41875C19.731 8.36531 19.7605 8.30402 19.7769 8.23868C19.7932 8.17334 19.7959 8.10535 19.7849 8.03892C19.7493 7.60541 19.5799 7.19367 19.3001 6.86061C19.1978 6.74914 19.0343 6.63328 18.8805 6.715C18.8297 6.74345 18.7878 6.78537 18.7593 6.83615C18.7307 6.88692 18.7168 6.94458 18.719 7.00277C18.724 7.36645 18.8216 7.72286 19.0027 8.0383C19.0773 8.19304 19.1852 8.32937 19.3186 8.43753Z" fill="#485648"/>
<path d="M11.1997 7.73686C11.2663 7.75218 11.3362 7.74178 11.3954 7.70774C11.5108 7.63604 11.6001 7.52897 11.6498 7.40248C11.6995 7.27598 11.707 7.13682 11.6713 7.0057C11.6654 6.97957 11.6542 6.95491 11.6385 6.93322C11.6228 6.91152 11.6029 6.89325 11.5799 6.87952C11.5569 6.86578 11.5313 6.85686 11.5048 6.85331C11.4782 6.84976 11.4512 6.85164 11.4254 6.85884C11.3174 6.91374 11.2269 6.99777 11.1642 7.10141C11.1014 7.20506 11.0689 7.32419 11.0704 7.44534C11.0754 7.55055 11.0898 7.68801 11.1997 7.73686Z" fill="#485648"/>
<path d="M12.5838 7.7C12.6203 7.72507 12.6636 7.73844 12.7079 7.73833C12.7522 7.73822 12.7954 7.72463 12.8318 7.69938C12.8694 7.65129 12.8957 7.59536 12.9087 7.53573C12.9217 7.4761 12.9211 7.4143 12.907 7.35493C12.8792 7.18336 12.7915 7.02722 12.6593 6.91436C12.5935 6.86989 12.5074 6.81697 12.4279 6.85923C12.3775 6.89116 12.3374 6.93686 12.3123 6.99093C12.2871 7.04499 12.278 7.10514 12.286 7.16422C12.2857 7.27154 12.3129 7.37715 12.365 7.47096C12.4172 7.56476 12.4925 7.64362 12.5838 7.7Z" fill="#485648"/>
<path d="M8.63624 8.94912C8.68535 9.01538 8.75301 9.06556 8.83066 9.09333C8.90831 9.12109 8.99246 9.12517 9.07243 9.10506C9.15483 9.08068 9.22951 9.03536 9.28916 8.9735C9.34882 8.91165 9.39142 8.83539 9.41281 8.75216C9.47273 8.50309 9.47155 8.24322 9.40936 7.9947C9.37006 7.75408 9.26969 7.52757 9.11784 7.33682C9.07403 7.28089 9.01327 7.24068 8.94468 7.22222C8.87608 7.20376 8.80334 7.20804 8.73739 7.23442C8.67194 7.26438 8.6133 7.30738 8.56506 7.36079C8.51682 7.41421 8.47999 7.4769 8.45682 7.54505C8.37788 7.76443 8.35559 8.00019 8.392 8.23049C8.40522 8.48804 8.48979 8.73685 8.63624 8.94912Z" fill="#485648"/>
<path d="M15.0005 7.24734C14.8971 7.30503 14.8137 7.3927 14.7612 7.49878C14.6172 7.78539 14.5408 8.10115 14.5377 8.42189C14.5223 8.61597 14.5779 8.80902 14.6942 8.96517C14.7454 9.03165 14.8163 9.08036 14.8967 9.1044C14.9771 9.12845 15.063 9.12663 15.1423 9.09918C15.214 9.0682 15.2788 9.02317 15.3329 8.96676C15.3869 8.91035 15.4291 8.84369 15.457 8.77071C15.5743 8.49188 15.6248 8.1895 15.6045 7.88769C15.5992 7.69044 15.5296 7.50033 15.4063 7.34628C15.3587 7.28779 15.2933 7.24645 15.22 7.22859C15.1468 7.21073 15.0697 7.21731 15.0005 7.24734Z" fill="#485648"/>
<path d="M6.8634 7.68613C6.76628 7.71782 6.68433 7.78433 6.63334 7.87285C6.58234 7.96137 6.56591 8.06563 6.58722 8.16554C6.63655 8.39255 6.74402 8.60285 6.8991 8.77583C6.96418 8.84765 7.04924 8.8984 7.14336 8.92155C7.23748 8.94471 7.33637 8.93921 7.42735 8.90577C7.50527 8.884 7.57333 8.83607 7.62008 8.77004C7.66684 8.70401 7.68945 8.6239 7.68411 8.54317C7.65506 8.26654 7.52467 8.01045 7.31806 7.82422C7.26214 7.76185 7.19018 7.716 7.11003 7.69166C7.02987 7.66731 6.94457 7.6654 6.8634 7.68613Z" fill="#485648"/>
<path d="M16.4806 8.886C16.5596 8.92599 16.6477 8.94479 16.7361 8.94056C16.8246 8.93634 16.9105 8.90923 16.9853 8.86189C17.1428 8.73929 17.2643 8.57649 17.337 8.39063C17.3798 8.31624 17.4053 8.23314 17.4115 8.14753C17.4177 8.06192 17.4046 7.97601 17.373 7.8962C17.3258 7.80566 17.247 7.73558 17.1516 7.69922C17.0562 7.66286 16.9508 7.66276 16.8554 7.69893C16.7144 7.76639 16.5956 7.87261 16.5128 8.00517C16.4016 8.14393 16.3266 8.30812 16.2945 8.48301C16.2814 8.5611 16.2921 8.64135 16.3253 8.71326C16.3585 8.78516 16.4126 8.84537 16.4806 8.886Z" fill="#485648"/>
<path d="M12.0917 7.71604C12.0656 7.69415 12.0331 7.68144 11.9991 7.67986C11.965 7.67827 11.9315 7.6879 11.9035 7.70727C11.8427 7.75427 11.7929 7.81383 11.7573 7.88186C11.7217 7.9499 11.7011 8.02481 11.6971 8.1015C11.678 8.20203 11.6826 8.30563 11.7106 8.40407C11.7385 8.50251 11.789 8.59308 11.8581 8.66858C11.8998 8.70323 11.9531 8.72067 12.0072 8.71736C12.0613 8.71404 12.1121 8.69021 12.1493 8.65073C12.2554 8.52404 12.3099 8.36207 12.3021 8.19701C12.3037 8.10641 12.2857 8.01654 12.2494 7.93353C12.2131 7.85052 12.1593 7.77633 12.0917 7.71604Z" fill="#485648"/>
<path d="M10.6159 8.32413C10.6306 8.2698 10.6321 8.21276 10.6204 8.15772C10.6087 8.10267 10.5841 8.0512 10.5486 8.00756C10.5178 7.97552 10.4773 7.95448 10.4334 7.94769C10.3895 7.9409 10.3446 7.94873 10.3056 7.96998C10.2392 8.01572 10.1835 8.07522 10.1422 8.14444C10.1009 8.21366 10.0751 8.29097 10.0664 8.3711C10.0468 8.438 10.0419 8.50835 10.052 8.57732C10.0622 8.64629 10.0872 8.71224 10.1252 8.77065C10.1468 8.79037 10.1722 8.80536 10.1999 8.81465C10.2276 8.82395 10.2569 8.82736 10.286 8.82464C10.3151 8.82193 10.3433 8.81316 10.3687 8.7989C10.3942 8.78464 10.4164 8.76521 10.434 8.74185C10.5289 8.62017 10.5914 8.47648 10.6159 8.32413Z" fill="#485648"/>
<path d="M13.7016 7.98277C13.6726 7.96169 13.6383 7.94897 13.6025 7.94599C13.5668 7.94301 13.5309 7.94988 13.4987 7.96586C13.4599 7.98307 13.4268 8.01101 13.4032 8.0464C13.3797 8.08179 13.3668 8.12315 13.366 8.16563C13.3582 8.35619 13.4131 8.54404 13.5222 8.70046C13.5474 8.74531 13.5865 8.7808 13.6336 8.80162C13.6806 8.82245 13.7332 8.82749 13.7834 8.816C13.8976 8.785 13.9343 8.6513 13.9352 8.54671C13.9429 8.44101 13.9258 8.33498 13.8852 8.23707C13.8447 8.13916 13.7818 8.05208 13.7016 7.98277Z" fill="#485648"/>
<path d="M5.20762 9.09844C5.21051 9.15403 5.23118 9.20723 5.26658 9.25019C5.30199 9.29314 5.35025 9.32359 5.40427 9.33705C5.50375 9.34383 5.60334 9.3255 5.69389 9.28375C5.78444 9.24201 5.86305 9.17818 5.9225 9.09813C6.08584 8.93127 6.19245 8.71718 6.22718 8.48627C6.22845 8.4201 6.21484 8.35449 6.18736 8.29427C6.15988 8.23406 6.11924 8.18079 6.06842 8.13839C6.00697 8.09468 5.93634 8.06561 5.86193 8.0534C5.78753 8.04119 5.71131 8.04616 5.63912 8.06793C5.56474 8.09623 5.49672 8.139 5.43899 8.19377C5.38126 8.24854 5.33498 8.31422 5.30282 8.38701C5.20444 8.61038 5.17143 8.85707 5.20762 9.09844Z" fill="#485648"/>
<path d="M18.1252 8.0456C18.0368 8.05566 17.9539 8.09421 17.8893 8.15543C17.8246 8.21665 17.7816 8.29724 17.7667 8.38504C17.7557 8.60087 17.829 8.81253 17.9712 8.97529C18.071 9.13652 18.2226 9.25908 18.4011 9.32286C18.4574 9.34407 18.5188 9.34756 18.5772 9.33283C18.6355 9.31811 18.6879 9.28589 18.7274 9.2405C18.7874 9.12168 18.8114 8.98795 18.7966 8.85567C18.8051 8.60624 18.7149 8.36351 18.5455 8.18025C18.4912 8.126 18.4247 8.08549 18.3516 8.06207C18.2786 8.03865 18.2009 8.03301 18.1252 8.0456Z" fill="#485648"/>
<path d="M11.3261 8.72879C11.3199 8.69532 11.3067 8.66354 11.2874 8.63553C11.268 8.60752 11.243 8.58391 11.2139 8.56626C11.1848 8.54861 11.1523 8.53731 11.1185 8.5331C11.0848 8.52889 11.0505 8.53188 11.018 8.54185C10.8262 8.6223 10.6691 8.76792 10.5743 8.95299C10.4633 9.11799 10.412 9.31598 10.429 9.51412C10.4328 9.55359 10.4481 9.59107 10.4731 9.62191C10.498 9.65275 10.5314 9.67559 10.5692 9.68759C10.7214 9.69806 10.8717 9.64836 10.9876 9.54919C11.1186 9.46103 11.2206 9.33611 11.2808 9.19015C11.341 9.04418 11.3568 8.88368 11.3261 8.72879Z" fill="#485648"/>
<path d="M13.1028 8.61308C13.0625 8.57122 13.0096 8.54366 12.9521 8.53455C12.8947 8.52545 12.8358 8.5353 12.7845 8.56261C12.7332 8.58993 12.6921 8.63322 12.6676 8.68594C12.643 8.73867 12.6363 8.79795 12.6485 8.85482C12.6468 9.0303 12.6995 9.202 12.7992 9.3464C12.8989 9.4908 13.0409 9.60084 13.2055 9.66144C13.3007 9.6915 13.4366 9.71749 13.5046 9.62261C13.5358 9.57585 13.5555 9.52235 13.562 9.4665C13.5686 9.41065 13.5618 9.35405 13.5422 9.30134C13.4779 9.0288 13.323 8.78614 13.1028 8.61308Z" fill="#485648"/>
<path d="M4.15075 10.8295C4.33635 10.6162 4.45954 10.3559 4.50678 10.0771C4.55737 9.84466 4.53753 9.60242 4.44978 9.38132C4.43219 9.32971 4.39581 9.28661 4.34788 9.26061C4.29995 9.23462 4.24399 9.22763 4.19113 9.24104C4.0925 9.27792 4.0106 9.34935 3.96067 9.44207C3.80569 9.70722 3.70908 10.0024 3.67729 10.3079C3.65029 10.4692 3.65939 10.6346 3.70391 10.792C3.71728 10.8355 3.74358 10.874 3.77932 10.9022C3.81506 10.9305 3.85855 10.9472 3.904 10.9501C3.95118 10.9479 3.99742 10.9361 4.03985 10.9154C4.08229 10.8946 4.12003 10.8654 4.15075 10.8295Z" fill="#485648"/>
<path d="M19.6942 9.24426C19.6405 9.27572 19.5951 9.31939 19.5615 9.37174C19.5279 9.42408 19.5072 9.48362 19.501 9.54549C19.4634 9.75837 19.4693 9.97664 19.5182 10.1872C19.5671 10.3978 19.658 10.5963 19.7856 10.7708C19.8617 10.8635 19.96 10.9712 20.0931 10.953C20.2365 10.9486 20.3073 10.7955 20.3242 10.6718C20.3498 10.3678 20.3106 10.0618 20.209 9.77408C20.158 9.61217 20.0754 9.46199 19.966 9.33225C19.9345 9.29224 19.8919 9.26249 19.8435 9.24682C19.7951 9.23115 19.7431 9.23026 19.6942 9.24426Z" fill="#485648"/>
<path d="M8.91856 9.84804C8.45548 9.57104 7.91402 9.45438 7.37796 9.51612C6.65737 9.60184 5.94652 9.75565 5.25494 9.97549C5.1303 10.0037 5.00935 10.0462 4.89453 10.1023C5.13566 10.211 5.40399 10.2354 5.64978 10.3306C5.85435 10.412 6.03462 10.5445 6.17333 10.7154C6.34556 10.9074 6.52058 11.0974 6.70658 11.2762C7.00251 11.5617 7.38145 11.7458 7.78876 11.802C8.02799 11.8283 8.26847 11.8311 8.50865 11.8355C8.58311 11.829 8.65812 11.8384 8.72864 11.8632C8.79916 11.888 8.86358 11.9275 8.91759 11.9792C8.95415 12.0408 8.97817 12.1091 8.98827 12.18C8.99837 12.2509 8.99436 12.3232 8.97647 12.3925C8.91572 12.8914 8.84808 13.3908 8.834 13.8934C8.8412 13.961 8.82617 14.0825 8.91322 14.0975C9.08168 14.0509 9.15589 13.8752 9.22102 13.7296C9.485 13.1944 9.69399 12.6337 9.84478 12.0562C9.9386 11.6376 9.89984 11.2001 9.73388 10.8044C9.56791 10.4087 9.283 10.0745 8.91856 9.84804ZM8.64739 10.9628C8.47968 11.1114 8.27228 11.208 8.05055 11.2407C7.82882 11.2733 7.60238 11.2406 7.39894 11.1466C7.12815 11.0042 6.91992 10.7663 6.81464 10.479C6.78721 10.4121 6.78582 10.3373 6.81074 10.2694C6.83565 10.2015 6.88508 10.1453 6.94929 10.112C7.00835 10.0927 7.07144 10.0892 7.13226 10.1019C7.19309 10.1146 7.24952 10.143 7.29592 10.1843C7.40333 10.3998 7.58181 10.6396 7.84985 10.6296C8.06215 10.6512 8.2256 10.499 8.41255 10.4323C8.48951 10.4372 8.5639 10.4619 8.62844 10.5041C8.69299 10.5464 8.74548 10.6046 8.78079 10.6731C8.78594 10.7289 8.77632 10.785 8.7529 10.8358C8.72948 10.8867 8.6931 10.9305 8.64739 10.9628Z" fill="#485648"/>
<path d="M19.0304 10.104C18.8976 10.039 18.7583 9.98815 18.6148 9.95244C17.8131 9.66726 16.9689 9.51958 16.1179 9.51562C15.8063 9.52986 15.5013 9.61063 15.2235 9.75251C14.9457 9.8944 14.7014 10.0941 14.5072 10.3382C14.2237 10.7112 14.078 11.1708 14.0951 11.639C14.1314 12.1328 14.2575 12.6158 14.4671 13.0643C14.5692 13.3076 14.6728 13.5502 14.778 13.7921C14.841 13.9245 14.9252 14.0839 15.0865 14.1058C15.1231 14.0413 15.1416 13.968 15.14 13.8938C15.1302 13.506 15.0969 13.1191 15.0401 12.7352C15.0029 12.5286 14.9888 12.3185 14.9979 12.1087C15.004 12.0631 15.0218 12.0199 15.0493 11.983C15.0769 11.9462 15.1134 11.917 15.1554 11.8983C15.3231 11.8394 15.5016 11.8174 15.6786 11.8338C15.8981 11.8344 16.1172 11.8144 16.333 11.7743C16.6075 11.7113 16.8651 11.5897 17.0883 11.4179C17.3439 11.2048 17.5782 10.9675 17.7881 10.7093C17.8951 10.5776 18.0272 10.4685 18.1767 10.3883C18.4486 10.2571 18.7557 10.2258 19.0304 10.104ZM17.1804 10.4757C17.1159 10.6322 17.0239 10.7759 16.9089 10.9C16.7318 11.0886 16.4958 11.2113 16.2397 11.2479C15.9835 11.2845 15.7226 11.2328 15.4998 11.1013C15.3605 11.0291 15.2518 10.9093 15.1932 10.7638C15.1626 10.6279 15.2978 10.5392 15.4037 10.491C15.4772 10.4666 15.5621 10.4102 15.6382 10.4553C15.7872 10.5632 15.9653 10.6235 16.1492 10.6282C16.2614 10.6163 16.3684 10.5749 16.4594 10.5083C16.5504 10.4416 16.622 10.352 16.6671 10.2487C16.6815 10.2176 16.7026 10.1901 16.7289 10.1681C16.7551 10.1462 16.7859 10.1302 16.819 10.1215C16.8853 10.0942 16.9578 10.086 17.0285 10.0978C17.0972 10.1296 17.1511 10.1864 17.1793 10.2566C17.2076 10.3268 17.2079 10.4052 17.1804 10.4757Z" fill="#485648"/>
<path d="M11.271 9.77172C11.106 9.86577 10.9797 10.0154 10.9146 10.1938C10.8295 10.356 10.8062 10.5437 10.8492 10.7218C10.8676 10.7627 10.9011 10.7949 10.9427 10.8117C10.9843 10.8285 11.0308 10.8286 11.0725 10.8119C11.1654 10.7842 11.2512 10.7366 11.3241 10.6726C11.3969 10.6086 11.4551 10.5296 11.4946 10.441C11.5341 10.3524 11.5539 10.2564 11.5529 10.1594C11.5518 10.0624 11.5298 9.9668 11.4883 9.87913C11.4712 9.838 11.4397 9.80446 11.3998 9.78472C11.3598 9.76498 11.3141 9.76036 11.271 9.77172Z" fill="#485648"/>
<path d="M12.6432 9.75781C12.5738 9.78378 12.5165 9.83454 12.4823 9.90029C12.4152 10.052 12.4055 10.223 12.4551 10.3813C12.5047 10.5396 12.6102 10.6745 12.7519 10.7608C12.8518 10.8237 13.0171 10.8685 13.1007 10.7579C13.133 10.6824 13.1488 10.6009 13.1472 10.5188C13.1455 10.4367 13.1265 10.3559 13.0913 10.2817C13.0608 10.1663 13.0047 10.0593 12.9271 9.9686C12.8495 9.87791 12.7525 9.80586 12.6432 9.75781Z" fill="#485648"/>
<path d="M4.50799 12.8327C4.50591 12.5733 4.4314 12.3196 4.29287 12.1003C4.234 12.0151 4.11533 11.9353 4.0145 12.0004C3.9284 12.0558 3.86557 12.1408 3.83787 12.2393C3.74856 12.5237 3.75218 12.8292 3.84821 13.1114C3.88672 13.2488 3.96625 13.3711 4.07617 13.4621C4.10199 13.4762 4.13038 13.485 4.15965 13.488C4.18893 13.491 4.21851 13.4881 4.24665 13.4794C4.27478 13.4708 4.3009 13.4566 4.32346 13.4377C4.34603 13.4188 4.36458 13.3956 4.37802 13.3694C4.46644 13.2045 4.51118 13.0198 4.50799 12.8327Z" fill="#485648"/>
<path d="M20.1091 12.1266C20.0896 12.076 20.0523 12.0343 20.0042 12.0093C19.9561 11.9844 19.9005 11.9779 19.848 11.991C19.7488 12.039 19.6714 12.1226 19.6313 12.2253C19.5156 12.4629 19.4677 12.7278 19.4929 12.9909C19.4996 13.1436 19.5488 13.2914 19.635 13.4177C19.6555 13.4395 19.6802 13.4568 19.7076 13.4688C19.735 13.4807 19.7645 13.4869 19.7944 13.487C19.8243 13.487 19.8538 13.481 19.8813 13.4693C19.9088 13.4575 19.9336 13.4403 19.9541 13.4186C20.0797 13.2834 20.1626 13.1141 20.1924 12.932C20.2576 12.6619 20.2282 12.3776 20.1091 12.1266Z" fill="#485648"/>
<path d="M5.61203 12.2317C5.49748 12.2858 5.40403 12.3763 5.34619 12.4891C5.25514 12.6389 5.22008 12.8162 5.24724 12.9894C5.26884 13.0812 5.33241 13.1892 5.43918 13.188C5.51061 13.1781 5.5794 13.1543 5.64162 13.1179C5.70384 13.0815 5.75826 13.0331 5.80179 12.9757C5.87346 12.9009 5.924 12.8085 5.94826 12.7078C5.97252 12.6071 5.96963 12.5018 5.93988 12.4026C5.92996 12.3696 5.91354 12.3389 5.89158 12.3124C5.86962 12.2858 5.84256 12.2639 5.81201 12.248C5.78145 12.2321 5.74802 12.2224 5.71367 12.2196C5.67933 12.2168 5.64477 12.2209 5.61203 12.2317Z" fill="#485648"/>
<path d="M6.37461 12.7353C6.44994 12.7614 6.53079 12.7673 6.6091 12.7523C6.6874 12.7374 6.76041 12.7021 6.82082 12.6501C6.86078 12.5988 6.87924 12.5339 6.87228 12.4693C6.86533 12.4046 6.83352 12.3451 6.78356 12.3035C6.71264 12.2444 6.62675 12.2061 6.5354 12.1927C6.44405 12.1794 6.3508 12.1916 6.26596 12.228C6.21692 12.2427 6.17406 12.273 6.14401 12.3145C6.11396 12.3559 6.09838 12.4061 6.09969 12.4572C6.10851 12.5274 6.14024 12.5926 6.18995 12.6429C6.23966 12.6932 6.30457 12.7257 6.37461 12.7353Z" fill="#485648"/>
<path d="M17.4344 12.7595C17.585 12.7692 17.7336 12.7206 17.8493 12.6236C17.8891 12.5868 17.9138 12.5365 17.9185 12.4825C17.9231 12.4284 17.9075 12.3746 17.8746 12.3315C17.8102 12.2675 17.7294 12.2224 17.6411 12.2012C17.5528 12.18 17.4604 12.1835 17.3739 12.2112C17.2973 12.2276 17.229 12.2707 17.1813 12.3329C17.1337 12.395 17.1097 12.4721 17.1137 12.5504C17.1337 12.6176 17.1769 12.6756 17.2356 12.7139C17.2943 12.7522 17.3648 12.7684 17.4344 12.7595Z" fill="#485648"/>
<path d="M18.6569 13.1201C18.6951 13.0619 18.721 12.9966 18.733 12.928C18.745 12.8594 18.7427 12.7891 18.7264 12.7215C18.6946 12.5371 18.5943 12.3715 18.4455 12.258C18.4105 12.2326 18.3695 12.2169 18.3265 12.2123C18.2836 12.2078 18.2401 12.2146 18.2006 12.232C18.151 12.2623 18.11 12.3048 18.0818 12.3556C18.0535 12.4064 18.0389 12.4636 18.0394 12.5217C18.0355 12.6504 18.0681 12.7775 18.1333 12.8885C18.1984 12.9995 18.2937 13.0899 18.4079 13.1492C18.4463 13.1741 18.4922 13.1849 18.5376 13.1796C18.5831 13.1743 18.6253 13.1532 18.6569 13.1201Z" fill="#485648"/>
<path d="M6.94905 13.3866C6.77893 13.3188 6.59258 13.3025 6.41329 13.34C6.3475 13.3478 6.28418 13.3697 6.22765 13.4042C6.17112 13.4388 6.12271 13.4851 6.08576 13.5401C6.05321 13.6114 6.04775 13.6921 6.0704 13.7671C6.09304 13.8422 6.14225 13.9064 6.20882 13.9478C6.3555 14.0267 6.52697 14.0461 6.68759 14.0019C6.77131 13.9925 6.85179 13.9642 6.92301 13.9192C6.99422 13.8742 7.0543 13.8136 7.09873 13.7421C7.11227 13.7089 7.11913 13.6734 7.11894 13.6376C7.11874 13.6018 7.11148 13.5663 7.09758 13.5333C7.08368 13.5003 7.0634 13.4704 7.03792 13.4452C7.01243 13.42 6.98224 13.4001 6.94905 13.3866Z" fill="#485648"/>
<path d="M17.7036 13.3705C17.5283 13.3065 17.3381 13.2952 17.1565 13.338C17.0901 13.3459 17.0275 13.3731 16.9764 13.4161C16.9253 13.4592 16.8879 13.5163 16.8688 13.5803C16.8623 13.6463 16.876 13.7127 16.908 13.7707C16.94 13.8287 16.9889 13.8757 17.0482 13.9054C17.2236 13.9981 17.4236 14.0339 17.6203 14.0077C17.6975 14.0053 17.7714 13.9755 17.8287 13.9236C17.8859 13.8717 17.9229 13.8012 17.9329 13.7245C17.9429 13.6479 17.9253 13.5702 17.8833 13.5054C17.8413 13.4405 17.7776 13.3927 17.7036 13.3705Z" fill="#485648"/>
<path d="M5.0626 14.1505C5.0084 14.1059 4.94391 14.0756 4.875 14.0623C4.80609 14.049 4.73496 14.0532 4.66806 14.0744C4.57558 14.1077 4.4955 14.1685 4.43858 14.2487C4.38166 14.3288 4.35061 14.4245 4.34961 14.5228C4.35752 14.7471 4.43354 14.9637 4.56755 15.1437C4.69221 15.3478 4.85882 15.5231 5.05634 15.6579C5.11129 15.6904 5.17339 15.7089 5.23718 15.7117C5.30096 15.7146 5.36446 15.7017 5.42208 15.6742C5.48186 15.6413 5.53132 15.5924 5.56494 15.533C5.59856 15.4736 5.61501 15.4061 5.61246 15.3379C5.5995 15.0936 5.53108 14.8554 5.41237 14.6415C5.33043 14.4557 5.2114 14.2886 5.0626 14.1505Z" fill="#485648"/>
<path d="M7.86941 14.1296C7.83257 14.1004 7.79016 14.079 7.74478 14.0667C7.69939 14.0544 7.65198 14.0515 7.60544 14.0582C7.49886 14.0661 7.39563 14.0989 7.30408 14.1541C7.21254 14.2093 7.13525 14.2852 7.07845 14.3757C7.04141 14.4314 7.02368 14.4978 7.02798 14.5646C7.03227 14.6314 7.05836 14.695 7.10224 14.7455C7.15858 14.7769 7.22214 14.793 7.28663 14.7922C7.35112 14.7915 7.41429 14.7739 7.46986 14.7411C7.64271 14.6807 7.79134 14.5659 7.89352 14.4139C7.92347 14.3712 7.93746 14.3193 7.93305 14.2674C7.92864 14.2154 7.90612 14.1666 7.86941 14.1296Z" fill="#485648"/>
<path d="M16.7673 14.2198C16.6894 14.1532 16.597 14.1058 16.4975 14.0814C16.398 14.057 16.2941 14.0562 16.1943 14.0792C16.1523 14.092 16.1154 14.1176 16.0886 14.1524C16.0619 14.1872 16.0466 14.2295 16.0449 14.2733C16.057 14.344 16.0843 14.4112 16.125 14.4703C16.1656 14.5293 16.2187 14.5788 16.2804 14.6153C16.4151 14.7166 16.5768 14.7761 16.7451 14.7862C16.7983 14.7853 16.8491 14.7642 16.8875 14.7274C16.9259 14.6905 16.9489 14.6405 16.9521 14.5874C16.9535 14.5157 16.9374 14.4448 16.9052 14.3807C16.873 14.3166 16.8257 14.2614 16.7673 14.2198Z" fill="#485648"/>
<path d="M19.3101 14.0818C19.2104 14.0519 19.1035 14.0569 19.007 14.0959C18.8782 14.1614 18.7718 14.2637 18.7014 14.3899C18.5336 14.638 18.4196 14.9184 18.3666 15.2131C18.3523 15.2838 18.3547 15.3568 18.3736 15.4263C18.3926 15.4958 18.4275 15.56 18.4756 15.6136C18.5258 15.6652 18.5909 15.6995 18.6618 15.7118C18.7326 15.7242 18.8055 15.7138 18.8701 15.6822C19.0224 15.6006 19.1561 15.4883 19.2628 15.3525C19.4447 15.1456 19.57 14.8953 19.6267 14.6257C19.6406 14.5129 19.6171 14.3987 19.56 14.3005C19.5028 14.2022 19.415 14.1254 19.3101 14.0818Z" fill="#485648"/>
</g>
<defs>
<clipPath id="clip0_1431_46294">
<rect width="24" height="24" fill="white"/>
</clipPath>
</defs>
</svg>
