<svg width="26" height="26" viewBox="0 0 26 26" fill="none" xmlns="http://www.w3.org/2000/svg">
<path d="M24.3069 11.0671C23.6784 9.9865 22.7984 9.07354 21.7417 8.40575C21.4184 8.18109 21.0648 8.00648 20.7246 7.80954C21.1941 7.91644 21.6508 8.07335 22.0869 8.27758C23.3132 8.82852 24.2968 9.80725 24.8538 11.0308C24.6993 10.1864 24.399 9.37537 23.9663 8.63402C23.322 7.53465 22.4497 6.58595 21.4083 5.85168C21.6719 5.54404 22.0107 5.30976 22.3915 5.17158C22.6318 5.11406 22.8823 5.11514 23.122 5.17472C23.3618 5.23431 23.5837 5.35067 23.769 5.51397C23.5308 5.03376 23.1656 4.62796 22.713 4.34063C22.2471 4.05148 21.707 3.90424 21.1588 3.91688C21.3005 3.84017 21.4369 3.75405 21.5671 3.6591C21.9847 3.31874 22.2543 2.8298 22.3192 2.29493C22.1722 2.49652 21.9545 2.63515 21.7096 2.68305C21.5909 2.68348 21.4733 2.66019 21.3637 2.61457C21.2541 2.56894 21.1547 2.50189 21.0713 2.41735C20.3833 1.80718 19.6014 1.31212 18.7556 0.951294C18.1646 0.700424 17.5248 0.585388 16.8834 0.614665C16.3036 0.646741 15.7507 0.86993 15.3111 1.24938C15.3209 0.869667 15.4008 0.495041 15.547 0.14444C14.8336 0.368289 14.1866 0.764775 13.6632 1.29871C13.2601 1.69594 12.9212 2.15349 12.6588 2.65495C12.6498 2.64415 12.6318 2.62291 12.6228 2.61247C12.3811 2.16685 12.0806 1.75583 11.7292 1.39052C11.171 0.806161 10.4752 0.371061 9.70541 0.125C9.86137 0.480439 9.94859 0.862203 9.96246 1.2501C9.63492 0.981308 9.25186 0.788482 8.84085 0.685511C8.42984 0.58254 8.00112 0.571986 7.58554 0.654609C6.41704 0.894626 5.33295 1.43984 4.44353 2.2348C4.19331 2.43137 3.94273 2.70068 3.59746 2.68663C3.33973 2.64953 3.10675 2.51308 2.94831 2.30644C2.98311 2.49281 3.03518 2.67553 3.10385 2.85225C3.2992 3.31449 3.65452 3.6909 4.10474 3.91255C3.70359 3.90784 3.30561 3.98413 2.93463 4.13685C2.3093 4.40877 1.8013 4.89457 1.5017 5.50713C1.6817 5.34769 1.89718 5.23353 2.13019 5.17417C2.36321 5.1148 2.60704 5.11194 2.84138 5.16582C3.23219 5.30151 3.58377 5.53095 3.86533 5.83404C3.78324 5.90964 3.68747 5.96833 3.60107 6.03818C2.90484 6.57224 2.29048 7.20528 1.77751 7.91719C1.11408 8.84126 0.658637 9.89805 0.442503 11.0149C0.51127 10.8986 0.553394 10.7694 0.619641 10.652C0.986349 9.97964 1.49451 9.39483 2.10908 8.93787C2.82689 8.39073 3.65537 8.00666 4.53678 7.81242C4.00462 8.08728 3.49776 8.4086 3.02212 8.77262C2.27836 9.33311 1.64048 10.0217 1.13843 10.8061C0.622709 11.6404 0.292987 12.5762 0.171748 13.5495C0.0917748 14.2452 0.103024 14.9483 0.205211 15.641C0.289982 16.2671 0.427402 16.8849 0.61601 17.4879C0.585585 16.759 0.761155 16.0363 1.1226 15.4026C1.77187 14.3603 2.63206 13.4654 3.64786 12.7755C3.68855 12.7391 3.75119 12.7132 3.76127 12.6542C3.87274 11.9952 4.0949 11.3599 4.41833 10.7751C4.79435 10.1205 5.28694 9.5402 5.87178 9.06283C6.01212 8.93442 6.16276 8.81774 6.32218 8.71396C5.89339 8.6362 5.45775 8.59803 5.02895 8.52134C5.66185 8.37734 6.26384 8.12115 6.80643 7.76492C7.20768 7.47006 7.54214 7.09377 7.78788 6.6607C7.48545 6.47924 7.14918 6.36475 6.83235 6.21173C7.17186 6.17969 7.51281 6.15665 7.8498 6.103C8.01873 6.05289 8.16369 5.94311 8.25772 5.7941C8.47422 5.52969 8.72935 5.29944 9.01451 5.11112C9.21873 4.97434 9.44804 4.87942 9.68918 4.83183C9.93031 4.78425 10.1785 4.78495 10.4194 4.83389C10.9367 4.97242 11.3961 5.27296 11.7302 5.69149C11.5841 5.68177 11.4433 5.63928 11.2978 5.62524C11.1769 5.61877 11.0574 5.59501 10.9432 5.55467C10.9348 5.55008 10.9252 5.54792 10.9156 5.54843C10.906 5.54894 10.8968 5.5521 10.8888 5.55755C11.2115 5.87927 11.5042 6.2297 11.7634 6.60451C12.1239 7.1465 12.4241 7.72623 12.6588 8.33339C13.0247 7.28605 13.6249 6.33604 14.4136 5.55574C14.1266 5.61262 13.8339 5.63494 13.5491 5.70299C13.7598 5.46266 14.0028 5.25257 14.271 5.0787C14.4683 4.95058 14.6893 4.86318 14.9209 4.82164C15.1525 4.78009 15.3901 4.78523 15.6197 4.83675C16.1677 4.9884 16.6516 5.31401 16.9986 5.76456C17.126 5.90461 17.2542 6.08031 17.458 6.10191C17.7817 6.15375 18.1086 6.18219 18.4355 6.20487C18.1176 6.35177 17.7907 6.48246 17.4799 6.647C17.6932 7.05374 17.9889 7.41164 18.348 7.69793C18.9204 8.10461 19.5741 8.38245 20.2641 8.51234C19.8392 8.58434 19.414 8.65671 18.987 8.71467C19.2802 8.9333 19.5583 9.17146 19.8194 9.42753C20.3851 9.97187 20.8359 10.624 21.1454 11.3454C21.3232 11.7755 21.4544 12.2234 21.5368 12.6815C21.6815 12.8144 21.8336 12.939 21.9922 13.0549C22.9174 13.7244 23.6834 14.5899 24.2356 15.5895C24.5443 16.1773 24.6885 16.8376 24.6529 17.5005C24.9161 16.7008 25.0814 15.8721 25.145 15.0325C25.2677 13.6567 24.9758 12.2756 24.3069 11.0671ZM6.09717 5.6515C5.91544 5.82294 5.7777 6.03564 5.69561 6.2716C5.61351 6.50755 5.58947 6.75981 5.62552 7.00703C5.64921 7.12791 5.68084 7.2471 5.72021 7.36382C5.405 7.07215 5.20505 6.67696 5.15676 6.25024C5.14269 6.06776 5.16635 5.88434 5.22628 5.71141C5.28621 5.53848 5.38111 5.37975 5.50508 5.24511C5.62904 5.11047 5.77941 5.00281 5.94682 4.92883C6.11422 4.85486 6.29506 4.81616 6.47808 4.81515C6.83681 4.81556 7.18397 4.94212 7.45881 5.17266C7.21128 5.1565 6.96304 5.19059 6.72903 5.27288C6.49503 5.35517 6.28009 5.48396 6.09717 5.6515ZM7.3562 3.38654C6.68583 3.03609 5.91952 2.91362 5.17332 3.03768C5.46404 2.70637 5.85805 2.48285 6.29158 2.40329C6.55189 2.35341 6.8205 2.36877 7.07343 2.44799C7.32635 2.52721 7.55573 2.66783 7.74107 2.85729C8.06659 3.20307 8.26632 3.64831 8.30811 4.12136C8.03772 3.82102 7.71523 3.57206 7.3562 3.38654ZM16.9698 4.12136C17.0189 3.59928 17.2619 3.11457 17.651 2.76296C17.835 2.60326 18.0535 2.48826 18.2893 2.42693C18.5251 2.3656 18.7719 2.35961 19.0105 2.40941C19.4352 2.49277 19.8213 2.71186 20.1107 3.03371C19.5379 2.93528 18.9495 2.9834 18.4004 3.17357C17.8512 3.36375 17.359 3.6898 16.9698 4.12136ZM19.5458 7.36778C19.6404 7.15492 19.6832 6.92272 19.6709 6.69014C19.6586 6.45756 19.5914 6.2312 19.4749 6.02952C19.3031 5.74655 19.0561 5.51681 18.7615 5.36584C18.4669 5.21488 18.1362 5.14862 17.8061 5.17444C18.0882 4.93012 18.4521 4.80117 18.825 4.81334C19.1413 4.82254 19.4443 4.94203 19.6817 5.15111C19.9192 5.3602 20.076 5.64571 20.1251 5.95824C20.1464 6.22221 20.1051 6.48749 20.0044 6.73244C19.9037 6.97739 19.7466 7.19509 19.5458 7.36778Z" fill="#485648"/>
<path d="M10.3271 10.8275C10.3806 10.6023 10.3483 10.3652 10.2364 10.1625C10.1622 10.0333 10.0229 9.94255 9.99803 9.78702C9.81945 9.05436 9.70496 8.30765 9.54691 7.57031C9.51169 8.0936 9.44993 8.61476 9.36185 9.13178C8.51297 8.96015 7.63528 8.99509 6.80273 9.23366C6.94674 9.27611 7.08664 9.33142 7.22074 9.39892C7.47533 9.51034 7.70062 9.67931 7.87887 9.89252C8.01581 10.1405 8.21028 10.352 8.44592 10.5093C8.74923 10.6649 9.09798 10.7077 9.42989 10.6299C9.61367 10.7931 9.7415 11.01 9.79532 11.2499C9.86584 11.5922 9.85288 11.9465 9.75752 12.2828C10.0336 11.836 10.2266 11.343 10.3271 10.8275ZM8.93412 10.2396C8.81588 10.2142 8.70543 10.1608 8.61204 10.0839C8.51865 10.0071 8.44502 9.90897 8.39732 9.79782C8.36475 9.679 8.35667 9.55479 8.37356 9.43275C8.4913 9.43167 8.60903 9.43635 8.72712 9.43707C8.71215 9.52742 8.72563 9.6202 8.76568 9.70256C8.80573 9.78493 8.87038 9.85281 8.9507 9.89683C9.0579 9.93008 9.17139 9.93779 9.2821 9.91935C9.39282 9.9009 9.49768 9.85682 9.58832 9.79062C9.65276 9.86011 9.71541 9.93139 9.77553 10.0052C9.66406 10.1084 9.52956 10.1835 9.38321 10.2243C9.23687 10.2651 9.0829 10.2703 8.93412 10.2396Z" fill="#485648"/>
<path d="M15.9116 10.6289C16.1193 10.6742 16.335 10.6678 16.5396 10.6101C16.7443 10.5524 16.9316 10.4452 17.085 10.298C17.2711 10.1169 17.3665 9.86095 17.5685 9.69534C17.8347 9.4944 18.1298 9.3349 18.4437 9.22225C17.6227 8.99642 16.761 8.96083 15.9242 9.1182C15.8529 8.60084 15.7665 8.08419 15.7366 7.5625C15.5923 8.27392 15.4681 8.98967 15.3024 9.69677C15.2718 9.82806 15.2026 9.94718 15.1037 10.0388C15.0129 10.1641 14.9525 10.3088 14.9274 10.4615C14.9022 10.6141 14.9129 10.7706 14.9586 10.9184C15.0682 11.4045 15.2686 11.8655 15.5494 12.2771C15.457 12.0287 15.424 11.762 15.453 11.4985C15.482 11.2351 15.5722 10.982 15.7165 10.7596C15.7712 10.7042 15.8177 10.599 15.9116 10.6289ZM15.697 9.77452C15.788 9.83817 15.8915 9.88159 16.0006 9.90183C16.1097 9.92208 16.2219 9.91869 16.3296 9.8919C16.4084 9.84823 16.4715 9.781 16.5101 9.69964C16.5487 9.61829 16.5609 9.52688 16.5449 9.43826C16.6641 9.43033 16.7833 9.42493 16.9028 9.42133C16.9215 9.55523 16.9096 9.69163 16.8679 9.82025C16.8072 9.94678 16.713 10.0542 16.5955 10.1308C16.478 10.2075 16.3417 10.2504 16.2014 10.2548C15.9439 10.2598 15.6947 10.1636 15.5073 9.98694C15.5671 9.91314 15.6303 9.84233 15.697 9.77452Z" fill="#485648"/>
<path d="M20.7602 12.1562C20.3958 11.7634 20.0391 11.3623 19.6513 10.9922C19.9146 11.5301 20.0726 12.1134 20.1168 12.7106C19.7518 12.2694 19.3408 11.8682 18.8909 11.5139C18.9759 11.7893 19.0124 12.0774 18.9989 12.3654C19.0065 13.03 18.8024 13.6797 18.416 14.2206C18.0546 14.6847 17.5995 15.0676 17.0803 15.3443C17.112 15.5182 17.1358 15.6942 17.1549 15.8703C16.33 16.0049 15.5016 16.1194 14.6753 16.244C15.5066 16.2256 16.3369 16.2857 17.1682 16.2739C17.1748 16.4571 17.1719 16.6407 17.1595 16.8236C16.806 16.8884 16.447 16.9158 16.0892 16.9464C15.6438 16.9651 15.1984 17.0141 14.7527 16.9979C15.089 17.0605 15.4328 17.0591 15.7709 17.1081C16.2141 17.1685 16.6609 17.188 17.1048 17.2413C17.0246 17.5031 16.8838 17.7424 16.6937 17.9396C16.5037 18.1368 16.2698 18.2863 16.011 18.3761C15.5468 18.5336 15.0462 18.5499 14.5727 18.4229C13.9336 18.1937 13.3281 17.8799 12.7722 17.4901C12.7961 16.9395 12.9895 16.4097 13.3259 15.9732C13.6447 15.7194 14.0148 15.5378 14.4107 15.4411C14.6013 15.3527 14.7564 15.2025 14.851 15.0148C14.9925 14.7462 15.1013 14.4615 15.175 14.167C15.0502 14.2729 14.9105 14.3599 14.7603 14.4251C14.4666 14.5053 14.1627 14.5423 13.8584 14.5349C13.4362 14.5603 13.0265 14.6878 12.6645 14.9065C12.5176 14.8446 12.3841 14.7549 12.2339 14.7005C11.9698 14.6036 11.6923 14.5476 11.4113 14.5345C11.1934 14.518 10.9738 14.5288 10.7574 14.4971C10.5124 14.4462 10.2861 14.3288 10.1033 14.158C10.1795 14.4809 10.3008 14.7916 10.4637 15.0807C10.5704 15.2647 10.7381 15.4056 10.9378 15.4789C11.3162 15.5624 11.6689 15.7355 11.9664 15.9837C12.2907 16.4214 12.4813 16.9438 12.5151 17.4875C11.942 17.8903 11.3146 18.2097 10.6516 18.4359C10.1512 18.5641 9.62285 18.529 9.14376 18.3358C8.91172 18.2362 8.70466 18.0863 8.5375 17.8971C8.37034 17.7078 8.24724 17.4838 8.17708 17.2413C8.45035 17.2135 8.72505 17.2017 8.99723 17.1653C9.502 17.1016 10.01 17.0728 10.5148 17.0105C9.71766 16.9644 8.91731 16.9457 8.12632 16.8272C8.11299 16.6425 8.11624 16.4571 8.11012 16.2724C8.95223 16.2908 9.79364 16.2271 10.6357 16.2436C10.2951 16.1741 9.94736 16.1461 9.60389 16.0913C9.11425 16.0226 8.62712 15.9351 8.1364 15.8742C8.15332 15.7011 8.18212 15.529 8.21487 15.3579C7.98091 15.2207 7.75592 15.0687 7.54124 14.9029C7.07008 14.5539 6.70966 14.0763 6.50327 13.5275C6.25393 12.8829 6.21735 12.1754 6.39886 11.5085C5.95618 11.8739 5.54668 12.2778 5.17513 12.7153C5.21972 12.1193 5.37387 11.5366 5.62984 10.9965C5.3555 11.2687 5.08763 11.5469 4.82625 11.8311C3.91424 12.764 3.1128 13.799 2.43779 14.9155C2.01604 15.6517 1.79958 16.4876 1.81097 17.336C1.82555 18.1777 1.97381 19.0117 2.25021 19.8069C2.4567 20.428 2.72747 21.0259 3.05813 21.5908C2.9524 21.1618 2.88719 20.7237 2.86335 20.2825C3.16604 20.8409 3.54334 21.3556 3.98485 21.8122C4.44975 22.2851 4.96256 22.7084 5.51499 23.0752C4.86819 22.2406 4.40858 21.2766 4.16741 20.2486C4.01391 19.5599 3.99883 18.8475 4.12307 18.153C4.2473 17.4584 4.50836 16.7954 4.89107 16.2026C4.88855 16.2249 4.88386 16.2695 4.88171 16.2915C4.71402 17.0617 4.68464 17.8556 4.79495 18.636C5.0011 20.0603 5.56303 21.4097 6.42877 22.5593C7.08137 23.5042 7.9797 24.2529 9.02677 24.7245C8.82635 24.5824 8.6392 24.4223 8.46762 24.2464C8.23238 23.9898 8.06103 23.6813 7.96752 23.346C7.81882 22.7328 7.80433 22.0946 7.92504 21.4753C8.00988 20.9987 8.12082 20.5272 8.25736 20.0629C8.31928 20.5494 8.44706 21.0253 8.63719 21.4774C9.17735 22.6926 10.0428 23.7348 11.138 24.4891C11.0704 24.1153 11.0446 23.7352 11.0609 23.3557C11.2325 23.7605 11.4427 24.1479 11.6885 24.5125C11.978 24.9549 12.2976 25.3769 12.6451 25.7755C13.2793 25.0441 13.8137 24.2317 14.2343 23.3597C14.2459 23.7337 14.2241 24.1081 14.1691 24.4783C14.73 24.08 15.236 23.6096 15.674 23.0792C16.4025 22.2251 16.8675 21.1781 17.0126 20.065C17.0342 20.164 17.0656 20.2612 17.0954 20.3584C17.309 21.0232 17.4266 21.7151 17.4447 22.4131C17.4685 23.0149 17.295 23.6079 16.9507 24.102C16.7517 24.3497 16.5162 24.5656 16.2522 24.7425C17.2563 24.2883 18.1244 23.5797 18.7703 22.6868C19.4438 21.7943 19.9487 20.7864 20.2601 19.7125C20.588 18.5723 20.6255 17.3682 20.3692 16.2098C20.5434 16.4602 20.6898 16.7288 20.8059 17.0109C21.2611 18.0803 21.3605 19.2678 21.0896 20.3981C20.8444 21.372 20.4043 22.2862 19.796 23.0853C20.0909 22.8729 20.3869 22.6609 20.6634 22.4247C21.3732 21.8344 21.9659 21.116 22.4106 20.307C22.3859 20.7401 22.3224 21.1701 22.2209 21.5919C22.3979 21.2928 22.556 20.983 22.6943 20.6641C23.1582 19.639 23.4192 18.5338 23.463 17.4094C23.495 16.6424 23.3325 15.8797 22.9906 15.1923C22.3841 14.0864 21.6342 13.0655 20.7602 12.1562ZM15.0724 21.7255C14.9677 21.1077 14.6468 20.5472 14.1669 20.1442C14.0618 20.7096 13.8495 21.2496 13.5416 21.7352C13.4112 21.9419 13.2712 22.1431 13.1279 22.3415C13.1581 21.9977 13.1542 21.652 13.1549 21.3071C12.9983 21.5858 12.8053 21.8418 12.6552 22.124C12.4957 21.8472 12.3023 21.5915 12.1331 21.3208C12.1417 21.6614 12.1529 22.0023 12.1608 22.3429C12.1245 22.2724 12.0818 22.2053 12.0334 22.1424C11.5725 21.5585 11.2562 20.874 11.1103 20.1446C10.6306 20.537 10.3121 21.0921 10.2152 21.7042C9.81126 20.8254 9.44258 19.9285 9.07679 19.0321C9.38249 19.176 9.71447 19.2555 10.0522 19.2659C10.3899 19.2762 10.7261 19.2171 11.04 19.0922C11.5459 18.8992 12.0078 18.5593 12.563 18.5205C13.0424 18.5377 13.5087 18.6812 13.9149 18.9363C14.2855 19.1383 14.6981 19.251 15.1199 19.2654C15.496 19.27 15.8683 19.1902 16.2094 19.0317C15.8569 19.9404 15.4519 20.8279 15.0724 21.7255Z" fill="#485648"/>
</svg>
