<svg width="49" height="54" viewBox="0 0 49 54" fill="none" xmlns="http://www.w3.org/2000/svg">
<path d="M20.2391 4.21875C19.6511 4.21875 19.1739 4.69125 19.1739 5.27344C19.1739 5.85563 19.6511 6.32812 20.2391 6.32812C20.8271 6.32812 21.3043 5.85563 21.3043 5.27344C21.3043 4.69125 20.8271 4.21875 20.2391 4.21875ZM7.45652 18.1406C6.86852 18.1406 6.3913 18.6131 6.3913 19.1953C6.3913 19.7775 6.86852 20.25 7.45652 20.25C8.04452 20.25 8.52174 19.7775 8.52174 19.1953C8.52174 18.6131 8.04452 18.1406 7.45652 18.1406ZM7.45652 24.4688C6.86852 24.4688 6.3913 24.9412 6.3913 25.5234C6.3913 26.1056 6.86852 26.5781 7.45652 26.5781C8.04452 26.5781 8.52174 26.1056 8.52174 25.5234C8.52174 24.9412 8.04452 24.4688 7.45652 24.4688ZM7.45652 30.7969C6.86852 30.7969 6.3913 31.2694 6.3913 31.8516C6.3913 32.4338 6.86852 32.9062 7.45652 32.9062C8.04452 32.9062 8.52174 32.4338 8.52174 31.8516C8.52174 31.2694 8.04452 30.7969 7.45652 30.7969ZM7.45652 37.125C6.86852 37.125 6.3913 37.5975 6.3913 38.1797C6.3913 38.7619 6.86852 39.2344 7.45652 39.2344C8.04452 39.2344 8.52174 38.7619 8.52174 38.1797C8.52174 37.5975 8.04452 37.125 7.45652 37.125ZM7.45652 43.4531C6.86852 43.4531 6.3913 43.9256 6.3913 44.5078C6.3913 45.09 6.86852 45.5625 7.45652 45.5625C8.04452 45.5625 8.52174 45.09 8.52174 44.5078C8.52174 43.9256 8.04452 43.4531 7.45652 43.4531ZM33.0217 18.1406H11.7174C11.1292 18.1406 10.6522 18.6129 10.6522 19.1953C10.6522 19.7777 11.1292 20.25 11.7174 20.25H33.0217C33.61 20.25 34.087 19.7777 34.087 19.1953C34.087 18.6129 33.61 18.1406 33.0217 18.1406ZM33.0217 24.4688H11.7174C11.1292 24.4688 10.6522 24.941 10.6522 25.5234C10.6522 26.1058 11.1292 26.5781 11.7174 26.5781H33.0217C33.61 26.5781 34.087 26.1058 34.087 25.5234C34.087 24.941 33.61 24.4688 33.0217 24.4688ZM33.0217 30.7969H11.7174C11.1292 30.7969 10.6522 31.2692 10.6522 31.8516C10.6522 32.434 11.1292 32.9062 11.7174 32.9062H33.0217C33.61 32.9062 34.087 32.434 34.087 31.8516C34.087 31.2692 33.61 30.7969 33.0217 30.7969ZM42.2967 40.5979C41.8806 40.1861 41.2063 40.1861 40.7903 40.598L37.2826 44.0709L35.9054 42.7073C35.4893 42.2955 34.815 42.2955 34.3989 42.7073C33.9829 43.1191 33.9829 43.7869 34.3989 44.1989L36.5293 46.3083C36.7374 46.5141 37.0099 46.6172 37.2826 46.6172C37.5553 46.6172 37.8278 46.5141 38.0358 46.3083L42.2967 42.0895C42.7127 41.6777 42.7127 41.0098 42.2967 40.5979Z" fill="white"/>
<path d="M40.4783 33.1178V9.49219C40.4783 7.74752 39.0447 6.32812 37.2826 6.32812H29.6429C29.2031 5.10057 28.0192 4.21875 26.6304 4.21875H25.4582C24.9634 1.8147 22.8112 0 20.2391 0C17.6671 0 15.5149 1.8147 15.0201 4.21875H13.8478C12.4592 4.21875 11.2751 5.10057 10.8354 6.32812H3.19565C1.43357 6.32812 0 7.74752 0 9.49219V50.8359C0 52.5806 1.43357 54 3.19565 54H38.3478C44.2215 54 49 49.2688 49 43.4531C49 38.3878 45.3983 34.1011 40.4783 33.1178ZM12.7826 7.38281C12.7826 6.80126 13.2605 6.32812 13.8478 6.32812H15.9783C16.5665 6.32812 17.0435 5.85584 17.0435 5.27344C17.0435 3.52877 18.477 2.10938 20.2391 2.10938C22.0012 2.10938 23.4348 3.52877 23.4348 5.27344C23.4348 5.85584 23.9118 6.32812 24.5 6.32812H26.6304C27.2178 6.32812 27.6957 6.80126 27.6957 7.38281V8.4375H12.7826V7.38281ZM3.19565 51.8906C2.60829 51.8906 2.13043 51.4175 2.13043 50.8359V9.49219C2.13043 8.91063 2.60829 8.4375 3.19565 8.4375H10.6522V9.49219C10.6522 10.0746 11.1292 10.5469 11.7174 10.5469H28.7609C29.3491 10.5469 29.8261 10.0746 29.8261 9.49219V8.4375H37.2826C37.87 8.4375 38.3478 8.91063 38.3478 9.49219V32.9062C34.9789 32.9062 31.8356 34.4735 29.8268 37.125H11.7174C11.1292 37.125 10.6522 37.5973 10.6522 38.1797C10.6522 38.7621 11.1292 39.2238 11.7174 39.2238H28.5832C27.9998 40.5452 27.6957 41.9867 27.6957 43.4531H11.7174C11.1292 43.4531 10.6522 43.9254 10.6522 44.5078C10.6522 45.0902 11.1292 45.5625 11.7174 45.5625H27.9093C28.438 48.1554 29.9116 50.3783 31.9465 51.8906H3.19565ZM38.3478 51.8906C33.9961 51.8906 30.3551 48.667 29.8783 44.393C29.8437 44.0808 29.8263 43.7671 29.8261 43.4531C29.8261 41.7757 30.3214 40.1566 31.2587 38.7698L31.2598 38.7681L31.2609 38.7663C32.8482 36.4177 35.4974 35.0156 38.3478 35.0156C38.6613 35.0156 38.9807 35.033 39.297 35.0673C43.6142 35.5398 46.8696 39.1447 46.8696 43.4531C46.8696 48.1056 43.0467 51.8906 38.3478 51.8906Z" fill="white"/>
</svg>
