<svg width="14" height="20" viewBox="0 0 14 20" fill="none" xmlns="http://www.w3.org/2000/svg">
<path d="M7 14.475C8.65 13.1417 9.89583 11.8583 10.7375 10.625C11.5792 9.39167 12 8.23333 12 7.15C12 5.65 11.5333 4.41667 10.6 3.45C9.66667 2.48333 8.46667 2 7 2C5.53333 2 4.33333 2.48333 3.4 3.45C2.46667 4.41667 2 5.65 2 7.15C2 8.23333 2.42083 9.39167 3.2625 10.625C4.10417 11.8583 5.35 13.1417 7 14.475ZM7 16.525C6.8 16.525 6.6 16.4917 6.4 16.425C6.2 16.3583 6.01667 16.2583 5.85 16.125C3.88333 14.5583 2.41667 13.0292 1.45 11.5375C0.483333 10.0458 0 8.58333 0 7.15C0 5.06667 0.65 3.35417 1.95 2.0125C3.25 0.670833 4.93333 0 7 0C9.06667 0 10.75 0.670833 12.05 2.0125C13.35 3.35417 14 5.06667 14 7.15C14 8.58333 13.5167 10.0458 12.55 11.5375C11.5833 13.0292 10.1167 14.5583 8.15 16.125C7.98333 16.2583 7.8 16.3583 7.6 16.425C7.4 16.4917 7.2 16.525 7 16.525ZM7 9C7.55 9 8.02083 8.80417 8.4125 8.4125C8.80417 8.02083 9 7.55 9 7C9 6.45 8.80417 5.97917 8.4125 5.5875C8.02083 5.19583 7.55 5 7 5C6.45 5 5.97917 5.19583 5.5875 5.5875C5.19583 5.97917 5 6.45 5 7C5 7.55 5.19583 8.02083 5.5875 8.4125C5.97917 8.80417 6.45 9 7 9ZM1 20C0.716667 20 0.479167 19.9042 0.2875 19.7125C0.0958332 19.5208 0 19.2833 0 19C0 18.7167 0.0958332 18.4792 0.2875 18.2875C0.479167 18.0958 0.716667 18 1 18H13C13.2833 18 13.5208 18.0958 13.7125 18.2875C13.9042 18.4792 14 18.7167 14 19C14 19.2833 13.9042 19.5208 13.7125 19.7125C13.5208 19.9042 13.2833 20 13 20H1Z" fill="#9F9F9F"/>
</svg>
