<svg width="17" height="20" viewBox="0 0 17 20" fill="none" xmlns="http://www.w3.org/2000/svg">
<g clip-path="url(#clip0_650_7858)">
<path d="M8.5 0.871582C5.51288 0.871582 3.02148 3.54774 3.02148 6.96467C3.02148 8.26461 3.37271 9.42377 4.04676 10.51L8.08074 17.5107C8.27644 17.8511 8.72396 17.8504 8.91926 17.5107L12.9707 10.4861C13.6303 9.44918 13.9785 8.23156 13.9785 6.96467C13.9785 3.60494 11.5209 0.871582 8.5 0.871582ZM8.5 9.73426C7.12695 9.73426 6.00977 8.49175 6.00977 6.96467C6.00977 5.4376 7.12695 4.19509 8.5 4.19509C9.87305 4.19509 10.9902 5.4376 10.9902 6.96467C10.9902 8.49175 9.87305 9.73426 8.5 9.73426Z" fill="white"/>
<path d="M12.3935 13.6006L9.88567 17.9613C9.23651 19.0869 7.75987 19.0832 7.11384 17.9624L4.60189 13.6017C2.39175 14.1701 1.0293 15.2112 1.0293 16.4553C1.0293 18.6142 4.87847 19.7788 8.5 19.7788C12.1215 19.7788 15.9707 18.6142 15.9707 16.4553C15.9707 15.2103 14.6064 14.1686 12.3935 13.6006Z" fill="white"/>
</g>
<defs>
<clipPath id="clip0_650_7858">
<rect width="17" height="18.9071" fill="white" transform="translate(0 0.871582)"/>
</clipPath>
</defs>
</svg>
