<svg width="58" height="58" viewBox="0 0 58 58" fill="none" xmlns="http://www.w3.org/2000/svg">
<g clip-path="url(#clip0_1431_43854)">
<path d="M3.65544 20.9078C4.40944 21.3188 4.87298 22.6904 4.69309 23.1942C4.48466 23.7801 4.68177 24.429 5.27989 25.1223C6.20109 26.1903 8.26281 27.527 9.53473 27.2737C9.5854 27.2638 9.63512 27.2495 9.68336 27.2311C10.4283 26.9461 12.6196 26.3267 13.7986 26.8736C13.9388 26.9388 14.0933 26.9669 14.2474 26.9554C14.4015 26.9439 14.5501 26.8931 14.6791 26.8079C15.3424 26.3702 17.5097 25.1694 18.7291 25.3896C18.7744 25.3978 18.8107 25.4064 18.8392 25.4141L18.8388 25.5428C18.8126 25.7845 18.8398 26.029 18.9185 26.259C18.9972 26.4891 19.1254 26.699 19.2941 26.8741C19.5476 27.0653 19.8377 27.2022 20.1465 27.2763C20.4552 27.3504 20.7759 27.36 21.0885 27.3045C21.5246 27.2458 21.9672 27.2565 22.3999 27.3363C22.3646 27.6553 22.2895 27.9688 22.1765 28.2692C21.5566 30.1701 21.3287 31.2526 23.3646 33.201C24.1601 33.9926 24.7466 34.9693 25.0715 36.0435C24.7777 36.4797 24.612 36.9893 24.593 37.5149C24.574 38.0404 24.7026 38.5607 24.9641 39.0169C24.1883 40.3328 23.9029 41.8808 24.1584 43.3868C24.2606 44.5393 24.7864 45.6129 25.6343 46.4001C25.8011 46.5194 25.9367 46.6771 26.0298 46.8598C26.1228 47.0425 26.1706 47.245 26.169 47.45C26.2211 49.2149 26.275 51.0388 28.2139 52.2817C28.8419 53.0307 29.402 53.966 29.4401 54.328C29.2183 54.6467 29.1245 55.0372 29.1772 55.4218C29.3114 56.5234 30.5298 57.5239 30.9005 57.8039C31.0585 57.928 31.2528 57.9969 31.4538 58.0001C31.5004 58.0002 31.5469 57.9962 31.5929 57.9883C31.7133 57.9697 31.8285 57.9259 31.931 57.8597C32.0334 57.7936 32.1208 57.7067 32.1874 57.6045C32.2068 57.5792 32.6826 56.9815 34.1811 56.8166C36.5133 56.5601 38.2003 55.3838 38.8374 54.3321C39.0256 54.1099 39.2317 53.9035 39.4537 53.7149C40.2566 52.9795 41.514 51.8281 41.5326 50.2966C42.5644 49.9413 43.8368 49.2489 43.6061 48.0318C43.527 47.67 43.4289 47.3126 43.312 46.9611C43.1632 46.5195 43.0463 46.0678 42.9622 45.6094C43.5762 45.1713 45.106 44.1436 45.8405 43.6533C46.7146 43.3946 48.107 42.5554 48.107 40.8729C48.1107 40.381 48.0507 39.8908 47.9285 39.4143C47.8068 39.0033 47.8517 38.5609 48.0535 38.1827C48.2304 37.7738 48.2931 37.3246 48.2347 36.8829C48.1764 36.4412 47.9993 36.0236 47.7223 35.6747C47.4336 35.2801 47.2547 34.816 47.2039 34.3298C47.1242 33.6397 47.3548 33.3692 48.0331 32.6899C48.6584 32.1116 49.1813 31.4317 49.5797 30.679C49.9567 29.9322 50.8366 29.253 51.6876 28.5959C52.858 27.6924 54.0683 26.7576 54.415 25.3856C54.5944 24.6737 54.8182 23.984 55.0353 23.317C55.4318 22.0968 55.7739 21.0428 55.7304 20.1778C55.7193 19.9597 55.6299 19.753 55.4785 19.5956C55.3272 19.4383 55.1241 19.3409 54.9066 19.3214C53.7368 19.2866 52.5766 19.5428 51.5304 20.0672C51.2917 20.1929 51.0262 20.2592 50.7564 20.2605C50.4866 20.2617 50.2205 20.1979 49.9807 20.0745C49.8334 19.2829 49.2208 18.204 47.5759 17.4559C46.9701 17.1804 46.9574 17.0843 46.9026 16.6797C46.8614 16.1975 46.7059 15.732 46.4491 15.3219C46.1922 14.9117 45.8413 14.5687 45.4254 14.3211C44.7226 13.8241 44.6968 13.6315 44.6501 13.2821C44.6065 12.8558 44.4758 12.443 44.2661 12.0693C44.0565 11.6955 43.7723 11.3688 43.4312 11.1094C41.9803 9.81663 41.0994 6.66514 41.0994 5.62432C41.0994 5.47606 41.063 5.33008 40.9934 5.19917C40.9238 5.06827 40.8231 4.95644 40.7002 4.87349C40.2114 4.58064 39.6571 4.41452 39.0878 4.39023C38.5184 4.36594 37.952 4.48423 37.44 4.73438C36.65 4.2574 35.7085 4.09789 34.8055 4.28805C34.0329 3.76696 32.4769 2.95768 31.393 3.95999C30.9717 4.34943 30.6295 4.81654 30.3853 5.33568C29.9227 5.14604 29.4651 4.94463 29.0128 4.73166C28.9393 4.52607 28.8277 4.33621 28.6838 4.17205C28.1922 3.60746 27.377 3.32833 26.1966 3.32335C26.1272 3.24877 26.0638 3.16877 26.0072 3.0841C26.1656 2.81055 26.2657 2.50713 26.3009 2.19297C26.3362 1.87882 26.3059 1.56077 26.212 1.25891C26.0887 0.975353 25.9058 0.721644 25.6758 0.515003C25.4458 0.308362 25.174 0.153627 24.8789 0.0613007C24.7051 -0.00605678 24.5148 -0.0182394 24.3338 0.0264101L22.2358 0.545691L19.0771 0.280613C18.9378 0.269072 18.7978 0.289851 18.6679 0.341332L16.6366 1.14563L13.9468 0.83841C13.825 0.824703 13.7016 0.835696 13.5842 0.87073C13.4667 0.905765 13.3575 0.964122 13.263 1.04232L11.1329 2.81947C11.0183 2.91509 10.9291 3.0376 10.8733 3.17608C10.5096 4.0264 10.0437 4.82921 9.4858 5.56677C9.247 5.87263 8.88586 5.96643 8.31855 6.08514C7.66152 6.22199 6.56359 6.45127 6.33794 7.6815C6.28719 7.95564 5.99084 8.18402 5.51234 8.53338C4.85209 8.93839 4.32084 9.52307 3.98078 10.219C3.45969 11.4801 3.14477 12.2413 3.48144 13.9083C3.62734 14.6288 2.94222 16.2428 2.40889 17.1586C2.34657 17.2661 2.30679 17.3851 2.29198 17.5084C2.26208 17.764 2.04277 20.0301 3.65589 20.9082L3.65544 20.9078ZM4.08047 17.885C4.48964 17.1473 5.55766 15.0339 5.25769 13.5495C5.03022 12.423 5.17522 12.0723 5.65553 10.9105C5.88 10.5316 6.19838 10.2169 6.57991 9.99697C7.17939 9.55925 7.92433 9.01596 8.12098 8.00821C8.30517 7.94128 8.49505 7.89123 8.6883 7.85868C9.55225 7.76067 10.3473 7.34006 10.9145 6.681C11.5282 5.8737 12.0468 4.99838 12.4601 4.07236L14.1263 2.68308L16.6556 2.97172C16.8037 2.98922 16.9539 2.96944 17.0924 2.91418L19.1378 2.10444L22.2336 2.36408C22.3319 2.37197 22.4309 2.36402 22.5267 2.34052L24.4584 1.86247C24.4978 1.88513 24.515 1.8951 24.515 1.89102C24.4748 2.08451 24.4034 2.27016 24.3034 2.44066C23.8558 3.32607 24.5064 4.3098 25.2641 4.93511C25.4362 5.07898 25.6562 5.15275 25.8803 5.14174C26.8527 5.09869 27.198 5.27586 27.2895 5.33975C27.2883 5.51112 27.3357 5.67931 27.4262 5.82486C27.5166 5.97042 27.6465 6.08737 27.8007 6.16218C30.6594 7.54647 31.0532 7.51249 31.5244 7.04532C31.6867 6.86716 31.8097 6.6569 31.8856 6.42816C32.035 6.00483 32.2787 5.62102 32.5983 5.30577C32.7918 5.24777 33.5182 5.55318 34.0746 5.99724C34.2019 6.0994 34.3544 6.16535 34.5161 6.18816C34.6777 6.21096 34.8425 6.18978 34.9931 6.12683C35.2993 6.02881 35.6253 6.00957 35.9409 6.07087C36.2565 6.13217 36.5516 6.27204 36.7988 6.47755C36.9463 6.60465 37.1308 6.68083 37.325 6.69479C37.5192 6.70875 37.7127 6.65974 37.8768 6.55503C38.0853 6.40714 38.3216 6.3031 38.5715 6.2492C38.8213 6.19531 39.0795 6.19268 39.3304 6.24147C39.542 7.94432 40.5276 10.9494 42.225 12.4624C42.7773 12.9541 42.8059 13.1684 42.8535 13.5227C42.9504 14.2477 43.1321 14.9188 44.3787 15.8006C44.5892 15.9057 44.7677 16.0652 44.8956 16.2625C45.0236 16.4599 45.0964 16.688 45.1064 16.923C45.2088 17.6783 45.4259 18.4681 46.8256 19.1052C48.1922 19.7269 48.2049 20.442 48.2076 20.4433C48.1766 20.5813 48.1848 20.7252 48.231 20.8589C48.2773 20.9926 48.3599 21.1107 48.4695 21.2C48.9793 21.6627 49.6178 21.9595 50.3001 22.051C50.9825 22.1424 51.6766 22.0242 52.2903 21.7121C52.7652 21.4903 53.2647 21.3254 53.7783 21.2209C53.6623 21.6772 53.4897 22.2087 53.3116 22.757C53.0959 23.4199 52.8517 24.1716 52.6573 24.9419C52.4643 25.7068 51.5489 26.4132 50.5802 27.1613C49.5688 27.9421 48.5239 28.7491 47.962 29.8624C47.6481 30.4427 47.2384 30.9659 46.7503 31.4098C46.0326 32.1285 45.2192 32.9432 45.4037 34.5378C45.4836 35.3007 45.7575 36.0304 46.1993 36.6575C46.4708 37.078 46.5057 37.1319 46.348 37.5683C46.0238 38.2788 45.9591 39.0805 46.1649 39.8339C46.2544 40.1729 46.298 40.5223 46.2945 40.8729C46.2945 41.6595 45.3638 41.9074 45.265 41.9319C45.1562 41.9561 45.0528 42.0002 44.96 42.0619C44.6759 42.2513 42.1724 43.9224 41.6581 44.3185C40.8026 44.9773 41.1982 46.2578 41.5811 47.4962C41.6581 47.7455 41.7315 47.9847 41.7818 48.1773C41.3295 48.4492 40.8364 48.6466 40.3214 48.7618C40.2006 48.7903 40.0869 48.8434 39.9874 48.9176C39.8879 48.9919 39.8047 49.0858 39.743 49.1936C39.6813 49.3013 39.6424 49.4206 39.6287 49.544C39.6151 49.6674 39.6269 49.7923 39.6635 49.9109C39.9208 50.7447 39.1995 51.4905 38.2293 52.3787C37.8712 52.6729 37.5544 53.014 37.2873 53.3928C36.9715 53.9143 35.7951 54.816 33.9831 55.0154C33.0809 55.0878 32.2104 55.3809 31.4483 55.8691C31.2674 55.6945 31.115 55.4927 30.9965 55.271C31.8394 54.0249 30.4301 52.0669 29.4967 50.9921C29.4342 50.9203 29.3608 50.8589 29.2792 50.8099C28.17 50.1429 28.0367 49.301 27.9805 47.3961C27.977 46.9641 27.8809 46.5379 27.6985 46.1462C27.5161 45.7546 27.2518 45.4067 26.9234 45.1259C26.3503 44.6153 26.0019 43.8992 25.9537 43.1331C25.6343 40.8738 26.6787 39.7125 26.7159 39.6721C26.8695 39.5137 26.9601 39.3047 26.9706 39.0843C26.9811 38.8639 26.9108 38.6473 26.773 38.475C26.11 37.648 26.4907 37.1165 26.6733 36.9375C26.788 36.8337 26.8743 36.7023 26.9238 36.5557C26.9733 36.4091 26.9844 36.2523 26.956 36.1001C26.5957 34.5025 25.7841 33.0419 24.6179 31.892C23.3102 30.6404 23.3881 30.3994 23.8993 28.8307C24.1861 27.9507 24.443 26.9497 23.8571 26.2043C23.2535 25.4359 22.1035 25.41 20.9517 25.4975C20.8519 25.5057 20.7518 25.5092 20.6517 25.5079C20.6729 25.2776 20.6481 25.0454 20.5789 24.8247C20.5097 24.6041 20.3973 24.3994 20.2483 24.2225C20.0994 24.0456 19.9168 23.9 19.7111 23.7942C19.5055 23.6884 19.2809 23.6245 19.0504 23.6061C17.2882 23.2889 15.0121 24.4911 14.0796 25.0471C12.191 24.4761 9.76719 25.2718 9.14958 25.4957C8.51883 25.4871 6.72173 24.2623 6.44533 23.661C6.85087 22.2218 5.91834 20.0767 4.52272 19.3168C4.14527 19.1111 4.06416 18.3386 4.08047 17.885ZM46.2188 50.6473C46.2188 51.4792 46.7109 52.2441 47.106 52.8585C47.2433 53.0603 47.3674 53.2706 47.4776 53.4884C47.464 53.6417 47.4832 53.7962 47.534 53.9415C47.5848 54.0869 47.666 54.2197 47.7721 54.3312C47.9131 54.4812 48.2348 54.8233 49.499 54.8233C49.9678 54.8187 50.4359 54.7835 50.9001 54.7177C51.044 54.6987 51.1812 54.6453 51.3002 54.5622C51.4191 54.4791 51.5164 54.3686 51.5838 54.2401C53.3787 50.8154 53.7856 50.0093 53.8775 49.6889H53.8785C53.9423 49.4637 54.5831 47.7278 55.1653 46.1799C55.1874 46.1213 55.2032 46.0606 55.2125 45.9987C55.4331 44.5623 55.2773 41.9509 53.2903 41.2744C53.1752 41.2354 53.0535 41.2199 52.9323 41.2288C52.8111 41.2378 52.6929 41.271 52.5848 41.3265C52.4767 41.382 52.3808 41.4586 52.3029 41.5519C52.225 41.6451 52.1666 41.7531 52.1312 41.8693C51.974 42.3841 51.326 43.9356 50.4379 44.2985C50.1285 44.419 49.8113 44.5184 49.4886 44.5962C48.5769 44.8364 47.2003 45.1989 47.4858 47.3177C47.5782 48.0065 47.2909 48.4116 46.9271 48.9236C46.5093 49.4055 46.2606 50.0108 46.2188 50.6473ZM48.4047 49.973C48.7408 49.5755 48.9921 49.1134 49.1429 48.6151C49.2938 48.1168 49.3411 47.593 49.282 47.0757C49.2508 46.9109 49.247 46.742 49.2706 46.5759C49.4869 46.4723 49.7152 46.396 49.9503 46.3489C50.3494 46.2511 50.7415 46.1265 51.1239 45.976C52.086 45.4999 52.8563 44.7089 53.3066 43.7344C53.4667 44.3559 53.5095 45.0017 53.4326 45.6389C52.5345 48.0268 52.2381 48.847 52.1403 49.1896C52.0102 49.4886 51.0913 51.2712 50.2027 52.9709C49.8776 52.9996 49.5511 53.0094 49.2249 53.0003C49.0774 52.6018 48.8775 52.2246 48.6304 51.8789C48.3481 51.5139 48.1442 51.0946 48.0313 50.6473C48.1047 50.3978 48.2322 50.1676 48.4047 49.973Z" fill="white"/>
<path d="M42.8592 27.9218C42.2676 25.2175 39.9972 23.9999 38.0028 23.9999C38.0028 23.9999 38.0028 23.9999 37.9972 23.9999C36.0085 23.9999 33.7324 25.2116 33.1409 27.916C32.4817 30.9365 34.262 33.4945 35.8733 35.1043C36.4704 35.7014 37.2366 35.9999 38.0028 35.9999C38.769 35.9999 39.5352 35.7014 40.1268 35.1043C41.7381 33.4945 43.5184 30.9423 42.8592 27.9218ZM38.0028 30.8545C37.0226 30.8545 36.2282 30.0292 36.2282 29.0106C36.2282 27.9921 37.0226 27.1667 38.0028 27.1667C38.9831 27.1667 39.7775 27.9921 39.7775 29.0106C39.7775 30.0292 38.9831 30.8545 38.0028 30.8545Z" fill="white"/>
</g>
<defs>
<clipPath id="clip0_1431_43854">
<rect width="58" height="58" fill="white"/>
</clipPath>
</defs>
</svg>
