<svg width="51" height="51" viewBox="0 0 51 51" fill="none" xmlns="http://www.w3.org/2000/svg">
<path d="M16.7428 25.6488C16.7428 24.7775 17.4653 24.055 18.3366 24.055H29.9816V6.0775C29.9603 5.0575 29.1528 4.25 28.1328 4.25C15.6166 4.25 6.88281 12.9838 6.88281 25.5C6.88281 38.0163 15.6166 46.75 28.1328 46.75C29.1316 46.75 29.9603 45.9425 29.9603 44.9225V27.2213H18.3366C17.4441 27.2425 16.7428 26.52 16.7428 25.6488Z" fill="#485648"/>
<path d="M43.6459 24.5263L37.6109 18.47C36.9947 17.8538 35.9747 17.8538 35.3584 18.47C34.7422 19.0862 34.7422 20.1063 35.3584 20.7225L38.6734 24.0375H29.9609V27.225H38.6522L35.3372 30.54C34.7209 31.1563 34.7209 32.1763 35.3372 32.7925C35.6559 33.1113 36.0597 33.26 36.4634 33.26C36.8672 33.26 37.2709 33.1113 37.5897 32.7925L43.6247 26.7363C44.2622 26.1413 44.2622 25.1425 43.6459 24.5263Z" fill="#485648"/>
</svg>
