<svg width="14" height="12" viewBox="0 0 14 12" fill="none" xmlns="http://www.w3.org/2000/svg">
<path opacity="0.4" d="M10.334 11.6693H3.66732C1.66732 11.6693 0.333984 10.6693 0.333984 8.33594V3.66927C0.333984 1.33594 1.66732 0.335938 3.66732 0.335938H10.334C12.334 0.335938 13.6673 1.33594 13.6673 3.66927V8.33594C13.6673 10.6693 12.334 11.6693 10.334 11.6693Z" fill="#757575"/>
<path d="M6.9992 6.58388C6.4392 6.58388 5.87254 6.41055 5.4392 6.05722L3.35253 4.39055C3.1392 4.21722 3.0992 3.90389 3.27254 3.69055C3.44587 3.47722 3.75921 3.43722 3.97254 3.61056L6.0592 5.27722C6.56587 5.68389 7.42586 5.68389 7.93253 5.27722L10.0192 3.61056C10.2325 3.43722 10.5525 3.47055 10.7192 3.69055C10.8925 3.90389 10.8592 4.22389 10.6392 4.39055L8.55254 6.05722C8.12587 6.41055 7.5592 6.58388 6.9992 6.58388Z" fill="#757575"/>
</svg>
