<svg width="264" height="264" viewBox="0 0 264 264" fill="none" xmlns="http://www.w3.org/2000/svg">
<g clip-path="url(#clip0_1479_50968)">
<rect width="264" height="264" fill="white"/>
<mask id="mask0_1479_50968" style="mask-type:luminance" maskUnits="userSpaceOnUse" x="1" y="0" width="263" height="263">
<path d="M1 0H264V263H1V0Z" fill="white"/>
</mask>
<g mask="url(#mask0_1479_50968)">
<g filter="url(#filter0_d_1479_50968)">
<path d="M110.263 194.803C108.968 201.441 111.301 209.314 114.743 214.795C124.6 230.486 117.662 230.627 125.174 241.921C130.604 250.084 123.939 253.526 136.513 257.366C148.497 261.026 163.713 243.306 173.61 237.295C174.932 236.492 179.692 232.92 182.181 226.716C183.486 223.466 183.786 216.575 183.461 215.265C178.909 196.869 198.853 203.16 200.476 189.967C201.334 182.989 199.457 181.188 199.457 172.484C199.457 134.534 204.146 148.804 224.664 123.643C233.169 113.212 235.375 110.793 237.077 96.9518C238.606 84.5214 219.598 102.97 211.256 93.1054C203.515 83.9502 207.587 88.4038 197.769 82.175C191.926 78.4694 191.761 66.0221 189.371 61.1093C186.981 56.1971 182.808 56.2844 177.896 47.6115C173.73 40.2537 180.267 32.5574 174.889 25.0069C173.637 23.2491 156.094 27.9307 147.793 24.7973C145.359 23.8789 134.14 20.3921 132.318 22.644C129.786 25.7723 134.747 29.52 131.874 31.4658C126.622 35.0235 122.098 29.3618 117.576 28.3268C113.922 27.4905 107.795 23.5594 106.965 19.8466C105.58 13.645 105.211 10.7551 99.098 7.43317C93.8807 4.59822 86.209 4.26073 80.594 7.11314C78.8321 8.00848 75.313 11.1393 70.882 12.2411C67.3146 13.1277 62.9196 11.3915 58.9304 12.5365C52.582 14.358 44.9945 18.6929 44.9945 24.4973C44.9945 38.7995 34.5747 30.5756 24.1456 45.4587C20.3716 50.8441 18.845 51.2124 18.845 63.4676C18.845 76.2719 8.18375 81.9603 19.7193 103.506C22.1556 108.055 42.1976 124.898 46.9947 122.918C59.8098 117.632 62.6854 125.073 74.7649 117.236C78.8645 114.576 88.8123 119.681 95.6009 119.681C104.146 119.681 98.7837 131.129 97.2596 135.417C94.4734 143.253 101.019 142.95 105.916 149.457" fill="#485648"/>
<path d="M244.209 177.63C240.386 177.113 237.763 181.759 235.354 185.582C232.845 189.562 230.657 189.888 226.484 191.333C222.197 192.817 223.835 203.599 220.12 211.294C216.078 219.665 215.172 230.353 222.627 231.249C235.325 232.775 236.488 216.846 242.037 210.857C246.591 205.945 249.081 199.681 250.357 193.222C251.203 188.933 250.478 178.48 244.209 177.63Z" fill="#485648"/>
</g>
</g>
<path d="M4.4258 214.189C4.76256 214.382 5.16185 214.433 5.53626 214.331C5.91066 214.23 6.22971 213.985 6.42353 213.649C34.8327 164.22 78.0485 145.373 109.299 138.267C139.092 131.49 163.984 133.789 169.822 134.48L158.265 143.068C157.953 143.299 157.747 143.645 157.69 144.029C157.633 144.413 157.732 144.804 157.963 145.116C158.195 145.427 158.541 145.634 158.925 145.691C159.309 145.747 159.699 145.649 160.011 145.417L175.189 134.137C175.359 134.01 175.499 133.848 175.6 133.661C175.701 133.475 175.761 133.268 175.774 133.057C175.788 132.845 175.755 132.633 175.679 132.435C175.602 132.237 175.484 132.058 175.332 131.911L161.371 118.482C161.233 118.349 161.07 118.244 160.891 118.174C160.712 118.104 160.521 118.07 160.329 118.074C160.137 118.077 159.948 118.119 159.772 118.196C159.596 118.273 159.437 118.384 159.303 118.522C159.17 118.66 159.066 118.824 158.996 119.003C158.926 119.181 158.892 119.372 158.895 119.564C158.899 119.756 158.941 119.946 159.018 120.122C159.095 120.298 159.205 120.457 159.344 120.59L170.856 131.663C166.312 131.081 140.214 128.259 108.76 135.392C76.9038 142.617 32.8495 161.806 3.89056 212.195C3.79456 212.361 3.73224 212.544 3.70719 212.734C3.68213 212.924 3.69483 213.118 3.74455 213.303C3.79427 213.488 3.88002 213.662 3.99691 213.814C4.11381 213.966 4.25955 214.093 4.4258 214.189Z" fill="white"/>
</g>
<defs>
<filter id="filter0_d_1479_50968" x="10.3555" y="5.13281" width="244.289" height="260.727" filterUnits="userSpaceOnUse" color-interpolation-filters="sRGB">
<feFlood flood-opacity="0" result="BackgroundImageFix"/>
<feColorMatrix in="SourceAlpha" type="matrix" values="0 0 0 0 0 0 0 0 0 0 0 0 0 0 0 0 0 0 127 0" result="hardAlpha"/>
<feOffset dy="4"/>
<feGaussianBlur stdDeviation="2"/>
<feComposite in2="hardAlpha" operator="out"/>
<feColorMatrix type="matrix" values="0 0 0 0 0.23596 0 0 0 0 0.292346 0 0 0 0 0.23596 0 0 0 0.51 0"/>
<feBlend mode="normal" in2="BackgroundImageFix" result="effect1_dropShadow_1479_50968"/>
<feBlend mode="normal" in="SourceGraphic" in2="effect1_dropShadow_1479_50968" result="shape"/>
</filter>
<clipPath id="clip0_1479_50968">
<rect width="264" height="264" fill="white"/>
</clipPath>
</defs>
</svg>
