<svg width="264" height="264" viewBox="0 0 264 264" fill="none" xmlns="http://www.w3.org/2000/svg">
<g clip-path="url(#clip0_1479_50996)">
<rect width="264" height="264" fill="white"/>
<mask id="mask0_1479_50996" style="mask-type:luminance" maskUnits="userSpaceOnUse" x="0" y="0" width="263" height="263">
<path d="M0 0H263V263H0V0Z" fill="white"/>
</mask>
<g mask="url(#mask0_1479_50996)">
<path d="M109.263 194.803C107.968 201.441 110.301 209.314 113.743 214.795C123.6 230.486 116.662 230.627 124.174 241.921C129.604 250.084 122.939 253.526 135.513 257.366C147.497 261.026 162.713 243.306 172.61 237.295C173.932 236.492 178.692 232.92 181.181 226.716C182.486 223.466 182.786 216.575 182.461 215.265C177.909 196.869 197.853 203.16 199.476 189.967C200.334 182.989 198.457 181.188 198.457 172.484C198.457 134.534 203.146 148.804 223.664 123.643C232.169 113.212 234.375 110.793 236.077 96.9518C237.606 84.5214 218.598 102.97 210.256 93.1054C202.515 83.9502 206.587 88.4038 196.769 82.175C190.926 78.4694 190.761 66.0221 188.371 61.1093C185.981 56.1971 181.808 56.2844 176.896 47.6115C172.73 40.2537 179.267 32.5574 173.889 25.0069C172.637 23.2491 155.094 27.9307 146.793 24.7973C144.359 23.8789 133.14 20.3921 131.318 22.644C128.786 25.7723 133.747 29.52 130.874 31.4658C125.622 35.0235 121.098 29.3618 116.576 28.3268C112.922 27.4905 106.795 23.5594 105.965 19.8466C104.58 13.645 104.211 10.7551 98.098 7.43317C92.8807 4.59822 85.209 4.26073 79.594 7.11314C77.8321 8.00848 74.313 11.1393 69.882 12.2411C66.3146 13.1277 61.9196 11.3915 57.9304 12.5365C51.582 14.358 43.9945 18.6929 43.9945 24.4973C43.9945 38.7995 33.5747 30.5756 23.1456 45.4587C19.3716 50.8441 17.845 51.2124 17.845 63.4676C17.845 76.2719 7.18375 81.9603 18.7193 103.506C21.1556 108.055 41.1976 124.898 45.9947 122.918C58.8098 117.632 61.6854 125.073 73.7649 117.236C77.8645 114.576 87.8123 119.681 94.6009 119.681C103.146 119.681 97.7837 131.129 96.2596 135.417C93.4734 143.253 100.019 142.95 104.916 149.457" fill="#485648"/>
<path d="M243.209 177.63C239.386 177.113 236.763 181.759 234.354 185.582C231.845 189.562 229.657 189.888 225.484 191.333C221.197 192.817 222.835 203.599 219.12 211.294C215.078 219.665 214.172 230.353 221.627 231.249C234.325 232.775 235.488 216.846 241.037 210.857C245.591 205.945 248.081 199.681 249.357 193.222C250.203 188.933 249.478 178.48 243.209 177.63Z" fill="#485648"/>
</g>
<g clip-path="url(#clip1_1479_50996)">
<path d="M243.227 69.8547C243.305 70.2305 243.258 70.629 243.097 70.9631C242.935 71.2971 242.671 71.5395 242.364 71.6371C197.169 85.8936 172.85 122.549 160.408 150.789C148.544 177.71 144.91 202.319 144.177 208.131L153.478 199.27C153.729 199.032 154.047 198.924 154.362 198.972C154.678 199.019 154.964 199.218 155.159 199.524C155.354 199.83 155.442 200.218 155.402 200.603C155.363 200.988 155.2 201.339 154.949 201.578L142.732 213.214C142.595 213.344 142.436 213.436 142.267 213.484C142.098 213.531 141.922 213.534 141.752 213.491C141.582 213.447 141.422 213.36 141.283 213.233C141.144 213.107 141.029 212.946 140.945 212.76L133.411 195.734C133.336 195.565 133.289 195.379 133.273 195.188C133.257 194.997 133.272 194.804 133.317 194.62C133.362 194.436 133.436 194.264 133.535 194.115C133.634 193.966 133.757 193.842 133.895 193.751C134.033 193.659 134.185 193.602 134.341 193.582C134.498 193.562 134.656 193.579 134.806 193.634C134.957 193.689 135.097 193.779 135.219 193.9C135.341 194.021 135.442 194.17 135.517 194.339L141.729 208.379C142.265 203.844 145.75 177.934 158.259 149.506C170.927 120.713 195.699 83.3403 241.772 68.8089C241.924 68.7604 242.082 68.7491 242.237 68.7754C242.393 68.8018 242.542 68.8654 242.678 68.9625C242.813 69.0597 242.931 69.1884 243.025 69.3415C243.12 69.4946 243.188 69.669 243.227 69.8547Z" fill="white"/>
</g>
</g>
<defs>
<clipPath id="clip0_1479_50996">
<rect width="264" height="264" fill="white"/>
</clipPath>
<clipPath id="clip1_1479_50996">
<rect width="195" height="159.582" fill="white" transform="matrix(0.00444615 -0.99999 -0.99999 -0.00444615 267.58 239.703)"/>
</clipPath>
</defs>
</svg>
