<svg width="264" height="264" viewBox="0 0 264 264" fill="none" xmlns="http://www.w3.org/2000/svg">
<g clip-path="url(#clip0_1479_51028)">
<rect width="264" height="264" fill="white"/>
<path d="M108.907 194.663C107.613 201.3 109.945 209.173 113.388 214.655C123.244 230.345 116.307 230.487 123.819 241.78C129.248 249.943 122.583 253.386 135.158 257.226C147.142 260.886 162.358 243.166 172.254 237.155C173.576 236.352 178.337 232.779 180.826 226.575C182.13 223.325 182.43 216.435 182.106 215.124C177.553 196.728 197.498 203.019 199.12 189.827C199.979 182.848 198.101 181.047 198.101 172.343C198.101 134.393 202.791 148.664 223.309 123.502C231.814 113.071 234.02 110.653 235.722 96.8111C237.251 84.3808 218.242 102.83 209.9 92.9648C202.159 83.8096 206.231 88.2631 196.413 82.0343C190.571 78.3287 190.405 65.8814 188.015 60.9686C185.625 56.0564 181.452 56.1437 176.541 47.4709C172.374 40.1131 178.912 32.4167 173.534 24.8663C172.281 23.1085 154.739 27.7901 146.438 24.6567C144.004 23.7382 132.785 20.2514 130.962 22.5034C128.431 25.6316 133.392 29.3794 130.519 31.3251C125.266 34.8828 120.743 29.2212 116.22 28.1861C112.567 27.3499 106.44 23.4187 105.61 19.7059C104.225 13.5043 103.855 10.6144 97.7425 7.29251C92.5252 4.45755 84.8535 4.12007 79.2385 6.97249C77.4766 7.86781 73.9575 10.9987 69.5266 12.1005C65.9591 12.9871 61.5641 11.2509 57.5749 12.3958C51.2265 14.2173 43.639 18.5522 43.639 24.3567C43.639 38.6589 33.2192 30.435 22.7901 45.3181C19.0162 50.7034 17.4895 51.0717 17.4895 63.3269C17.4895 76.1312 6.82828 81.8196 18.3638 103.366C20.8002 107.915 40.8421 124.757 45.6393 122.778C58.4544 117.491 61.3299 124.933 73.4094 117.096C77.509 114.435 87.4568 119.541 94.2455 119.541C102.791 119.541 97.4282 130.989 95.9041 135.276C93.118 143.113 99.6637 142.809 104.561 149.316" fill="#485648"/>
<path d="M242.853 177.49C239.03 176.972 236.407 181.619 233.998 185.441C231.49 189.421 229.301 189.748 225.128 191.193C220.842 192.676 222.48 203.459 218.764 211.153C214.723 219.525 213.816 230.213 221.271 231.108C233.969 232.635 235.132 216.705 240.682 210.717C245.236 205.804 247.726 199.541 249.001 193.081C249.848 188.792 249.122 178.339 242.853 177.49Z" fill="#485648"/>
<g clip-path="url(#clip1_1479_51028)">
<path d="M208.433 -30.1336C208.553 -29.7691 208.552 -29.3678 208.429 -29.0175C208.307 -28.6672 208.072 -28.3964 207.778 -28.2644C164.503 -8.94789 144.522 30.2414 135.381 59.7153C126.664 87.8143 125.859 112.677 125.794 118.534L134.025 108.671C134.246 108.405 134.55 108.262 134.869 108.273C135.187 108.284 135.495 108.449 135.723 108.731C135.952 109.013 136.083 109.388 136.088 109.776C136.093 110.163 135.971 110.53 135.749 110.796L124.938 123.749C124.817 123.894 124.669 124.003 124.507 124.07C124.344 124.137 124.17 124.159 123.996 124.135C123.823 124.112 123.653 124.043 123.501 123.933C123.348 123.824 123.215 123.676 123.111 123.501L113.684 107.445C113.591 107.286 113.523 107.107 113.486 106.919C113.448 106.731 113.441 106.538 113.464 106.35C113.488 106.162 113.542 105.983 113.624 105.823C113.705 105.664 113.812 105.527 113.939 105.42C114.066 105.313 114.211 105.239 114.364 105.201C114.517 105.164 114.676 105.163 114.831 105.2C114.987 105.237 115.137 105.311 115.272 105.417C115.407 105.524 115.524 105.66 115.618 105.82L123.391 119.06C123.406 114.493 123.914 88.3549 133.1 58.6858C142.403 28.6369 162.752 -11.3169 206.867 -31.0066C207.013 -31.0721 207.169 -31.1014 207.326 -31.0929C207.484 -31.0845 207.639 -31.0383 207.785 -30.9573C207.93 -30.8762 208.062 -30.7617 208.173 -30.6203C208.285 -30.479 208.373 -30.3136 208.433 -30.1336Z" fill="white"/>
</g>
</g>
<defs>
<clipPath id="clip0_1479_51028">
<rect width="264" height="264" fill="white"/>
</clipPath>
<clipPath id="clip1_1479_51028">
<rect width="195" height="159.582" fill="white" transform="matrix(-0.109598 -0.993976 -0.993976 0.109598 251.992 135.82)"/>
</clipPath>
</defs>
</svg>
