<svg width="264" height="264" viewBox="0 0 264 264" fill="none" xmlns="http://www.w3.org/2000/svg">
<g clip-path="url(#clip0_1479_51054)">
<rect width="264" height="264" fill="white"/>
<path d="M108.907 194.67C107.613 201.308 109.945 209.181 113.388 214.662C123.244 230.353 116.307 230.494 123.819 241.788C129.248 249.951 122.583 253.393 135.158 257.234C147.142 260.893 162.358 243.173 172.254 237.162C173.576 236.359 178.337 232.787 180.826 226.583C182.13 223.333 182.43 216.442 182.106 215.132C177.553 196.736 197.498 203.027 199.12 189.835C199.979 182.856 198.101 181.055 198.101 172.351C198.101 134.401 202.791 148.672 223.309 123.51C231.814 113.079 234.02 110.66 235.722 96.819C237.251 84.3886 218.242 102.838 209.9 92.9726C202.159 83.8174 206.231 88.271 196.413 82.0422C190.571 78.3365 190.405 65.8893 188.015 60.9765C185.625 56.0643 181.452 56.1516 176.541 47.4787C172.374 40.1209 178.912 32.4246 173.534 24.8741C172.281 23.1163 154.739 27.7979 146.438 24.6645C144.004 23.7461 132.785 20.2593 130.962 22.5112C128.431 25.6395 133.392 29.3872 130.519 31.333C125.266 34.8907 120.743 29.229 116.22 28.194C112.567 27.3577 106.44 23.4266 105.61 19.7137C104.225 13.5122 103.855 10.6223 97.7426 7.30035C92.5252 4.46541 84.8535 4.12791 79.2385 6.98033C77.4767 7.87567 73.9575 11.0065 69.5266 12.1083C65.9591 12.9949 61.5641 11.2587 57.575 12.4037C51.2265 14.2252 43.639 18.56 43.639 24.3645C43.639 38.6667 33.2192 30.4428 22.7901 45.3259C19.0162 50.7113 17.4895 51.0796 17.4895 63.3348C17.4895 76.1391 6.82828 81.8275 18.3638 103.373C20.8002 107.923 40.8421 124.765 45.6393 122.786C58.4544 117.499 61.3299 124.94 73.4094 117.103C77.509 114.443 87.4568 119.548 94.2455 119.548C102.791 119.548 97.4282 130.997 95.9041 135.284C93.118 143.12 99.6637 142.817 104.561 149.324" fill="#485648"/>
<path d="M242.853 177.498C239.03 176.98 236.407 181.627 233.998 185.449C231.49 189.429 229.301 189.755 225.128 191.2C220.842 192.684 222.48 203.466 218.764 211.161C214.723 219.532 213.816 230.22 221.271 231.116C233.969 232.642 235.132 216.713 240.682 210.725C245.236 205.812 247.726 199.549 249.001 193.089C249.848 188.8 249.122 178.347 242.853 177.498Z" fill="#485648"/>
<g clip-path="url(#clip1_1479_51054)">
<g clip-path="url(#clip2_1479_51054)">
<path d="M130.255 68.5184C130.18 68.8977 130.235 69.2955 130.408 69.6246C130.581 69.9537 130.858 70.1873 131.178 70.2744C178.24 82.9765 204.023 118.86 217.364 146.725C230.085 173.29 234.242 197.826 235.093 203.625L225.313 195.071C225.05 194.84 224.719 194.744 224.393 194.802C224.067 194.861 223.773 195.07 223.576 195.384C223.378 195.697 223.294 196.089 223.341 196.474C223.388 196.859 223.562 197.205 223.826 197.435L236.671 208.668C236.815 208.794 236.981 208.88 237.157 208.922C237.333 208.964 237.515 208.96 237.691 208.911C237.866 208.862 238.031 208.768 238.173 208.637C238.315 208.505 238.432 208.339 238.515 208.15L246.054 190.822C246.129 190.65 246.174 190.463 246.188 190.271C246.202 190.079 246.183 189.886 246.134 189.703C246.084 189.52 246.004 189.351 245.899 189.205C245.794 189.058 245.665 188.939 245.521 188.852C245.376 188.765 245.218 188.712 245.055 188.698C244.893 188.683 244.73 188.707 244.574 188.767C244.419 188.827 244.275 188.922 244.151 189.048C244.026 189.173 243.924 189.326 243.849 189.498L237.634 203.788C237.007 199.261 232.984 173.416 219.571 145.364C205.987 116.953 179.723 80.3661 131.747 67.4191C131.588 67.3759 131.424 67.3701 131.264 67.402C131.103 67.4338 130.949 67.5028 130.81 67.6049C130.672 67.707 130.551 67.8402 130.456 67.997C130.361 68.1537 130.292 68.3309 130.255 68.5184Z" fill="white"/>
</g>
</g>
</g>
<defs>
<clipPath id="clip0_1479_51054">
<rect width="264" height="264" fill="white"/>
</clipPath>
<clipPath id="clip1_1479_51054">
<rect width="229" height="267.448" fill="white" transform="matrix(0.26611 0.963943 0.963943 -0.26611 -22 93.1719)"/>
</clipPath>
<clipPath id="clip2_1479_51054">
<rect width="195.439" height="165.485" fill="white" transform="matrix(-0.0204041 -0.999792 0.999273 -0.0381336 107.707 239.594)"/>
</clipPath>
</defs>
</svg>
