<svg width="818" height="708" viewBox="0 0 818 708" fill="none" xmlns="http://www.w3.org/2000/svg">
<path d="M818 678C818 694.569 804.569 708 788 708H389C372.431 708 359 694.569 359 678V409C359 392.431 345.569 379 329 379H30C13.4315 379 0 365.569 0 349V30C0 13.4315 13.4315 0 30 0H788C804.569 0 818 13.4315 818 30V678Z" fill="white"/>
<path d="M0 436C0 419.431 13.4315 406 30 406H300C316.569 406 330 419.431 330 436V678C330 694.569 316.569 708 300 708H30C13.4314 708 0 694.569 0 678V436Z" fill="white"/>
</svg>
