<svg width="9" height="10" viewBox="0 0 9 10" fill="none" xmlns="http://www.w3.org/2000/svg">
<path d="M8.99998 4.57602C9.00176 5.17732 8.88616 5.773 8.6599 6.32852C8.43364 6.88405 8.10122 7.38837 7.68189 7.81225L6.17644 9.31096C5.72805 9.7553 5.12601 10.0027 4.49999 9.99998C3.874 10.0026 3.27202 9.75515 2.82354 9.31096L1.32463 7.81891C0.468 6.94848 0 5.79928 0 4.57685C0 3.35442 0.467999 2.20439 1.31809 1.34062C1.73485 0.914132 2.23071 0.576028 2.77691 0.345904C3.32311 0.11578 3.90878 -0.0017862 4.49999 2.05114e-05C5.70271 2.05114e-05 6.8318 0.476011 7.68189 1.34062C8.10114 1.76455 8.43352 2.26889 8.65978 2.8244C8.88603 3.37991 9.00167 3.97473 8.99998 4.57602ZM5.72726 4.57102C5.72721 4.40705 5.6954 4.24469 5.63365 4.09322C5.5719 3.94175 5.48143 3.80413 5.36739 3.68822C5.25335 3.57231 5.11798 3.48039 4.96901 3.41769C4.82004 3.35499 4.66039 3.32274 4.49917 3.3228C4.33795 3.32285 4.17832 3.3552 4.02939 3.41801C3.88046 3.48081 3.74515 3.57283 3.63119 3.68881C3.51723 3.8048 3.42684 3.94248 3.3652 4.09399C3.30355 4.2455 3.27185 4.40788 3.2719 4.57186C3.27201 4.90302 3.40146 5.22057 3.63177 5.45466C3.86208 5.68875 4.17439 5.82019 4.49999 5.82008C4.82559 5.81997 5.13781 5.68831 5.36797 5.45407C5.59813 5.21983 5.72737 4.90219 5.72726 4.57102Z" fill="white"/>
</svg>
