<svg width="17" height="21" viewBox="0 0 17 21" fill="none" xmlns="http://www.w3.org/2000/svg">
<path d="M8.35481 1.82031C5.2279 1.82031 2.6867 4.36152 2.6867 7.48842V10.2186C2.6867 10.7948 2.44108 11.6734 2.14823 12.1646L1.06184 13.969C0.391116 15.0837 0.854012 16.3212 2.0821 16.7369C6.1537 18.0972 10.5465 18.0972 14.6181 16.7369C15.7611 16.359 16.2618 15.0081 15.6383 13.969L14.5519 12.1646C14.2685 11.6734 14.0229 10.7948 14.0229 10.2186V7.48842C14.0229 4.37096 11.4723 1.82031 8.35481 1.82031Z" stroke="white" stroke-width="1.5" stroke-miterlimit="10" stroke-linecap="round"/>
<path d="M10.1028 2.08874C9.8099 2.00372 9.5076 1.93759 9.19586 1.8998C8.28896 1.78644 7.41985 1.85257 6.60742 2.08874C6.88138 1.38967 7.56155 0.898437 8.35509 0.898437C9.14862 0.898437 9.8288 1.38967 10.1028 2.08874Z" stroke="white" stroke-width="1.5" stroke-miterlimit="10" stroke-linecap="round" stroke-linejoin="round"/>
<path d="M11.1876 17.0781C11.1876 18.6369 9.91232 19.9122 8.35359 19.9122C7.57894 19.9122 6.86098 19.591 6.35085 19.0809C5.84072 18.5707 5.51953 17.8528 5.51953 17.0781" stroke="white" stroke-width="1.5" stroke-miterlimit="10"/>
</svg>
