<svg width="50" height="50" viewBox="0 0 50 50" fill="none" xmlns="http://www.w3.org/2000/svg">
<g clip-path="url(#clip0_2018_11199)">
<path d="M21.2353 40.8145C21.5958 41.3041 22.1499 41.6125 22.7562 41.6604C22.8103 41.6645 22.8645 41.6666 22.9166 41.6666C23.4666 41.6666 23.9978 41.45 24.3895 41.0562L36.3687 29.077C37.1833 28.2625 37.1833 26.9458 36.3687 26.1312C35.5541 25.3166 34.2374 25.3166 33.4228 26.1312L23.1603 36.3937L18.8666 30.5395C18.1853 29.6125 16.8812 29.4104 15.9541 30.0916C15.027 30.7729 14.8249 32.077 15.5062 33.0041L21.2353 40.8145Z" fill="#485648"/>
<path d="M43.75 6.25H41.6667V2.08333C41.6667 0.933333 40.7333 0 39.5833 0H37.5C36.35 0 35.4167 0.933333 35.4167 2.08333V6.25H14.5833V2.08333C14.5833 0.933333 13.65 0 12.5 0H10.4167C9.26667 0 8.33333 0.933333 8.33333 2.08333V6.25H6.25C2.80417 6.25 0 9.05417 0 12.5V43.75C0 47.1958 2.80417 50 6.25 50H43.75C47.1958 50 50 47.1958 50 43.75V12.5C50 9.05417 47.1958 6.25 43.75 6.25ZM45.8333 43.75C45.8333 44.8979 44.8979 45.8333 43.75 45.8333H6.25C5.10208 45.8333 4.16667 44.8979 4.16667 43.75V20.9167H45.8333V43.75Z" fill="#485648"/>
</g>
<defs>
<clipPath id="clip0_2018_11199">
<rect width="50" height="50" fill="white"/>
</clipPath>
</defs>
</svg>
