<svg width="18" height="18" viewBox="0 0 18 18" fill="none" xmlns="http://www.w3.org/2000/svg">
<g clip-path="url(#clip0_2016_9104)">
<path d="M2.725 4.98926H16.2766H16.9C17.1297 4.98926 17.3594 5.05488 17.5891 5.15332V3.64395C17.5891 2.16738 16.4078 0.95332 14.9313 0.887695V2.2002V2.39707C14.9313 2.75801 14.6359 3.05332 14.275 3.05332C13.9141 3.05332 13.6188 2.7252 13.6188 2.39707C13.6188 2.33145 13.6188 2.26582 13.6188 2.2002C13.6188 1.77363 13.6188 1.34707 13.6188 0.887695H5.51406V2.2002V2.33145C5.51406 2.69238 5.21875 2.9877 4.85781 2.9877C4.49688 2.9877 4.20156 2.65957 4.20156 2.33145C4.20156 2.29863 4.20156 2.23301 4.20156 2.2002C4.20156 2.16738 4.20156 2.16738 4.20156 2.13457C4.20156 1.70801 4.20156 1.31426 4.20156 0.887695C2.69219 0.887695 1.44531 2.13457 1.44531 3.64395V5.84238C1.64219 5.31738 2.13437 4.98926 2.725 4.98926Z" fill="white"/>
<path d="M16.2766 13.7172C15.8172 14.6359 14.8984 15.1938 13.9141 15.1938H3.08594H1.60938C2.00312 16.2766 3.02031 17.0312 4.20156 17.0312H14.8328C16.3422 17.0312 17.5891 15.7844 17.5891 14.275V10.3047C17.4906 10.6656 17.3594 11.0594 17.2281 11.4203C16.9656 12.175 16.6375 12.9625 16.2766 13.7172Z" fill="white"/>
<path d="M16.9 6.30176H2.72499C2.65937 6.30176 2.62656 6.33457 2.62656 6.4002C2.42968 8.00801 2.03593 9.58301 1.51093 11.0924C1.24843 11.7814 0.95312 12.5033 0.624995 13.1924C0.493745 13.4877 0.69062 13.8814 1.05156 13.8814H13.9469C14.4391 13.8814 14.8984 13.5861 15.1281 13.1596C15.4562 12.4705 15.7516 11.7158 16.0141 10.9939C16.5391 9.51738 16.8672 7.9752 17.0312 6.43301C17.0312 6.4002 17.0312 6.36738 16.9984 6.33457C16.9656 6.30176 16.9328 6.30176 16.9 6.30176ZM11.9125 8.95957C11.0266 9.84551 10.1406 10.7314 9.22187 11.6502C8.95937 11.9127 8.53281 11.9127 8.30312 11.6502C7.67968 11.0268 7.05625 10.4033 6.43281 9.77988C5.84218 9.18926 6.76093 8.2377 7.35156 8.86113C7.81093 9.32051 8.30312 9.8127 8.7625 10.2721C9.51718 9.51738 10.2391 8.79551 10.9937 8.04082C11.5844 7.4502 12.5031 8.36895 11.9125 8.95957Z" fill="white"/>
</g>
<defs>
<clipPath id="clip0_2016_9104">
<rect width="18" height="18" fill="white"/>
</clipPath>
</defs>
</svg>
