<svg width="58" height="48" viewBox="0 0 58 48" fill="none" xmlns="http://www.w3.org/2000/svg">
<g clip-path="url(#clip0_2018_11171)">
<path d="M16.0015 20.8281H3.93596C1.7656 20.8281 0 19.0625 0 16.8922V4.82658C0 2.65623 1.7656 0.890625 3.93596 0.890625H16.0015C18.1719 0.890625 19.9375 2.65623 19.9375 4.82658V16.8922C19.9375 19.0625 18.1719 20.8281 16.0015 20.8281ZM3.93596 4.51562C3.76445 4.51562 3.625 4.65507 3.625 4.82658V16.8922C3.625 17.0637 3.76445 17.2031 3.93596 17.2031H16.0015C16.1731 17.2031 16.3125 17.0637 16.3125 16.8922V4.82658C16.3125 4.65507 16.1731 4.51562 16.0015 4.51562H3.93596Z" fill="#485648"/>
<path d="M16.0015 47.1094H3.93596C1.7656 47.1094 0 45.3438 0 43.1734V31.1078C0 28.9375 1.7656 27.1719 3.93596 27.1719H16.0015C18.1719 27.1719 19.9375 28.9375 19.9375 31.1078V43.1734C19.9375 45.3438 18.1719 47.1094 16.0015 47.1094ZM3.93596 30.7969C3.76445 30.7969 3.625 30.9363 3.625 31.1078V43.1734C3.625 43.3449 3.76445 43.4844 3.93596 43.4844H16.0015C16.1731 43.4844 16.3125 43.3449 16.3125 43.1734V31.1078C16.3125 30.9363 16.1731 30.7969 16.0015 30.7969H3.93596Z" fill="#485648"/>
<path d="M56.1875 9.95312H27.1875C26.1865 9.95312 25.375 9.14158 25.375 8.14062C25.375 7.13967 26.1865 6.32812 27.1875 6.32812H56.1875C57.1885 6.32812 58 7.13967 58 8.14062C58 9.14158 57.1885 9.95312 56.1875 9.95312Z" fill="#485648"/>
<path d="M46.2188 16.75H27.1875C26.1865 16.75 25.375 15.9385 25.375 14.9375C25.375 13.9365 26.1865 13.125 27.1875 13.125H46.2188C47.2197 13.125 48.0312 13.9365 48.0312 14.9375C48.0312 15.9385 47.2197 16.75 46.2188 16.75Z" fill="#485648"/>
<path d="M56.1875 35.7812H27.1875C26.1865 35.7812 25.375 34.9697 25.375 33.9688C25.375 32.9678 26.1865 32.1562 27.1875 32.1562H56.1875C57.1885 32.1562 58 32.9678 58 33.9688C58 34.9697 57.1885 35.7812 56.1875 35.7812Z" fill="#485648"/>
<path d="M46.2188 43.0312H27.1875C26.1865 43.0312 25.375 42.2197 25.375 41.2188C25.375 40.2178 26.1865 39.4062 27.1875 39.4062H46.2188C47.2197 39.4062 48.0312 40.2178 48.0312 41.2188C48.0312 42.2197 47.2197 43.0312 46.2188 43.0312Z" fill="#485648"/>
</g>
<defs>
<clipPath id="clip0_2018_11171">
<rect width="58" height="48" fill="white"/>
</clipPath>
</defs>
</svg>
