<svg width="21" height="21" viewBox="0 0 21 21" fill="none" xmlns="http://www.w3.org/2000/svg">
<circle cx="10.5" cy="10.5" r="10.5" fill="white"/>
<path d="M14.066 7C14.0016 6.99973 13.9379 7.01755 13.8784 7.05244C13.8189 7.08732 13.7648 7.13859 13.7192 7.20329L10.4128 11.9109L8.93294 9.80383C8.74244 9.53271 8.42976 9.53271 8.23933 9.80383L8.14288 9.94126C7.95237 10.2124 7.95237 10.6575 8.14288 10.9287L10.042 13.6325C10.2457 13.9225 10.5799 13.9225 10.7836 13.6325L14.5093 8.32822C14.6998 8.057 14.6998 7.61184 14.5093 7.34072L14.4128 7.2034C14.3673 7.13867 14.3132 7.08739 14.2537 7.05248C14.1942 7.01758 14.1304 6.99975 14.066 7Z" fill="#485648"/>
</svg>
