<svg width="46" height="46" viewBox="0 0 46 46" fill="none" xmlns="http://www.w3.org/2000/svg">
<path d="M43.995 13.6198L43.4364 14.1784C42.4179 15.1969 41.1036 15.8541 39.6743 16.0348C40.5779 18.1705 41.0708 20.5361 41.0708 23.0004C41.0708 32.9888 32.988 41.0715 22.9996 41.0715C13.0112 41.0715 4.92849 32.9888 4.92849 23.0004C4.92849 13.012 13.0112 4.92925 22.9996 4.92925C25.4639 4.92925 27.8295 5.4221 29.9652 6.32565C30.1459 4.92925 30.7866 3.59855 31.8216 2.56357L32.3802 2.00501C29.5217 0.723602 26.3346 0.00075693 22.9996 0.00075693C10.3005 0.00075693 0 10.3013 0 23.0004C0 35.6995 10.3005 46 22.9996 46C35.6987 46 45.9992 35.6995 45.9992 23.0004C45.9992 19.6654 45.2764 16.4783 43.995 13.6198Z" fill="#515F51"/>
<path d="M36.3394 16.6262L32.5116 20.454C32.7416 21.259 32.8566 22.1132 32.8566 23.0004C32.8566 28.4381 28.4374 32.8574 22.9996 32.8574C17.5619 32.8574 13.1426 28.4381 13.1426 23.0004C13.1426 17.5626 17.5619 13.1434 22.9996 13.1434C23.8867 13.1434 24.741 13.2584 25.546 13.4884L29.3738 9.6606C26.2266 8.15665 22.649 7.81383 19.2734 8.69272C15.8978 9.5716 12.9417 11.6156 10.9275 14.4634C8.91333 17.3112 7.97084 20.7794 8.26664 24.255C8.56244 27.7305 10.0775 30.9896 12.5439 33.456C15.0104 35.9225 18.2695 37.4376 21.745 37.7334C25.2206 38.0292 28.6888 37.0867 31.5366 35.0725C34.3844 33.0583 36.4284 30.1022 37.3073 26.7266C38.1862 23.351 37.8433 19.7734 36.3394 16.6262Z" fill="#515F51"/>
<path d="M29.5709 23.0004C29.5709 26.631 26.6303 29.5717 22.9996 29.5717C19.369 29.5717 16.4283 26.631 16.4283 23.0004C16.4283 19.3697 19.369 16.4291 22.9996 16.4291C24.2153 16.4291 25.3489 16.7576 26.3346 17.349L21.8332 21.834C21.1925 22.4747 21.1925 23.5261 21.8332 24.1668C22.1618 24.4789 22.5725 24.6432 22.9996 24.6432C23.4268 24.6432 23.8375 24.4789 24.166 24.1668L28.651 19.6654C29.2424 20.6511 29.5709 21.7847 29.5709 23.0004Z" fill="#515F51"/>
<path d="M45.7512 7.21442L41.1184 11.8472C40.3463 12.6358 39.2291 12.9643 38.1449 12.7508L35.9928 12.3236L28.6493 19.6671C28.0907 18.7142 27.2858 17.9092 26.3329 17.3507L33.6764 10.0072L33.2492 7.85513C33.0357 6.77086 33.3642 5.65374 34.1528 4.88161L38.7856 0.248824C39.2456 -0.227596 40.0506 0.0188281 40.1656 0.659532L41.0363 4.96375L45.3405 5.83445C45.9812 5.94944 46.2276 6.75443 45.7512 7.21442Z" fill="#515F51"/>
</svg>
