<svg width="46" height="40" viewBox="0 0 46 40" fill="none" xmlns="http://www.w3.org/2000/svg">
<path d="M14.9501 24.4446C14.645 24.4447 14.3523 24.3278 14.1364 24.1195C13.9209 23.9109 13.7998 23.6281 13.8 23.3333V17.8902C10.98 18.4465 9.01957 20.9319 9.21287 23.7065C9.40586 26.4811 11.6926 28.6902 14.5643 28.8766C17.4361 29.0633 20.008 27.1693 20.5837 24.4446H14.9501ZM46 6.66667V5.55583C45.9967 2.48865 43.4244 0.00322917 40.2497 0H5.74984C2.57574 0.00322917 0.00344999 2.48854 0 5.55583V6.66667H46Z" fill="#515F51"/>
<path d="M16.0998 22.2225H20.5837C20.3563 21.156 19.8103 20.1773 19.0134 19.4074C18.2165 18.6374 17.2036 18.11 16.0998 17.8902V22.2225Z" fill="#515F51"/>
<path d="M0 8.88917V34.4446C0.00334218 37.5114 2.57563 39.9967 5.74984 40H40.2497C43.4243 39.9968 45.9967 37.5115 46 34.4446V8.88917H0ZM14.9501 31.1112C10.5041 31.1112 6.89998 27.629 6.89998 23.3333C6.89998 19.0381 10.5041 15.5558 14.9501 15.5558C19.3956 15.5558 22.9998 19.0381 22.9998 23.3333C22.9947 27.627 19.3935 31.1059 14.9501 31.1112ZM29.8998 28.8892C29.8998 29.5027 29.3852 30 28.7501 30C28.1149 30 27.5999 29.5028 27.5999 28.8892V24.4446C27.5999 23.831 28.1149 23.3333 28.7501 23.3333C29.3852 23.3333 29.8998 23.8309 29.8998 24.4446V28.8892ZM34.4999 28.8892C34.4999 29.5027 33.9849 30 33.3498 30C32.7146 30 32.2 29.5028 32.2 28.8892V21.1112C32.2 20.4977 32.7146 20 33.3498 20C33.9849 20 34.4999 20.4976 34.4999 21.1112V28.8892ZM39.1 28.8892C39.1 29.5027 38.585 30 37.9499 30C37.3148 30 36.7997 29.5028 36.7997 28.8892V17.7779C36.7997 17.1644 37.3148 16.6667 37.9499 16.6667C38.585 16.6667 39.1 17.1643 39.1 17.7779V28.8892Z" fill="#515F51"/>
</svg>
