<svg width="47" height="43" viewBox="0 0 47 43" fill="none" xmlns="http://www.w3.org/2000/svg">
<path d="M38.1646 24.8313C36.9784 24.8151 35.8008 25.0381 34.7003 25.4873C33.5997 25.9365 32.5981 26.603 31.7536 27.4482C30.9092 28.2933 30.2386 29.3002 29.7809 30.4104C29.3232 31.5206 29.0876 32.7119 29.0876 33.9152C29.0876 35.1186 29.3232 36.3099 29.7809 37.4201C30.2386 38.5303 30.9092 39.5372 31.7536 40.3823C32.5981 41.2275 33.5997 41.894 34.7003 42.3432C35.8008 42.7924 36.9784 43.0154 38.1646 42.9992C40.5188 42.967 42.7658 41.9957 44.4194 40.2957C46.0729 38.5956 47 36.3034 47 33.9152C47 31.5271 46.0729 29.2349 44.4194 27.5348C42.7658 25.8348 40.5188 24.8635 38.1646 24.8313ZM42.1299 33.5291L37.757 37.1014C37.6057 37.2248 37.4317 37.3166 37.2451 37.3713C37.0586 37.4259 36.8632 37.4425 36.6703 37.4201C36.4774 37.3976 36.2908 37.3366 36.1213 37.2404C35.9518 37.1443 35.8029 37.015 35.683 36.86L33.9645 34.6372C33.743 34.3252 33.6489 33.9384 33.702 33.5577C33.7551 33.177 33.9511 32.8318 34.2492 32.5943C34.5474 32.3569 34.9244 32.2455 35.3016 32.2834C35.6788 32.3214 36.027 32.5058 36.2733 32.7981L37.0738 33.835L40.2891 31.207C40.4394 31.0844 40.6121 30.993 40.7972 30.9381C40.9823 30.8832 41.1763 30.8658 41.3681 30.8869C41.5598 30.908 41.7456 30.9673 41.9148 31.0612C42.084 31.1551 42.2333 31.282 42.3541 31.4344C42.475 31.5869 42.5651 31.762 42.6192 31.9498C42.6734 32.1376 42.6905 32.3343 42.6697 32.5289C42.6489 32.7234 42.5905 32.9118 42.4979 33.0834C42.4053 33.255 42.2803 33.4065 42.1299 33.5291Z" fill="#515F51"/>
<path d="M26.7627 33.9177C26.7657 30.8513 27.9679 27.9113 30.1056 25.743C32.2432 23.5747 35.1416 22.3552 38.1646 22.3522C40.2533 22.3522 42.2066 22.9343 43.8925 23.9333V9.04671C43.8925 7.24392 43.1865 5.51496 41.9297 4.2402C40.673 2.96543 38.9685 2.24927 37.1912 2.24927H33.6694V1.48849C33.6694 0.661551 33.0009 0 32.202 0C31.3867 0 30.7345 0.661551 30.7345 1.48849V2.24927H13.1743V1.48849C13.1743 0.661551 12.5221 0 11.7068 0C10.8916 0 10.2394 0.661551 10.2394 1.48849V2.24927H6.70127C4.92398 2.24927 3.21949 2.96543 1.96276 4.2402C0.706024 5.51496 0 7.24392 0 9.04671V33.4249C0 35.2277 0.706024 36.9566 1.96276 38.2314C3.21949 39.5062 4.92398 40.2223 6.70127 40.2223H28.6182C27.4073 38.3491 26.7623 36.1578 26.7627 33.9177ZM32.4971 16.0327C32.7195 16.0327 32.9398 16.0771 33.1454 16.1635C33.3509 16.2499 33.5377 16.3764 33.695 16.536C33.8523 16.6956 33.9771 16.885 34.0622 17.0935C34.1473 17.302 34.1911 17.5254 34.1911 17.7511C34.1911 17.9767 34.1473 18.2002 34.0622 18.4087C33.9771 18.6171 33.8523 18.8066 33.695 18.9662C33.5377 19.1257 33.3509 19.2523 33.1454 19.3386C32.9398 19.425 32.7195 19.4694 32.4971 19.4694C32.0478 19.4694 31.6169 19.2884 31.2992 18.9662C30.9815 18.6439 30.803 18.2068 30.803 17.7511C30.803 17.2953 30.9815 16.8583 31.2992 16.536C31.6169 16.2137 32.0478 16.0327 32.4971 16.0327ZM11.4036 28.8321C10.9543 28.8321 10.5234 28.651 10.2057 28.3288C9.88798 28.0065 9.7095 27.5694 9.7095 27.1137C9.7095 26.6579 9.88798 26.2209 10.2057 25.8986C10.5234 25.5763 10.9543 25.3953 11.4036 25.3953C11.8529 25.3953 12.2838 25.5763 12.6015 25.8986C12.9192 26.2209 13.0976 26.6579 13.0976 27.1137C13.0976 27.5694 12.9192 28.0065 12.6015 28.3288C12.2838 28.651 11.8529 28.8321 11.4036 28.8321ZM11.4036 19.4694C11.1811 19.4694 10.9608 19.425 10.7553 19.3386C10.5497 19.2523 10.363 19.1257 10.2057 18.9662C10.0484 18.8066 9.92359 18.6171 9.83846 18.4087C9.75332 18.2002 9.7095 17.9767 9.7095 17.7511C9.7095 17.5254 9.75332 17.302 9.83846 17.0935C9.92359 16.885 10.0484 16.6956 10.2057 16.536C10.363 16.3764 10.5497 16.2499 10.7553 16.1635C10.9608 16.0771 11.1811 16.0327 11.4036 16.0327C11.8529 16.0327 12.2838 16.2137 12.6015 16.536C12.9192 16.8583 13.0976 17.2953 13.0976 17.7511C13.0976 18.2068 12.9192 18.6439 12.6015 18.9662C12.2838 19.2884 11.8529 19.4694 11.4036 19.4694ZM21.9511 28.8321C21.5018 28.8321 21.0709 28.651 20.7533 28.3288C20.4356 28.0065 20.2571 27.5694 20.2571 27.1137C20.2571 26.6579 20.4356 26.2209 20.7533 25.8986C21.0709 25.5763 21.5018 25.3953 21.9511 25.3953C22.4004 25.3953 22.8313 25.5763 23.149 25.8986C23.4667 26.2209 23.6452 26.6579 23.6452 27.1137C23.6452 27.5694 23.4667 28.0065 23.149 28.3288C22.8313 28.651 22.4004 28.8321 21.9511 28.8321ZM21.9511 19.4694C21.7287 19.4694 21.5084 19.425 21.3028 19.3386C21.0973 19.2523 20.9106 19.1257 20.7533 18.9662C20.5959 18.8066 20.4712 18.6171 20.386 18.4087C20.3009 18.2002 20.2571 17.9767 20.2571 17.7511C20.2571 17.5254 20.3009 17.302 20.386 17.0935C20.4712 16.885 20.5959 16.6956 20.7533 16.536C20.9106 16.3764 21.0973 16.2499 21.3028 16.1635C21.5084 16.0771 21.7287 16.0327 21.9511 16.0327C22.4004 16.0327 22.8313 16.2137 23.149 16.536C23.4667 16.8583 23.6452 17.2953 23.6452 17.7511C23.6452 18.2068 23.4667 18.6439 23.149 18.9662C22.8313 19.2884 22.4004 19.4694 21.9511 19.4694Z" fill="#515F51"/>
</svg>
