<svg width="43" height="43" viewBox="0 0 43 43" fill="none" xmlns="http://www.w3.org/2000/svg">
<path d="M42.0459 18.7917L39.1217 15.3955C38.5626 14.7507 38.1111 13.547 38.1111 12.6872V9.03312C38.1111 6.75469 36.2405 4.88465 33.9614 4.88465H30.3061C29.4676 4.88465 28.242 4.43327 27.597 3.87441L24.1998 0.951137C22.7162 -0.317046 20.2865 -0.317046 18.7814 0.951137L15.4057 3.8959C14.7607 4.43327 13.5351 4.88465 12.6965 4.88465H8.97681C6.69767 4.88465 4.82705 6.75469 4.82705 9.03312V12.7087C4.82705 13.547 4.37552 14.7507 3.83799 15.3955L0.935308 18.8132C-0.311769 20.2963 -0.311769 22.7037 0.935308 24.1868L3.83799 27.6045C4.37552 28.2493 4.82705 29.453 4.82705 30.2913V33.9669C4.82705 36.2453 6.69767 38.1153 8.97681 38.1153H12.6965C13.5351 38.1153 14.7607 38.5667 15.4057 39.1256L18.8029 42.0489C20.2865 43.317 22.7162 43.317 24.2213 42.0489L27.6185 39.1256C28.2635 38.5667 29.4676 38.1153 30.3276 38.1153H33.9829C36.262 38.1153 38.1326 36.2453 38.1326 33.9669V30.3128C38.1326 29.4745 38.5841 28.2493 39.1432 27.6045L42.0674 24.2083C43.3144 22.7252 43.3144 20.2748 42.0459 18.7917ZM30.4351 17.4375L20.05 27.8194C19.7476 28.1213 19.3378 28.2909 18.9104 28.2909C18.4831 28.2909 18.0732 28.1213 17.7709 27.8194L12.5675 22.6177C11.944 21.9944 11.944 20.9626 12.5675 20.3393C13.1911 19.7159 14.2231 19.7159 14.8467 20.3393L18.9104 24.4018L28.156 15.1591C28.7795 14.5357 29.8116 14.5357 30.4351 15.1591C31.0587 15.7824 31.0587 16.8142 30.4351 17.4375Z" fill="#515F51"/>
</svg>
