<svg width="2" height="9" viewBox="0 0 2 9" fill="none" xmlns="http://www.w3.org/2000/svg">
<path d="M2 4.5C2 5.07254 1.55133 5.53846 1 5.53846C0.448667 5.53846 0 5.07254 0 4.5C0 3.92746 0.448667 3.46154 1 3.46154C1.55133 3.46154 2 3.92746 2 4.5ZM2 7.96154C2 8.53408 1.55133 9 1 9C0.448667 9 0 8.53408 0 7.96154C0 7.389 0.448667 6.92308 1 6.92308C1.55133 6.92308 2 7.389 2 7.96154ZM2 1.03846C2 1.611 1.55133 2.07692 1 2.07692C0.448667 2.07692 0 1.611 0 1.03846C0 0.465923 0.448667 0 1 0C1.55133 0 2 0.465923 2 1.03846Z" fill="#4A566D"/>
</svg>
