<svg width="12" height="11" viewBox="0 0 12 11" fill="none" xmlns="http://www.w3.org/2000/svg">
<path d="M0.953125 8.70833C0.953853 9.3159 1.19553 9.89837 1.62514 10.328C2.05476 10.7576 2.63723 10.9993 3.24479 11H9.66146C10.269 10.9993 10.8515 10.7576 11.2811 10.328C11.7107 9.89837 11.9524 9.3159 11.9531 8.70833V4.58333H0.953125V8.70833ZM8.74479 6.64583C8.88077 6.64583 9.01369 6.68615 9.12675 6.7617C9.23981 6.83724 9.32792 6.94461 9.37996 7.07024C9.43199 7.19586 9.44561 7.3341 9.41908 7.46746C9.39255 7.60082 9.32708 7.72332 9.23093 7.81947C9.13478 7.91562 9.01228 7.9811 8.87892 8.00762C8.74555 8.03415 8.60732 8.02054 8.4817 7.9685C8.35607 7.91646 8.2487 7.82835 8.17316 7.71529C8.09761 7.60223 8.05729 7.46931 8.05729 7.33333C8.05729 7.151 8.12972 6.97613 8.25866 6.8472C8.38759 6.71827 8.56246 6.64583 8.74479 6.64583ZM6.45312 6.64583C6.5891 6.64583 6.72202 6.68615 6.83508 6.7617C6.94814 6.83724 7.03626 6.94461 7.08829 7.07024C7.14033 7.19586 7.15394 7.3341 7.12741 7.46746C7.10089 7.60082 7.03541 7.72332 6.93926 7.81947C6.84311 7.91562 6.72061 7.9811 6.58725 8.00762C6.45389 8.03415 6.31565 8.02054 6.19003 7.9685C6.06441 7.91646 5.95703 7.82835 5.88149 7.71529C5.80595 7.60223 5.76562 7.46931 5.76562 7.33333C5.76562 7.151 5.83806 6.97613 5.96699 6.8472C6.09592 6.71827 6.27079 6.64583 6.45312 6.64583ZM4.16146 6.64583C4.29743 6.64583 4.43035 6.68615 4.54341 6.7617C4.65647 6.83724 4.74459 6.94461 4.79663 7.07024C4.84866 7.19586 4.86228 7.3341 4.83575 7.46746C4.80922 7.60082 4.74374 7.72332 4.64759 7.81947C4.55145 7.91562 4.42895 7.9811 4.29558 8.00762C4.16222 8.03415 4.02399 8.02054 3.89836 7.9685C3.77274 7.91646 3.66537 7.82835 3.58982 7.71529C3.51428 7.60223 3.47396 7.46931 3.47396 7.33333C3.47396 7.151 3.54639 6.97613 3.67532 6.8472C3.80425 6.71827 3.97912 6.64583 4.16146 6.64583ZM9.66146 0.916667H9.20312V0.458333C9.20312 0.336776 9.15484 0.220197 9.06888 0.134243C8.98293 0.0482886 8.86635 0 8.74479 0C8.62323 0 8.50666 0.0482886 8.4207 0.134243C8.33475 0.220197 8.28646 0.336776 8.28646 0.458333V0.916667H4.61979V0.458333C4.61979 0.336776 4.5715 0.220197 4.48555 0.134243C4.39959 0.0482886 4.28302 0 4.16146 0C4.0399 0 3.92332 0.0482886 3.83737 0.134243C3.75141 0.220197 3.70312 0.336776 3.70312 0.458333V0.916667H3.24479C2.63723 0.917394 2.05476 1.15907 1.62514 1.58868C1.19553 2.0183 0.953853 2.60077 0.953125 3.20833V3.66667H11.9531V3.20833C11.9524 2.60077 11.7107 2.0183 11.2811 1.58868C10.8515 1.15907 10.269 0.917394 9.66146 0.916667Z" fill="white"/>
</svg>
