<svg width="14" height="13" viewBox="0 0 14 13" fill="none" xmlns="http://www.w3.org/2000/svg">
<path d="M10.7031 0.976562H4.20312C2.25313 0.976562 0.953125 1.95156 0.953125 4.22656V8.77656C0.953125 11.0516 2.25313 12.0266 4.20312 12.0266H10.7031C12.6531 12.0266 13.9531 11.0516 13.9531 8.77656V4.22656C13.9531 1.95156 12.6531 0.976562 10.7031 0.976562ZM11.0086 4.93506L8.97412 6.56006C8.54512 6.90456 7.99912 7.07356 7.45312 7.07356C6.90713 7.07356 6.35462 6.90456 5.93212 6.56006L3.89762 4.93506C3.68962 4.76606 3.65712 4.45406 3.81962 4.24606C3.98862 4.03806 4.29412 3.99906 4.50212 4.16806L6.53662 5.79306C7.03062 6.18956 7.86912 6.18956 8.36312 5.79306L10.3976 4.16806C10.6056 3.99906 10.9176 4.03156 11.0801 4.24606C11.2491 4.45406 11.2166 4.76606 11.0086 4.93506Z" fill="white"/>
</svg>
