<svg width="10" height="12" viewBox="0 0 10 12" fill="none" xmlns="http://www.w3.org/2000/svg">
<path d="M5.17828 0C3.60619 0 2.32812 1.27807 2.32812 2.85016C2.32812 4.39224 3.53419 5.64031 5.10628 5.69431C5.15428 5.68831 5.20228 5.68831 5.23828 5.69431C5.25028 5.69431 5.25628 5.69431 5.26829 5.69431C5.27429 5.69431 5.27429 5.69431 5.28029 5.69431C6.81637 5.64031 8.02244 4.39224 8.02844 2.85016C8.02844 1.27807 6.75037 0 5.17828 0Z" fill="white"/>
<path d="M8.22552 7.29017C6.55143 6.17411 3.82128 6.17411 2.13519 7.29017C1.37315 7.8002 0.953125 8.49024 0.953125 9.22828C0.953125 9.96632 1.37315 10.6504 2.12919 11.1544C2.96923 11.7184 4.07329 12.0004 5.17736 12.0004C6.28142 12.0004 7.38548 11.7184 8.22552 11.1544C8.98156 10.6444 9.40159 9.96032 9.40159 9.21628C9.39559 8.47824 8.98156 7.7942 8.22552 7.29017Z" fill="white"/>
</svg>
