<svg width="13" height="12" viewBox="0 0 13 12" fill="none" xmlns="http://www.w3.org/2000/svg">
<path d="M5.17828 0C3.60619 0 2.32812 1.27807 2.32812 2.85016C2.32812 4.39224 3.53419 5.64031 5.10628 5.69431C5.15428 5.68831 5.20228 5.68831 5.23828 5.69431C5.25028 5.69431 5.25628 5.69431 5.26829 5.69431C5.27429 5.69431 5.27429 5.69431 5.28029 5.69431C6.81637 5.64031 8.02244 4.39224 8.02844 2.85016C8.02844 1.27807 6.75037 0 5.17828 0Z" fill="white"/>
<path d="M8.22552 7.29017C6.55143 6.17411 3.82128 6.17411 2.13519 7.29017C1.37315 7.8002 0.953125 8.49024 0.953125 9.22828C0.953125 9.96632 1.37315 10.6504 2.12919 11.1544C2.96924 11.7184 4.0733 12.0004 5.17736 12.0004C6.28142 12.0004 7.38548 11.7184 8.22552 11.1544C8.98156 10.6444 9.40159 9.96032 9.40159 9.21628C9.39559 8.47824 8.98156 7.7942 8.22552 7.29017Z" fill="white"/>
<path d="M11.7704 3.20456C11.8664 4.36862 11.0383 5.38868 9.89228 5.52669C9.88628 5.52669 9.88628 5.52669 9.88028 5.52669H9.86228C9.82627 5.52669 9.79027 5.52668 9.76027 5.53869C9.17824 5.56869 8.64421 5.38268 8.24219 5.04066C8.86022 4.48863 9.21424 3.66058 9.14224 2.76053C9.10023 2.27451 8.93223 1.83048 8.68021 1.45246C8.90822 1.33846 9.17224 1.26645 9.44225 1.24245C10.6183 1.14045 11.6684 2.01649 11.7704 3.20456Z" fill="white"/>
<path d="M12.9682 8.75125C12.9202 9.33328 12.5482 9.83731 11.9242 10.1793C11.3241 10.5093 10.5681 10.6654 9.81806 10.6474C10.2501 10.2573 10.5021 9.7713 10.5501 9.25527C10.6101 8.51123 10.2561 7.79719 9.54804 7.22716C9.14602 6.90915 8.678 6.65713 8.16797 6.47112C9.49404 6.0871 11.1621 6.34512 12.1882 7.17316C12.7402 7.61718 13.0222 8.17522 12.9682 8.75125Z" fill="white"/>
</svg>
