<svg width="58" height="58" viewBox="0 0 58 58" fill="none" xmlns="http://www.w3.org/2000/svg">
<path d="M9.66667 10.2409V4.83333C9.67007 2.16533 11.832 0.00340267 14.5 0H53.1667C55.8347 0.00340267 57.9966 2.16533 58 4.83333V26.1C57.9925 28.5686 56.1213 30.6332 53.6654 30.8835L50.0318 40.316C49.0718 42.8067 46.2748 44.0474 43.784 43.0887L21.0927 34.3476C22.6606 38.4431 22.2145 43.0374 19.8887 46.755L19.3333 47.6432V57.0333C19.3333 57.5674 18.9008 58 18.3667 58H0.966667C0.432571 58 0 57.5674 0 57.0333V25.1249C0.00883865 21.7821 1.34031 18.5788 3.70352 16.2146L9.66667 10.2409ZM9.66667 16.022L6.73283 23.6379C6.1579 25.1328 6.90296 26.8102 8.39766 27.3857L10.0746 28.0333C9.80698 27.4238 9.6681 26.7657 9.66667 26.1V16.022ZM56.0667 26.1V4.83333C56.0667 3.23204 54.768 1.93333 53.1667 1.93333H14.5C12.8987 1.93333 11.6 3.23204 11.6 4.83333V10.9775H11.6085L11.6 10.9995V26.1C11.6075 26.2685 11.6295 26.436 11.6658 26.6007L20.5204 17.7452C22.5107 15.8007 25.6838 15.7857 27.6921 17.7098C29.7009 19.6351 29.8214 22.8058 27.9637 24.8769L24.1889 29H53.1667C54.768 29 56.0667 27.7013 56.0667 26.1ZM43.6827 30.9333L50.5567 33.5798L51.5735 30.9333H43.6827ZM44.4792 41.2842C45.9737 41.8603 47.6521 41.1153 48.228 39.6208L49.8588 35.38L38.3196 30.9333V30.9275H22.417L21.1605 32.2972L44.4792 41.2842ZM1.93333 56.0667H17.4V48.3333H1.93333V56.0667ZM1.93333 46.4H17.8302L18.2494 45.7301C20.6064 41.9635 20.7002 37.2061 18.4942 33.35C18.3925 33.1721 18.3499 32.9665 18.3727 32.7629C18.3955 32.5592 18.4824 32.3681 18.6209 32.2171L26.5425 23.575C27.7238 22.2821 27.6573 20.2833 26.3926 19.0724C25.1275 17.8611 23.1277 17.8809 21.8875 19.1163L6.48344 34.5168L5.11656 33.1499L8.69326 29.5733L7.70141 29.1866C5.21276 28.2264 3.97252 25.4318 4.92997 22.9416L8.20191 14.4456L5.0704 17.5837C3.06919 19.584 1.94131 22.2953 1.93333 25.1249V46.4Z" fill="white"/>
<path d="M46.9795 13.5339C45.5913 13.5339 44.4661 12.4086 44.4661 11.0205V6.38052C44.4661 4.99236 45.5914 3.86719 46.9795 3.86719H51.6195C53.0076 3.86719 54.1328 4.99242 54.1328 6.38052V11.0205C54.1328 12.4087 53.0076 13.5339 51.6195 13.5339H46.9795ZM52.1995 11.0205V9.66719H50.2661V7.73385H52.1995V6.38052C52.1995 6.0603 51.9396 5.80052 51.6195 5.80052H46.9795C46.6593 5.80052 46.3995 6.06036 46.3995 6.38052V7.73385H48.3328V9.66719H46.3995V11.0205C46.3995 11.3407 46.6593 11.6005 46.9795 11.6005H51.6195C51.9397 11.6005 52.1995 11.3407 52.1995 11.0205ZM53.1661 16.4339H49.2995V18.3672H53.1661V16.4339ZM53.1661 22.2339H49.2995V24.1672H53.1661V22.2339ZM35.7661 22.2339H31.8995V24.1672H35.7661V22.2339ZM47.3661 16.4339H43.4995V18.3672H47.3661V16.4339ZM41.5661 16.4339H37.6995V18.3672H41.5661V16.4339ZM35.7661 16.4339H31.8995V18.3672H35.7661V16.4339ZM17.3995 4.83385H15.4661V7.73385H17.3995V4.83385ZM21.2661 4.83385H19.3328V7.73385H21.2661V4.83385ZM25.1328 4.83385H23.1995V7.73385H25.1328V4.83385ZM28.9995 4.83385H27.0661V7.73385H28.9995V4.83385ZM15.4661 50.2672H13.5328V52.2005H15.4661V50.2672Z" fill="white"/>
</svg>
