<svg width="19" height="18" viewBox="0 0 19 18" fill="none" xmlns="http://www.w3.org/2000/svg">
<path d="M9.9055 14.9998H16.6555M12.1555 3.7498L14.4055 5.9998M13.1875 2.7163C13.4861 2.41773 13.891 2.25 14.3133 2.25C14.7355 2.25 15.1404 2.41773 15.439 2.7163C15.7376 3.01487 15.9053 3.41981 15.9053 3.84205C15.9053 4.26429 15.7376 4.66923 15.439 4.9678L6.4315 13.9761C6.25307 14.1545 6.03252 14.285 5.79025 14.3556L3.63625 14.9841C3.57171 15.0029 3.5033 15.004 3.43818 14.9873C3.37306 14.9706 3.31362 14.9368 3.26609 14.8892C3.21855 14.8417 3.18467 14.7822 3.16798 14.7171C3.1513 14.652 3.15243 14.5836 3.17125 14.5191L3.79975 12.3651C3.87042 12.1231 4.00094 11.9028 4.17925 11.7246L13.1875 2.7163Z" stroke="white" stroke-width="1.5" stroke-linecap="round" stroke-linejoin="round"/>
</svg>
