<svg width="14" height="14" viewBox="0 0 14 14" fill="none" xmlns="http://www.w3.org/2000/svg">
<path opacity="0.4" d="M6.85967 8.47594L4.67968 10.6559C4.43967 10.4426 4.20634 10.2226 3.97967 9.99594C3.29301 9.3026 2.67301 8.57594 2.11967 7.81594C1.57301 7.05594 1.13301 6.29594 0.813008 5.5426C0.493008 4.7826 0.333008 4.05594 0.333008 3.3626C0.333008 2.90927 0.413008 2.47594 0.573008 2.07594C0.733008 1.66927 0.986341 1.29594 1.33967 0.962604C1.76634 0.542604 2.23301 0.335938 2.72634 0.335938C2.91301 0.335938 3.09967 0.375938 3.26634 0.455938C3.43967 0.535938 3.59301 0.655938 3.71301 0.829271L5.25968 3.00927C5.37967 3.17594 5.46634 3.32927 5.52634 3.47594C5.58634 3.61594 5.61967 3.75594 5.61967 3.8826C5.61967 4.0426 5.57301 4.2026 5.47967 4.35594C5.39301 4.50927 5.26634 4.66927 5.10634 4.82927L4.59967 5.35594C4.52634 5.42927 4.49301 5.51594 4.49301 5.6226C4.49301 5.67594 4.49967 5.7226 4.51301 5.77594C4.53301 5.82927 4.55301 5.86927 4.56634 5.90927C4.68634 6.12927 4.89301 6.41594 5.18634 6.7626C5.48634 7.10927 5.80634 7.4626 6.15301 7.81594C6.39301 8.04927 6.62634 8.27594 6.85967 8.47594Z" fill="#757575"/>
<path d="M13.6471 11.2194C13.6471 11.406 13.6137 11.5994 13.5471 11.786C13.5271 11.8394 13.5071 11.8927 13.4804 11.946C13.3671 12.186 13.2204 12.4127 13.0271 12.626C12.7004 12.986 12.3404 13.246 11.9337 13.4127C11.9271 13.4127 11.9204 13.4194 11.9137 13.4194C11.5204 13.5794 11.0937 13.666 10.6337 13.666C9.95372 13.666 9.22706 13.506 8.46039 13.1794C7.69372 12.8527 6.92706 12.4127 6.16706 11.8594C5.90706 11.666 5.64706 11.4727 5.40039 11.266L7.58039 9.08604C7.76706 9.22604 7.93372 9.33271 8.07372 9.40604C8.10706 9.41937 8.14706 9.43937 8.19372 9.45937C8.24706 9.47937 8.30039 9.48604 8.36039 9.48604C8.47372 9.48604 8.56039 9.44604 8.63372 9.37271L9.14039 8.87271C9.30706 8.70604 9.46706 8.57938 9.62039 8.49938C9.77372 8.40604 9.92706 8.35938 10.0937 8.35938C10.2204 8.35938 10.3537 8.38604 10.5004 8.44604C10.6471 8.50604 10.8004 8.59271 10.9671 8.70604L13.1737 10.2727C13.3471 10.3927 13.4671 10.5327 13.5404 10.6994C13.6071 10.866 13.6471 11.0327 13.6471 11.2194Z" fill="#757575"/>
</svg>
