<svg width="16" height="15" viewBox="0 0 16 15" fill="none" xmlns="http://www.w3.org/2000/svg">
<path d="M8.30235 14.3863C7.38705 14.3863 6.50906 14.0313 5.86066 13.3992C5.21227 12.767 4.84634 11.9091 4.84301 11.0134C4.84301 10.1148 5.20781 9.25316 5.86194 8.62537L7.63564 6.88971C8.00044 6.53273 8.60426 6.53273 8.96906 6.88971C9.33386 7.24669 9.33386 7.83755 8.96906 8.19453L7.19536 9.93019C7.0484 10.0716 6.93167 10.2402 6.85199 10.4261C6.77231 10.6121 6.73128 10.8118 6.73128 11.0134C6.73128 11.2151 6.77231 11.4148 6.85199 11.6007C6.93167 11.7867 7.0484 11.9553 7.19536 12.0967C7.81175 12.6999 8.80553 12.6999 9.42192 12.0967L12.2146 9.36395C12.9645 8.60956 13.3808 7.59659 13.3734 6.54415C13.366 5.49172 12.9355 4.48445 12.175 3.74025C11.4144 2.99605 10.3851 2.57476 9.30961 2.56751C8.23411 2.56026 7.19893 2.96763 6.42802 3.70151L3.3838 6.68044C3.06918 6.98465 2.8194 7.34693 2.64891 7.74629C2.47843 8.14566 2.39065 8.57416 2.39065 9.00697C2.39065 9.43977 2.47843 9.86828 2.64891 10.2676C2.8194 10.667 3.06918 11.0293 3.3838 11.3335C3.7486 11.6905 3.7486 12.2813 3.3838 12.6383C3.01899 12.9953 2.41518 12.9953 2.05038 12.6383C1.56081 12.1606 1.17306 11.5926 0.909611 10.9671C0.646162 10.3416 0.512266 9.67117 0.515689 8.99466C0.515689 7.61598 1.0566 6.32346 2.05038 5.351L5.0946 2.37206C6.21725 1.2782 7.73701 0.664062 9.32128 0.664062C10.9056 0.664062 12.4253 1.2782 13.548 2.37206C14.6658 3.47064 15.2934 4.95781 15.2934 6.50811C15.2934 8.05841 14.6658 9.54557 13.548 10.6442L10.7553 13.3769C10.076 14.0539 9.19549 14.3863 8.30235 14.3863Z" fill="white"/>
</svg>
