<svg width="14" height="14" viewBox="0 0 14 14" fill="none" xmlns="http://www.w3.org/2000/svg">
<path d="M14 7.87499C14 8.0665 13.9623 8.25614 13.889 8.43307C13.8158 8.61001 13.7084 8.77077 13.573 8.90619C13.4376 9.04161 13.2769 9.14903 13.1 9.22231C12.9231 9.2956 12.7335 9.33332 12.5421 9.33332H10.1884L7.72396 13.1174C7.57228 13.3865 7.35149 13.6102 7.08441 13.7654C6.81733 13.9206 6.51366 14.0016 6.2048 14C5.95699 14 5.71286 13.94 5.49331 13.8251C5.27377 13.7101 5.08535 13.5436 4.94421 13.3399C4.80307 13.1361 4.7134 12.9012 4.6829 12.6552C4.65239 12.4092 4.68195 12.1595 4.76905 11.9274L5.84674 9.33332H3.50299C3.09178 9.33335 2.68788 9.22465 2.3322 9.01823C1.97652 8.81181 1.68171 8.51501 1.47765 8.15791L0.120621 5.92667C0.0626368 5.83035 0.0245297 5.72339 0.00854899 5.61211C-0.00743176 5.50082 -0.000962301 5.38745 0.0275755 5.27871C0.0561133 5.16996 0.106141 5.06804 0.174706 4.97895C0.243271 4.88986 0.328983 4.81541 0.426784 4.76C0.581982 4.67861 0.759093 4.64886 0.932358 4.67509C1.10562 4.70132 1.266 4.78215 1.39018 4.90584L2.21652 5.733C2.65388 6.17061 3.24711 6.41653 3.86572 6.41667H12.5421C12.7335 6.41667 12.9231 6.45439 13.1 6.52767C13.2769 6.60096 13.4376 6.70838 13.573 6.8438C13.7084 6.97922 13.8158 7.13998 13.889 7.31692C13.9623 7.49385 14 7.68348 14 7.87499ZM10.3441 5.25L7.71987 0.882597C7.56839 0.613687 7.34788 0.390107 7.08113 0.234951C6.81437 0.0797955 6.51104 -0.00130885 6.20247 1.59741e-05C5.95471 8.34587e-05 5.71065 0.0601907 5.49118 0.175195C5.27171 0.290199 5.08335 0.456676 4.94224 0.660383C4.80112 0.864089 4.71145 1.09896 4.68088 1.3449C4.65031 1.59084 4.67976 1.84052 4.76671 2.07259L6.00186 5.25H10.3441Z" fill="white"/>
</svg>
