<svg width="54" height="58" viewBox="0 0 54 58" fill="none" xmlns="http://www.w3.org/2000/svg">
<path d="M53.4232 44.6084L44.3054 25.1404C44.2085 24.9385 44.0358 24.783 43.8249 24.7077C43.6139 24.6325 43.3818 24.6435 43.1789 24.7385C42.9761 24.8335 42.819 25.0048 42.7418 25.215C42.6645 25.4253 42.6734 25.6575 42.7665 25.8612L51.8841 45.3288C52.2919 46.201 51.9145 47.2428 51.0426 47.6513L33.5614 55.838C32.6897 56.2464 31.6481 55.8692 31.2395 54.9974L27.9712 48.0169L36.4779 27.4925C36.6597 27.0523 36.7485 26.5793 36.7388 26.1032C36.7291 25.6271 36.6211 25.1582 36.4216 24.7258L31.7685 14.6746L37.8 16.5827C38.0301 16.6556 38.2426 16.7755 38.4241 16.9346C38.6056 17.0937 38.7522 17.2887 38.8545 17.5073L41.0887 22.2758C41.1843 22.4799 41.357 22.6376 41.5689 22.7143C41.7808 22.791 42.0145 22.7804 42.2186 22.6848C42.3196 22.6374 42.4103 22.5706 42.4856 22.4882C42.5608 22.4058 42.6191 22.3094 42.657 22.2045C42.695 22.0995 42.7119 21.9881 42.7068 21.8767C42.7017 21.7652 42.6748 21.6558 42.6274 21.5548L40.3936 16.7871C40.1914 16.3557 39.9021 15.9709 39.5438 15.6568C39.1856 15.3428 38.7662 15.1064 38.312 14.9625L31.0382 12.6612C32.5378 10.4706 34.1175 7.54124 34.6611 6.22978C36.0864 2.79099 34.936 0.878569 33.3843 0.235354C31.8324 -0.407634 29.6666 0.130342 28.2413 3.56913C27.6283 5.04814 27.0658 8.26919 26.6659 11.0325C26.1795 11.0623 25.7005 11.166 25.2453 11.3399L14.2403 15.5447C13.8031 15.7127 13.4046 15.9676 13.0688 16.2941C12.7331 16.6206 12.4671 17.0118 12.287 17.4441L0.516424 45.8445C0.164004 46.6948 0.163777 47.6313 0.515858 48.4817C0.867824 49.3321 1.52996 49.9944 2.38014 50.3467L5.82277 51.7735C5.92585 51.8163 6.03634 51.8383 6.14792 51.8383C6.2595 51.8383 6.37 51.8164 6.4731 51.7737C6.57619 51.731 6.66988 51.6684 6.7488 51.5896C6.82772 51.5107 6.89033 51.417 6.93305 51.3139C6.97578 51.2109 6.99778 51.1004 6.99781 50.9888C6.99783 50.8772 6.97588 50.7667 6.9332 50.6636C6.89053 50.5605 6.82796 50.4668 6.74908 50.3879C6.6702 50.309 6.57655 50.2464 6.47347 50.2037L3.03083 48.7768C2.60002 48.5982 2.26436 48.2626 2.08594 47.8315C1.90753 47.4005 1.90764 46.926 2.08628 46.495L13.8572 18.0944C13.9485 17.8753 14.0833 17.677 14.2534 17.5115C14.4236 17.346 14.6256 17.2168 14.8471 17.1317L25.8521 12.9269C26.0382 12.8559 26.2305 12.8027 26.4266 12.7682C26.3381 13.4407 26.2542 14.1137 26.1748 14.7873C25.8096 14.8084 25.4518 14.8991 25.1207 15.0546C24.4263 15.3797 23.9001 15.9558 23.6391 16.6768C23.378 17.3978 23.4133 18.1772 23.7384 18.8716C24.2259 19.9126 25.2624 20.5246 26.3425 20.5246C26.7496 20.5246 27.163 20.4376 27.5555 20.2539C28.2499 19.9287 28.7761 19.3525 29.0372 18.6317C29.2982 17.9106 29.263 17.1312 28.9378 16.4368C28.6956 15.9198 28.3141 15.4964 27.8374 15.2058C27.9006 14.6648 27.997 13.8669 28.1194 12.9381C28.8548 13.2247 29.4835 13.7833 29.837 14.5469L34.8794 25.4393C34.9805 25.6585 35.0352 25.8962 35.0401 26.1375C35.045 26.3788 35 26.6185 34.9078 26.8415L23.1448 55.2231C23.0576 55.4353 22.9291 55.628 22.7669 55.7902C22.6046 55.9524 22.4118 56.0808 22.1996 56.168C21.9879 56.2563 21.7607 56.3018 21.5313 56.3017C21.3019 56.3017 21.0748 56.2562 20.8631 56.1677L10.3507 51.8108C10.143 51.7271 9.91067 51.7288 9.70423 51.8155C9.49778 51.9021 9.33388 52.0668 9.24815 52.2736C9.16242 52.4804 9.16179 52.7127 9.24639 52.92C9.33099 53.1273 9.49399 53.2929 9.69996 53.3807L20.2124 57.7376C20.6291 57.9108 21.0759 58 21.5272 58.0001C22.8796 58.0001 24.1655 57.1988 24.7146 55.8737L27.09 50.1426L29.7004 55.7181C30.2858 56.9674 31.5299 57.7019 32.826 57.7019C33.3147 57.7019 33.8111 57.5975 34.2821 57.3767L51.7633 49.1901C53.4833 48.3842 54.2279 46.3292 53.4232 44.6084ZM27.4393 18.053C27.3873 18.1978 27.3071 18.3309 27.2034 18.4445C27.0996 18.5581 26.9743 18.65 26.8348 18.7149C26.25 18.9888 25.5513 18.7358 25.2774 18.151C25.2117 18.0118 25.1744 17.861 25.1674 17.7073C25.1604 17.5536 25.184 17.4 25.2368 17.2555C25.2888 17.1107 25.369 16.9776 25.4728 16.864C25.5765 16.7504 25.7018 16.6585 25.8413 16.5936C25.9964 16.5206 26.1657 16.4826 26.3372 16.4825C26.4717 16.4825 26.6065 16.5059 26.7367 16.553C26.8815 16.605 27.0145 16.6852 27.1281 16.789C27.2417 16.8928 27.3337 17.018 27.3986 17.1575C27.4643 17.2967 27.5018 17.4475 27.5088 17.6012C27.5158 17.7549 27.4922 17.9085 27.4393 18.053ZM29.5803 11.7832C29.1996 11.542 28.7875 11.3544 28.3556 11.2257C28.7387 8.57415 29.2642 5.54057 29.8116 4.21959C30.1971 3.28921 31.2537 1.19191 32.7339 1.8051C34.2141 2.41864 33.4772 4.6487 33.0914 5.57898C32.569 6.83958 31.0285 9.68839 29.5803 11.7832Z" fill="white"/>
<path d="M15.4914 28.647C17.3322 27.6672 19.4444 27.4628 21.4391 28.0719C24.7498 29.0826 26.9721 32.085 26.9689 35.543C26.9688 35.6546 26.9907 35.7651 27.0333 35.8682C27.0759 35.9714 27.1384 36.0651 27.2172 36.1441C27.2961 36.2231 27.3897 36.2857 27.4927 36.3285C27.5958 36.3713 27.7063 36.3934 27.8178 36.3935H27.8186C28.0439 36.3935 28.2598 36.3041 28.4192 36.1449C28.5785 35.9857 28.6681 35.7698 28.6684 35.5446C28.6702 33.5494 28.0212 31.558 26.841 29.9372C25.6202 28.2607 23.9238 27.0536 21.9351 26.4464C16.9214 24.916 11.5976 27.7496 10.0672 32.7631C9.32581 35.1918 9.57458 37.7638 10.7678 40.0054C11.9608 42.247 13.9553 43.8898 16.3839 44.6312C17.284 44.9061 18.22 45.0458 19.1611 45.0458C20.4991 45.0459 21.8221 44.7632 23.0432 44.2162C25.1181 43.2866 26.7919 41.6474 27.7561 39.6005C27.8037 39.4996 27.8309 39.3903 27.8362 39.2788C27.8415 39.1674 27.8248 39.0559 27.7871 38.9509C27.7493 38.8459 27.6913 38.7494 27.6162 38.6668C27.5412 38.5843 27.4506 38.5173 27.3497 38.4697C27.2487 38.4222 27.1394 38.395 27.028 38.3896C26.9165 38.3843 26.8051 38.401 26.7001 38.4388C26.5951 38.4765 26.4985 38.5346 26.416 38.6096C26.3334 38.6847 26.2664 38.7753 26.2189 38.8762C24.5799 42.3554 20.5655 44.131 16.8803 43.0057C14.8858 42.397 13.2478 41.0478 12.268 39.207C11.2882 37.3662 11.0838 35.2538 11.6928 33.2593C12.3014 31.2648 13.6507 29.6268 15.4914 28.647Z" fill="white"/>
<path d="M22.4291 33.2291C22.3296 33.0408 22.1937 32.8742 22.0293 32.7388C21.8649 32.6034 21.6753 32.5019 21.4714 32.4404L21.0854 32.3226L21.3477 31.4634C21.4105 31.2488 21.3862 31.018 21.28 30.8212C21.1738 30.6244 20.9942 30.4774 20.7803 30.412C20.5664 30.3467 20.3354 30.3684 20.1374 30.4723C19.9393 30.5762 19.7902 30.754 19.7224 30.9671L19.4543 31.8457C18.3223 31.6503 17.1917 32.3228 16.8479 33.4495C16.7583 33.7401 16.7272 34.0457 16.7565 34.3484C16.7858 34.6512 16.8749 34.9451 17.0185 35.2132C17.1607 35.482 17.3547 35.72 17.5895 35.9134C17.8243 36.1068 18.095 36.2516 18.3862 36.3396L19.4558 36.6661C19.5332 36.6895 19.6052 36.728 19.6677 36.7795C19.7301 36.8309 19.7817 36.8942 19.8195 36.9658C19.8577 37.0371 19.8814 37.1152 19.8892 37.1958C19.8969 37.2763 19.8887 37.3575 19.8648 37.4349C19.8414 37.5123 19.8029 37.5843 19.7515 37.6467C19.7 37.7091 19.6367 37.7607 19.5652 37.7985C19.4939 37.8367 19.4158 37.8604 19.3353 37.8682C19.2547 37.876 19.1735 37.8677 19.0962 37.8438L18.5615 37.6806L17.4344 37.3365C17.478 37.1227 17.4378 36.9003 17.3219 36.7153C17.206 36.5304 17.0235 36.3971 16.812 36.3431C16.6006 36.2891 16.3765 36.3185 16.1861 36.4252C15.9958 36.5319 15.8538 36.7078 15.7895 36.9164C15.5286 37.7712 16.0117 38.6789 16.8666 38.94L17.2527 39.0578L16.9904 39.917C16.928 40.1315 16.9526 40.362 17.0589 40.5585C17.1651 40.755 17.3445 40.9018 17.5582 40.967C17.7719 41.0323 18.0027 41.0107 18.2006 40.9071C18.3985 40.8034 18.5476 40.626 18.6157 40.4131L18.8836 39.5354C19.015 39.5583 19.1471 39.5711 19.2789 39.5711C19.6531 39.5711 20.0241 39.4794 20.3637 39.2986C20.6326 39.1564 20.8706 38.9623 21.064 38.7276C21.2573 38.4928 21.4022 38.222 21.4902 37.9309C21.8629 36.71 21.1729 35.4135 19.952 35.0408L18.8823 34.7143C18.8049 34.6909 18.7329 34.6523 18.6705 34.6009C18.6081 34.5495 18.5565 34.4862 18.5187 34.4146C18.4805 34.3433 18.4568 34.2652 18.449 34.1846C18.4412 34.1041 18.4495 34.0228 18.4734 33.9455C18.5212 33.7894 18.629 33.6586 18.7731 33.5819C18.9173 33.5052 19.0859 33.4889 19.2421 33.5365L19.7765 33.6996L19.7768 33.6997H19.777L20.9039 34.0438C20.8596 34.2578 20.8996 34.4807 21.0154 34.666C21.1312 34.8514 21.314 34.985 21.5257 35.0391C21.7375 35.0931 21.962 35.0635 22.1525 34.9564C22.343 34.8493 22.4849 34.6729 22.5487 34.4638C22.6114 34.2603 22.6331 34.0464 22.6126 33.8345C22.592 33.6226 22.5297 33.4168 22.4291 33.2291ZM47.7968 44.5655L42.3588 33.0097C42.261 32.8089 42.088 32.6546 41.8773 32.5803C41.6666 32.5061 41.4351 32.5177 41.233 32.6129C41.0309 32.708 40.8743 32.8789 40.7972 33.0886C40.7202 33.2983 40.7288 33.5299 40.8212 33.7333L46.2592 45.289C46.3279 45.435 46.4367 45.5585 46.573 45.6449C46.7092 45.7313 46.8672 45.7772 47.0286 45.7772C47.1717 45.7771 47.3124 45.7408 47.4378 45.6718C47.5631 45.6028 47.669 45.5033 47.7456 45.3824C47.8222 45.2616 47.8671 45.1233 47.876 44.9805C47.885 44.8377 47.8577 44.695 47.7968 44.5655ZM43.9977 46.5972L38.5597 35.0414C38.4638 34.8375 38.2908 34.6801 38.0788 34.6038C37.8668 34.5274 37.6331 34.5385 37.4292 34.6344C37.2253 34.7304 37.0679 34.9034 36.9915 35.1154C36.9152 35.3274 36.9262 35.5611 37.0222 35.765L42.4602 47.3207C42.5288 47.4668 42.6376 47.5902 42.7739 47.6767C42.9102 47.7631 43.0682 47.809 43.2296 47.8089C43.3727 47.8088 43.5134 47.7725 43.6388 47.7035C43.7641 47.6345 43.87 47.535 43.9466 47.4141C44.0232 47.2933 44.0681 47.155 44.077 47.0122C44.086 46.8694 44.0587 46.7267 43.9977 46.5972Z" fill="white"/>
</svg>
