<svg width="13" height="13" viewBox="0 0 13 13" fill="none" xmlns="http://www.w3.org/2000/svg">
<path d="M12.9661 4.9125C12.9245 4.77807 12.846 4.65939 12.7402 4.57123C12.6344 4.48308 12.5061 4.42936 12.3713 4.41677L8.61913 4.06122L7.13544 0.437416C7.02601 0.171851 6.77687 0 6.50005 0C6.22324 0 5.97407 0.171877 5.86469 0.438079L4.38098 4.06125L0.628224 4.41677C0.493553 4.42964 0.365464 4.48347 0.259838 4.5716C0.154211 4.65972 0.0756932 4.77825 0.0340184 4.9125C-0.0515755 5.18721 0.0274675 5.48849 0.236057 5.67841L3.07226 8.27392L2.23592 12.1182C2.17473 12.4008 2.27985 12.693 2.50461 12.8625C2.6254 12.9536 2.76675 13 2.90927 13C3.03217 13 3.15404 12.9654 3.26348 12.8971L6.50005 10.8786L9.73546 12.8971C9.97221 13.0458 10.2707 13.0322 10.4949 12.8625C10.6047 12.7796 10.6887 12.6648 10.7365 12.5325C10.7842 12.4002 10.7937 12.2561 10.7636 12.1182L9.92729 8.27392L12.7635 5.67894C12.8655 5.58596 12.9391 5.46374 12.9751 5.32748C13.0111 5.19122 13.008 5.04692 12.9661 4.9125Z" fill="white"/>
</svg>
