<svg width="13" height="12" viewBox="0 0 13 12" fill="none" xmlns="http://www.w3.org/2000/svg">
<path d="M11.4402 0L4.98659 0C4.54107 0 4.17988 0.361188 4.17988 0.80671C4.17988 1.25223 4.54107 1.61342 4.98659 1.61342L9.49265 1.61342L1.18941 9.91671C0.874362 10.2318 0.874362 10.7425 1.18941 11.0575C1.26423 11.1326 1.35314 11.1921 1.45102 11.2326C1.54891 11.2731 1.65384 11.2939 1.75979 11.2938C1.86575 11.294 1.9707 11.2731 2.0686 11.2326C2.1665 11.192 2.25542 11.1325 2.33024 11.0575L10.6335 2.75425L10.6335 7.26032C10.6335 7.70584 10.9947 8.06703 11.4402 8.06703C11.8857 8.06703 12.2469 7.70584 12.2469 7.26032L12.2469 0.80671C12.2469 0.361188 11.8857 0 11.4402 0Z" fill="#CF5476"/>
</svg>
