<svg width="30" height="30" viewBox="0 0 30 30" fill="none" xmlns="http://www.w3.org/2000/svg">
<path d="M29.2296 11.5472C29.2289 11.4448 29.1977 11.345 29.14 11.2605C29.0588 11.2124 29.0012 11.3009 28.9637 11.3599C28.8264 11.5996 28.7448 11.8663 28.6191 12.1121C28.4242 12.5545 28.1247 12.9428 27.7463 13.2436C27.625 13.3489 27.4773 13.4191 27.319 13.4465C26.6666 13.502 26.0135 13.3484 25.4543 13.0079C25.0028 12.7325 24.6119 12.3683 24.3054 11.9373C23.8696 11.3271 23.5132 10.6639 23.245 9.96367C23.4491 9.83755 23.6416 9.69359 23.8202 9.53346C24.0229 9.35599 24.1868 9.13861 24.3016 8.89492C24.4164 8.65123 24.4797 8.38646 24.4875 8.11718C24.4886 7.65891 24.3739 7.20781 24.1539 6.8058C24.1054 6.7344 24.0424 6.61164 23.9382 6.65861C23.8858 6.73863 23.8497 6.82828 23.8322 6.92234C23.7819 7.1837 23.6898 7.43523 23.5594 7.66728C23.4091 7.87331 23.2357 8.06141 23.0425 8.2279C23.0267 7.68274 22.8507 7.1543 22.5365 6.70854C22.4741 6.59449 22.3902 6.49356 22.2895 6.41129C22.2247 6.38798 22.181 6.4499 22.1784 6.50746C22.1729 6.82683 22.1202 7.14363 22.0222 7.44764C21.8353 7.7481 21.6088 8.02196 21.3486 8.26179C20.3577 8.0426 19.4017 7.68785 18.5077 7.20757C17.9732 6.86959 17.3798 6.63563 16.7584 6.518C16.0995 6.41816 15.426 6.53568 14.8399 6.85277C14.4392 7.07352 14.0472 7.31066 13.6378 7.51574C13.1018 7.76836 12.501 7.84952 11.9173 7.74815C10.8207 7.54812 9.71236 7.4183 8.59917 7.35947C7.41665 7.30004 6.23647 7.51562 5.15134 7.98929C4.52745 8.28935 3.93177 8.64485 3.3715 9.05151C2.7885 9.45034 2.273 9.93978 1.84447 10.5013C1.51089 10.9677 1.2532 11.4839 1.08097 12.0309C0.906453 12.555 0.816565 13.1035 0.814682 13.6559C0.820324 14.0949 0.853171 14.5331 0.913035 14.968C1.00595 15.8007 0.999336 16.6416 0.893348 17.4727C0.85401 17.8155 0.78516 18.1546 0.76476 18.4992C0.758175 18.5848 0.781621 18.6699 0.83106 18.74C0.930643 18.7088 1.01562 18.6427 1.07039 18.5539C1.33405 18.1804 1.55382 17.7778 1.72535 17.354C1.98635 16.7001 2.09498 15.9954 2.04299 15.2933C2.04418 15.2246 2.03167 15.1564 2.00619 15.0926L2.0306 15.0908C2.13624 15.3826 2.22622 15.6805 2.35917 15.9618C2.65097 16.6196 3.02569 17.2374 3.47421 17.8002C3.2851 18.3123 2.97121 18.769 2.56098 19.1291C2.28055 19.3919 2.11302 19.7532 2.09363 20.137C2.10939 20.349 2.20856 20.546 2.36939 20.6849C2.68455 21.0396 2.94809 21.4371 3.1522 21.8655C3.26297 22.0518 3.33819 22.2571 3.37404 22.4709C3.37805 22.7084 3.25128 22.9244 3.24618 23.1612C3.24633 23.2173 3.2578 23.2728 3.27992 23.3243C3.30204 23.3759 3.33435 23.4224 3.3749 23.4612C3.41545 23.4999 3.46341 23.5301 3.51591 23.5498C3.56841 23.5696 3.62435 23.5785 3.68039 23.5761C4.38416 23.5757 5.0883 23.5798 5.79207 23.5754C5.85864 23.5784 5.92491 23.5647 5.9848 23.5355C6.04469 23.5063 6.09629 23.4625 6.13486 23.4081C6.17344 23.3538 6.19775 23.2906 6.20557 23.2244C6.2134 23.1583 6.20449 23.0912 6.17965 23.0293C6.09091 22.8372 5.97471 22.6591 5.83469 22.5004C5.65766 22.3234 5.35167 22.3223 5.22089 22.0913C5.11267 21.9031 5.02719 21.7027 4.96627 21.4943C5.31765 21.7975 5.71193 22.047 6.13631 22.2349C6.31115 22.3332 6.45778 22.4748 6.56214 22.6461C6.67798 22.8793 6.51114 23.1634 6.6594 23.3874C6.71345 23.4612 6.78717 23.5183 6.87213 23.5522C6.95709 23.5861 7.04987 23.5954 7.13987 23.579C7.82069 23.5739 8.50188 23.5805 9.18306 23.5768C9.28434 23.58 9.38362 23.5482 9.46426 23.4869C9.54491 23.4255 9.60202 23.3383 9.62603 23.2399C9.62792 23.0816 9.56777 22.9289 9.45846 22.8144C9.34794 22.6464 9.2015 22.5049 9.02972 22.4002C8.79385 22.3167 8.5629 22.2199 8.33797 22.1103C8.07597 21.9266 7.84835 21.6982 7.66552 21.4357C7.44461 21.1385 7.24626 20.8252 7.07213 20.4984C6.94952 20.2632 6.90269 19.9959 6.93807 19.733C7.09274 19.0593 7.3038 18.3997 7.569 17.7612C8.35606 18.3721 9.26476 18.8073 10.234 19.0377C11.7823 19.406 13.4019 19.3421 14.9164 18.853C14.9237 19.1427 14.9636 19.4307 15.0355 19.7116C15.1018 19.9789 15.2085 20.2346 15.2657 20.5046C15.3574 20.9358 15.3499 21.3822 15.2438 21.8101C15.2161 21.9412 15.1581 22.0639 15.0744 22.1686C14.9695 22.284 14.8235 22.3532 14.7233 22.4731C14.6536 22.5438 14.6007 22.6292 14.5684 22.7231C14.5362 22.817 14.5255 22.9169 14.5371 23.0155C14.5569 23.0796 14.5929 23.1374 14.6416 23.1835C14.6902 23.2296 14.75 23.2623 14.8151 23.2785C15.0974 23.3558 15.3913 23.382 15.6828 23.3557C15.7263 23.4193 15.7836 23.4723 15.8504 23.5108C15.9171 23.5494 15.9917 23.5724 16.0686 23.5783C16.9421 23.5768 17.8157 23.5767 18.6895 23.5779C18.8415 23.6023 18.9972 23.5714 19.1284 23.4909C19.2005 23.4409 19.2527 23.3672 19.2762 23.2828C19.2997 23.1983 19.2929 23.1082 19.257 23.0282C19.0885 22.6379 18.78 22.3247 18.3922 22.1503C18.2129 22.0866 18.0457 21.993 17.8976 21.8735C17.7938 21.7159 17.7541 21.5246 17.7868 21.3387C17.8579 20.8166 17.9851 20.3036 18.1664 19.8088C18.2424 19.6244 18.3417 19.4504 18.4618 19.2912C18.5908 19.0708 18.6731 18.8278 18.7922 18.6023C18.9212 18.3554 19.0457 18.1058 19.1867 17.8654C19.4612 17.8027 19.7093 17.6559 19.8963 17.4454C20.0664 17.2276 20.1981 16.9823 20.2857 16.7202C20.6606 16.6567 21.0393 16.6191 21.4193 16.6076C21.8247 17.2814 22.4589 17.7869 23.2061 18.0319C23.9143 18.254 24.6484 18.383 25.3899 18.4158C25.4465 18.432 25.5002 18.457 25.5491 18.4898C25.747 18.5984 25.9723 18.6472 26.1974 18.63C26.4226 18.6129 26.6379 18.5306 26.8171 18.3933C26.9782 18.2478 27.1147 18.0772 27.2211 17.888C27.4008 17.8413 27.571 17.7638 27.7241 17.6589C27.8209 17.5861 27.8927 17.4851 27.9297 17.3699C27.9667 17.2546 27.967 17.1307 27.9307 17.0152C27.8156 16.7865 27.7813 16.5257 27.8334 16.275C27.9321 16.0157 28.0664 15.7714 28.2323 15.549C28.6354 14.8359 28.9197 14.0619 29.0741 13.2574C29.1946 12.6957 29.2468 12.1214 29.2296 11.5472ZM17.6607 18.6701C17.5897 18.7338 17.5238 18.8643 17.4098 18.8136C17.074 18.7164 16.7675 18.5378 16.5175 18.2936C16.2675 18.0493 16.0817 17.7471 15.9767 17.4137C16.4477 17.2709 16.824 16.9172 17.3067 16.8076C17.5192 16.7528 17.741 16.7438 17.9573 16.781C18.1736 16.8182 18.3796 16.9009 18.5616 17.0236C18.4002 17.6377 18.0909 18.203 17.6607 18.6701ZM20.7567 13.4974C20.4482 12.4328 19.8392 11.4798 19.0027 10.7527C18.7507 10.5427 18.4671 10.3739 18.1624 10.2525C18.0606 10.205 17.946 10.1924 17.8363 10.2168C17.841 10.2837 17.8593 10.3489 17.8902 10.4084C18.6621 11.5117 19.2216 12.7491 19.54 14.0573C19.6955 14.8634 19.6524 15.6952 19.4144 16.4808C18.9342 16.0546 18.3107 15.8254 17.6688 15.8393C17.1814 15.8642 16.7064 16.0011 16.2805 16.2393C15.9731 16.4047 15.6454 16.5291 15.3057 16.6094C15.3982 16.1639 15.4472 15.7104 15.4522 15.2554C15.4602 14.7072 15.4285 14.1591 15.3575 13.6155C15.3272 13.3094 15.2736 13.006 15.1972 12.7081C15.1764 12.6279 15.1131 12.5059 15.0122 12.5594C14.8908 12.6626 14.7927 12.7902 14.724 12.9339C14.4767 13.4165 14.2861 13.9261 14.1561 14.4526C13.9816 15.1147 13.871 15.7921 13.8257 16.4754C13.0805 16.7334 12.2703 16.7335 11.525 16.4757C10.4098 16.0652 9.48835 15.2527 8.94158 14.1976C8.60281 13.5677 8.41631 12.8705 8.08664 12.2363C7.91606 11.8883 7.70529 11.5615 7.45864 11.2626C7.40527 11.1905 7.33287 11.1346 7.24955 11.1013C7.16139 11.1115 7.12278 11.2047 7.12132 11.2834C7.06304 12.2265 7.33695 13.1496 7.33588 14.0905C7.33802 14.5641 7.25536 15.0342 7.09182 15.4787C6.90505 14.7625 6.53261 14.1082 6.01212 13.5819C5.59743 13.174 5.13979 12.8121 4.64719 12.5026C4.19684 12.226 3.77608 11.9039 3.39155 11.5413C3.16997 11.3179 2.99827 11.0501 2.88777 10.7556C3.26112 10.3703 3.67406 10.0255 4.11973 9.72686C4.67299 9.32727 5.27195 8.99513 5.90393 8.7375C6.88522 8.40133 7.92634 8.27572 8.95943 8.36886C9.86576 8.4382 10.7678 8.55493 11.662 8.71855C12.2925 8.84135 12.9438 8.80351 13.5558 8.60854C14.0016 8.44244 14.4298 8.23245 14.834 7.98166C15.0953 7.81155 15.3749 7.67128 15.6674 7.56348C16.1092 7.42961 16.5821 7.4402 17.0174 7.59372C17.6516 7.81118 18.2017 8.20825 18.8155 8.47088C19.4544 8.74898 20.1161 8.97176 20.7931 9.13677C20.722 9.36576 20.6986 9.60691 20.7243 9.84531C20.7501 10.0837 20.8244 10.3143 20.9428 10.5228C21.0922 10.7755 21.2757 11.0063 21.4882 11.2087C21.1163 11.9246 20.8689 12.6986 20.7567 13.4974ZM24.9487 15.325C24.7204 15.4578 24.4673 15.5427 24.2051 15.5743C23.9428 15.6059 23.6769 15.5837 23.4235 15.5089C22.9322 15.3503 22.5127 15.0232 22.2389 14.5855C21.8434 13.962 21.7109 13.2072 21.8703 12.4862C22.0042 11.9008 22.2865 11.3597 22.6902 10.9151C22.7161 10.8958 22.7336 10.8423 22.7737 10.8568C22.9899 11.364 23.2593 11.8468 23.5772 12.2972C24.1533 13.1781 25.0211 13.8282 26.0284 14.1335C25.7954 14.6294 25.4194 15.0443 24.9487 15.325Z" fill="#485648"/>
<path d="M23.9672 13.8723C23.6757 13.9758 23.4051 14.1305 23.168 14.3291C23.2717 14.5878 23.4325 14.8197 23.6382 15.0077C23.7495 15.0918 23.8801 15.1465 24.0181 15.1668C24.156 15.1871 24.2969 15.1724 24.4276 15.1239C24.6918 14.9937 24.9361 14.8267 25.1532 14.6278C25.056 14.5003 24.9798 14.359 24.8888 14.2275C24.7868 14.0846 24.6451 13.9747 24.4813 13.9116C24.3175 13.8484 24.1387 13.8348 23.9672 13.8723Z" fill="#485648"/>
</svg>
