<svg width="10" height="12" viewBox="0 0 10 12" fill="none" xmlns="http://www.w3.org/2000/svg">
<path d="M9.8592 3.92185C9.26764 1.21746 6.99722 -0.000102997 5.00285 -0.000102997C5.00285 -0.000102997 5.00285 -0.000102997 4.99721 -0.000102997C3.00847 -0.000102997 0.732413 1.2116 0.140862 3.91599C-0.518294 6.93648 1.26199 9.49453 2.87326 11.1043C3.47045 11.7014 4.23665 11.9999 5.00285 11.9999C5.76904 11.9999 6.53524 11.7014 7.1268 11.1043C8.73807 9.49453 10.5184 6.94234 9.8592 3.92185ZM5.00285 6.85453C4.02256 6.85453 3.22819 6.02917 3.22819 5.01063C3.22819 3.99209 4.02256 3.16673 5.00285 3.16673C5.98313 3.16673 6.7775 3.99209 6.7775 5.01063C6.7775 6.02917 5.98313 6.85453 5.00285 6.85453Z" fill="#485648"/>
</svg>
