<svg width="24" height="24" viewBox="0 0 24 24" fill="none" xmlns="http://www.w3.org/2000/svg">
<path d="M10.9134 13.0877C10.7223 12.897 10.4945 12.7469 10.2438 12.6465L2.31381 9.4665C2.21912 9.42851 2.13833 9.36246 2.08226 9.27722C2.0262 9.19199 1.99755 9.09164 2.00016 8.98966C2.00278 8.88767 2.03652 8.78892 2.09688 8.70667C2.15723 8.62442 2.2413 8.56259 2.33781 8.5295L21.3378 2.0295C21.4264 1.99749 21.5223 1.99139 21.6143 2.01189C21.7062 2.03239 21.7904 2.07866 21.857 2.14528C21.9236 2.21189 21.9699 2.2961 21.9904 2.38805C22.0109 2.48 22.0048 2.57589 21.9728 2.6645L15.4728 21.6645C15.4397 21.761 15.3779 21.8451 15.2956 21.9054C15.2134 21.9658 15.1146 21.9995 15.0126 22.0021C14.9107 22.0048 14.8103 21.9761 14.7251 21.92C14.6398 21.864 14.5738 21.7832 14.5358 21.6885L11.3558 13.7565C11.255 13.506 11.1045 13.2785 10.9134 13.0877ZM10.9134 13.0877L21.8538 2.1495" stroke="white" stroke-width="1.5" stroke-linecap="round" stroke-linejoin="round"/>
</svg>
