<svg width="37" height="37" viewBox="0 0 37 37" fill="none" xmlns="http://www.w3.org/2000/svg">
<circle cx="18.3027" cy="18.3027" r="18.3027" fill="white"/>
<path d="M21.4744 19.9443C21.0653 19.9447 20.6625 20.0447 20.3006 20.2356C19.9387 20.4266 19.6287 20.7029 19.3973 21.0406L15.8757 19.4487C16.1258 18.8441 16.1268 18.1649 15.8784 17.5595L19.3952 15.9595C19.7381 16.4561 20.2475 16.8131 20.8309 16.9659C21.4143 17.1187 22.033 17.0571 22.575 16.7923C23.1169 16.5275 23.546 16.077 23.7846 15.5226C24.0231 14.9681 24.0553 14.3464 23.8752 13.7703C23.6951 13.1942 23.3147 12.7017 22.8031 12.3823C22.2914 12.0629 21.6823 11.9376 21.0862 12.0293C20.4902 12.1209 19.9467 12.4234 19.5544 12.8818C19.162 13.3402 18.9468 13.9243 18.9477 14.528C18.95 14.6708 18.9645 14.8133 18.991 14.9537L15.2524 16.6544C14.8933 16.3177 14.4438 16.0932 13.959 16.0087C13.4743 15.9241 12.9755 15.9832 12.5238 16.1786C12.0721 16.374 11.6873 16.6972 11.4166 17.1085C11.1459 17.5199 11.0011 18.0014 11 18.494C10.9989 18.9866 11.1416 19.4687 11.4105 19.8812C11.6794 20.2938 12.0628 20.6187 12.5136 20.816C12.9644 21.0134 13.463 21.0747 13.9481 20.9923C14.4332 20.9099 14.8837 20.6874 15.2443 20.3522L18.9926 22.0464C18.9666 22.1867 18.9523 22.329 18.9499 22.4716C18.9498 22.9716 19.0978 23.4604 19.3752 23.8762C19.6526 24.292 20.047 24.6161 20.5084 24.8075C20.9698 24.9989 21.4776 25.049 21.9674 24.9515C22.4573 24.8539 22.9073 24.6132 23.2604 24.2596C23.6136 23.9061 23.8541 23.4556 23.9515 22.9652C24.0489 22.4748 23.9989 21.9665 23.8077 21.5046C23.6165 21.0426 23.2928 20.6479 22.8774 20.3701C22.4621 20.0924 21.9739 19.9442 21.4744 19.9443ZM21.4744 13.0834C21.7598 13.0833 22.0388 13.1679 22.2762 13.3266C22.5136 13.4853 22.6986 13.7108 22.8079 13.9748C22.9172 14.2387 22.9459 14.5292 22.8902 14.8094C22.8346 15.0897 22.6972 15.3471 22.4955 15.5492C22.2937 15.7513 22.0366 15.8889 21.7566 15.9447C21.4767 16.0005 21.1866 15.9719 20.9229 15.8626C20.6592 15.7533 20.4338 15.5681 20.2752 15.3306C20.1166 15.093 20.032 14.8137 20.032 14.528C20.0323 14.145 20.1843 13.7778 20.4547 13.507C20.7252 13.2362 21.0919 13.0838 21.4744 13.0834ZM13.5394 19.9443C13.254 19.9445 12.975 19.8598 12.7376 19.7012C12.5002 19.5425 12.3152 19.3169 12.2059 19.053C12.0966 18.789 12.068 18.4986 12.1236 18.2183C12.1792 17.9381 12.3166 17.6806 12.5184 17.4785C12.7201 17.2765 12.9772 17.1388 13.2572 17.083C13.5371 17.0273 13.8273 17.0558 14.091 17.1652C14.3547 17.2745 14.58 17.4596 14.7386 17.6972C14.8972 17.9348 14.9818 18.2141 14.9818 18.4998C14.9814 18.8827 14.8293 19.2498 14.5589 19.5206C14.2885 19.7914 13.9219 19.9438 13.5394 19.9443ZM21.4744 23.9162C21.189 23.9162 20.91 23.8315 20.6727 23.6727C20.4354 23.514 20.2505 23.2884 20.1413 23.0244C20.0321 22.7605 20.0035 22.47 20.0592 22.1898C20.1148 21.9096 20.2523 21.6522 20.4541 21.4502C20.6559 21.2482 20.913 21.1106 21.1929 21.0548C21.4728 20.9991 21.7629 21.0277 22.0266 21.137C22.2903 21.2464 22.5156 21.4315 22.6742 21.6691C22.8327 21.9066 22.9174 22.1859 22.9174 22.4716C22.9171 22.8547 22.765 23.2219 22.4944 23.4928C22.2239 23.7636 21.857 23.9159 21.4744 23.9162Z" fill="#485648"/>
</svg>
