<svg width="20" height="20" viewBox="0 0 20 20" fill="none" xmlns="http://www.w3.org/2000/svg">
<path d="M18.7241 9.82481V3.53863C18.7241 2.00957 17.4801 0.765625 15.9511 0.765625H3.96922C2.44016 0.765625 1.19621 2.00961 1.19621 3.53863V9.9059C0.455586 10.6802 0 11.7293 0 12.8828V17.6493C0 18.5243 0.711836 19.2362 1.58684 19.2362C2.4618 19.2362 3.17363 18.5243 3.17363 17.6493V17.1571H16.8264V17.6493C16.8264 18.5243 17.5382 19.2362 18.4132 19.2362C19.2882 19.2362 20 18.5243 20 17.6493V12.8828C20 11.6885 19.5116 10.6061 18.7241 9.82481ZM3.96922 1.54688H15.9511C17.0493 1.54688 17.9428 2.44039 17.9428 3.53863V9.21C17.702 9.06166 17.4471 8.93748 17.1819 8.83926V7.54027C17.1819 6.38871 16.245 5.45184 15.0935 5.45184H11.6979C10.9988 5.45184 10.3793 5.79742 10 6.32637C9.62078 5.79742 9.00129 5.45184 8.30223 5.45184H4.9066C3.75504 5.45184 2.81816 6.38867 2.81816 7.54027V8.83926C2.52339 8.94842 2.24148 9.08959 1.9775 9.26023V3.53863C1.97746 2.44039 2.87094 1.54688 3.96922 1.54688ZM4.30988 8.57293C4.06789 8.57293 3.83055 8.59332 3.59934 8.63184V7.54027C3.59934 6.81949 4.18574 6.23309 4.90652 6.23309H8.30215C9.02293 6.23309 9.60934 6.81949 9.60934 7.54027V8.57297H4.30988V8.57293ZM10.3906 7.54023C10.3906 6.81945 10.977 6.23305 11.6978 6.23305H15.0934C15.8142 6.23305 16.4006 6.81945 16.4006 7.54023V8.6318C16.1658 8.59263 15.9281 8.57292 15.6901 8.57289H10.3906V7.54023ZM4.30988 9.35418H15.6901C17.6358 9.35418 19.2187 10.9371 19.2187 12.8828V14.0417H15.3009C15.0852 14.0417 14.9103 14.2166 14.9103 14.4323C14.9103 14.648 15.0852 14.8229 15.3009 14.8229H19.2188V16.3759H0.78125V14.8229H11.3946C11.6104 14.8229 11.7853 14.648 11.7853 14.4323C11.7853 14.2166 11.6104 14.0417 11.3946 14.0417H0.78125V12.8828C0.78125 10.9371 2.36418 9.35418 4.30988 9.35418ZM2.39238 17.6493C2.39238 18.0935 2.03102 18.4549 1.58684 18.4549C1.14266 18.4549 0.78125 18.0935 0.78125 17.6493V17.1571H2.39238V17.6493ZM18.4132 18.4549C17.969 18.4549 17.6076 18.0935 17.6076 17.6493V17.1571H19.2188V17.6493C19.2188 18.0935 18.8574 18.4549 18.4132 18.4549Z" fill="#1B1C1E"/>
<path d="M13.3476 14.8207C13.5635 14.8207 13.7384 14.6457 13.7384 14.4299C13.7384 14.214 13.5635 14.0391 13.3476 14.0391C13.1318 14.0391 12.9568 14.214 12.9568 14.4299C12.9568 14.6457 13.1318 14.8207 13.3476 14.8207Z" fill="#1B1C1E"/>
</svg>
