<svg width="58" height="58" viewBox="0 0 58 58" fill="none" xmlns="http://www.w3.org/2000/svg">
<path d="M38.7997 47.0051L37.0383 48.1005L37.6104 51.535L34.7768 53.4972L34.571 55.7621L31.9835 56.2975H27.4638L24.7336 54.3469L22.0821 46.3905L23.0261 43.9987L21.4427 43.3736L20.2716 46.3415L23.2939 55.4105L26.9183 58H32.1577L36.1518 57.1735L36.4 54.4441L39.4669 52.3202L38.9045 48.9446L39.6984 48.4509L38.7997 47.0051ZM7.97921 31.2645L9.66763 30.9014L9.30984 29.237L8.27482 29.4596L4.58093 27.2627L1.72916 21.4522L2.15163 15.2178L7.0402 8.16744L7.14425 5.04475L14.6623 1.70254H20.5528V5.16699L27.5488 8.04849L29.0855 5.44723L38.4162 7.49834L46.0654 22.572L49.3075 22.6672L46.9738 30.1561L43.2227 34.2891L44.483 35.4335L48.4869 31.0221L51.6002 21.0314L47.1258 20.8997L39.5691 6.00862L28.247 3.51961L26.8334 5.91248L22.2549 4.02686V0H14.3011L5.47853 3.92209L5.35564 7.60946L0.485226 14.6336L0 21.7924L3.27595 28.4673L7.97921 31.2645Z" fill="white"/>
<path d="M26.5115 14.8672C20.0979 14.8672 14.8802 20.0862 14.8802 26.5012C14.8802 32.9163 20.0979 38.1353 26.5115 38.1353C32.9251 38.1353 38.1428 32.9163 38.1428 26.5012C38.1428 20.0862 32.925 14.8672 26.5115 14.8672ZM26.5115 36.4327C21.0365 36.4327 16.5823 31.9775 16.5823 26.5012C16.5823 21.0249 21.0365 16.5697 26.5115 16.5697C30.3746 16.5697 33.7292 18.788 35.3698 22.0179H31.7314V23.7204H36.044C36.2064 24.2769 36.3195 24.8466 36.3819 25.423H33.6605V27.1255H36.4205C36.0972 32.312 31.7767 36.4327 26.5115 36.4327ZM5.06445 33.4817H10.7383V35.1842H5.06445V33.4817ZM1.66016 33.4817H3.3623V35.1842H1.66016V33.4817ZM7.33398 36.8868H12.5539V38.5893H7.33398V36.8868ZM3.92969 36.8868H5.63183V38.5893H3.92969V36.8868Z" fill="white"/>
<path d="M56.7535 50.7331L40.1312 34.1067C41.3926 31.8552 42.1133 29.2614 42.1133 26.502C42.1133 17.8966 35.1138 10.8954 26.5102 10.8954C17.9067 10.8954 10.9072 17.8966 10.9072 26.502C10.9072 35.1075 17.9067 42.1087 26.5102 42.1087C29.269 42.1087 31.8621 41.3879 34.1132 40.1261L50.7355 56.7524C51.5652 57.5822 52.6549 57.997 53.7446 57.997C54.8343 57.997 55.924 57.5822 56.7537 56.7523C57.5574 55.9484 58 54.8796 58 53.7426C58 52.6057 57.5573 51.537 56.7535 50.7331ZM26.5102 40.4061C18.8452 40.4061 12.6094 34.1688 12.6094 26.502C12.6094 18.8352 18.8452 12.5979 26.5102 12.5979C34.1752 12.5979 40.4111 18.8352 40.4111 26.502C40.4111 34.1688 34.1752 40.4061 26.5102 40.4061ZM35.5847 39.1903C36.9769 38.1911 38.1966 36.9711 39.1956 35.5786L41.3074 37.6909L37.6965 41.3025L35.5847 39.1903ZM38.9002 42.5065L42.511 38.895L43.7145 40.0988L40.1037 43.7103L38.9002 42.5065ZM55.55 55.5486C54.5545 56.5443 52.9347 56.5443 51.9392 55.5486L41.3075 44.9144L44.9183 41.3028L55.5501 51.9371C55.788 52.1737 55.9766 52.4551 56.1049 52.765C56.2333 53.075 56.2989 53.4073 56.2979 53.7428C56.2988 54.0783 56.2331 54.4107 56.1047 54.7206C55.9764 55.0305 55.7878 55.312 55.55 55.5486ZM12.042 6.46875H13.7441V8.17129H12.042V6.46875ZM12.042 12.1439H13.7441V13.8464H12.042V12.1439ZM14.8789 9.30632H16.5811V11.0089H14.8789V9.30632ZM9.20508 9.30632H10.9072V11.0089H9.20508V9.30632Z" fill="white"/>
<path d="M52.1688 53.3785L53.3724 52.1748L54.5758 53.3785L53.3724 54.5822L52.1688 53.3785ZM49.7622 50.9741L50.9656 49.7704L52.1691 50.9741L50.9656 52.1778L49.7622 50.9741ZM28.3262 22.0156H30.0283V23.7182H28.3262V22.0156Z" fill="white"/>
</svg>
