<svg width="56" height="56" viewBox="0 0 56 56" fill="none" xmlns="http://www.w3.org/2000/svg">
<path d="M29.6711 52.4444H5.03111C2.25778 52.4444 0 50.1867 0 47.4133V8.58667C0 5.81333 2.25778 3.55556 5.03111 3.55556H47.4133C50.1867 3.55556 52.4444 5.81333 52.4444 8.58667V29.6711C52.4444 30.0247 52.304 30.3639 52.0539 30.6139C51.8039 30.864 51.4647 31.0044 51.1111 31.0044C50.7575 31.0044 50.4184 30.864 50.1683 30.6139C49.9183 30.3639 49.7778 30.0247 49.7778 29.6711V8.58667C49.7778 7.28356 48.7164 6.22222 47.4133 6.22222H5.03111C3.728 6.22222 2.66667 7.28356 2.66667 8.58667V47.4133C2.66667 48.7164 3.728 49.7778 5.03111 49.7778H29.6711C30.0247 49.7778 30.3639 49.9183 30.6139 50.1683C30.864 50.4184 31.0044 50.7575 31.0044 51.1111C31.0044 51.4647 30.864 51.8039 30.6139 52.0539C30.3639 52.304 30.0247 52.4444 29.6711 52.4444Z" fill="white"/>
<path d="M51.1111 16.8889H1.33333C0.979711 16.8889 0.640573 16.7484 0.390524 16.4984C0.140476 16.2483 0 15.9092 0 15.5556C0 15.2019 0.140476 14.8628 0.390524 14.6127C0.640573 14.3627 0.979711 14.2222 1.33333 14.2222H51.1111C51.4647 14.2222 51.8039 14.3627 52.0539 14.6127C52.304 14.8628 52.4444 15.2019 52.4444 15.5556C52.4444 15.9092 52.304 16.2483 52.0539 16.4984C51.8039 16.7484 51.4647 16.8889 51.1111 16.8889ZM26.2222 9.77778C25.8686 9.77778 25.5295 9.6373 25.2794 9.38725C25.0294 9.13721 24.8889 8.79807 24.8889 8.44444V1.33333C24.8889 0.979711 25.0294 0.640573 25.2794 0.390524C25.5295 0.140476 25.8686 0 26.2222 0C26.5758 0 26.915 0.140476 27.165 0.390524C27.4151 0.640573 27.5556 0.979711 27.5556 1.33333V8.44444C27.5556 8.79807 27.4151 9.13721 27.165 9.38725C26.915 9.6373 26.5758 9.77778 26.2222 9.77778ZM8.44444 9.77778C8.09082 9.77778 7.75168 9.6373 7.50164 9.38725C7.25159 9.13721 7.11111 8.79807 7.11111 8.44444V1.33333C7.11111 0.979711 7.25159 0.640573 7.50164 0.390524C7.75168 0.140476 8.09082 0 8.44444 0C8.79807 0 9.13721 0.140476 9.38725 0.390524C9.6373 0.640573 9.77778 0.979711 9.77778 1.33333V8.44444C9.77778 8.79807 9.6373 9.13721 9.38725 9.38725C9.13721 9.6373 8.79807 9.77778 8.44444 9.77778ZM44 9.77778C43.6464 9.77778 43.3072 9.6373 43.0572 9.38725C42.8071 9.13721 42.6667 8.79807 42.6667 8.44444V1.33333C42.6667 0.979711 42.8071 0.640573 43.0572 0.390524C43.3072 0.140476 43.6464 0 44 0C44.3536 0 44.6928 0.140476 44.9428 0.390524C45.1929 0.640573 45.3333 0.979711 45.3333 1.33333V8.44444C45.3333 8.79807 45.1929 9.13721 44.9428 9.38725C44.6928 9.6373 44.3536 9.77778 44 9.77778ZM15.5556 31.1111H8.44444C8.09082 31.1111 7.75168 30.9706 7.50164 30.7206C7.25159 30.4705 7.11111 30.1314 7.11111 29.7778V22.6667C7.11111 22.313 7.25159 21.9739 7.50164 21.7239C7.75168 21.4738 8.09082 21.3333 8.44444 21.3333H15.5556C15.9092 21.3333 16.2483 21.4738 16.4984 21.7239C16.7484 21.9739 16.8889 22.313 16.8889 22.6667V29.7778C16.8889 30.1314 16.7484 30.4705 16.4984 30.7206C16.2483 30.9706 15.9092 31.1111 15.5556 31.1111ZM9.77778 28.4444H14.2222V24H9.77778V28.4444ZM29.7778 31.1111H22.6667C22.313 31.1111 21.9739 30.9706 21.7239 30.7206C21.4738 30.4705 21.3333 30.1314 21.3333 29.7778V22.6667C21.3333 22.313 21.4738 21.9739 21.7239 21.7239C21.9739 21.4738 22.313 21.3333 22.6667 21.3333H29.7778C30.1314 21.3333 30.4705 21.4738 30.7206 21.7239C30.9706 21.9739 31.1111 22.313 31.1111 22.6667V29.7778C31.1111 30.1314 30.9706 30.4705 30.7206 30.7206C30.4705 30.9706 30.1314 31.1111 29.7778 31.1111ZM24 28.4444H28.4444V24H24V28.4444ZM15.5556 45.3333H8.44444C8.09082 45.3333 7.75168 45.1929 7.50164 44.9428C7.25159 44.6928 7.11111 44.3536 7.11111 44V36.8889C7.11111 36.5353 7.25159 36.1961 7.50164 35.9461C7.75168 35.696 8.09082 35.5556 8.44444 35.5556H15.5556C15.9092 35.5556 16.2483 35.696 16.4984 35.9461C16.7484 36.1961 16.8889 36.5353 16.8889 36.8889V44C16.8889 44.3536 16.7484 44.6928 16.4984 44.9428C16.2483 45.1929 15.9092 45.3333 15.5556 45.3333ZM9.77778 42.6667H14.2222V38.2222H9.77778V42.6667ZM44 56C37.3831 56 32 50.6169 32 44C32 37.3831 37.3831 32 44 32C50.6169 32 56 37.3831 56 44C56 50.6169 50.6169 56 44 56ZM44 34.6667C38.8551 34.6667 34.6667 38.8533 34.6667 44C34.6667 49.1467 38.8551 53.3333 44 53.3333C49.1449 53.3333 53.3333 49.1467 53.3333 44C53.3333 38.8533 49.1449 34.6667 44 34.6667Z" fill="white"/>
<path d="M47.5556 45.3333H44C43.6464 45.3333 43.3072 45.1929 43.0572 44.9428C42.8071 44.6928 42.6667 44.3536 42.6667 44V38.6667C42.6667 38.313 42.8071 37.9739 43.0572 37.7239C43.3072 37.4738 43.6464 37.3333 44 37.3333C44.3536 37.3333 44.6928 37.4738 44.9428 37.7239C45.1929 37.9739 45.3333 38.313 45.3333 38.6667V42.6667H47.5556C47.9092 42.6667 48.2483 42.8071 48.4984 43.0572C48.7484 43.3072 48.8889 43.6464 48.8889 44C48.8889 44.3536 48.7484 44.6928 48.4984 44.9428C48.2483 45.1929 47.9092 45.3333 47.5556 45.3333Z" fill="white"/>
</svg>
