<svg width="18" height="16" viewBox="0 0 18 16" fill="none" xmlns="http://www.w3.org/2000/svg">
<path opacity="0.4" d="M0.5 2.57813C0.5 2.99479 0.833333 3.32812 1.25 3.32812L5.125 3.32812C5.54167 3.32812 5.875 2.99479 5.875 2.57813C5.875 2.16146 5.54167 1.82813 5.125 1.82813L1.25 1.82813C0.833333 1.82813 0.5 2.16146 0.5 2.57813Z" fill="#485648"/>
<path d="M12.125 8C12.125 8.41667 12.4583 8.75 12.875 8.75L16.75 8.75C17.1667 8.75 17.5 8.41667 17.5 8C17.5 7.58333 17.1667 7.25 16.75 7.25L12.875 7.25C12.4667 7.25 12.125 7.58333 12.125 8Z" fill="#485648"/>
<path opacity="0.4" d="M0.5 13.4219C0.5 13.8385 0.833333 14.1719 1.25 14.1719L5.125 14.1719C5.54167 14.1719 5.875 13.8385 5.875 13.4219C5.875 13.0052 5.54167 12.6719 5.125 12.6719L1.25 12.6719C0.833333 12.6719 0.5 13.0135 0.5 13.4219Z" fill="#485648"/>
<path opacity="0.4" d="M7.47461 11.8766L7.47461 14.9766C7.47461 15.3932 7.80794 15.7266 8.22461 15.7266C8.64128 15.7266 8.97461 15.3932 8.97461 14.9766L8.97461 14.1766L16.7496 14.1766C17.1663 14.1766 17.4996 13.8432 17.4996 13.4266C17.4996 13.0099 17.1663 12.6766 16.7496 12.6766L8.97461 12.6766L8.97461 11.8766C8.97461 11.4599 8.64128 11.1266 8.22461 11.1266C7.80794 11.1266 7.47461 11.4682 7.47461 11.8766Z" fill="#485648"/>
<path opacity="0.4" d="M7.47461 1.025L7.47461 4.125C7.47461 4.54167 7.80794 4.875 8.22461 4.875C8.64128 4.875 8.97461 4.54167 8.97461 4.125L8.97461 3.325L16.7496 3.325C17.1663 3.325 17.4996 2.99167 17.4996 2.575C17.4996 2.15833 17.1663 1.825 16.7496 1.825L8.97461 1.825L8.97461 1.025C8.97461 0.608333 8.64128 0.275 8.22461 0.275C7.80794 0.275 7.47461 0.608333 7.47461 1.025Z" fill="#485648"/>
<path d="M9.025 6.44687L9.025 7.24687L1.25 7.24688C0.833333 7.24688 0.5 7.58021 0.5 7.99687C0.5 8.41354 0.833333 8.74687 1.25 8.74687L9.025 8.74687L9.025 9.54687C9.025 9.96354 9.35833 10.2969 9.775 10.2969C10.1917 10.2969 10.525 9.96354 10.525 9.54687L10.525 6.44687C10.525 6.03021 10.1917 5.69687 9.775 5.69687C9.35833 5.69687 9.025 6.03021 9.025 6.44687Z" fill="#485648"/>
</svg>
