<svg width="16" height="16" viewBox="0 0 16 16" fill="none" xmlns="http://www.w3.org/2000/svg">
<path opacity="0.4" d="M8.02 4.6069V14.3336H2.40667C1.63333 14.3336 1 13.7136 1 12.9536V3.06023C1 1.31357 2.30667 0.520233 3.9 1.30023L6.85333 2.76023C7.49333 3.07357 8.02 3.9069 8.02 4.6069Z" fill="#757575"/>
<path d="M5.98033 6.5H3.66699C3.39366 6.5 3.16699 6.27333 3.16699 6C3.16699 5.72667 3.39366 5.5 3.66699 5.5H5.98033C6.25366 5.5 6.48033 5.72667 6.48033 6C6.48033 6.27333 6.26033 6.5 5.98033 6.5Z" fill="#757575"/>
<path d="M5.98033 9.16406H3.66699C3.39366 9.16406 3.16699 8.9374 3.16699 8.66406C3.16699 8.39073 3.39366 8.16406 3.66699 8.16406H5.98033C6.25366 8.16406 6.48033 8.39073 6.48033 8.66406C6.48033 8.9374 6.26033 9.16406 5.98033 9.16406Z" fill="#757575"/>
<path opacity="0.6" d="M14.6663 10.032V12.9986C14.6663 13.9186 13.9197 14.6653 12.9997 14.6653H8.33301V6.94531L8.64634 7.01198L11.3397 7.61198L11.6597 7.68531L13.0197 7.99198C13.3463 8.05865 13.6463 8.17198 13.9063 8.33865C13.9063 8.34531 13.913 8.34531 13.913 8.34531C13.9797 8.39198 14.0463 8.44531 14.1063 8.50531C14.413 8.81198 14.613 9.25865 14.6597 9.91198C14.6597 9.95198 14.6663 9.99198 14.6663 10.032Z" fill="#757575"/>
<path d="M8.33301 6.94531V10.9453C8.63967 11.352 9.11967 11.612 9.66634 11.612C10.593 11.612 11.3397 10.8653 11.3397 9.94531V7.61865L8.64634 7.01865L8.33301 6.94531Z" fill="#757575"/>
<path d="M14.3464 9.58125C14.2997 8.92792 14.0997 8.48125 13.793 8.17458C13.733 8.11458 13.6664 8.06125 13.5997 8.01458C13.5997 8.01458 13.593 8.01458 13.593 8.00792C13.333 7.84125 13.033 7.72792 12.7064 7.66125L11.3464 7.35458L11.0264 7.28125V9.61458C11.0264 10.5279 11.7664 11.2812 12.693 11.2812C13.5864 11.2812 14.2997 10.5813 14.353 9.70792V9.70125C14.353 9.66125 14.3464 9.62125 14.3464 9.58125Z" fill="#757575"/>
</svg>
