<svg width="20" height="20" viewBox="0 0 20 20" fill="none" xmlns="http://www.w3.org/2000/svg">
<path opacity="0.4" d="M18.9062 8.19H16.0163C13.6463 8.19 11.7163 6.26 11.7163 3.89V1C11.7163 0.45 11.2663 0 10.7163 0H6.47625C3.39625 0 0.90625 2 0.90625 5.57V14.43C0.90625 18 3.39625 20 6.47625 20H14.3363C17.4163 20 19.9062 18 19.9062 14.43V9.19C19.9062 8.64 19.4562 8.19 18.9062 8.19Z" fill="#485648"/>
<path d="M14.2059 0.210481C13.7959 -0.199519 13.0859 0.0804814 13.0859 0.650481V4.14048C13.0859 5.60048 14.3259 6.81048 15.8359 6.81048C16.7859 6.82048 18.1059 6.82048 19.2359 6.82048C19.8059 6.82048 20.1059 6.15048 19.7059 5.75048C18.2659 4.30048 15.6859 1.69048 14.2059 0.210481Z" fill="#485648"/>
<path d="M9.93375 10.47L7.93375 8.47C7.92375 8.46 7.91375 8.46 7.91375 8.45C7.85375 8.39 7.77375 8.34 7.69375 8.3C7.68375 8.3 7.68375 8.3 7.67375 8.3C7.59375 8.27 7.51375 8.26 7.43375 8.25C7.40375 8.25 7.38375 8.25 7.35375 8.25C7.29375 8.25 7.22375 8.27 7.16375 8.29C7.13375 8.3 7.11375 8.31 7.09375 8.32C7.01375 8.36 6.93375 8.4 6.87375 8.47L4.87375 10.47C4.58375 10.76 4.58375 11.24 4.87375 11.53C5.16375 11.82 5.64375 11.82 5.93375 11.53L6.65375 10.81V15C6.65375 15.41 6.99375 15.75 7.40375 15.75C7.81375 15.75 8.15375 15.41 8.15375 15V10.81L8.87375 11.53C9.02375 11.68 9.21375 11.75 9.40375 11.75C9.59375 11.75 9.78375 11.68 9.93375 11.53C10.2238 11.24 10.2238 10.76 9.93375 10.47Z" fill="#485648"/>
</svg>
