<svg width="19" height="14" viewBox="0 0 19 14" fill="none" xmlns="http://www.w3.org/2000/svg">
<path d="M0 11.0579C0 10.5832 0.122168 10.1469 0.366504 9.749C0.61084 9.35108 0.935457 9.04741 1.34036 8.83798C2.206 8.40515 3.08561 8.08053 3.97918 7.86412C4.87275 7.64771 5.78029 7.53951 6.70178 7.53951C7.62328 7.53951 8.53081 7.64771 9.42438 7.86412C10.318 8.08053 11.1976 8.40515 12.0632 8.83798C12.4681 9.04741 12.7927 9.35108 13.0371 9.749C13.2814 10.1469 13.4036 10.5832 13.4036 11.0579V11.7281C13.4036 12.1889 13.2395 12.5833 12.9114 12.9114C12.5833 13.2395 12.1889 13.4036 11.7281 13.4036H1.67545C1.2147 13.4036 0.82027 13.2395 0.492162 12.9114C0.164054 12.5833 0 12.1889 0 11.7281V11.0579ZM16.7545 13.4036H14.6183C14.7718 13.1522 14.887 12.8835 14.9638 12.5973C15.0406 12.311 15.079 12.0213 15.079 11.7281V10.8904C15.079 10.2761 14.908 9.68617 14.5659 9.12071C14.2238 8.55524 13.7387 8.07006 13.1104 7.66516C13.8224 7.74894 14.4926 7.89205 15.1209 8.0945C15.7492 8.29695 16.3356 8.54477 16.8801 8.83798C17.3827 9.11722 17.7667 9.42787 18.032 9.76994C18.2973 10.112 18.4299 10.4855 18.4299 10.8904V11.7281C18.4299 12.1889 18.2658 12.5833 17.9377 12.9114C17.6096 13.2395 17.2152 13.4036 16.7545 13.4036ZM6.70178 6.70178C5.78029 6.70178 4.99143 6.37367 4.33522 5.71746C3.679 5.06124 3.35089 4.27239 3.35089 3.35089C3.35089 2.4294 3.679 1.64054 4.33522 0.984324C4.99143 0.328108 5.78029 0 6.70178 0C7.62328 0 8.41213 0.328108 9.06835 0.984324C9.72457 1.64054 10.0527 2.4294 10.0527 3.35089C10.0527 4.27239 9.72457 5.06124 9.06835 5.71746C8.41213 6.37367 7.62328 6.70178 6.70178 6.70178ZM15.079 3.35089C15.079 4.27239 14.7509 5.06124 14.0947 5.71746C13.4385 6.37367 12.6496 6.70178 11.7281 6.70178C11.5745 6.70178 11.3791 6.68433 11.1417 6.64942C10.9044 6.61452 10.7089 6.57612 10.5553 6.53424C10.9323 6.08745 11.222 5.5918 11.4244 5.04728C11.6269 4.50276 11.7281 3.9373 11.7281 3.35089C11.7281 2.76449 11.6269 2.19902 11.4244 1.6545C11.222 1.10998 10.9323 0.61433 10.5553 0.167545C10.7508 0.0977343 10.9462 0.0523577 11.1417 0.0314146C11.3372 0.0104715 11.5326 0 11.7281 0C12.6496 0 13.4385 0.328108 14.0947 0.984324C14.7509 1.64054 15.079 2.4294 15.079 3.35089ZM1.67545 11.7281H11.7281V11.0579C11.7281 10.9044 11.6897 10.7647 11.6129 10.6391C11.5361 10.5134 11.4349 10.4157 11.3093 10.3459C10.5553 9.9689 9.79438 9.68617 9.02646 9.49768C8.25855 9.30919 7.48366 9.21495 6.70178 9.21495C5.91991 9.21495 5.14501 9.30919 4.3771 9.49768C3.60919 9.68617 2.84826 9.9689 2.09431 10.3459C1.96865 10.4157 1.86742 10.5134 1.79063 10.6391C1.71384 10.7647 1.67545 10.9044 1.67545 11.0579V11.7281ZM6.70178 5.02634C7.16253 5.02634 7.55696 4.86228 7.88507 4.53417C8.21317 4.20607 8.37723 3.81164 8.37723 3.35089C8.37723 2.89014 8.21317 2.49572 7.88507 2.16761C7.55696 1.8395 7.16253 1.67545 6.70178 1.67545C6.24103 1.67545 5.84661 1.8395 5.5185 2.16761C5.19039 2.49572 5.02634 2.89014 5.02634 3.35089C5.02634 3.81164 5.19039 4.20607 5.5185 4.53417C5.84661 4.86228 6.24103 5.02634 6.70178 5.02634Z" fill="#9F9F9F"/>
</svg>
