<svg width="15" height="12" viewBox="0 0 15 12" fill="none" xmlns="http://www.w3.org/2000/svg">
<path d="M8.41014 5.46549H11.6127C11.6015 5.45043 11.5894 5.4361 11.5764 5.42258L10.6142 4.43358H8.4102L8.41014 5.46549ZM2.7617 4.43358H5.64844V5.46549H2.7617V4.43358Z" fill="white"/>
<path d="M14.6813 7.24316L11.705 6.36896H7.97083C7.72796 6.36896 7.53138 6.16689 7.53138 5.91723V3.98197C7.53138 3.73231 7.72796 3.53024 7.97083 3.53024H9.73538L8.75209 2.51959C8.71132 2.47755 8.66287 2.44419 8.60953 2.42144C8.55619 2.39869 8.499 2.387 8.44125 2.38702H0.439453C0.196846 2.38702 0 2.58946 0 2.83875V9.12899C0 9.3136 0.109277 9.47984 0.27627 9.5485L1.93477 10.2303C2.08623 9.08174 3.04652 8.19333 4.20501 8.19333C5.4682 8.19333 6.49603 9.24985 6.49603 10.5483H8.97445C8.97445 9.24985 10.0022 8.1933 11.2656 8.1933C12.5287 8.1933 13.5566 9.24985 13.5566 10.5483H14.5605C14.8032 10.5483 15 10.3464 15 10.0966V7.67748C15 7.57932 14.9689 7.48383 14.9114 7.40547C14.8539 7.3271 14.7731 7.27012 14.6813 7.24316ZM6.52737 5.91723C6.52737 6.16689 6.33041 6.36896 6.08792 6.36896H2.32236C2.07949 6.36896 1.88291 6.16689 1.88291 5.91723V3.98197C1.88291 3.73231 2.07949 3.53024 2.32236 3.53024H6.08789C6.33041 3.53024 6.52734 3.73231 6.52734 3.98197L6.52737 5.91723ZM0.910137 0.903467H2.05066L2.33288 1.48355H3.31559L3.03325 0.903467H6.28705L6.56924 1.48355H7.55186L7.26964 0.903467H8.4414C8.68412 0.903467 8.88085 0.701241 8.88085 0.451734C8.88085 0.202226 8.68412 0 8.4414 0H0.910137C0.667412 0 0.470684 0.202226 0.470684 0.451734C0.470684 0.701241 0.667412 0.903467 0.910137 0.903467Z" fill="white"/>
<path d="M11.2656 9.09689C10.4869 9.09689 9.85348 9.74802 9.85348 10.5485C9.85348 11.3489 10.4869 12 11.2656 12C12.0443 12 12.6778 11.3489 12.6778 10.5484C12.6778 9.74799 12.0442 9.09689 11.2656 9.09689ZM4.20501 9.09689C3.42636 9.09689 2.79293 9.74802 2.79293 10.5485C2.79293 11.3489 3.42636 12 4.20504 12C4.98372 12 5.61721 11.3489 5.61721 10.5484C5.61721 9.74799 4.98366 9.09689 4.20501 9.09689Z" fill="white"/>
</svg>
