<svg width="18" height="20" viewBox="0 0 18 20" fill="none" xmlns="http://www.w3.org/2000/svg">
<path d="M15.3587 12.7048C15.2137 12.6659 15.0635 12.65 14.9136 12.6578C14.4971 11.6595 13.4047 10.9832 12.1558 10.9832C11.7449 10.9832 11.3399 11.059 10.9682 11.2014C11.1095 10.825 11.3 10.4751 11.5221 10.1592C12.0959 10.4894 12.6024 10.6537 13.0532 10.6537C13.2426 10.6537 13.4222 10.6248 13.5928 10.5672C14.5302 10.2506 14.9333 9.17759 15.3231 8.13994C15.5993 7.40482 15.8848 6.6447 16.3131 6.4049C16.3729 6.37149 16.42 6.31937 16.4473 6.25655C16.4746 6.19373 16.4804 6.12369 16.464 6.05722C16.4476 5.99074 16.4097 5.9315 16.3564 5.88862C16.303 5.84573 16.237 5.82157 16.1685 5.81986C13.1785 5.74173 11.5482 6.82709 11.0203 7.86814C10.711 8.4781 10.7315 9.13791 11.0684 9.71681C10.9319 9.90528 10.8073 10.1021 10.6954 10.3061C10.5071 9.4499 10.2303 8.65431 9.87851 7.96701C10.358 7.40619 10.485 6.7006 10.2249 6.01103C9.81293 4.91888 8.31039 3.66388 5.3289 3.41693C5.26069 3.41129 5.19251 3.42819 5.13484 3.46506C5.07717 3.50192 5.03319 3.55669 5.00967 3.62097C4.98615 3.68525 4.98438 3.75547 5.00464 3.82085C5.02489 3.88623 5.06605 3.94315 5.12179 3.98287C5.52156 4.26767 5.72308 5.05427 5.91797 5.81494C6.19304 6.88873 6.47746 7.99908 7.37511 8.41537C7.59902 8.51924 7.84543 8.57127 8.11679 8.57127C8.47945 8.57127 8.88672 8.47795 9.34363 8.29123C9.73984 9.0767 10.0422 10.0399 10.2098 11.1014C9.6839 10.7087 9.008 10.486 8.2955 10.486C6.87332 10.486 5.68328 11.3599 5.41668 12.5352L5.40664 12.5325C4.84168 12.3786 4.23355 12.5344 3.64812 12.9828L2.58234 13.7989L2.54894 13.6743C2.53017 13.6036 2.49756 13.5374 2.453 13.4794C2.40843 13.4214 2.3528 13.3728 2.28933 13.3364C2.22614 13.2996 2.15626 13.2757 2.08376 13.2661C2.01127 13.2565 1.93758 13.2614 1.86699 13.2805L0.883239 13.5441C0.586677 13.6236 0.410036 13.9295 0.489489 14.2261L1.9157 19.5488C1.9823 19.7972 2.20789 19.9615 2.45371 19.9615C2.50129 19.9615 2.54961 19.9554 2.59769 19.9425L3.5814 19.6789C3.7248 19.6405 3.8448 19.5483 3.91926 19.4193C3.99371 19.2903 4.01355 19.1403 3.97515 18.9969L3.92621 18.8143C4.49742 18.3918 5.02418 18.2736 5.66019 18.4195L8.02836 18.9624C8.23613 19.01 8.43867 19.0338 8.63539 19.0338C9.0434 19.0338 9.42656 18.9315 9.77972 18.7276L15.7019 15.3085C16.3807 14.9165 16.6142 14.0452 16.2223 13.3661C16.0332 13.0382 15.7264 12.8034 15.3587 12.7048ZM11.5778 8.15076C11.9585 7.39994 13.1795 6.5556 15.4057 6.45162C15.138 6.85556 14.9415 7.37861 14.7381 7.92009C14.3995 8.82131 14.0494 9.75322 13.3928 9.97498C13.018 10.1015 12.5229 9.99697 11.9192 9.66529C12.4066 9.13154 12.9756 8.74033 13.4993 8.54732C13.5378 8.53313 13.5732 8.51149 13.6033 8.48365C13.6335 8.4558 13.6578 8.42229 13.675 8.38502C13.6922 8.34776 13.7019 8.30748 13.7035 8.26647C13.7052 8.22546 13.6987 8.18454 13.6845 8.14603C13.6248 7.98408 13.445 7.90115 13.2832 7.96088C12.6303 8.2015 12.0164 8.63506 11.5042 9.18564C11.3777 8.85048 11.4011 8.49908 11.5778 8.15076ZM7.63812 7.84841C7.00941 7.55685 6.76238 6.59248 6.52347 5.65986C6.37992 5.09951 6.24125 4.55826 6.01894 4.12767C8.22043 4.47228 9.34308 5.44396 9.64019 6.23158C9.79383 6.63888 9.75808 7.02943 9.53957 7.37697C9.08289 6.66709 8.54632 6.14709 7.96543 5.85806C7.89123 5.82124 7.80546 5.81538 7.72695 5.84177C7.64844 5.86815 7.58361 5.92463 7.54672 5.99879C7.50982 6.07294 7.50388 6.15871 7.53019 6.23725C7.5565 6.31579 7.61291 6.38067 7.68703 6.41763C8.18265 6.66424 8.64086 7.12474 9.033 7.74173C8.44582 7.9692 7.97746 8.0058 7.63812 7.84841ZM8.29558 11.1111C9.08449 11.1111 9.8114 11.4424 10.24 11.9974C10.2892 12.0611 10.3611 12.1034 10.4407 12.1154C10.5203 12.1274 10.6014 12.1083 10.6672 12.062C11.083 11.7694 11.6117 11.6082 12.1558 11.6082C13.1226 11.6082 13.9661 12.0992 14.3073 12.8306C14.2982 12.8356 14.289 12.8403 14.28 12.8456L10.6618 14.9345C10.6343 14.7392 10.5698 14.551 10.4716 14.38C10.2667 14.0219 9.93625 13.7654 9.54113 13.6579L6.02101 12.6998C6.21074 11.7914 7.15789 11.1111 8.29558 11.1111ZM2.50191 19.3212L1.11093 14.1302L1.96297 13.9019L3.3539 19.0929L2.50191 19.3212ZM15.3895 14.7672L9.46734 18.1863C9.07968 18.4101 8.65476 18.4647 8.16816 18.3531L5.8 17.8103C5.05316 17.639 4.40789 17.7506 3.75449 18.173L2.7575 14.4522L4.02828 13.479C4.45906 13.1491 4.86754 13.0335 5.24265 13.1356L9.37707 14.2609C9.61109 14.3246 9.80715 14.4771 9.92914 14.6903C10.0511 14.9035 10.0832 15.1499 10.0195 15.3839C9.88695 15.8706 9.38343 16.1589 8.89652 16.0263L6.688 15.4252C6.60804 15.4035 6.52272 15.4144 6.4508 15.4555C6.37888 15.4967 6.32624 15.5647 6.30445 15.6447C6.29366 15.6843 6.29078 15.7256 6.29597 15.7663C6.30117 15.807 6.31433 15.8463 6.33471 15.8819C6.35509 15.9175 6.38228 15.9488 6.41475 15.9739C6.44721 15.999 6.4843 16.0175 6.5239 16.0283L8.73238 16.6294C8.86405 16.6653 8.99992 16.6835 9.1364 16.6836C9.75871 16.6835 10.3343 16.3026 10.5684 15.7101L14.5925 13.3868C14.7758 13.281 14.9905 13.2532 15.197 13.3085C15.4034 13.3638 15.5754 13.4953 15.6812 13.6785C15.9008 14.0592 15.77 14.5476 15.3895 14.7672ZM3.42531 4.19963L3.31441 4.23908C3.27572 4.25297 3.23466 4.25909 3.1936 4.25709C3.15254 4.25509 3.11227 4.245 3.07511 4.22741C3.03795 4.20982 3.00463 4.18507 2.97705 4.15458C2.94947 4.12409 2.92818 4.08846 2.9144 4.04973C2.90062 4.01099 2.89461 3.96992 2.89673 3.92886C2.89885 3.88781 2.90905 3.84757 2.92674 3.81046C2.94444 3.77335 2.96928 3.7401 2.99985 3.71261C3.03042 3.68511 3.06611 3.66392 3.10488 3.65025L3.99086 3.33502C4.03349 3.31986 4.07891 3.31414 4.12397 3.31826C4.16904 3.32237 4.21267 3.33622 4.25185 3.35885C4.29104 3.38148 4.32485 3.41234 4.35094 3.44932C4.37703 3.48629 4.39478 3.52848 4.40297 3.57299L4.57289 4.49783C4.58118 4.54293 4.57945 4.5893 4.56781 4.63365C4.55618 4.678 4.53492 4.71925 4.50555 4.75447C4.47619 4.78968 4.43943 4.818 4.39789 4.83742C4.35635 4.85683 4.31105 4.86687 4.26519 4.86681C4.19217 4.86671 4.12148 4.84104 4.0654 4.79426C4.00932 4.74748 3.9714 4.68254 3.9582 4.61072L3.94804 4.55533C3.25363 6.01478 3.10101 7.65982 3.52269 9.23342C3.77539 10.1765 4.21496 11.0346 4.82914 11.7837C4.88057 11.8479 4.90462 11.9298 4.89605 12.0116C4.88749 12.0934 4.84701 12.1686 4.78339 12.2207C4.71977 12.2729 4.63815 12.2979 4.55624 12.2902C4.47433 12.2826 4.39873 12.243 4.34586 12.1799C3.67492 11.3616 3.19488 10.4247 2.91902 9.39513C2.45011 7.64552 2.63105 5.81474 3.42531 4.19963ZM5.16492 2.32818C5.11019 2.26593 5.08243 2.1845 5.08774 2.10179C5.09305 2.01908 5.131 1.94186 5.19324 1.88713C6.05496 1.12931 7.05758 0.593493 8.17324 0.294509C9.92293 -0.174319 11.7537 0.0066182 13.3687 0.800837L13.3293 0.690017C13.3154 0.651323 13.3092 0.610268 13.3112 0.569205C13.3132 0.528141 13.3233 0.487877 13.3409 0.450717C13.3585 0.413558 13.3833 0.380235 13.4138 0.352658C13.4442 0.32508 13.4799 0.30379 13.5186 0.290007C13.5573 0.276224 13.5984 0.27022 13.6395 0.272337C13.6805 0.274455 13.7208 0.284653 13.7579 0.302348C13.795 0.320042 13.8282 0.344885 13.8557 0.375453C13.8832 0.406021 13.9044 0.441714 13.9181 0.480485L14.2333 1.36642C14.2485 1.40906 14.2542 1.45447 14.2501 1.49954C14.246 1.5446 14.2321 1.58823 14.2095 1.62742C14.1869 1.66661 14.156 1.70041 14.1191 1.7265C14.0821 1.75259 14.0399 1.77035 13.9954 1.77853L13.0705 1.94845C12.989 1.96339 12.9049 1.94535 12.8367 1.8983C12.7685 1.85126 12.7218 1.77905 12.7068 1.69756C12.6993 1.65719 12.6999 1.61576 12.7085 1.57563C12.7171 1.53551 12.7336 1.49746 12.7569 1.46368C12.7801 1.42989 12.8099 1.40103 12.8443 1.37873C12.8788 1.35643 12.9173 1.34114 12.9577 1.33373L13.0131 1.32353C11.5537 0.629118 9.90863 0.47654 8.335 0.898181C7.31304 1.17201 6.39484 1.66263 5.60601 2.35638C5.54905 2.40661 5.47571 2.4343 5.39976 2.43424C5.35532 2.43433 5.31137 2.42492 5.27086 2.40663C5.23036 2.38834 5.19423 2.36159 5.16492 2.32818ZM17.2775 10.8945C17.3053 10.9726 17.3009 11.0585 17.2653 11.1334C17.2298 11.2082 17.1659 11.2659 17.0878 11.2937L16.2019 11.6089C16.1592 11.6241 16.1138 11.6299 16.0687 11.6258C16.0237 11.6217 15.98 11.6078 15.9408 11.5852C15.9016 11.5625 15.8678 11.5317 15.8417 11.4947C15.8157 11.4577 15.7979 11.4155 15.7898 11.371L15.6198 10.4461C15.6124 10.4057 15.613 10.3643 15.6216 10.3242C15.6302 10.2841 15.6466 10.246 15.6699 10.2122C15.6932 10.1785 15.723 10.1496 15.7574 10.1273C15.7919 10.105 15.8304 10.0897 15.8707 10.0823C16.0405 10.051 16.2034 10.1635 16.2345 10.3332L16.2447 10.3886C16.9391 8.92916 17.0918 7.28412 16.6701 5.71052C16.3962 4.68845 15.9057 3.77033 15.2119 2.9815C15.1848 2.95069 15.164 2.91484 15.1508 2.876C15.1375 2.83716 15.132 2.79609 15.1347 2.75514C15.1373 2.71418 15.148 2.67415 15.1661 2.63732C15.1842 2.60049 15.2093 2.56758 15.2402 2.54049C15.3024 2.48575 15.3838 2.45798 15.4665 2.46328C15.5492 2.46857 15.6264 2.5065 15.6812 2.56873C16.439 3.43041 16.9749 4.43302 17.2738 5.54877C17.7426 7.29841 17.5617 9.12916 16.7674 10.7443L16.8783 10.7048C17.0406 10.647 17.2196 10.7319 17.2775 10.8945Z" fill="#1B1C1E"/>
</svg>
