<svg width="12" height="20" viewBox="0 0 12 20" fill="none" xmlns="http://www.w3.org/2000/svg">
<path fill-rule="evenodd" clip-rule="evenodd" d="M3.69796 8.43878L2.02338 9.47795C1.39703 9.86652 1.20411 10.6906 1.59289 11.317C1.98146 11.9434 2.8056 12.1363 3.43195 11.7475L4.31062 11.2022C4.45869 11.1104 4.50438 10.9154 4.41235 10.7673C4.32052 10.6191 4.12551 10.5736 3.97745 10.6654L3.09877 11.2107C2.76874 11.4156 2.33447 11.3139 2.12976 10.9838C1.92484 10.6538 2.02657 10.2195 2.35658 10.0148L4.11456 8.92385L4.11392 8.92406C4.16913 8.89013 4.21258 8.84007 4.2384 8.78064L5.03471 6.94262C5.104 6.78256 5.0303 6.59638 4.87023 6.52709C4.71037 6.45781 4.52419 6.53151 4.45491 6.69137L3.69796 8.43878ZM4.88244 0C3.69142 0 2.72473 0.966924 2.72473 2.15771C2.72473 3.34872 3.69142 4.31565 4.88244 4.31565C6.07345 4.31565 7.04014 3.34872 7.04014 2.15771C7.04014 0.966924 6.07345 0 4.88244 0ZM4.88244 0.631834C5.72468 0.631834 6.40831 1.3157 6.40831 2.15771C6.40831 2.99995 5.72465 3.68381 4.88244 3.68381C4.04022 3.68381 3.35656 2.99995 3.35656 2.15771C3.35656 1.3157 4.04019 0.631834 4.88244 0.631834Z" fill="#1B1C1E"/>
<path fill-rule="evenodd" clip-rule="evenodd" d="M5.71108 15.8305C5.78322 16.0872 5.91981 16.3212 6.10788 16.5102L9.11625 19.5356C9.72554 20.1485 10.7177 20.1512 11.3304 19.5419C11.9431 18.9326 11.946 17.9406 11.3367 17.3278L8.69564 14.6717L8.61729 14.1166C8.59307 13.9439 8.433 13.8234 8.2603 13.8478C8.0878 13.872 7.96733 14.0321 7.99176 14.2048L8.08464 14.864C8.09412 14.9317 8.12531 14.9944 8.17353 15.0428L10.8885 17.7732C11.2521 18.1388 11.2503 18.7304 10.885 19.0939C10.5193 19.4572 9.92773 19.4555 9.5642 19.0902L6.55583 16.0647C6.4136 15.9217 6.32152 15.7364 6.29339 15.5367L6.23695 15.1369L7.17227 13.9032C7.27778 13.7644 7.25041 13.566 7.11161 13.4607C6.97261 13.3554 6.77423 13.3825 6.66892 13.5215L2.51778 18.996C2.20628 19.4067 1.62017 19.4871 1.20946 19.1759C0.798756 18.8643 0.718315 18.2782 1.02959 17.8675C1.03043 17.8665 1.03107 17.8656 1.0317 17.8646L5.65063 11.6271C5.6999 11.5605 5.72101 11.4771 5.7094 11.395C5.7094 11.395 5.53228 10.1381 5.10074 7.07771C5.01522 6.4699 5.1275 6.05478 5.37158 5.82479C5.70498 5.51035 6.24668 5.59228 6.62049 5.94483C8.03833 7.28158 8.7106 7.93175 9.02779 8.24261C9.18359 8.42169 9.30408 8.62865 9.3829 8.85254L10.3964 11.7322C10.5615 12.2198 10.3001 12.7499 9.81275 12.9157C9.32477 13.0818 8.7938 12.8205 8.62786 12.3325L7.69591 9.59285C7.67956 9.54486 7.65189 9.50151 7.61524 9.46648L6.44126 8.34284C6.3153 8.22216 6.11523 8.22658 5.99476 8.35254C5.87408 8.4785 5.8785 8.67856 6.00446 8.79924L7.12239 9.86935L8.0297 12.5359C8.30791 13.3539 9.19817 13.7922 10.0162 13.514C10.8342 13.2356 11.2725 12.3455 10.9941 11.5275L9.97871 8.64275C9.87188 8.33902 9.70764 8.05866 9.49494 7.81695C9.48989 7.81105 9.4844 7.80559 9.47894 7.8001C9.16427 7.49156 8.49031 6.8395 7.05417 5.48506C6.42254 4.88965 5.50111 4.83384 4.93795 5.36502C4.58412 5.69883 4.35097 6.28413 4.47524 7.16574L5.0658 11.355L0.524757 17.4878C0.00432917 18.1761 0.139759 19.1578 0.827629 19.6792C1.51632 20.2013 2.49925 20.0663 3.02136 19.3776L5.71108 15.8305Z" fill="#1B1C1E"/>
</svg>
