<svg width="15" height="14" viewBox="0 0 15 14" fill="none" xmlns="http://www.w3.org/2000/svg">
<path d="M0.50293 4.66113C0.467327 3.6589 0.783436 2.68488 1.37988 1.92578L1.50293 1.77734C2.17283 1.00561 3.09439 0.550573 4.06641 0.5C4.59592 0.510498 5.11639 0.650387 5.58887 0.908203L5.79004 1.02637C6.31707 1.36227 6.75514 1.8423 7.05664 2.4209L7.5 3.27246L7.94336 2.4209C8.20717 1.91463 8.5756 1.484 9.0166 1.15918L9.20996 1.02637C9.73334 0.692815 10.3272 0.512183 10.9326 0.5C11.844 0.547164 12.7112 0.949843 13.3682 1.63574L13.4971 1.77734C14.1726 2.55559 14.535 3.59226 14.4971 4.66113V4.67871C14.497 6.0323 13.8206 7.5062 12.7822 8.95508C11.8802 10.2137 10.7377 11.4078 9.63574 12.4268L9.16699 12.8525L9.16602 12.8535C8.69513 13.2737 8.10492 13.5 7.5 13.5C6.97061 13.5 6.45235 13.3269 6.01562 13.002L5.83398 12.8535L5.83301 12.8525C4.59331 11.7479 3.24867 10.3935 2.21777 8.95508C1.17939 7.5062 0.502964 6.0323 0.50293 4.67871V4.66113Z" fill="#1B1C1E" fill-opacity="0.5" stroke="#D7DBE5"/>
</svg>
