<svg width="17" height="17" viewBox="0 0 17 17" fill="none" xmlns="http://www.w3.org/2000/svg">
<circle cx="8.5" cy="8.5" r="8.5" fill="white"/>
<path d="M11.2398 6.65625C11.1755 6.65608 11.1117 6.66761 11.0522 6.6902C10.9927 6.71278 10.9386 6.74597 10.8931 6.78786L7.58666 9.83562L6.10677 8.47149C5.91627 8.29596 5.60359 8.29596 5.41316 8.47149L5.31671 8.56046C5.1262 8.73599 5.1262 9.02419 5.31671 9.19972L7.21585 10.9502C7.41954 11.138 7.75371 11.138 7.95747 10.9502L11.6831 7.51616C11.8736 7.34057 11.8736 7.05236 11.6831 6.87684L11.5867 6.78793C11.5411 6.74603 11.487 6.71283 11.4275 6.69023C11.368 6.66763 11.3042 6.65609 11.2398 6.65625Z" fill="#485648"/>
</svg>
