<svg width="15" height="15" viewBox="0 0 15 15" fill="none" xmlns="http://www.w3.org/2000/svg">
<circle cx="7.5" cy="7.5" r="7.5" fill="#C49A6C"/>
<path d="M9.91876 5.875C9.86198 5.87485 9.80572 5.88503 9.75321 5.90495C9.70071 5.92488 9.65299 5.95417 9.61279 5.99113L6.69537 8.68032L5.38959 7.47668C5.2215 7.3218 4.94561 7.3218 4.77758 7.47668L4.69248 7.55519C4.52438 7.71006 4.52438 7.96436 4.69248 8.11924L6.36819 9.6638C6.54792 9.82946 6.84277 9.82946 7.02256 9.6638L10.3099 6.63374C10.478 6.47881 10.478 6.22451 10.3099 6.06963L10.2248 5.99119C10.1846 5.95422 10.1369 5.92492 10.0844 5.90498C10.0319 5.88504 9.97554 5.87486 9.91876 5.875Z" fill="white"/>
</svg>
