<svg version="1.2" xmlns="http://www.w3.org/2000/svg" viewBox="0 0 2040 500" width="2040" height="500">
	<style>
		tspan { white-space:pre } 
		.s0 { fill: #000000 } 
		.t1 { font-size: 12px;fill: #000000;font-weight: 800;font-family: "KumbhSans-ExtraBold", "Kumbh Sans" } 
	</style>
	<g>
		<g>
			<path class="s0" d="m620.93 485.94h-47c-10.46 0-19.16-8.06-19.94-18.49l-1.41-18.73c-0.22-2.94-4.01-4.01-5.71-1.6q-14.17 20.11-35.42 31.36-25.2 13.33-58.89 13.33-54.5 0-85.25-33.98-30.76-33.98-30.76-94.04v-150.8c0-11.05 8.95-20 20-20h68.11c11.05 0 20 8.95 20 20v121.21q0 29.3 11.28 45.12 11.28 15.82 32.08 15.82c13.87 0 25.29-5.32 33.11-15.97q11.72-15.96 11.72-44.97v-121.21c0-11.05 8.95-20 20-20h68.11c11.05 0 20 8.95 20 20v252.97c0 11.05-8.95 20-20 20z"/>
			<path class="s0" d="m682.9 445.53l10.96-43.84c3.22-12.86 17.85-19.15 29.33-12.51q0.83 0.48 1.68 0.96 15.68 8.79 34.13 14.21 18.45 5.43 33.98 5.42 11.72 0 17.87-3.52 6.15-3.52 6.15-9.96c0-4.3-1.96-8.35-5.86-11.57q-5.86-4.83-15.67-8.94-9.82-4.1-22.41-8.5-18.75-6.74-39.4-16.55-20.66-9.81-35.01-26.95-14.36-17.14-14.36-45.85c0-19.14 4.93-34.62 14.79-48.19q14.8-20.36 41.89-31.49 27.09-11.13 63.72-11.13 52.76 0 106.18 22.84c9.74 4.17 14.46 15.29 10.81 25.23l-15.14 41.29c-4.17 11.37-17.39 16.45-28.1 10.81q-2.51-1.32-5.2-2.62-15.24-7.33-31.2-12.01-15.97-4.68-27.69-4.69-9.67 0.01-14.5 3.37-4.83 3.37-4.83 9.23 0 6.45 5.71 11.28 5.71 4.83 15.53 8.79 9.81 3.96 21.53 8.35 19.62 6.74 40.43 16.55 20.8 9.82 35.3 26.95 14.5 17.14 14.5 46.14c0 19.33-5.23 35.4-15.67 49.37q-15.68 20.95-44.24 32.37-28.57 11.42-67.53 11.43-56.52 0-106.63-23.23c-8.74-4.05-13.41-13.7-11.08-23.04z"/>
			<path class="s0" d="m1054.24 485.94h-68.11c-11.05 0-20-8.95-20-20v-399.45c0-11.05 8.95-20 20-20h68.11c11.05 0 20 8.95 20 20v173.18c0 17.17 21.49 24.92 32.45 11.69q0.07-0.08 0.15-0.17l49.68-52.03c3.77-3.95 9-6.19 14.47-6.19h80.01c17.6 0 26.62 21.1 14.46 33.82l-92.54 96.82c-1.13 1.18-1.17 3.02-0.11 4.25l108.09 125c11.2 12.96 2 33.08-15.13 33.08h-85.55c-6.23 0-12.1-2.9-15.88-7.85l-65.74-85.9c-1.01-1.32-2.87-1.63-4.25-0.71l-18.68 12.37c-0.88 0.59-1.41 1.57-1.41 2.63v59.46c0 11.05-8.95 20-20 20z"/>
			<path class="s0" d="m1590.95 485.94h-57.64c-9.8 0-18.16-7.1-19.74-16.77l-1.49-9.08c-0.42-2.55-3.55-3.55-5.36-1.7q-14.77 15.08-34.65 23.6-22.85 9.81-49.8 9.81-30.18 0-53.61-11.57-23.44-11.57-36.91-31.93-13.48-20.35-13.48-46.44 0-27.54 14.65-48.34 14.64-20.8 40.58-32.67 25.93-11.87 59.33-11.87 18.16 0 35.74 3.66 15.33 3.2 29.98 8.94c2.07 0.81 4.3-0.72 4.3-2.94q0-13.47-8.64-23.73-8.64-10.24-24.02-16.11-15.38-5.85-35.01-5.86c-13.08 0-26.12 1.95-38.53 5.86q-7.3 2.3-13.99 5.37c-10.73 4.92-23.36-0.47-27.23-11.62l-13.41-38.66c-3.52-10.14 1.58-21.3 11.59-25.17q23.2-8.98 46.11-14.29 31.64-7.32 60.64-7.32 46 0 79.83 17.72 33.84 17.73 52.29 50.1 18.45 32.37 18.46 76.32v134.69c0 11.05-8.95 20-20 20zm-143.77-72.95q13.18 0 25.93-5.86 12.75-5.86 20.95-14.94 8.2-9.07 8.2-18.46v-0.29q-10.55-6.15-23.44-9.52-12.9-3.36-25.78-3.37-18.45 0.01-29.15 6.88-10.69 6.89-10.69 18.9 0 7.62 4.39 13.77 4.39 6.16 12.16 9.52 7.76 3.37 17.43 3.37z"/>
			<path class="s0" d="m1751.79 485.94h-68.11c-11.05 0-20-8.95-20-20v-252.97c0-11.05 8.95-20 20-20h55.22c10.45 0 19.15 8.05 19.94 18.48l1.39 18.2c0.23 2.94 4.02 4 5.72 1.59q13.46-19.1 33.08-30.5 23.43-13.62 53.61-13.62 10.25 0 20.8 1.61 1.15 0.18 2.31 0.37c10.7 1.81 18.07 11.74 16.58 22.49l-7.91 57.1c-1.57 11.32-12.26 18.91-23.51 16.91q-10.08-1.8-19.4-1.8-21.39 0-37.06 8.94-15.68 8.94-24.17 25.05-8.5 16.11-8.5 38.38v109.79c0 11.05-8.95 20-20 20v-0.02z"/>
			<path class="s0" d="m2004.69 192.97h-50.08c-16.02 0-29.01 12.99-29.01 29.01v243.95c0 11.05 8.95 20 20 20h68.11c11.05 0 20-8.95 20-20v-243.95c0-16.02-12.99-29.01-29.01-29.01z"/>
		</g>
		<path class="s0" d="m17.78 16.96c0.22 0.06 22.22 6.13 44.52 25 20.95 17.73 45.92 50.46 45.92 105.74v45.34c0 3.12 3.55 5.64 7.93 5.64h31.86c2.1 0 4.12-0.59 5.61-1.65 6.22-4.42 14.67-4.49 20.96-0.17l0.35 0.24c1.48 1.02 3.45 1.58 5.51 1.58h31.29c4.38 0 7.93-2.53 7.93-5.64v-45.34c0-32.16-10.5-59.67-31.2-81.77-16.63-17.75-39.76-31.98-68.76-42.3-48.9-17.4-97.09-17.6-99.12-17.6-3.83 0-7.11 1.95-7.8 4.63-0.69 2.68 1.41 5.33 5 6.3z"/>
		<path class="s0" d="m311.41 478.02c-0.22-0.06-22.22-6.13-44.52-25-20.95-17.73-45.92-50.46-45.92-105.74v-45.34c0-3.12-3.55-5.64-7.93-5.64h-31.86c-2.1 0-4.12 0.59-5.61 1.65-6.22 4.42-14.67 4.49-20.96 0.17l-0.35-0.24c-1.48-1.02-3.45-1.58-5.51-1.58h-31.29c-4.38 0-7.93 2.53-7.93 5.64v45.34c0 32.16 10.5 59.67 31.2 81.77 16.63 17.75 39.76 31.98 68.76 42.3 48.9 17.4 97.09 17.6 99.12 17.6 3.83 0 7.11-1.95 7.8-4.63 0.69-2.68-1.41-5.33-5-6.3z"/>
		<path fill-rule="evenodd" class="s0" d="m60.01 192.55h205.88c11.33 0 20.51 9.18 20.51 20.51v69.23c0 11.33-9.18 20.51-20.51 20.51h-205.88c-11.33 0-20.51-9.18-20.51-20.51v-69.23c0-11.33 9.18-20.51 20.51-20.51z"/>
	</g>
	<text id="I" style="transform: matrix(1,0,0,1,936.54,1425.6)" >
		<tspan x="0" y="0" class="t1">I
</tspan>
	</text>
	<path class="s0" d="m1979.33 151.23q-20.41 0-34.39-14.32-13.99-14.31-13.99-34.72c0-13.61 4.66-24.85 13.99-34.39q13.99-14.31 34.39-14.32c13.6 0 25.45 4.77 34.88 14.32q14.15 14.31 14.15 34.39c0 13.38-4.72 25.18-14.15 34.72q-14.15 14.32-34.88 14.32z"/>
</svg>